<svg width="192" height="123" viewBox="0 0 192 123" fill="none" xmlns="http://www.w3.org/2000/svg">
<g filter="url(#filter0_d)">
<path fill-rule="evenodd" clip-rule="evenodd" d="M7.18821 5.40937L2.06967 4.92729C0.896726 4.81682 0 3.82475 0 2.63756C0 1.38653 0.992348 0.364979 2.23347 0.338367L17.9896 0.000530371C19.266 -0.0268358 20.3152 1.00833 20.3152 2.29483C20.3152 3.45392 19.4575 4.43104 18.316 4.57249L12.0488 5.34902V48.7395H30.645L31.4381 41.6531C31.5682 40.4907 32.5438 39.6121 33.7046 39.6121C34.9643 39.6121 35.9855 40.6413 35.9855 41.9107V46.5887C35.9855 48.5454 35.1862 50.3139 33.8988 51.5808C33.8028 51.7376 33.6797 51.8857 33.5276 52.0198C33.3373 52.1876 33.1313 52.3071 32.9192 52.3834C31.817 53.1298 30.4903 53.5654 29.0626 53.5654H2.28571C1.02335 53.5654 0 52.5341 0 51.2619C0 50.1053 0.851129 49.128 1.98917 48.978L7.18821 48.2924V5.40937ZM66.3964 28.6738C66.2785 26.8123 65.9595 25.0772 65.4469 23.4629C64.7748 21.3464 63.6658 19.7138 62.1348 18.4958L62.1174 18.4819C60.7396 17.3561 58.7446 16.6937 55.9353 16.6937C53.2205 16.6937 50.96 17.3831 49.0775 18.7028L49.071 18.7073C47.2145 19.9962 45.7287 21.8479 44.6408 24.3428C44.0943 25.6535 43.6844 27.0952 43.4183 28.6738H66.3964ZM62.6821 52.5994C60.0839 53.523 57.5444 54 55.0727 54C51.8546 54 48.9239 53.1981 46.3304 51.5647C43.72 49.9205 41.6956 47.5299 40.2332 44.4772L40.2179 44.4453C38.7974 41.3171 38.1222 37.6303 38.1222 33.441C38.1222 29.2492 38.7985 25.5241 40.2095 22.3116L40.2147 22.2998C41.6697 19.0531 43.7304 16.4716 46.4189 14.6293L46.4319 14.6204C49.1874 12.7692 52.3771 11.8678 55.9353 11.8678C59.2106 11.8678 62.0802 12.6281 64.4361 14.2607C66.7869 15.8088 68.5276 17.9622 69.6557 20.6624C70.8193 23.3333 71.3762 26.3745 71.3762 29.7466V30.54C71.3762 32.3212 69.873 33.4996 68.3684 33.4996H43.0553C43.0765 36.9978 43.647 39.8558 44.6934 42.1335C45.7731 44.4839 47.2263 46.2213 49.0306 47.4229C50.8414 48.5811 52.9103 49.1742 55.2883 49.1742C57.1221 49.1742 59.1085 48.8089 61.2582 48.0416L61.2686 48.038C63.2812 47.3343 65.3427 46.2754 67.453 44.8418C68.498 44.1318 69.9418 44.3525 70.7107 45.4092C71.5003 46.4942 71.255 48.0501 70.1107 48.8124C67.6219 50.4706 65.1456 51.7395 62.6821 52.5994ZM101.443 30.195V23.5168C101.443 20.7859 100.679 19.2378 99.5398 18.377L99.5158 18.3589C98.1739 17.3071 96.2811 16.6937 93.666 16.6937C92.2217 16.6937 90.6398 16.8703 88.915 17.2362L88.8726 17.2452C87.627 17.4764 86.3498 17.8047 85.0408 18.2333L84.7065 22.9502C84.6179 24.2004 83.5855 25.1691 82.3418 25.1691C81.1065 25.1691 80.0782 24.2132 79.9787 22.9724L79.7103 19.6253C79.4989 16.9885 81.0303 14.3883 83.6838 13.5731C84.9209 13.1931 86.1406 12.8784 87.3427 12.6301C89.5945 12.1268 91.7282 11.8678 93.7379 11.8678C97.2453 11.8678 100.253 12.6736 102.597 14.4564C105.193 16.392 106.304 19.5018 106.304 23.2995V48.3809L110.718 48.8396C111.886 48.9609 112.773 49.9521 112.773 51.1348C112.773 52.375 111.8 53.3934 110.57 53.4406L105.794 53.624C103.627 53.7071 101.802 52.0088 101.712 49.8256L101.683 49.1457C100.201 50.2772 98.6351 51.2376 96.9852 52.0236L96.9728 52.0295C94.1971 53.3245 91.4366 54 88.7062 54C85.5944 54 82.9167 53.0228 80.8281 50.9765L80.8108 50.9596C78.6914 48.8237 77.7938 45.7154 77.7938 41.9888C77.7938 38.947 78.4012 36.3447 79.894 34.4643C81.2958 32.6984 83.1637 31.5383 85.4158 30.9709L85.4253 30.9685C87.5421 30.4482 89.8368 30.195 92.3003 30.195H101.443ZM101.443 43.42V35.0209H92.444C88.4577 35.0209 85.9838 35.6522 84.6584 36.5907L84.6328 36.6089C83.5213 37.3657 82.7263 38.8539 82.7263 41.6991C82.7263 44.5999 83.4153 46.3876 84.4533 47.4337C85.5859 48.5751 87.0281 49.1742 88.9218 49.1742C90.7606 49.1742 92.8806 48.6589 95.3074 47.5282C97.4006 46.5112 99.4463 45.1464 101.443 43.42ZM137.733 16.7971L138.209 21.6412C138.329 22.8623 139.348 23.7927 140.566 23.7927C141.831 23.7927 142.873 22.7909 142.932 21.5174L143.1 17.8964C143.227 15.158 141.462 12.2168 138.296 11.9347C137.797 11.8902 137.301 11.8678 136.808 11.8678C134.002 11.8678 131.409 12.607 129.069 14.0878C127.895 14.8306 126.733 15.7113 125.582 16.7249L125.55 16.059C125.44 13.8189 123.551 12.0916 121.328 12.1983L116.661 12.4222C115.433 12.4812 114.467 13.5021 114.467 14.7415C114.467 15.8958 115.308 16.8747 116.441 17.0396L120.936 17.6933V48.3194L116.429 48.9749C115.302 49.1388 114.467 50.1115 114.467 51.2583C114.467 52.5325 115.492 53.5654 116.756 53.5654H131.421C132.682 53.5654 133.704 52.5354 133.704 51.2649C133.704 50.1002 132.84 49.1192 131.692 48.9808L125.797 48.2699V23.0239C127.575 21.173 129.344 19.7073 131.099 18.6065L131.122 18.5919C133.029 17.3536 134.963 16.7661 136.952 16.7661C137.212 16.7661 137.473 16.7764 137.733 16.7971ZM174.67 48.3194V25.5451C174.67 22.1486 173.879 20.0295 172.655 18.7963L172.638 18.7792C171.34 17.433 169.561 16.6937 167.109 16.6937C165.225 16.6937 163.057 17.2314 160.58 18.4116L160.557 18.4227C158.42 19.4016 156.284 20.9291 154.156 23.0529V48.3194L158.663 48.9749C159.79 49.1388 160.626 50.1115 160.626 51.2583C160.626 52.5325 159.601 53.5654 158.336 53.5654H145.116C143.851 53.5654 142.826 52.5325 142.826 51.2583C142.826 50.1115 143.662 49.1388 144.789 48.9749L149.296 48.3194V17.6933L144.801 17.0396C143.668 16.8747 142.826 15.8958 142.826 14.7415C142.826 13.5021 143.792 12.4812 145.021 12.4222L149.687 12.1983C151.91 12.0916 153.799 13.8189 153.909 16.059L153.95 16.884C155.572 15.5731 157.261 14.5239 159.02 13.7503C161.825 12.5171 164.55 11.8678 167.181 11.8678C170.705 11.8678 173.731 12.9293 176.108 15.1538C178.609 17.4942 179.629 20.9777 179.531 25.2035V48.3194L184.038 48.9749C185.164 49.1388 186 50.1115 186 51.2583C186 52.5325 184.975 53.5654 183.711 53.5654H170.49C169.226 53.5654 168.201 52.5325 168.201 51.2583C168.201 50.1115 169.037 49.1388 170.163 48.9749L174.67 48.3194Z" fill="black"/>
<path fill-rule="evenodd" clip-rule="evenodd" d="M90.2506 70.6277L87.7319 70.2676C86.6911 70.1189 85.9187 69.2355 85.9187 68.1941C85.9187 67.0741 86.8083 66.1521 87.938 66.1013L90.0868 66.0046C92.5735 65.8926 94.6514 67.8591 94.6514 70.3244V101.239L97.1782 101.6C98.2143 101.748 98.9833 102.628 98.9833 103.664C98.9833 104.816 98.0405 105.75 96.8774 105.75H88.0246C86.8615 105.75 85.9187 104.816 85.9187 103.664C85.9187 102.628 86.6877 101.748 87.7238 101.6L90.2506 101.239V70.6277ZM139.276 70.6277L136.758 70.2676C135.717 70.1189 134.945 69.2356 134.945 68.1941C134.945 67.0741 135.834 66.1521 136.964 66.1013L139.113 66.0046C141.599 65.8926 143.677 67.8591 143.677 70.3244V79.8156C144.47 79.2794 145.288 78.8267 146.132 78.462C148.066 77.6261 149.97 77.1758 151.825 77.1758C153.47 77.1758 154.999 77.5093 156.367 78.2226C157.782 78.9281 158.868 80.0122 159.603 81.4199C160.389 82.8634 160.701 84.5991 160.668 86.5201V101.239L163.195 101.6C164.231 101.748 165 102.628 165 103.664C165 104.816 164.057 105.75 162.894 105.75H154.041C152.878 105.75 151.935 104.816 151.935 103.664C151.935 102.628 152.704 101.748 153.74 101.6L156.267 101.239V86.6983C156.325 84.5547 155.823 83.3668 155.152 82.7207L155.134 82.704C154.353 81.9302 153.293 81.4865 151.777 81.4865C150.623 81.4865 149.256 81.8107 147.651 82.5625L147.627 82.5734C146.325 83.1596 145.006 84.0687 143.677 85.3423V101.239L146.204 101.6C147.24 101.748 148.009 102.628 148.009 103.664C148.009 104.816 147.066 105.75 145.903 105.75H137.05C135.887 105.75 134.945 104.816 134.945 103.664C134.945 102.628 135.714 101.748 136.75 101.6L139.276 101.239V70.6277ZM105.699 71.2949C105.77 71.265 105.813 71.229 105.826 71.2156L105.714 71.105L105.37 70.7642C105.319 70.7839 105.281 70.8098 105.259 70.828L105.595 71.2082L105.679 71.3027C105.685 71.3003 105.692 71.2977 105.699 71.2949ZM105.6 71.3251L105.535 71.2607L105.176 70.9054C105.151 70.9305 105.127 70.9597 105.106 70.9916C105.096 71.0084 105.087 71.0245 105.08 71.0392C105.066 71.0131 105.058 70.9926 105.054 70.9809L105.052 70.9718C105.052 70.9718 105.057 70.9985 105.057 71.0605C105.057 71.0931 105.055 71.1075 105.055 71.1075C105.055 71.1075 105.057 71.0955 105.065 71.0746L105.07 71.0605C105.073 71.0538 105.076 71.0467 105.08 71.0392L105.082 71.0438L105.092 71.0605C105.107 71.0842 105.125 71.1088 105.146 71.1329C105.2 71.194 105.28 71.2549 105.375 71.2949C105.409 71.3089 105.439 71.3178 105.462 71.3234L105.477 71.3266C105.508 71.3328 105.525 71.3329 105.525 71.3329C105.544 71.3329 105.569 71.3309 105.6 71.3251ZM105.454 70.7423C105.465 70.7408 105.477 70.7405 105.477 70.7405C105.489 70.7405 105.505 70.7413 105.525 70.7438C105.542 70.7459 105.561 70.7492 105.583 70.7543C105.615 70.7621 105.653 70.7739 105.694 70.7919C105.795 70.8364 105.865 70.8966 105.904 70.9405L105.793 71.0367L105.454 70.7423ZM105.97 71.0388L105.968 71.0438L105.958 71.0605C105.943 71.0842 105.926 71.1088 105.904 71.1329L105.793 71.0367L105.904 70.9405C105.925 70.9636 105.943 70.9891 105.958 71.0157C105.963 71.0237 105.967 71.0314 105.97 71.0388ZM9.50759 69.3581H23.3572C26.1142 69.3581 28.3492 71.5716 28.3492 74.302V77.1645C28.3492 78.3141 27.4082 79.246 26.2475 79.246C25.1843 79.246 24.2886 78.4598 24.1609 77.4145L23.7034 73.6687H11.214V84.9459H22.8999C24.1019 84.9459 25.0762 85.9109 25.0762 87.1012C25.0762 88.2916 24.1019 89.2565 22.8999 89.2565H11.214V101.439H24.3204L24.7871 97.4642C24.9103 96.415 25.8076 95.6238 26.874 95.6238C28.0343 95.6238 28.975 96.5553 28.975 97.7045V100.687C28.975 102.184 28.3186 103.53 27.2752 104.457C27.2313 104.503 27.1843 104.549 27.134 104.592C27.0414 104.672 26.945 104.741 26.846 104.799C26.0064 105.398 24.9761 105.75 23.8626 105.75H4.10354C2.94179 105.75 2 104.817 2 103.667C2 102.621 2.7833 101.737 3.83064 101.601L6.81328 101.215V74.0102L3.90915 73.7414C2.82718 73.6413 2 72.7419 2 71.6657C2 70.5478 2.89031 69.6289 4.01812 69.5827L9.50759 69.3581ZM52.6368 101.239V86.7437C52.6368 84.5828 52.1232 83.365 51.4556 82.7039L51.4385 82.687C50.6956 81.9302 49.6636 81.4865 48.1467 81.4865C46.9928 81.4865 45.6259 81.8107 44.02 82.5625L43.9967 82.5734C42.6946 83.1596 41.3757 84.0687 40.0466 85.3423V101.239L42.5735 101.6C43.6096 101.748 44.3786 102.628 44.3786 103.664C44.3786 104.816 43.4357 105.75 42.2726 105.75H33.4199C32.2568 105.75 31.314 104.816 31.314 103.664C31.314 102.628 32.0829 101.748 33.1191 101.6L35.6459 101.239V82.0683L33.1276 81.7083C32.0866 81.5595 31.314 80.676 31.314 79.6343C31.314 78.5158 32.201 77.5945 33.3292 77.5413L36.4539 77.3939C38.086 77.3169 39.4963 78.437 39.8167 79.974C40.681 79.3681 41.5756 78.8621 42.5015 78.462C44.4357 77.6261 46.339 77.1758 48.1948 77.1758C50.6761 77.1758 52.8491 77.9137 54.5629 79.4898C56.4008 81.18 57.1044 83.6568 57.0375 86.5255V101.239L59.5643 101.6C60.6005 101.748 61.3694 102.628 61.3694 103.664C61.3694 104.816 60.4266 105.75 59.2635 105.75H50.4108C49.2477 105.75 48.3048 104.816 48.3048 103.664C48.3048 102.628 49.0738 101.748 50.1099 101.6L52.6368 101.239ZM68.7263 83.0243C67.7436 83.9573 67.1476 85.3509 67.1476 87.4587C67.1476 89.427 67.7201 90.7502 68.6846 91.6609C69.6546 92.5769 71.1187 93.145 73.3224 93.145C75.5834 93.145 77.1196 92.5641 78.1588 91.6074C79.186 90.6313 79.7859 89.2282 79.7859 87.1727C79.7859 85.1629 79.2082 83.8545 78.2644 82.985L78.2489 82.9707C77.2827 82.0583 75.8058 81.4865 73.563 81.4865C71.3018 81.4865 69.7655 82.0674 68.7263 83.0243ZM65.8156 94.9826C64.9863 94.2762 64.3021 93.4346 63.772 92.4632L63.7589 92.4393L63.7467 92.415C63.0006 90.9372 62.6506 89.2873 62.6506 87.5064C62.6506 84.4617 63.6175 81.8765 65.6999 79.9692C67.7603 78.0497 70.4812 77.1758 73.6593 77.1758C75.31 77.1758 76.8478 77.4215 78.2472 77.9452L84.1519 77.5447C85.3942 77.4604 86.4489 78.4358 86.4489 79.6691C86.4489 80.6914 85.7152 81.5695 84.7011 81.7608L83.0622 82.07C83.195 82.3207 83.3169 82.5793 83.428 82.8457C83.9789 84.1354 84.2348 85.5562 84.2348 87.0774C84.2348 90.1235 83.2676 92.716 81.1976 94.651C79.1643 96.5822 76.4507 97.4556 73.2742 97.4556C71.9826 97.4556 70.7574 97.302 69.6099 96.9821L68.9854 99.628H75.6809C78.8094 99.628 81.4773 100.226 83.4347 101.673C85.5113 103.149 86.497 105.335 86.497 107.956C86.497 110.865 85.2992 113.225 82.9002 114.802C80.6315 116.345 77.5213 117 73.8037 117C70.1487 117 67.108 116.434 64.9121 115.079C62.6227 113.698 61.3992 111.6 61.3992 108.958C61.3992 107.289 61.9546 105.739 62.9761 104.338L62.9942 104.313C63.4589 103.699 64.0002 103.118 64.612 102.566C64.3263 102.112 64.1909 101.584 64.1909 101.044C64.1909 100.749 64.2117 100.454 64.2591 100.165C64.3022 99.8729 64.3783 99.5061 64.4756 99.0885L64.4894 99.0291L65.094 97.0833L65.1037 97.0554C65.2967 96.5034 65.5339 95.8127 65.8156 94.9826ZM69.5247 103.986C66.7561 105.859 65.848 107.511 65.848 108.862C65.848 110.056 66.3147 110.867 67.3981 111.489L67.4072 111.494C68.6552 112.221 70.7146 112.689 73.8037 112.689C76.9361 112.689 79.0134 112.163 80.2754 111.346L80.2879 111.338C81.4591 110.594 82.0481 109.55 82.0481 107.956C82.0481 106.557 81.5696 105.701 80.7139 105.11C79.7542 104.447 78.1009 103.986 75.4883 103.986H69.5247ZM128.078 81.9513C126.82 81.6408 125.55 81.4865 124.264 81.4865C122.443 81.4865 121.006 81.8518 119.878 82.4975C119.025 82.9855 118.571 83.7051 118.571 84.9799C118.571 85.9633 118.827 86.5098 119.141 86.8415C119.667 87.3573 120.374 87.7996 121.315 88.1386C122.422 88.5034 123.577 88.8391 124.783 89.1453C126.136 89.4806 127.429 89.901 128.661 90.4081C130.034 90.9401 131.204 91.7236 132.114 92.784C133.203 94.0148 133.636 95.6216 133.636 97.3739C133.636 99.2779 133.077 100.987 131.88 102.384C130.786 103.667 129.341 104.585 127.626 105.177C125.973 105.758 124.172 106.036 122.243 106.036C120.972 106.036 119.754 105.935 118.591 105.727C118.325 105.687 118.057 105.643 117.788 105.595C115.391 105.172 113.902 102.997 114.042 100.755L114.2 98.225C114.268 97.1381 115.178 96.2911 116.278 96.2911C117.36 96.2911 118.262 97.1128 118.352 98.1812L118.623 101.406C118.992 101.475 119.375 101.541 119.773 101.604C120.684 101.75 121.555 101.821 122.387 101.821C123.832 101.821 125.079 101.62 126.151 101.249L126.163 101.245C127.233 100.883 127.995 100.373 128.532 99.7572C129.018 99.1709 129.284 98.4555 129.284 97.5169C129.284 96.4513 129.002 95.8935 128.68 95.5746L128.654 95.5484L128.628 95.5212C128.141 94.994 127.46 94.5444 126.52 94.2083L126.481 94.1942C125.397 93.7768 124.247 93.4162 123.029 93.1146L123.019 93.1121C121.704 92.7781 120.435 92.3762 119.213 91.9056C117.847 91.3794 116.67 90.623 115.731 89.6124L115.705 89.5848C114.639 88.3846 114.218 86.8203 114.218 85.1229C114.218 83.3773 114.695 81.7938 115.768 80.51L115.79 80.4836C116.809 79.3125 118.116 78.4714 119.653 77.9388C121.134 77.4254 122.707 77.1758 124.36 77.1758C125.418 77.1758 126.564 77.3009 127.791 77.5358C128.474 77.6465 129.154 77.7994 129.831 77.9936C131.727 78.537 132.767 80.3125 132.708 82.0497L132.637 84.1356C132.599 85.2635 131.665 86.158 130.525 86.158C129.476 86.158 128.586 85.3957 128.434 84.3676L128.078 81.9513ZM103.662 101.239V82.0683L101.143 81.7082C100.102 81.5595 99.3297 80.6762 99.3297 79.6347C99.3297 78.5147 100.219 77.5927 101.349 77.5419L103.498 77.4452C105.984 77.3332 108.062 79.2997 108.062 81.765V101.239L110.589 101.6C111.625 101.748 112.394 102.628 112.394 103.664C112.394 104.816 111.451 105.75 110.288 105.75H101.436C100.273 105.75 99.3297 104.816 99.3297 103.664C99.3297 102.628 100.099 101.748 101.135 101.6L103.662 101.239Z" fill="black"/>
<path d="M106 71.5C106 72.8807 104.881 74 103.5 74C102.119 74 101 72.8807 101 71.5C101 70.1193 102.119 69 103.5 69C104.881 69 106 70.1193 106 71.5Z" fill="black"/>
</g>
<defs>
<filter id="filter0_d" x="0" y="0" width="192" height="123" filterUnits="userSpaceOnUse" color-interpolation-filters="sRGB">
<feFlood flood-opacity="0" result="BackgroundImageFix"/>
<feColorMatrix in="SourceAlpha" type="matrix" values="0 0 0 0 0 0 0 0 0 0 0 0 0 0 0 0 0 0 127 0"/>
<feOffset dx="4" dy="4"/>
<feGaussianBlur stdDeviation="1"/>
<feColorMatrix type="matrix" values="0 0 0 0 0 0 0 0 0 0 0 0 0 0 0 0 0 0 0.25 0"/>
<feBlend mode="normal" in2="BackgroundImageFix" result="effect1_dropShadow"/>
<feBlend mode="normal" in="SourceGraphic" in2="effect1_dropShadow" result="shape"/>
</filter>
</defs>
</svg>
