<svg width="33" height="19" viewBox="0 0 33 19" fill="none" xmlns="http://www.w3.org/2000/svg">
<path d="M0.701872 0C1.08951 0 1.40374 0.314239 1.40374 0.701872V9.15744C1.40374 10.3431 2.36495 11.3043 3.55065 11.3043H4.96667C5.37032 11.3043 5.69755 11.6316 5.69755 12.0352C5.69755 12.4389 5.37032 12.7661 4.96667 12.7661H2.84878C1.27544 12.7661 0 11.4907 0 9.91734V0.701873C0 0.31424 0.314239 0 0.701872 0Z" fill="#A5A5A5"/>
<path d="M9.75267 3.02099C10.6775 3.02099 11.3821 3.31984 11.8665 3.91754C12.351 4.51524 12.5932 5.37931 12.5932 6.50975C12.5932 7.61846 11.6944 8.51724 10.5857 8.51724H9.49885C8.86376 8.51724 8.34893 9.03208 8.34893 9.66717C8.34893 10.3298 8.48104 10.8106 8.74528 11.1094C9.02052 11.3953 9.4499 11.5382 10.0334 11.5382C10.406 11.5382 10.8393 11.4942 11.3331 11.4061C11.7714 11.328 12.19 11.6472 12.2002 12.0923C12.2078 12.4268 11.977 12.7209 11.6486 12.7851C10.9154 12.9284 10.3716 13 10.0169 13C8.92694 13 8.13974 12.7206 7.65531 12.1619C7.18189 11.6032 6.94518 10.7391 6.94518 9.56971V6.50975C6.94518 5.37931 7.17639 4.51524 7.6388 3.91754C8.11222 3.31984 8.81684 3.02099 9.75267 3.02099ZM9.75267 4.4048C9.32329 4.4048 8.98199 4.56722 8.72876 4.89205C8.47554 5.2039 8.34893 5.65867 8.34893 6.25637C8.34893 6.77305 8.76778 7.1919 9.28446 7.1919H10.3124C10.7968 7.1919 11.1894 6.79923 11.1894 6.31484C11.1894 5.69115 11.0573 5.21689 10.7931 4.89205C10.5399 4.56722 10.1931 4.4048 9.75267 4.4048Z" fill="#A5A5A5"/>
<path d="M16.9574 3.02099C17.9043 3.02099 18.5924 3.27436 19.0218 3.78111C19.4622 4.27486 19.6824 5.06747 19.6824 6.15892V12.0973C19.6824 12.4667 19.3829 12.7661 19.0135 12.7661H18.6538C18.4831 12.7661 18.3447 12.6277 18.3447 12.457C18.3447 12.1368 17.8744 12.0039 17.6597 12.2414C17.2026 12.7471 16.7098 13 16.1813 13C15.5427 13 15.0307 12.7401 14.6454 12.2204C14.2711 11.7006 14.0839 10.9925 14.0839 10.096V9.55022C14.0839 8.77061 14.3096 8.12744 14.761 7.62069C15.2124 7.10095 15.8179 6.84108 16.5776 6.84108C16.7643 6.84108 16.9805 6.85789 17.2263 6.89152C17.7686 6.96569 18.2786 6.56982 18.2786 6.02249C18.2786 5.46377 18.1685 5.06097 17.9483 4.81409C17.7391 4.56722 17.4088 4.44378 16.9574 4.44378C16.5939 4.44378 16.1287 4.4899 15.562 4.58214C15.1294 4.65253 14.728 4.32621 14.728 3.88798C14.728 3.55473 14.9651 3.26758 15.2936 3.21155C16.0384 3.08451 16.593 3.02099 16.9574 3.02099ZM16.9244 8.12744C16.462 8.12744 16.1097 8.27036 15.8675 8.55622C15.6253 8.84208 15.5042 9.24488 15.5042 9.76462V9.97901C15.5042 10.4598 15.5977 10.8366 15.7849 11.1094C15.9721 11.3823 16.2088 11.5187 16.495 11.5187C16.7923 11.5187 17.0951 11.3693 17.4033 11.0705C17.6646 10.8153 17.9075 10.4774 18.1319 10.0569C18.2333 9.86691 18.2786 9.65293 18.2786 9.43761C18.2786 8.75252 17.7992 8.14707 17.1143 8.12981C17.0516 8.12823 16.9883 8.12744 16.9244 8.12744Z" fill="#A5A5A5"/>
<path d="M25.4331 3.02099C25.6504 3.02099 25.7964 3.20917 25.7964 3.42653V4.28295C25.7964 4.61386 25.4832 4.87256 25.1523 4.87256C24.744 4.87256 24.3805 5.00022 24.0618 5.25552C23.4251 5.76557 23.3192 6.66137 23.3192 7.47715V12.0642C23.3192 12.4519 23.005 12.7661 22.6173 12.7661C22.2297 12.7661 21.9154 12.4519 21.9154 12.0642V3.91546C21.9154 3.55063 22.2112 3.25487 22.576 3.25487H22.9429C23.1051 3.25487 23.2366 3.38637 23.2366 3.54857C23.2366 3.85134 23.6831 3.9812 23.8904 3.76049C23.9994 3.6444 24.1118 3.54082 24.2275 3.44977C24.6018 3.16392 25.0037 3.02099 25.4331 3.02099Z" fill="#A5A5A5"/>
<path d="M30.8036 3.02099C31.5082 3.02099 32.0477 3.30685 32.422 3.87856C32.8073 4.43728 33 5.23638 33 6.27586V12.0642C33 12.4519 32.6858 12.7661 32.2981 12.7661C31.9105 12.7661 31.5963 12.4519 31.5963 12.0642V6.50975C31.5963 5.21039 31.2384 4.56072 30.5228 4.56072C30.2035 4.56072 29.8787 4.70365 29.5484 4.9895C29.4947 5.03599 29.4422 5.08522 29.3908 5.13721C28.8152 5.71954 28.6897 6.58464 28.6897 7.40344V12.0642C28.6897 12.4519 28.3754 12.7661 27.9878 12.7661C27.6002 12.7661 27.2859 12.4519 27.2859 12.0642V3.91546C27.2859 3.55063 27.5817 3.25487 27.9465 3.25487H28.3134C28.4756 3.25487 28.6071 3.38637 28.6071 3.54857C28.6071 3.85134 29.0536 3.9812 29.2609 3.76049C29.3699 3.6444 29.4823 3.54082 29.598 3.44977C29.9723 3.16392 30.3742 3.02099 30.8036 3.02099Z" fill="#A5A5A5"/>
<path d="M13.2356 6C13.5601 6 13.8231 6.26301 13.8231 6.58744C13.8231 6.91188 13.5601 7.17488 13.2356 7.17488H11.0139C10.1417 7.17488 9.43467 7.88193 9.43467 8.75411C9.43467 9.62629 10.1417 10.3333 11.0139 10.3333H12.9057C13.2259 10.3333 13.4855 10.5929 13.4855 10.9131C13.4855 11.2334 13.2259 11.493 12.9057 11.493H11.0978C10.1793 11.493 9.43467 12.2376 9.43467 13.1561C9.43467 14.0746 10.1793 14.8192 11.0978 14.8192H13.2356C13.5601 14.8192 13.8231 15.0823 13.8231 15.4067C13.8231 15.7311 13.5601 15.9941 13.2356 15.9941H10.9115C9.30354 15.9941 8 14.6906 8 13.0826V8.91154C8 7.30354 9.30354 6 10.9115 6H13.2356Z" fill="black"/>
<path d="M19.7027 8.36502C20.4229 8.36502 20.9743 8.58881 21.3568 9.03638C21.7507 9.47379 21.9476 10.0994 21.9476 10.9131V15.2768C21.9476 15.673 21.6264 15.9941 21.2302 15.9941C20.8341 15.9941 20.5129 15.673 20.5129 15.2768V11.0962C20.5129 10.079 20.1472 9.57042 19.4158 9.57042C19.0895 9.57042 18.7575 9.68232 18.42 9.9061C18.3905 9.92561 18.3615 9.94574 18.3327 9.96649C17.7125 10.4141 17.5423 11.2281 17.5423 11.993V15.2768C17.5423 15.673 17.2211 15.9941 16.825 15.9941C16.4288 15.9941 16.1076 15.673 16.1076 15.2768V9.22326C16.1076 8.85039 16.4099 8.54812 16.7828 8.54812H17.1843C17.3354 8.54812 17.4579 8.67062 17.4579 8.82172C17.4579 9.08659 17.8194 9.2132 18.0171 9.03692C18.1622 8.90753 18.3134 8.79545 18.4706 8.7007C18.8532 8.47692 19.2639 8.36502 19.7027 8.36502Z" fill="black"/>
<path d="M27.0167 8.36502C27.3711 8.36502 27.7024 8.3989 28.0107 8.46666C28.2495 8.51916 28.4917 8.56193 28.7363 8.5591L30.4308 8.53946C30.7441 8.53583 31 8.78877 31 9.10206V9.15591C31 9.44195 30.7648 9.67204 30.4788 9.66574C30.0909 9.65719 29.828 10.0792 29.8807 10.4636C29.8955 10.5716 29.9029 10.6807 29.9029 10.7911V11.1268C29.9029 11.8693 29.6497 12.4695 29.1434 12.9272C28.637 13.3748 27.9281 13.5986 27.0167 13.5986C26.7673 13.5986 26.5374 13.5894 26.3268 13.5709C25.8511 13.5291 25.2107 13.5941 25.2107 14.0716V14.1631C25.2107 14.3259 25.2669 14.448 25.3795 14.5293C25.492 14.6005 25.7114 14.6463 26.0377 14.6667L28.5526 14.8345C29.0702 14.8752 29.4866 15.0532 29.8016 15.3685C30.1279 15.6737 30.2911 16.0603 30.2911 16.5282V17.0927C30.2911 17.5301 30.1955 17.8861 30.0042 18.1608C29.8129 18.4354 29.4584 18.644 28.9408 18.7864C28.4345 18.9288 27.7031 19 26.7466 19C26.3865 19 25.959 18.9644 25.4639 18.8932C25.1439 18.8461 24.8338 18.7901 24.5336 18.7253C24.268 18.6679 24.088 18.4243 24.0994 18.1528C24.1151 17.7779 24.48 17.5196 24.8442 17.6099C25.5872 17.7941 26.2383 17.8861 26.7973 17.8861C27.4049 17.8861 27.855 17.8505 28.1475 17.7793C28.4513 17.7183 28.6483 17.6217 28.7383 17.4894C28.8396 17.3572 28.8902 17.1588 28.8902 16.8944V16.7723C28.8902 16.5383 28.817 16.3552 28.6708 16.223C28.5357 16.0908 28.3388 16.0196 28.08 16.0094L25.5482 15.8568C25.0081 15.8263 24.5974 15.689 24.3161 15.4448C24.0348 15.2007 23.8941 14.8701 23.8941 14.4531V14.1479C23.8941 13.9241 23.956 13.7054 24.0798 13.4918C24.3039 13.1372 24.3746 12.6342 24.2445 12.2354C24.2402 12.222 24.2359 12.2085 24.2317 12.1948C24.153 11.8897 24.1136 11.5184 24.1136 11.081V10.7453C24.1136 10.0231 24.3611 9.44836 24.8562 9.02113C25.3513 8.58372 26.0715 8.36502 27.0167 8.36502ZM27.0167 9.44836C26.5441 9.44836 26.1784 9.56025 25.9196 9.78404C25.672 9.99765 25.5482 10.3079 25.5482 10.7148V11.2183C25.5482 11.5947 25.582 11.8744 25.6495 12.0575C25.7283 12.2304 25.8633 12.3525 26.0546 12.4237C26.2459 12.4847 26.5328 12.5153 26.9154 12.5153C27.433 12.5153 27.8212 12.4034 28.08 12.1796C28.3388 11.9558 28.4682 11.6354 28.4682 11.2183V10.7606C28.4682 10.5606 28.4534 10.373 28.4239 10.1976C28.3629 9.83567 28.0704 9.57167 27.7087 9.50939C27.4836 9.4687 27.253 9.44836 27.0167 9.44836Z" fill="black"/>
</svg>
