<svg width="198" height="127" viewBox="0 0 198 127" fill="none" xmlns="http://www.w3.org/2000/svg">
<rect width="198" height="127" fill="#161616"/>
<path fill-rule="evenodd" clip-rule="evenodd" d="M13.1882 10.4094L8.06967 9.92729C6.89673 9.81682 6 8.82475 6 7.63756C6 6.38653 6.99235 5.36498 8.23347 5.33837L23.9896 5.00053C25.266 4.97316 26.3152 6.00833 26.3152 7.29483C26.3152 8.45392 25.4575 9.43104 24.316 9.57249L18.0488 10.349V53.7395H36.645L37.4381 46.6531C37.5682 45.4907 38.5438 44.6121 39.7046 44.6121C40.9643 44.6121 41.9855 45.6413 41.9855 46.9107V51.5887C41.9855 53.5454 41.1862 55.3139 39.8988 56.5808C39.8028 56.7376 39.6797 56.8857 39.5276 57.0198C39.3373 57.1876 39.1313 57.3071 38.9192 57.3834C37.817 58.1298 36.4903 58.5654 35.0626 58.5654H8.28571C7.02335 58.5654 6 57.5341 6 56.2619C6 55.1053 6.85113 54.128 7.98917 53.978L13.1882 53.2924V10.4094ZM72.3964 33.6738C72.2785 31.8123 71.9595 30.0772 71.4469 28.4629C70.7748 26.3464 69.6658 24.7138 68.1348 23.4958L68.1174 23.4819C66.7396 22.3561 64.7446 21.6937 61.9353 21.6937C59.2205 21.6937 56.96 22.3831 55.0775 23.7028L55.071 23.7073C53.2145 24.9962 51.7287 26.8479 50.6408 29.3428C50.0943 30.6535 49.6844 32.0952 49.4183 33.6738H72.3964ZM68.6821 57.5994C66.0839 58.523 63.5444 59 61.0727 59C57.8546 59 54.9239 58.1981 52.3304 56.5647C49.72 54.9205 47.6956 52.5299 46.2332 49.4772L46.2179 49.4453C44.7974 46.3171 44.1222 42.6303 44.1222 38.441C44.1222 34.2492 44.7985 30.5241 46.2095 27.3116L46.2147 27.2998C47.6697 24.0531 49.7304 21.4716 52.4189 19.6293L52.4319 19.6204C55.1874 17.7692 58.3771 16.8678 61.9353 16.8678C65.2106 16.8678 68.0802 17.6281 70.4361 19.2607C72.7869 20.8088 74.5276 22.9622 75.6557 25.6624C76.8193 28.3333 77.3762 31.3745 77.3762 34.7466V35.54C77.3762 37.3212 75.873 38.4996 74.3684 38.4996H49.0553C49.0765 41.9978 49.647 44.8558 50.6934 47.1335C51.7731 49.4839 53.2263 51.2213 55.0306 52.4229C56.8414 53.5811 58.9103 54.1742 61.2883 54.1742C63.1221 54.1742 65.1085 53.8089 67.2582 53.0416L67.2686 53.038C69.2812 52.3343 71.3427 51.2754 73.453 49.8418C74.498 49.1318 75.9418 49.3525 76.7107 50.4092C77.5003 51.4942 77.255 53.0501 76.1107 53.8124C73.6219 55.4706 71.1456 56.7395 68.6821 57.5994ZM107.443 35.195V28.5168C107.443 25.7859 106.679 24.2378 105.54 23.377L105.516 23.3589C104.174 22.3071 102.281 21.6937 99.666 21.6937C98.2217 21.6937 96.6398 21.8703 94.915 22.2362L94.8726 22.2452C93.627 22.4764 92.3498 22.8047 91.0408 23.2333L90.7065 27.9502C90.6179 29.2004 89.5855 30.1691 88.3418 30.1691C87.1065 30.1691 86.0782 29.2132 85.9787 27.9724L85.7103 24.6253C85.4989 21.9885 87.0303 19.3883 89.6838 18.5731C90.9209 18.1931 92.1406 17.8784 93.3427 17.6301C95.5945 17.1268 97.7282 16.8678 99.7379 16.8678C103.245 16.8678 106.253 17.6736 108.597 19.4564C111.193 21.392 112.304 24.5018 112.304 28.2995V53.3809L116.718 53.8396C117.886 53.9609 118.773 54.9521 118.773 56.1348C118.773 57.375 117.8 58.3934 116.57 58.4406L111.794 58.624C109.627 58.7071 107.802 57.0088 107.712 54.8256L107.683 54.1457C106.201 55.2772 104.635 56.2376 102.985 57.0236L102.973 57.0295C100.197 58.3245 97.4366 59 94.7062 59C91.5944 59 88.9167 58.0228 86.8281 55.9765L86.8108 55.9596C84.6914 53.8237 83.7938 50.7154 83.7938 46.9888C83.7938 43.947 84.4012 41.3447 85.894 39.4643C87.2958 37.6984 89.1637 36.5383 91.4158 35.9709L91.4253 35.9685C93.5421 35.4482 95.8368 35.195 98.3003 35.195H107.443ZM107.443 48.42V40.0209H98.444C94.4577 40.0209 91.9838 40.6522 90.6584 41.5907L90.6328 41.6089C89.5213 42.3657 88.7263 43.8539 88.7263 46.6991C88.7263 49.5999 89.4153 51.3876 90.4533 52.4337C91.5859 53.5751 93.0281 54.1742 94.9218 54.1742C96.7606 54.1742 98.8806 53.6589 101.307 52.5282C103.401 51.5112 105.446 50.1464 107.443 48.42ZM143.733 21.7971L144.209 26.6412C144.329 27.8623 145.348 28.7927 146.566 28.7927C147.831 28.7927 148.873 27.7909 148.932 26.5174L149.1 22.8964C149.227 20.158 147.462 17.2168 144.296 16.9347C143.797 16.8902 143.301 16.8678 142.808 16.8678C140.002 16.8678 137.409 17.607 135.069 19.0878C133.895 19.8306 132.733 20.7113 131.582 21.7249L131.55 21.059C131.44 18.8189 129.551 17.0916 127.328 17.1983L122.661 17.4222C121.433 17.4812 120.467 18.5021 120.467 19.7415C120.467 20.8958 121.308 21.8747 122.441 22.0396L126.936 22.6933V53.3194L122.429 53.9749C121.302 54.1388 120.467 55.1115 120.467 56.2583C120.467 57.5325 121.492 58.5654 122.756 58.5654H137.421C138.682 58.5654 139.704 57.5354 139.704 56.2649C139.704 55.1002 138.84 54.1192 137.692 53.9808L131.797 53.2699V28.0239C133.575 26.173 135.344 24.7073 137.099 23.6065L137.122 23.5919C139.029 22.3536 140.963 21.7661 142.952 21.7661C143.212 21.7661 143.473 21.7764 143.733 21.7971ZM180.67 53.3194V30.5451C180.67 27.1486 179.879 25.0295 178.655 23.7963L178.638 23.7792C177.34 22.433 175.561 21.6937 173.109 21.6937C171.225 21.6937 169.057 22.2314 166.58 23.4116L166.557 23.4227C164.42 24.4016 162.284 25.9291 160.156 28.0529V53.3194L164.663 53.9749C165.79 54.1388 166.626 55.1115 166.626 56.2583C166.626 57.5325 165.601 58.5654 164.336 58.5654H151.116C149.851 58.5654 148.826 57.5325 148.826 56.2583C148.826 55.1115 149.662 54.1388 150.789 53.9749L155.296 53.3194V22.6933L150.801 22.0396C149.668 21.8747 148.826 20.8958 148.826 19.7415C148.826 18.5021 149.792 17.4812 151.021 17.4222L155.687 17.1983C157.91 17.0916 159.799 18.8189 159.909 21.059L159.95 21.884C161.572 20.5731 163.261 19.5239 165.02 18.7503C167.825 17.5171 170.55 16.8678 173.181 16.8678C176.705 16.8678 179.731 17.9293 182.108 20.1538C184.609 22.4942 185.629 25.9777 185.531 30.2035V53.3194L190.038 53.9749C191.164 54.1388 192 55.1115 192 56.2583C192 57.5325 190.975 58.5654 189.711 58.5654H176.49C175.226 58.5654 174.201 57.5325 174.201 56.2583C174.201 55.1115 175.037 54.1388 176.163 53.9749L180.67 53.3194Z" fill="#EEEEEE"/>
<path fill-rule="evenodd" clip-rule="evenodd" d="M96.2506 75.6277L93.7319 75.2676C92.6911 75.1189 91.9187 74.2355 91.9187 73.1941C91.9187 72.0741 92.8083 71.1521 93.938 71.1013L96.0868 71.0046C98.5735 70.8926 100.651 72.8591 100.651 75.3244V106.239L103.178 106.6C104.214 106.748 104.983 107.628 104.983 108.664C104.983 109.816 104.04 110.75 102.877 110.75H94.0246C92.8615 110.75 91.9187 109.816 91.9187 108.664C91.9187 107.628 92.6877 106.748 93.7238 106.6L96.2506 106.239V75.6277ZM145.276 75.6277L142.758 75.2676C141.717 75.1189 140.945 74.2356 140.945 73.1941C140.945 72.0741 141.834 71.1521 142.964 71.1013L145.113 71.0046C147.599 70.8926 149.677 72.8591 149.677 75.3244V84.8156C150.47 84.2794 151.288 83.8267 152.132 83.462C154.066 82.6261 155.97 82.1758 157.825 82.1758C159.47 82.1758 160.999 82.5093 162.367 83.2226C163.782 83.9281 164.868 85.0122 165.603 86.4199C166.389 87.8634 166.701 89.5991 166.668 91.5201V106.239L169.195 106.6C170.231 106.748 171 107.628 171 108.664C171 109.816 170.057 110.75 168.894 110.75H160.041C158.878 110.75 157.935 109.816 157.935 108.664C157.935 107.628 158.704 106.748 159.74 106.6L162.267 106.239V91.6983C162.325 89.5547 161.823 88.3668 161.152 87.7207L161.134 87.704C160.353 86.9302 159.293 86.4865 157.777 86.4865C156.623 86.4865 155.256 86.8107 153.651 87.5625L153.627 87.5734C152.325 88.1596 151.006 89.0687 149.677 90.3423V106.239L152.204 106.6C153.24 106.748 154.009 107.628 154.009 108.664C154.009 109.816 153.066 110.75 151.903 110.75H143.05C141.887 110.75 140.945 109.816 140.945 108.664C140.945 107.628 141.714 106.748 142.75 106.6L145.276 106.239V75.6277ZM111.699 76.2949C111.77 76.265 111.813 76.229 111.826 76.2156L111.714 76.105L111.37 75.7642C111.319 75.7839 111.281 75.8098 111.259 75.828L111.595 76.2082L111.679 76.3027C111.685 76.3003 111.692 76.2977 111.699 76.2949ZM111.6 76.3251L111.535 76.2607L111.176 75.9054C111.151 75.9305 111.127 75.9597 111.106 75.9916C111.096 76.0084 111.087 76.0245 111.08 76.0392C111.066 76.0131 111.058 75.9926 111.054 75.9809L111.052 75.9718C111.052 75.9718 111.057 75.9985 111.057 76.0605C111.057 76.0931 111.055 76.1075 111.055 76.1075C111.055 76.1075 111.057 76.0955 111.065 76.0746L111.07 76.0605C111.073 76.0538 111.076 76.0467 111.08 76.0392L111.082 76.0438L111.092 76.0605C111.107 76.0842 111.125 76.1088 111.146 76.1329C111.2 76.194 111.28 76.2549 111.375 76.2949C111.409 76.3089 111.439 76.3178 111.462 76.3234L111.477 76.3266C111.508 76.3328 111.525 76.3329 111.525 76.3329C111.544 76.3329 111.569 76.3309 111.6 76.3251ZM111.454 75.7423C111.465 75.7408 111.477 75.7405 111.477 75.7405C111.489 75.7405 111.505 75.7413 111.525 75.7438C111.542 75.7459 111.561 75.7492 111.583 75.7543C111.615 75.7621 111.653 75.7739 111.694 75.7919C111.795 75.8364 111.865 75.8966 111.904 75.9405L111.793 76.0367L111.454 75.7423ZM111.97 76.0388L111.968 76.0438L111.958 76.0605C111.943 76.0842 111.926 76.1088 111.904 76.1329L111.793 76.0367L111.904 75.9405C111.925 75.9636 111.943 75.9891 111.958 76.0157C111.963 76.0237 111.967 76.0314 111.97 76.0388ZM15.5076 74.3581H29.3572C32.1142 74.3581 34.3492 76.5716 34.3492 79.302V82.1645C34.3492 83.3141 33.4082 84.246 32.2475 84.246C31.1843 84.246 30.2886 83.4598 30.1609 82.4145L29.7034 78.6687H17.214V89.9459H28.8999C30.1019 89.9459 31.0762 90.9109 31.0762 92.1012C31.0762 93.2916 30.1019 94.2565 28.8999 94.2565H17.214V106.439H30.3204L30.7871 102.464C30.9103 101.415 31.8076 100.624 32.874 100.624C34.0343 100.624 34.975 101.555 34.975 102.704V105.687C34.975 107.184 34.3186 108.53 33.2752 109.457C33.2313 109.503 33.1843 109.549 33.134 109.592C33.0414 109.672 32.945 109.741 32.846 109.799C32.0064 110.398 30.9761 110.75 29.8626 110.75H10.1035C8.94179 110.75 8 109.817 8 108.667C8 107.621 8.7833 106.737 9.83064 106.601L12.8133 106.215V79.0102L9.90915 78.7414C8.82718 78.6413 8 77.7419 8 76.6657C8 75.5478 8.89031 74.6289 10.0181 74.5827L15.5076 74.3581ZM58.6368 106.239V91.7437C58.6368 89.5828 58.1232 88.365 57.4556 87.7039L57.4385 87.687C56.6956 86.9302 55.6636 86.4865 54.1467 86.4865C52.9928 86.4865 51.6259 86.8107 50.02 87.5625L49.9967 87.5734C48.6946 88.1596 47.3757 89.0687 46.0466 90.3423V106.239L48.5735 106.6C49.6096 106.748 50.3786 107.628 50.3786 108.664C50.3786 109.816 49.4357 110.75 48.2726 110.75H39.4199C38.2568 110.75 37.314 109.816 37.314 108.664C37.314 107.628 38.0829 106.748 39.1191 106.6L41.6459 106.239V87.0683L39.1276 86.7083C38.0866 86.5595 37.314 85.676 37.314 84.6343C37.314 83.5158 38.201 82.5945 39.3292 82.5413L42.4539 82.3939C44.086 82.3169 45.4963 83.437 45.8167 84.974C46.681 84.3681 47.5756 83.8621 48.5015 83.462C50.4357 82.6261 52.339 82.1758 54.1948 82.1758C56.6761 82.1758 58.8491 82.9137 60.5629 84.4898C62.4008 86.18 63.1044 88.6568 63.0375 91.5255V106.239L65.5643 106.6C66.6005 106.748 67.3694 107.628 67.3694 108.664C67.3694 109.816 66.4266 110.75 65.2635 110.75H56.4108C55.2477 110.75 54.3048 109.816 54.3048 108.664C54.3048 107.628 55.0738 106.748 56.1099 106.6L58.6368 106.239ZM74.7263 88.0243C73.7436 88.9573 73.1476 90.3509 73.1476 92.4587C73.1476 94.427 73.7201 95.7502 74.6846 96.6609C75.6546 97.5769 77.1187 98.145 79.3224 98.145C81.5834 98.145 83.1196 97.5641 84.1588 96.6074C85.186 95.6313 85.7859 94.2282 85.7859 92.1727C85.7859 90.1629 85.2082 88.8545 84.2644 87.985L84.2489 87.9707C83.2827 87.0583 81.8058 86.4865 79.563 86.4865C77.3018 86.4865 75.7655 87.0674 74.7263 88.0243ZM71.8156 99.9826C70.9863 99.2762 70.3021 98.4346 69.772 97.4632L69.7589 97.4393L69.7467 97.415C69.0006 95.9372 68.6506 94.2873 68.6506 92.5064C68.6506 89.4617 69.6175 86.8765 71.6999 84.9692C73.7603 83.0497 76.4812 82.1758 79.6593 82.1758C81.31 82.1758 82.8478 82.4215 84.2472 82.9452L90.1519 82.5447C91.3942 82.4604 92.4489 83.4358 92.4489 84.6691C92.4489 85.6914 91.7152 86.5695 90.7011 86.7608L89.0622 87.07C89.195 87.3207 89.3169 87.5793 89.428 87.8457C89.9789 89.1354 90.2348 90.5562 90.2348 92.0774C90.2348 95.1235 89.2676 97.716 87.1976 99.651C85.1643 101.582 82.4507 102.456 79.2742 102.456C77.9826 102.456 76.7574 102.302 75.6099 101.982L74.9854 104.628H81.6809C84.8094 104.628 87.4773 105.226 89.4347 106.673C91.5113 108.149 92.497 110.335 92.497 112.956C92.497 115.865 91.2992 118.225 88.9002 119.802C86.6315 121.345 83.5213 122 79.8037 122C76.1487 122 73.108 121.434 70.9121 120.079C68.6227 118.698 67.3992 116.6 67.3992 113.958C67.3992 112.289 67.9546 110.739 68.9761 109.338L68.9942 109.313C69.4589 108.699 70.0002 108.118 70.612 107.566C70.3263 107.112 70.1909 106.584 70.1909 106.044C70.1909 105.749 70.2117 105.454 70.2591 105.165C70.3022 104.873 70.3783 104.506 70.4756 104.089L70.4894 104.029L71.094 102.083L71.1037 102.055C71.2967 101.503 71.5339 100.813 71.8156 99.9826ZM75.5247 108.986C72.7561 110.859 71.848 112.511 71.848 113.862C71.848 115.056 72.3147 115.867 73.3981 116.489L73.4072 116.494C74.6552 117.221 76.7146 117.689 79.8037 117.689C82.9361 117.689 85.0134 117.163 86.2754 116.346L86.2879 116.338C87.4591 115.594 88.0481 114.55 88.0481 112.956C88.0481 111.557 87.5696 110.701 86.7139 110.11C85.7542 109.447 84.1009 108.986 81.4883 108.986H75.5247ZM134.078 86.9513C132.82 86.6408 131.55 86.4865 130.264 86.4865C128.443 86.4865 127.006 86.8518 125.878 87.4975C125.025 87.9855 124.571 88.7051 124.571 89.9799C124.571 90.9633 124.827 91.5098 125.141 91.8415C125.667 92.3573 126.374 92.7996 127.315 93.1386C128.422 93.5034 129.577 93.8391 130.783 94.1453C132.136 94.4806 133.429 94.901 134.661 95.4081C136.034 95.9401 137.204 96.7236 138.114 97.784C139.203 99.0148 139.636 100.622 139.636 102.374C139.636 104.278 139.077 105.987 137.88 107.384C136.786 108.667 135.341 109.585 133.626 110.177C131.973 110.758 130.172 111.036 128.243 111.036C126.972 111.036 125.754 110.935 124.591 110.727C124.325 110.687 124.057 110.643 123.788 110.595C121.391 110.172 119.902 107.997 120.042 105.755L120.2 103.225C120.268 102.138 121.178 101.291 122.278 101.291C123.36 101.291 124.262 102.113 124.352 103.181L124.623 106.406C124.992 106.475 125.375 106.541 125.773 106.604C126.684 106.75 127.555 106.821 128.387 106.821C129.832 106.821 131.079 106.62 132.151 106.249L132.163 106.245C133.233 105.883 133.995 105.373 134.532 104.757C135.018 104.171 135.284 103.456 135.284 102.517C135.284 101.451 135.002 100.894 134.68 100.575L134.654 100.548L134.628 100.521C134.141 99.994 133.46 99.5444 132.52 99.2083L132.481 99.1942C131.397 98.7768 130.247 98.4162 129.029 98.1146L129.019 98.1121C127.704 97.7781 126.435 97.3762 125.213 96.9056C123.847 96.3794 122.67 95.623 121.731 94.6124L121.705 94.5848C120.639 93.3846 120.218 91.8203 120.218 90.1229C120.218 88.3773 120.695 86.7938 121.768 85.51L121.79 85.4836C122.809 84.3125 124.116 83.4714 125.653 82.9388C127.134 82.4254 128.707 82.1758 130.36 82.1758C131.418 82.1758 132.564 82.3009 133.791 82.5358C134.474 82.6465 135.154 82.7994 135.831 82.9936C137.727 83.537 138.767 85.3125 138.708 87.0497L138.637 89.1356C138.599 90.2635 137.665 91.158 136.525 91.158C135.476 91.158 134.586 90.3957 134.434 89.3676L134.078 86.9513ZM109.662 106.239V87.0683L107.143 86.7082C106.102 86.5595 105.33 85.6762 105.33 84.6347C105.33 83.5147 106.219 82.5927 107.349 82.5419L109.498 82.4452C111.984 82.3332 114.062 84.2997 114.062 86.765V106.239L116.589 106.6C117.625 106.748 118.394 107.628 118.394 108.664C118.394 109.816 117.451 110.75 116.288 110.75H107.436C106.273 110.75 105.33 109.816 105.33 108.664C105.33 107.628 106.099 106.748 107.135 106.6L109.662 106.239Z" fill="#EEEEEE"/>
<path d="M112 76.5C112 77.8807 110.881 79 109.5 79C108.119 79 107 77.8807 107 76.5C107 75.1193 108.119 74 109.5 74C110.881 74 112 75.1193 112 76.5Z" fill="#EEEEEE"/>
</svg>
