<svg width="20" height="20" viewBox="0 0 20 20" fill="none" xmlns="http://www.w3.org/2000/svg">
<g id="tick-mark">
<circle id="border" cx="10" cy="10" r="9.25" fill="#4DAE63" stroke="black" stroke-width="1.5"/>
<path id="tick" d="M14.2107 5.194C14.0344 5.09574 13.8405 5.03325 13.6401 5.01011C13.4397 4.98697 13.2368 5.00363 13.0428 5.05914C12.8489 5.11464 12.6677 5.20791 12.5098 5.3336C12.3518 5.45928 12.2202 5.61493 12.1223 5.79164L9.27157 10.9312L7.64005 9.29669C7.4984 9.14977 7.32896 9.03257 7.14162 8.95195C6.95427 8.87133 6.75278 8.82889 6.54889 8.82712C6.345 8.82534 6.1428 8.86427 5.95409 8.94161C5.76537 9.01896 5.59393 9.13319 5.44975 9.27762C5.30557 9.42206 5.19156 9.59382 5.11435 9.78287C5.03714 9.97192 4.99829 10.1745 5.00006 10.3787C5.00183 10.583 5.04419 10.7849 5.12467 10.9725C5.20514 11.1602 5.32212 11.33 5.46878 11.4719L8.53988 14.5485C8.8301 14.84 9.22166 15 9.62551 15L9.83818 14.9846C10.0735 14.9516 10.2981 14.8644 10.494 14.7297C10.69 14.595 10.8521 14.4166 10.9676 14.2085L14.8064 7.28611C14.9045 7.10955 14.9668 6.91538 14.9899 6.71469C15.013 6.51399 14.9964 6.31071 14.9411 6.11643C14.8858 5.92216 14.7928 5.74071 14.6674 5.58244C14.5421 5.42416 14.3869 5.29217 14.2107 5.194Z" fill="white"/>
</g>
</svg>
