<svg width="170" height="51" viewBox="0 0 170 51" fill="none" xmlns="http://www.w3.org/2000/svg">
<g id="adjective">
<rect id="Rectangle 7" y="0.512512" width="170" height="50" rx="25" fill="#11BDD4"/>
<path id="ADJECTIVE" d="M41.281 28.0525L39.521 23.2425C39.4344 23.0292 39.3444 22.7759 39.251 22.4825C39.1577 22.1892 39.0644 21.8725 38.971 21.5325C38.8844 21.8725 38.7944 22.1925 38.701 22.4925C38.6077 22.7859 38.5177 23.0425 38.431 23.2625L36.681 28.0525H41.281ZM46.031 33.5125H43.951C43.7177 33.5125 43.5277 33.4559 43.381 33.3425C43.2344 33.2225 43.1244 33.0759 43.051 32.9025L41.971 29.9525H35.981L34.901 32.9025C34.8477 33.0559 34.7444 33.1959 34.591 33.3225C34.4377 33.4492 34.2477 33.5125 34.021 33.5125H31.921L37.611 19.0525H40.351L46.031 33.5125ZM60.3677 26.2825C60.3677 27.3425 60.1911 28.3159 59.8377 29.2025C59.4844 30.0892 58.9877 30.8525 58.3477 31.4925C57.7077 32.1325 56.9377 32.6292 56.0377 32.9825C55.1377 33.3359 54.1377 33.5125 53.0377 33.5125H47.5277V19.0525H53.0377C54.1377 19.0525 55.1377 19.2325 56.0377 19.5925C56.9377 19.9459 57.7077 20.4425 58.3477 21.0825C58.9877 21.7159 59.4844 22.4759 59.8377 23.3625C60.1911 24.2492 60.3677 25.2225 60.3677 26.2825ZM57.6077 26.2825C57.6077 25.4892 57.5011 24.7792 57.2877 24.1525C57.0811 23.5192 56.7777 22.9859 56.3777 22.5525C55.9844 22.1125 55.5044 21.7759 54.9377 21.5425C54.3777 21.3092 53.7444 21.1925 53.0377 21.1925H50.2277V31.3725H53.0377C53.7444 31.3725 54.3777 31.2559 54.9377 31.0225C55.5044 30.7892 55.9844 30.4559 56.3777 30.0225C56.7777 29.5825 57.0811 29.0492 57.2877 28.4225C57.5011 27.7892 57.6077 27.0759 57.6077 26.2825ZM67.6276 28.3725C67.6276 29.1859 67.5276 29.9192 67.3276 30.5725C67.1276 31.2259 66.8276 31.7825 66.4276 32.2425C66.0343 32.7025 65.5409 33.0559 64.9476 33.3025C64.3543 33.5492 63.6643 33.6725 62.8776 33.6725C62.5176 33.6725 62.1643 33.6492 61.8176 33.6025C61.4709 33.5625 61.1076 33.4959 60.7276 33.4025C60.7476 33.1359 60.7709 32.8692 60.7976 32.6025C60.8243 32.3359 60.8476 32.0692 60.8676 31.8025C60.8876 31.6559 60.9443 31.5392 61.0376 31.4525C61.1376 31.3592 61.2776 31.3125 61.4576 31.3125C61.5709 31.3125 61.7176 31.3359 61.8976 31.3825C62.0843 31.4292 62.3176 31.4525 62.5976 31.4525C62.9776 31.4525 63.3143 31.3992 63.6076 31.2925C63.9009 31.1792 64.1443 31.0025 64.3376 30.7625C64.5376 30.5225 64.6876 30.2125 64.7876 29.8325C64.8876 29.4459 64.9376 28.9792 64.9376 28.4325V19.0525H67.6276V28.3725ZM73.4113 21.1925V25.2025H78.4713V27.2725H73.4113V31.3625H79.8313V33.5125H70.7113V19.0525H79.8313V21.1925H73.4113ZM91.8327 30.1025C91.9794 30.1025 92.1094 30.1592 92.2227 30.2725L93.2827 31.4225C92.6961 32.1492 91.9727 32.7059 91.1127 33.0925C90.2594 33.4792 89.2327 33.6725 88.0327 33.6725C86.9594 33.6725 85.9927 33.4892 85.1327 33.1225C84.2794 32.7559 83.5494 32.2459 82.9427 31.5925C82.3361 30.9392 81.8694 30.1592 81.5427 29.2525C81.2227 28.3459 81.0627 27.3559 81.0627 26.2825C81.0627 25.1959 81.2361 24.2025 81.5827 23.3025C81.9294 22.3959 82.4161 21.6159 83.0427 20.9625C83.6761 20.3092 84.4294 19.8025 85.3027 19.4425C86.1761 19.0759 87.1427 18.8925 88.2027 18.8925C89.2561 18.8925 90.1894 19.0659 91.0027 19.4125C91.8227 19.7592 92.5194 20.2125 93.0927 20.7725L92.1927 22.0225C92.1394 22.1025 92.0694 22.1725 91.9827 22.2325C91.9027 22.2925 91.7894 22.3225 91.6427 22.3225C91.5427 22.3225 91.4394 22.2959 91.3327 22.2425C91.2261 22.1825 91.1094 22.1125 90.9827 22.0325C90.8561 21.9459 90.7094 21.8525 90.5427 21.7525C90.3761 21.6525 90.1827 21.5625 89.9627 21.4825C89.7427 21.3959 89.4861 21.3259 89.1927 21.2725C88.9061 21.2125 88.5727 21.1825 88.1927 21.1825C87.5461 21.1825 86.9527 21.2992 86.4127 21.5325C85.8794 21.7592 85.4194 22.0925 85.0327 22.5325C84.6461 22.9659 84.3461 23.4992 84.1327 24.1325C83.9194 24.7592 83.8127 25.4759 83.8127 26.2825C83.8127 27.0959 83.9261 27.8192 84.1527 28.4525C84.3861 29.0859 84.6994 29.6192 85.0927 30.0525C85.4861 30.4859 85.9494 30.8192 86.4827 31.0525C87.0161 31.2792 87.5894 31.3925 88.2027 31.3925C88.5694 31.3925 88.8994 31.3725 89.1927 31.3325C89.4927 31.2925 89.7661 31.2292 90.0127 31.1425C90.2661 31.0559 90.5027 30.9459 90.7227 30.8125C90.9494 30.6725 91.1727 30.5025 91.3927 30.3025C91.4594 30.2425 91.5294 30.1959 91.6027 30.1625C91.6761 30.1225 91.7527 30.1025 91.8327 30.1025ZM105.225 21.2625H100.865V33.5125H98.1754V21.2625H93.8154V19.0525H105.225V21.2625ZM109.818 33.5125H107.118V19.0525H109.818V33.5125ZM125.445 19.0525L119.605 33.5125H117.175L111.335 19.0525H113.495C113.728 19.0525 113.918 19.1092 114.065 19.2225C114.212 19.3359 114.322 19.4825 114.395 19.6625L117.805 28.4825C117.918 28.7692 118.025 29.0859 118.125 29.4325C118.232 29.7725 118.332 30.1292 118.425 30.5025C118.505 30.1292 118.592 29.7725 118.685 29.4325C118.778 29.0859 118.882 28.7692 118.995 28.4825L122.385 19.6625C122.438 19.5092 122.542 19.3692 122.695 19.2425C122.855 19.1159 123.048 19.0525 123.275 19.0525H125.445ZM129.642 21.1925V25.2025H134.702V27.2725H129.642V31.3625H136.062V33.5125H126.942V19.0525H136.062V21.1925H129.642Z" fill="#073B4C"/>
</g>
</svg>
