<svg width="156" height="60" viewBox="0 0 156 60" fill="none" xmlns="http://www.w3.org/2000/svg">
<g id="adjective">
<rect id="Rectangle 7" width="156" height="60" rx="30" fill="#0AACC2"/>
<path id="ADJECTIVE" d="M25.6972 33.048L23.5852 27.276C23.4812 27.02 23.3732 26.716 23.2612 26.364C23.1492 26.012 23.0372 25.632 22.9252 25.224C22.8212 25.632 22.7132 26.016 22.6012 26.376C22.4892 26.728 22.3812 27.036 22.2772 27.3L20.1772 33.048H25.6972ZM31.3972 39.6H28.9012C28.6212 39.6 28.3932 39.532 28.2172 39.396C28.0412 39.252 27.9092 39.076 27.8212 38.868L26.5252 35.328H19.3372L18.0412 38.868C17.9772 39.052 17.8532 39.22 17.6692 39.372C17.4852 39.524 17.2572 39.6 16.9852 39.6H14.4652L21.2932 22.248H24.5812L31.3972 39.6ZM48.6013 30.924C48.6013 32.196 48.3893 33.364 47.9653 34.428C47.5413 35.492 46.9453 36.408 46.1773 37.176C45.4093 37.944 44.4853 38.54 43.4053 38.964C42.3253 39.388 41.1253 39.6 39.8053 39.6H33.1933V22.248H39.8053C41.1253 22.248 42.3253 22.464 43.4053 22.896C44.4853 23.32 45.4093 23.916 46.1773 24.684C46.9453 25.444 47.5413 26.356 47.9653 27.42C48.3893 28.484 48.6013 29.652 48.6013 30.924ZM45.2893 30.924C45.2893 29.972 45.1613 29.12 44.9053 28.368C44.6573 27.608 44.2933 26.968 43.8133 26.448C43.3413 25.92 42.7653 25.516 42.0853 25.236C41.4133 24.956 40.6533 24.816 39.8053 24.816H36.4333V37.032H39.8053C40.6533 37.032 41.4133 36.892 42.0853 36.612C42.7653 36.332 43.3413 35.932 43.8133 35.412C44.2933 34.884 44.6573 34.244 44.9053 33.492C45.1613 32.732 45.2893 31.876 45.2893 30.924ZM57.3131 33.432C57.3131 34.408 57.1931 35.288 56.9531 36.072C56.7131 36.856 56.3531 37.524 55.8731 38.076C55.4011 38.628 54.8091 39.052 54.0971 39.348C53.3851 39.644 52.5571 39.792 51.6131 39.792C51.1811 39.792 50.7571 39.764 50.3411 39.708C49.9251 39.66 49.4891 39.58 49.0331 39.468C49.0571 39.148 49.0851 38.828 49.1171 38.508C49.1491 38.188 49.1771 37.868 49.2011 37.548C49.2251 37.372 49.2931 37.232 49.4051 37.128C49.5251 37.016 49.6931 36.96 49.9091 36.96C50.0451 36.96 50.2211 36.988 50.4371 37.044C50.6611 37.1 50.9411 37.128 51.2771 37.128C51.7331 37.128 52.1371 37.064 52.4891 36.936C52.8411 36.8 53.1331 36.588 53.3651 36.3C53.6051 36.012 53.7851 35.64 53.9051 35.184C54.0251 34.72 54.0851 34.16 54.0851 33.504V22.248H57.3131V33.432ZM64.2536 24.816V29.628H70.3256V32.112H64.2536V37.02H71.9576V39.6H61.0136V22.248H71.9576V24.816H64.2536ZM86.3593 35.508C86.5353 35.508 86.6913 35.576 86.8273 35.712L88.0993 37.092C87.3953 37.964 86.5273 38.632 85.4953 39.096C84.4713 39.56 83.2393 39.792 81.7993 39.792C80.5113 39.792 79.3513 39.572 78.3193 39.132C77.2953 38.692 76.4193 38.08 75.6913 37.296C74.9633 36.512 74.4033 35.576 74.0113 34.488C73.6273 33.4 73.4353 32.212 73.4353 30.924C73.4353 29.62 73.6433 28.428 74.0593 27.348C74.4753 26.26 75.0593 25.324 75.8113 24.54C76.5713 23.756 77.4753 23.148 78.5233 22.716C79.5713 22.276 80.7313 22.056 82.0033 22.056C83.2673 22.056 84.3873 22.264 85.3633 22.68C86.3473 23.096 87.1833 23.64 87.8713 24.312L86.7913 25.812C86.7273 25.908 86.6433 25.992 86.5393 26.064C86.4433 26.136 86.3073 26.172 86.1313 26.172C86.0113 26.172 85.8873 26.14 85.7593 26.076C85.6313 26.004 85.4913 25.92 85.3393 25.824C85.1873 25.72 85.0113 25.608 84.8113 25.488C84.6113 25.368 84.3793 25.26 84.1153 25.164C83.8513 25.06 83.5433 24.976 83.1913 24.912C82.8473 24.84 82.4473 24.804 81.9913 24.804C81.2153 24.804 80.5033 24.944 79.8553 25.224C79.2153 25.496 78.6633 25.896 78.1993 26.424C77.7353 26.944 77.3753 27.584 77.1193 28.344C76.8633 29.096 76.7353 29.956 76.7353 30.924C76.7353 31.9 76.8713 32.768 77.1433 33.528C77.4233 34.288 77.7993 34.928 78.2713 35.448C78.7433 35.968 79.2993 36.368 79.9393 36.648C80.5793 36.92 81.2673 37.056 82.0033 37.056C82.4433 37.056 82.8393 37.032 83.1913 36.984C83.5513 36.936 83.8793 36.86 84.1753 36.756C84.4793 36.652 84.7633 36.52 85.0273 36.36C85.2993 36.192 85.5673 35.988 85.8313 35.748C85.9113 35.676 85.9953 35.62 86.0833 35.58C86.1713 35.532 86.2633 35.508 86.3593 35.508ZM102.43 24.9H97.1985V39.6H93.9705V24.9H88.7385V22.248H102.43V24.9ZM107.941 39.6H104.701V22.248H107.941V39.6ZM126.694 22.248L119.686 39.6H116.77L109.762 22.248H112.354C112.634 22.248 112.862 22.316 113.038 22.452C113.214 22.588 113.346 22.764 113.434 22.98L117.526 33.564C117.662 33.908 117.79 34.288 117.91 34.704C118.038 35.112 118.158 35.54 118.27 35.988C118.366 35.54 118.47 35.112 118.582 34.704C118.694 34.288 118.818 33.908 118.954 33.564L123.022 22.98C123.086 22.796 123.21 22.628 123.394 22.476C123.586 22.324 123.818 22.248 124.09 22.248H126.694ZM131.73 24.816V29.628H137.802V32.112H131.73V37.02H139.434V39.6H128.49V22.248H139.434V24.816H131.73Z" fill="#073B4C"/>
</g>
</svg>
