<svg width="200" height="60" viewBox="0 0 200 60" fill="none" xmlns="http://www.w3.org/2000/svg">
<g id="adjective">
<rect id="Rectangle 7" width="200" height="60" rx="30" fill="#11BDD4"/>
<path id="ADJECTIVE" d="M47.5506 33.048L45.4386 27.276C45.3346 27.02 45.2266 26.716 45.1146 26.364C45.0026 26.012 44.8906 25.632 44.7786 25.224C44.6746 25.632 44.5666 26.016 44.4546 26.376C44.3426 26.728 44.2346 27.036 44.1306 27.3L42.0306 33.048H47.5506ZM53.2506 39.6H50.7546C50.4746 39.6 50.2466 39.532 50.0706 39.396C49.8946 39.252 49.7626 39.076 49.6746 38.868L48.3786 35.328H41.1906L39.8946 38.868C39.8306 39.052 39.7066 39.22 39.5226 39.372C39.3386 39.524 39.1106 39.6 38.8386 39.6H36.3186L43.1466 22.248H46.4346L53.2506 39.6ZM70.4546 30.924C70.4546 32.196 70.2426 33.364 69.8186 34.428C69.3946 35.492 68.7986 36.408 68.0306 37.176C67.2626 37.944 66.3386 38.54 65.2586 38.964C64.1786 39.388 62.9786 39.6 61.6586 39.6H55.0466V22.248H61.6586C62.9786 22.248 64.1786 22.464 65.2586 22.896C66.3386 23.32 67.2626 23.916 68.0306 24.684C68.7986 25.444 69.3946 26.356 69.8186 27.42C70.2426 28.484 70.4546 29.652 70.4546 30.924ZM67.1426 30.924C67.1426 29.972 67.0146 29.12 66.7586 28.368C66.5106 27.608 66.1466 26.968 65.6666 26.448C65.1946 25.92 64.6186 25.516 63.9386 25.236C63.2666 24.956 62.5066 24.816 61.6586 24.816H58.2866V37.032H61.6586C62.5066 37.032 63.2666 36.892 63.9386 36.612C64.6186 36.332 65.1946 35.932 65.6666 35.412C66.1466 34.884 66.5106 34.244 66.7586 33.492C67.0146 32.732 67.1426 31.876 67.1426 30.924ZM79.1664 33.432C79.1664 34.408 79.0464 35.288 78.8064 36.072C78.5664 36.856 78.2064 37.524 77.7264 38.076C77.2544 38.628 76.6624 39.052 75.9504 39.348C75.2384 39.644 74.4104 39.792 73.4664 39.792C73.0344 39.792 72.6104 39.764 72.1944 39.708C71.7784 39.66 71.3424 39.58 70.8864 39.468C70.9104 39.148 70.9384 38.828 70.9704 38.508C71.0024 38.188 71.0304 37.868 71.0544 37.548C71.0784 37.372 71.1464 37.232 71.2584 37.128C71.3784 37.016 71.5464 36.96 71.7624 36.96C71.8984 36.96 72.0744 36.988 72.2904 37.044C72.5144 37.1 72.7944 37.128 73.1304 37.128C73.5864 37.128 73.9904 37.064 74.3424 36.936C74.6944 36.8 74.9864 36.588 75.2184 36.3C75.4584 36.012 75.6384 35.64 75.7584 35.184C75.8784 34.72 75.9384 34.16 75.9384 33.504V22.248H79.1664V33.432ZM86.1069 24.816V29.628H92.1789V32.112H86.1069V37.02H93.8109V39.6H82.8669V22.248H93.8109V24.816H86.1069ZM108.213 35.508C108.389 35.508 108.545 35.576 108.681 35.712L109.953 37.092C109.249 37.964 108.381 38.632 107.349 39.096C106.325 39.56 105.093 39.792 103.653 39.792C102.365 39.792 101.205 39.572 100.173 39.132C99.1486 38.692 98.2726 38.08 97.5446 37.296C96.8166 36.512 96.2566 35.576 95.8646 34.488C95.4806 33.4 95.2886 32.212 95.2886 30.924C95.2886 29.62 95.4966 28.428 95.9126 27.348C96.3286 26.26 96.9126 25.324 97.6646 24.54C98.4246 23.756 99.3286 23.148 100.377 22.716C101.425 22.276 102.585 22.056 103.857 22.056C105.121 22.056 106.241 22.264 107.217 22.68C108.201 23.096 109.037 23.64 109.725 24.312L108.645 25.812C108.581 25.908 108.497 25.992 108.393 26.064C108.297 26.136 108.161 26.172 107.985 26.172C107.865 26.172 107.741 26.14 107.613 26.076C107.485 26.004 107.345 25.92 107.193 25.824C107.041 25.72 106.865 25.608 106.665 25.488C106.465 25.368 106.233 25.26 105.969 25.164C105.705 25.06 105.397 24.976 105.045 24.912C104.701 24.84 104.301 24.804 103.845 24.804C103.069 24.804 102.357 24.944 101.709 25.224C101.069 25.496 100.517 25.896 100.053 26.424C99.5886 26.944 99.2286 27.584 98.9726 28.344C98.7166 29.096 98.5886 29.956 98.5886 30.924C98.5886 31.9 98.7246 32.768 98.9966 33.528C99.2766 34.288 99.6526 34.928 100.125 35.448C100.597 35.968 101.153 36.368 101.793 36.648C102.433 36.92 103.121 37.056 103.857 37.056C104.297 37.056 104.693 37.032 105.045 36.984C105.405 36.936 105.733 36.86 106.029 36.756C106.333 36.652 106.617 36.52 106.881 36.36C107.153 36.192 107.421 35.988 107.685 35.748C107.765 35.676 107.849 35.62 107.937 35.58C108.025 35.532 108.117 35.508 108.213 35.508ZM124.284 24.9H119.052V39.6H115.824V24.9H110.592V22.248H124.284V24.9ZM129.794 39.6H126.554V22.248H129.794V39.6ZM148.547 22.248L141.539 39.6H138.623L131.615 22.248H134.207C134.487 22.248 134.715 22.316 134.891 22.452C135.067 22.588 135.199 22.764 135.287 22.98L139.379 33.564C139.515 33.908 139.643 34.288 139.763 34.704C139.891 35.112 140.011 35.54 140.123 35.988C140.219 35.54 140.323 35.112 140.435 34.704C140.547 34.288 140.671 33.908 140.807 33.564L144.875 22.98C144.939 22.796 145.063 22.628 145.247 22.476C145.439 22.324 145.671 22.248 145.943 22.248H148.547ZM153.583 24.816V29.628H159.655V32.112H153.583V37.02H161.287V39.6H150.343V22.248H161.287V24.816H153.583Z" fill="#073B4C"/>
</g>
</svg>
