<svg width="171" height="51" viewBox="0 0 171 51" fill="none" xmlns="http://www.w3.org/2000/svg">
<g id="adverb">
<rect id="Rectangle 4" x="0.829773" y="0.350952" width="170" height="50" rx="25" fill="#FFD166"/>
<path id="ADVERB" d="M55.6365 27.2243L53.8765 22.4143C53.7899 22.2009 53.6999 21.9476 53.6065 21.6543C53.5132 21.3609 53.4199 21.0443 53.3265 20.7043C53.2399 21.0443 53.1499 21.3643 53.0565 21.6643C52.9632 21.9576 52.8732 22.2143 52.7865 22.4343L51.0365 27.2243H55.6365ZM60.3865 32.6843H58.3065C58.0732 32.6843 57.8832 32.6276 57.7365 32.5143C57.5899 32.3943 57.4799 32.2476 57.4065 32.0743L56.3265 29.1243H50.3365L49.2565 32.0743C49.2032 32.2276 49.0999 32.3676 48.9465 32.4943C48.7932 32.6209 48.6032 32.6843 48.3765 32.6843H46.2765L51.9665 18.2243H54.7065L60.3865 32.6843ZM74.7233 25.4543C74.7233 26.5143 74.5466 27.4876 74.1933 28.3743C73.8399 29.2609 73.3433 30.0243 72.7033 30.6643C72.0633 31.3043 71.2933 31.8009 70.3933 32.1543C69.4933 32.5076 68.4933 32.6843 67.3933 32.6843H61.8833V18.2243H67.3933C68.4933 18.2243 69.4933 18.4043 70.3933 18.7643C71.2933 19.1176 72.0633 19.6143 72.7033 20.2543C73.3433 20.8876 73.8399 21.6476 74.1933 22.5343C74.5466 23.4209 74.7233 24.3943 74.7233 25.4543ZM71.9633 25.4543C71.9633 24.6609 71.8566 23.9509 71.6433 23.3243C71.4366 22.6909 71.1333 22.1576 70.7333 21.7243C70.3399 21.2843 69.8599 20.9476 69.2933 20.7143C68.7333 20.4809 68.0999 20.3643 67.3933 20.3643H64.5833V30.5443H67.3933C68.0999 30.5443 68.7333 30.4276 69.2933 30.1943C69.8599 29.9609 70.3399 29.6276 70.7333 29.1943C71.1333 28.7543 71.4366 28.2209 71.6433 27.5943C71.8566 26.9609 71.9633 26.2476 71.9633 25.4543ZM88.9998 18.2243L83.1598 32.6843H80.7298L74.8898 18.2243H77.0498C77.2832 18.2243 77.4732 18.2809 77.6198 18.3943C77.7665 18.5076 77.8765 18.6543 77.9498 18.8343L81.3598 27.6543C81.4732 27.9409 81.5798 28.2576 81.6798 28.6043C81.7865 28.9443 81.8865 29.3009 81.9798 29.6743C82.0598 29.3009 82.1465 28.9443 82.2398 28.6043C82.3332 28.2576 82.4365 27.9409 82.5498 27.6543L85.9398 18.8343C85.9932 18.6809 86.0965 18.5409 86.2498 18.4143C86.4098 18.2876 86.6032 18.2243 86.8298 18.2243H88.9998ZM93.1965 20.3643V24.3743H98.2565V26.4443H93.1965V30.5343H99.6165V32.6843H90.4965V18.2243H99.6165V20.3643H93.1965ZM106.37 25.1043C106.877 25.1043 107.317 25.0409 107.69 24.9143C108.07 24.7876 108.38 24.6143 108.62 24.3943C108.867 24.1676 109.05 23.9009 109.17 23.5943C109.29 23.2876 109.35 22.9509 109.35 22.5843C109.35 21.8509 109.107 21.2876 108.62 20.8943C108.14 20.5009 107.404 20.3043 106.41 20.3043H104.69V25.1043H106.37ZM113.29 32.6843H110.86C110.4 32.6843 110.067 32.5043 109.86 32.1443L106.82 27.5143C106.707 27.3409 106.58 27.2176 106.44 27.1443C106.307 27.0709 106.107 27.0343 105.84 27.0343H104.69V32.6843H102V18.2243H106.41C107.39 18.2243 108.23 18.3276 108.93 18.5343C109.637 18.7343 110.214 19.0176 110.66 19.3843C111.114 19.7509 111.447 20.1909 111.66 20.7043C111.874 21.2109 111.98 21.7709 111.98 22.3843C111.98 22.8709 111.907 23.3309 111.76 23.7643C111.62 24.1976 111.414 24.5909 111.14 24.9443C110.874 25.2976 110.54 25.6076 110.14 25.8743C109.747 26.1409 109.297 26.3509 108.79 26.5043C108.964 26.6043 109.124 26.7243 109.27 26.8643C109.417 26.9976 109.55 27.1576 109.67 27.3443L113.29 32.6843ZM120.262 30.5843C120.762 30.5843 121.182 30.5243 121.522 30.4043C121.862 30.2843 122.132 30.1243 122.332 29.9243C122.539 29.7243 122.685 29.4909 122.772 29.2243C122.865 28.9576 122.912 28.6743 122.912 28.3743C122.912 28.0609 122.862 27.7809 122.762 27.5343C122.662 27.2809 122.505 27.0676 122.292 26.8943C122.079 26.7143 121.802 26.5776 121.462 26.4843C121.129 26.3909 120.725 26.3443 120.252 26.3443H117.542V30.5843H120.262ZM117.542 20.3043V24.4843H119.682C120.602 24.4843 121.295 24.3176 121.762 23.9843C122.235 23.6509 122.472 23.1209 122.472 22.3943C122.472 21.6409 122.259 21.1043 121.832 20.7843C121.405 20.4643 120.739 20.3043 119.832 20.3043H117.542ZM119.832 18.2243C120.779 18.2243 121.589 18.3143 122.262 18.4943C122.935 18.6743 123.485 18.9309 123.912 19.2643C124.345 19.5976 124.662 20.0009 124.862 20.4743C125.062 20.9476 125.162 21.4809 125.162 22.0743C125.162 22.4143 125.112 22.7409 125.012 23.0543C124.912 23.3609 124.755 23.6509 124.542 23.9243C124.335 24.1909 124.069 24.4343 123.742 24.6543C123.422 24.8743 123.039 25.0609 122.592 25.2143C124.579 25.6609 125.572 26.7343 125.572 28.4343C125.572 29.0476 125.455 29.6143 125.222 30.1343C124.989 30.6543 124.649 31.1043 124.202 31.4843C123.755 31.8576 123.205 32.1509 122.552 32.3643C121.899 32.5776 121.152 32.6843 120.312 32.6843H114.852V18.2243H119.832Z" fill="#073B4C"/>
</g>
</svg>
