<svg width="200" height="60" viewBox="0 0 200 60" fill="none" xmlns="http://www.w3.org/2000/svg">
<g id="adverb">
<rect id="Rectangle 4" width="200" height="60" rx="30" fill="#FFD166"/>
<path id="ADVERB" d="M63.7549 32.448L61.6429 26.676C61.5389 26.42 61.4309 26.116 61.3189 25.764C61.2069 25.412 61.0949 25.032 60.9829 24.624C60.8789 25.032 60.7709 25.416 60.6589 25.776C60.5469 26.128 60.4389 26.436 60.3349 26.7L58.2349 32.448H63.7549ZM69.4549 39H66.9589C66.6789 39 66.4509 38.932 66.2749 38.796C66.0989 38.652 65.9669 38.476 65.8789 38.268L64.5829 34.728H57.3949L56.0989 38.268C56.0349 38.452 55.9109 38.62 55.7269 38.772C55.5429 38.924 55.3149 39 55.0429 39H52.5229L59.3509 21.648H62.6389L69.4549 39ZM86.659 30.324C86.659 31.596 86.447 32.764 86.023 33.828C85.599 34.892 85.003 35.808 84.235 36.576C83.467 37.344 82.543 37.94 81.463 38.364C80.383 38.788 79.183 39 77.863 39H71.251V21.648H77.863C79.183 21.648 80.383 21.864 81.463 22.296C82.543 22.72 83.467 23.316 84.235 24.084C85.003 24.844 85.599 25.756 86.023 26.82C86.447 27.884 86.659 29.052 86.659 30.324ZM83.347 30.324C83.347 29.372 83.219 28.52 82.963 27.768C82.715 27.008 82.351 26.368 81.871 25.848C81.399 25.32 80.823 24.916 80.143 24.636C79.471 24.356 78.711 24.216 77.863 24.216H74.491V36.432H77.863C78.711 36.432 79.471 36.292 80.143 36.012C80.823 35.732 81.399 35.332 81.871 34.812C82.351 34.284 82.715 33.644 82.963 32.892C83.219 32.132 83.347 31.276 83.347 30.324ZM103.791 21.648L96.7828 39H93.8668L86.8588 21.648H89.4508C89.7308 21.648 89.9588 21.716 90.1348 21.852C90.3108 21.988 90.4428 22.164 90.5308 22.38L94.6228 32.964C94.7588 33.308 94.8868 33.688 95.0068 34.104C95.1348 34.512 95.2548 34.94 95.3668 35.388C95.4628 34.94 95.5668 34.512 95.6788 34.104C95.7908 33.688 95.9148 33.308 96.0508 32.964L100.119 22.38C100.183 22.196 100.307 22.028 100.491 21.876C100.683 21.724 100.915 21.648 101.187 21.648H103.791ZM108.827 24.216V29.028H114.899V31.512H108.827V36.42H116.531V39H105.587V21.648H116.531V24.216H108.827ZM124.636 29.904C125.244 29.904 125.772 29.828 126.22 29.676C126.676 29.524 127.048 29.316 127.336 29.052C127.632 28.78 127.852 28.46 127.996 28.092C128.14 27.724 128.212 27.32 128.212 26.88C128.212 26 127.92 25.324 127.336 24.852C126.76 24.38 125.876 24.144 124.684 24.144H122.62V29.904H124.636ZM132.94 39H130.024C129.472 39 129.072 38.784 128.824 38.352L125.176 32.796C125.04 32.588 124.888 32.44 124.72 32.352C124.56 32.264 124.32 32.22 124 32.22H122.62V39H119.392V21.648H124.684C125.86 21.648 126.868 21.772 127.708 22.02C128.556 22.26 129.248 22.6 129.784 23.04C130.328 23.48 130.728 24.008 130.984 24.624C131.24 25.232 131.368 25.904 131.368 26.64C131.368 27.224 131.28 27.776 131.104 28.296C130.936 28.816 130.688 29.288 130.36 29.712C130.04 30.136 129.64 30.508 129.16 30.828C128.688 31.148 128.148 31.4 127.54 31.584C127.748 31.704 127.94 31.848 128.116 32.016C128.292 32.176 128.452 32.368 128.596 32.592L132.94 39ZM141.305 36.48C141.905 36.48 142.409 36.408 142.817 36.264C143.225 36.12 143.549 35.928 143.789 35.688C144.037 35.448 144.213 35.168 144.317 34.848C144.429 34.528 144.485 34.188 144.485 33.828C144.485 33.452 144.425 33.116 144.305 32.82C144.185 32.516 143.997 32.26 143.741 32.052C143.485 31.836 143.153 31.672 142.745 31.56C142.345 31.448 141.861 31.392 141.293 31.392H138.041V36.48H141.305ZM138.041 24.144V29.16H140.609C141.713 29.16 142.545 28.96 143.105 28.56C143.673 28.16 143.957 27.524 143.957 26.652C143.957 25.748 143.701 25.104 143.189 24.72C142.677 24.336 141.877 24.144 140.789 24.144H138.041ZM140.789 21.648C141.925 21.648 142.897 21.756 143.705 21.972C144.513 22.188 145.173 22.496 145.685 22.896C146.205 23.296 146.585 23.78 146.825 24.348C147.065 24.916 147.185 25.556 147.185 26.268C147.185 26.676 147.125 27.068 147.005 27.444C146.885 27.812 146.697 28.16 146.441 28.488C146.193 28.808 145.873 29.1 145.481 29.364C145.097 29.628 144.637 29.852 144.101 30.036C146.485 30.572 147.677 31.86 147.677 33.9C147.677 34.636 147.537 35.316 147.257 35.94C146.977 36.564 146.569 37.104 146.033 37.56C145.497 38.008 144.837 38.36 144.053 38.616C143.269 38.872 142.373 39 141.365 39H134.813V21.648H140.789Z" fill="#073B4C"/>
</g>
</svg>
