<svg width="138" height="60" viewBox="0 0 138 60" fill="none" xmlns="http://www.w3.org/2000/svg">
<g id="adverb">
<rect id="Rectangle 4" width="138" height="60" rx="30" fill="#FFD166"/>
<path id="ADVERB" d="M32.5482 32.448L30.4362 26.676C30.3322 26.42 30.2242 26.116 30.1122 25.764C30.0002 25.412 29.8882 25.032 29.7762 24.624C29.6722 25.032 29.5642 25.416 29.4522 25.776C29.3402 26.128 29.2322 26.436 29.1282 26.7L27.0282 32.448H32.5482ZM38.2482 39H35.7522C35.4722 39 35.2442 38.932 35.0682 38.796C34.8922 38.652 34.7602 38.476 34.6722 38.268L33.3762 34.728H26.1882L24.8922 38.268C24.8282 38.452 24.7042 38.62 24.5202 38.772C24.3362 38.924 24.1082 39 23.8362 39H21.3162L28.1442 21.648H31.4322L38.2482 39ZM55.4523 30.324C55.4523 31.596 55.2403 32.764 54.8163 33.828C54.3923 34.892 53.7963 35.808 53.0283 36.576C52.2603 37.344 51.3363 37.94 50.2563 38.364C49.1763 38.788 47.9763 39 46.6563 39H40.0443V21.648H46.6563C47.9763 21.648 49.1763 21.864 50.2563 22.296C51.3363 22.72 52.2603 23.316 53.0283 24.084C53.7963 24.844 54.3923 25.756 54.8163 26.82C55.2403 27.884 55.4523 29.052 55.4523 30.324ZM52.1403 30.324C52.1403 29.372 52.0123 28.52 51.7563 27.768C51.5083 27.008 51.1443 26.368 50.6643 25.848C50.1923 25.32 49.6163 24.916 48.9363 24.636C48.2643 24.356 47.5043 24.216 46.6563 24.216H43.2843V36.432H46.6563C47.5043 36.432 48.2643 36.292 48.9363 36.012C49.6163 35.732 50.1923 35.332 50.6643 34.812C51.1443 34.284 51.5083 33.644 51.7563 32.892C52.0123 32.132 52.1403 31.276 52.1403 30.324ZM72.5842 21.648L65.5762 39H62.6602L55.6522 21.648H58.2442C58.5242 21.648 58.7522 21.716 58.9282 21.852C59.1042 21.988 59.2362 22.164 59.3242 22.38L63.4162 32.964C63.5522 33.308 63.6802 33.688 63.8002 34.104C63.9282 34.512 64.0482 34.94 64.1602 35.388C64.2562 34.94 64.3602 34.512 64.4722 34.104C64.5842 33.688 64.7082 33.308 64.8442 32.964L68.9122 22.38C68.9762 22.196 69.1002 22.028 69.2842 21.876C69.4762 21.724 69.7082 21.648 69.9802 21.648H72.5842ZM77.6202 24.216V29.028H83.6922V31.512H77.6202V36.42H85.3242V39H74.3802V21.648H85.3242V24.216H77.6202ZM93.4289 29.904C94.0369 29.904 94.5649 29.828 95.0129 29.676C95.4689 29.524 95.8409 29.316 96.1289 29.052C96.4249 28.78 96.6449 28.46 96.7889 28.092C96.9329 27.724 97.0049 27.32 97.0049 26.88C97.0049 26 96.7129 25.324 96.1289 24.852C95.5529 24.38 94.6689 24.144 93.4769 24.144H91.4129V29.904H93.4289ZM101.733 39H98.8169C98.2649 39 97.8649 38.784 97.6169 38.352L93.9689 32.796C93.8329 32.588 93.6809 32.44 93.5129 32.352C93.3529 32.264 93.1129 32.22 92.7929 32.22H91.4129V39H88.1849V21.648H93.4769C94.6529 21.648 95.6609 21.772 96.5009 22.02C97.3489 22.26 98.0409 22.6 98.5769 23.04C99.1209 23.48 99.5209 24.008 99.7769 24.624C100.033 25.232 100.161 25.904 100.161 26.64C100.161 27.224 100.073 27.776 99.8969 28.296C99.7289 28.816 99.4809 29.288 99.1529 29.712C98.8329 30.136 98.4329 30.508 97.9529 30.828C97.4809 31.148 96.9409 31.4 96.3329 31.584C96.5409 31.704 96.7329 31.848 96.9089 32.016C97.0849 32.176 97.2449 32.368 97.3889 32.592L101.733 39ZM110.099 36.48C110.699 36.48 111.203 36.408 111.611 36.264C112.019 36.12 112.343 35.928 112.583 35.688C112.831 35.448 113.007 35.168 113.111 34.848C113.223 34.528 113.279 34.188 113.279 33.828C113.279 33.452 113.219 33.116 113.099 32.82C112.979 32.516 112.791 32.26 112.535 32.052C112.279 31.836 111.947 31.672 111.539 31.56C111.139 31.448 110.655 31.392 110.087 31.392H106.835V36.48H110.099ZM106.835 24.144V29.16H109.403C110.507 29.16 111.339 28.96 111.899 28.56C112.467 28.16 112.751 27.524 112.751 26.652C112.751 25.748 112.495 25.104 111.983 24.72C111.471 24.336 110.671 24.144 109.583 24.144H106.835ZM109.583 21.648C110.719 21.648 111.691 21.756 112.499 21.972C113.307 22.188 113.967 22.496 114.479 22.896C114.999 23.296 115.379 23.78 115.619 24.348C115.859 24.916 115.979 25.556 115.979 26.268C115.979 26.676 115.919 27.068 115.799 27.444C115.679 27.812 115.491 28.16 115.235 28.488C114.987 28.808 114.667 29.1 114.275 29.364C113.891 29.628 113.431 29.852 112.895 30.036C115.279 30.572 116.471 31.86 116.471 33.9C116.471 34.636 116.331 35.316 116.051 35.94C115.771 36.564 115.363 37.104 114.827 37.56C114.291 38.008 113.631 38.36 112.847 38.616C112.063 38.872 111.167 39 110.159 39H103.607V21.648H109.583Z" fill="#073B4C"/>
</g>
</svg>
