<svg width="200" height="60" viewBox="0 0 200 60" fill="none" xmlns="http://www.w3.org/2000/svg">
<g id="conjuction">
<rect id="Rectangle 8" width="200" height="60" rx="30" fill="#0CB0A9"/>
<path id="CONJUNCTION" d="M26.227 35.6223C26.403 35.6223 26.559 35.6903 26.695 35.8263L27.967 37.2063C27.263 38.0783 26.395 38.7463 25.363 39.2103C24.339 39.6743 23.107 39.9063 21.667 39.9063C20.379 39.9063 19.219 39.6863 18.187 39.2463C17.163 38.8063 16.287 38.1943 15.559 37.4103C14.831 36.6263 14.271 35.6903 13.879 34.6023C13.495 33.5143 13.303 32.3263 13.303 31.0383C13.303 29.7343 13.511 28.5423 13.927 27.4623C14.343 26.3743 14.927 25.4383 15.679 24.6543C16.439 23.8703 17.343 23.2623 18.391 22.8303C19.439 22.3903 20.599 22.1703 21.871 22.1703C23.135 22.1703 24.255 22.3783 25.231 22.7943C26.215 23.2103 27.051 23.7543 27.739 24.4263L26.659 25.9263C26.595 26.0223 26.511 26.1063 26.407 26.1783C26.311 26.2503 26.175 26.2863 25.999 26.2863C25.879 26.2863 25.755 26.2543 25.627 26.1903C25.499 26.1183 25.359 26.0343 25.207 25.9383C25.055 25.8343 24.879 25.7223 24.679 25.6023C24.479 25.4823 24.247 25.3743 23.983 25.2783C23.719 25.1743 23.411 25.0903 23.059 25.0263C22.715 24.9543 22.315 24.9183 21.859 24.9183C21.083 24.9183 20.371 25.0583 19.723 25.3383C19.083 25.6103 18.531 26.0103 18.067 26.5383C17.603 27.0583 17.243 27.6983 16.987 28.4583C16.731 29.2103 16.603 30.0703 16.603 31.0383C16.603 32.0143 16.739 32.8823 17.011 33.6423C17.291 34.4023 17.667 35.0423 18.139 35.5623C18.611 36.0823 19.167 36.4823 19.807 36.7623C20.447 37.0343 21.135 37.1703 21.871 37.1703C22.311 37.1703 22.707 37.1463 23.059 37.0983C23.419 37.0503 23.747 36.9743 24.043 36.8703C24.347 36.7663 24.631 36.6343 24.895 36.4743C25.167 36.3063 25.435 36.1023 25.699 35.8623C25.779 35.7903 25.863 35.7343 25.951 35.6943C26.039 35.6463 26.131 35.6223 26.227 35.6223ZM46.3511 31.0383C46.3511 32.3103 46.1391 33.4903 45.7151 34.5783C45.2991 35.6583 44.7071 36.5943 43.9391 37.3863C43.1711 38.1783 42.2471 38.7983 41.1671 39.2463C40.0871 39.6863 38.8871 39.9063 37.5671 39.9063C36.2551 39.9063 35.0591 39.6863 33.9791 39.2463C32.8991 38.7983 31.9711 38.1783 31.1951 37.3863C30.4271 36.5943 29.8311 35.6583 29.4071 34.5783C28.9831 33.4903 28.7711 32.3103 28.7711 31.0383C28.7711 29.7663 28.9831 28.5903 29.4071 27.5103C29.8311 26.4223 30.4271 25.4823 31.1951 24.6903C31.9711 23.8983 32.8991 23.2823 33.9791 22.8423C35.0591 22.3943 36.2551 22.1703 37.5671 22.1703C38.4471 22.1703 39.2751 22.2743 40.0511 22.4823C40.8271 22.6823 41.5391 22.9703 42.1871 23.3463C42.8351 23.7143 43.4151 24.1663 43.9271 24.7023C44.4471 25.2303 44.8871 25.8223 45.2471 26.4783C45.6071 27.1343 45.8791 27.8463 46.0631 28.6143C46.2551 29.3823 46.3511 30.1903 46.3511 31.0383ZM43.0511 31.0383C43.0511 30.0863 42.9231 29.2343 42.6671 28.4823C42.4111 27.7223 42.0471 27.0783 41.5751 26.5503C41.1031 26.0223 40.5271 25.6183 39.8471 25.3383C39.1751 25.0583 38.4151 24.9183 37.5671 24.9183C36.7191 24.9183 35.9551 25.0583 35.2751 25.3383C34.6031 25.6183 34.0271 26.0223 33.5471 26.5503C33.0751 27.0783 32.7111 27.7223 32.4551 28.4823C32.1991 29.2343 32.0711 30.0863 32.0711 31.0383C32.0711 31.9903 32.1991 32.8463 32.4551 33.6063C32.7111 34.3583 33.0751 34.9983 33.5471 35.5263C34.0271 36.0463 34.6031 36.4463 35.2751 36.7263C35.9551 37.0063 36.7191 37.1463 37.5671 37.1463C38.4151 37.1463 39.1751 37.0063 39.8471 36.7263C40.5271 36.4463 41.1031 36.0463 41.5751 35.5263C42.0471 34.9983 42.4111 34.3583 42.6671 33.6063C42.9231 32.8463 43.0511 31.9903 43.0511 31.0383ZM63.814 22.3623V39.7143H62.158C61.902 39.7143 61.686 39.6743 61.51 39.5943C61.342 39.5063 61.178 39.3623 61.018 39.1623L51.958 27.5943C52.006 28.1223 52.03 28.6103 52.03 29.0583V39.7143H49.186V22.3623H50.878C51.014 22.3623 51.13 22.3703 51.226 22.3863C51.33 22.3943 51.418 22.4183 51.49 22.4583C51.57 22.4903 51.646 22.5423 51.718 22.6143C51.79 22.6783 51.87 22.7663 51.958 22.8783L61.054 34.4943C61.03 34.2143 61.01 33.9383 60.994 33.6663C60.978 33.3943 60.97 33.1423 60.97 32.9103V22.3623H63.814ZM74.2901 33.5463C74.2901 34.5223 74.1701 35.4023 73.9301 36.1863C73.6901 36.9703 73.3301 37.6383 72.8501 38.1903C72.3781 38.7423 71.7861 39.1663 71.0741 39.4623C70.3621 39.7583 69.5341 39.9063 68.5901 39.9063C68.1581 39.9063 67.7341 39.8783 67.3181 39.8223C66.9021 39.7743 66.4661 39.6943 66.0101 39.5823C66.0341 39.2623 66.0621 38.9423 66.0941 38.6223C66.1261 38.3023 66.1541 37.9823 66.1781 37.6623C66.2021 37.4863 66.2701 37.3463 66.3821 37.2423C66.5021 37.1303 66.6701 37.0743 66.8861 37.0743C67.0221 37.0743 67.1981 37.1023 67.4141 37.1583C67.6381 37.2143 67.9181 37.2423 68.2541 37.2423C68.7101 37.2423 69.1141 37.1783 69.4661 37.0503C69.8181 36.9143 70.1101 36.7023 70.3421 36.4143C70.5821 36.1263 70.7621 35.7543 70.8821 35.2983C71.0021 34.8343 71.0621 34.2743 71.0621 33.6183V22.3623H74.2901V33.5463ZM84.9746 37.1103C85.5986 37.1103 86.1546 37.0063 86.6426 36.7983C87.1386 36.5903 87.5546 36.2983 87.8906 35.9223C88.2266 35.5463 88.4826 35.0903 88.6586 34.5543C88.8426 34.0183 88.9346 33.4183 88.9346 32.7543V22.3623H92.1626V32.7543C92.1626 33.7863 91.9946 34.7423 91.6586 35.6223C91.3306 36.4943 90.8546 37.2503 90.2306 37.8903C89.6146 38.5223 88.8626 39.0183 87.9746 39.3783C87.0866 39.7303 86.0866 39.9063 84.9746 39.9063C83.8546 39.9063 82.8506 39.7303 81.9626 39.3783C81.0746 39.0183 80.3186 38.5223 79.6946 37.8903C79.0786 37.2503 78.6026 36.4943 78.2666 35.6223C77.9386 34.7423 77.7746 33.7863 77.7746 32.7543V22.3623H81.0026V32.7423C81.0026 33.4063 81.0906 34.0063 81.2666 34.5423C81.4506 35.0783 81.7106 35.5383 82.0466 35.9223C82.3906 36.2983 82.8066 36.5903 83.2946 36.7983C83.7906 37.0063 84.3506 37.1103 84.9746 37.1103ZM110.431 22.3623V39.7143H108.775C108.519 39.7143 108.303 39.6743 108.127 39.5943C107.959 39.5063 107.795 39.3623 107.635 39.1623L98.5751 27.5943C98.6231 28.1223 98.6471 28.6103 98.6471 29.0583V39.7143H95.8031V22.3623H97.4951C97.6311 22.3623 97.7471 22.3703 97.8431 22.3863C97.9471 22.3943 98.0351 22.4183 98.1071 22.4583C98.1871 22.4903 98.2631 22.5423 98.3351 22.6143C98.4071 22.6783 98.4871 22.7663 98.5751 22.8783L107.671 34.4943C107.647 34.2143 107.627 33.9383 107.611 33.6663C107.595 33.3943 107.587 33.1423 107.587 32.9103V22.3623H110.431ZM126.211 35.6223C126.387 35.6223 126.543 35.6903 126.679 35.8263L127.951 37.2063C127.247 38.0783 126.379 38.7463 125.347 39.2103C124.323 39.6743 123.091 39.9063 121.651 39.9063C120.363 39.9063 119.203 39.6863 118.171 39.2463C117.147 38.8063 116.271 38.1943 115.543 37.4103C114.815 36.6263 114.255 35.6903 113.863 34.6023C113.479 33.5143 113.287 32.3263 113.287 31.0383C113.287 29.7343 113.495 28.5423 113.911 27.4623C114.327 26.3743 114.911 25.4383 115.663 24.6543C116.423 23.8703 117.327 23.2623 118.375 22.8303C119.423 22.3903 120.583 22.1703 121.855 22.1703C123.119 22.1703 124.239 22.3783 125.215 22.7943C126.199 23.2103 127.035 23.7543 127.723 24.4263L126.643 25.9263C126.579 26.0223 126.495 26.1063 126.391 26.1783C126.295 26.2503 126.159 26.2863 125.983 26.2863C125.863 26.2863 125.739 26.2543 125.611 26.1903C125.483 26.1183 125.343 26.0343 125.191 25.9383C125.039 25.8343 124.863 25.7223 124.663 25.6023C124.463 25.4823 124.231 25.3743 123.967 25.2783C123.703 25.1743 123.395 25.0903 123.043 25.0263C122.699 24.9543 122.299 24.9183 121.843 24.9183C121.067 24.9183 120.355 25.0583 119.707 25.3383C119.067 25.6103 118.515 26.0103 118.051 26.5383C117.587 27.0583 117.227 27.6983 116.971 28.4583C116.715 29.2103 116.587 30.0703 116.587 31.0383C116.587 32.0143 116.723 32.8823 116.995 33.6423C117.275 34.4023 117.651 35.0423 118.123 35.5623C118.595 36.0823 119.151 36.4823 119.791 36.7623C120.431 37.0343 121.119 37.1703 121.855 37.1703C122.295 37.1703 122.691 37.1463 123.043 37.0983C123.403 37.0503 123.731 36.9743 124.027 36.8703C124.331 36.7663 124.615 36.6343 124.879 36.4743C125.151 36.3063 125.419 36.1023 125.683 35.8623C125.763 35.7903 125.847 35.7343 125.935 35.6943C126.023 35.6463 126.115 35.6223 126.211 35.6223ZM142.283 25.0143H137.051V39.7143H133.823V25.0143H128.591V22.3623H142.283V25.0143ZM147.793 39.7143H144.553V22.3623H147.793V39.7143ZM168.226 31.0383C168.226 32.3103 168.014 33.4903 167.59 34.5783C167.174 35.6583 166.582 36.5943 165.814 37.3863C165.046 38.1783 164.122 38.7983 163.042 39.2463C161.962 39.6863 160.762 39.9063 159.442 39.9063C158.13 39.9063 156.934 39.6863 155.854 39.2463C154.774 38.7983 153.846 38.1783 153.07 37.3863C152.302 36.5943 151.706 35.6583 151.282 34.5783C150.858 33.4903 150.646 32.3103 150.646 31.0383C150.646 29.7663 150.858 28.5903 151.282 27.5103C151.706 26.4223 152.302 25.4823 153.07 24.6903C153.846 23.8983 154.774 23.2823 155.854 22.8423C156.934 22.3943 158.13 22.1703 159.442 22.1703C160.322 22.1703 161.15 22.2743 161.926 22.4823C162.702 22.6823 163.414 22.9703 164.062 23.3463C164.71 23.7143 165.29 24.1663 165.802 24.7023C166.322 25.2303 166.762 25.8223 167.122 26.4783C167.482 27.1343 167.754 27.8463 167.938 28.6143C168.13 29.3823 168.226 30.1903 168.226 31.0383ZM164.926 31.0383C164.926 30.0863 164.798 29.2343 164.542 28.4823C164.286 27.7223 163.922 27.0783 163.45 26.5503C162.978 26.0223 162.402 25.6183 161.722 25.3383C161.05 25.0583 160.29 24.9183 159.442 24.9183C158.594 24.9183 157.83 25.0583 157.15 25.3383C156.478 25.6183 155.902 26.0223 155.422 26.5503C154.95 27.0783 154.586 27.7223 154.33 28.4823C154.074 29.2343 153.946 30.0863 153.946 31.0383C153.946 31.9903 154.074 32.8463 154.33 33.6063C154.586 34.3583 154.95 34.9983 155.422 35.5263C155.902 36.0463 156.478 36.4463 157.15 36.7263C157.83 37.0063 158.594 37.1463 159.442 37.1463C160.29 37.1463 161.05 37.0063 161.722 36.7263C162.402 36.4463 162.978 36.0463 163.45 35.5263C163.922 34.9983 164.286 34.3583 164.542 33.6063C164.798 32.8463 164.926 31.9903 164.926 31.0383ZM185.689 22.3623V39.7143H184.033C183.777 39.7143 183.561 39.6743 183.385 39.5943C183.217 39.5063 183.053 39.3623 182.893 39.1623L173.833 27.5943C173.881 28.1223 173.905 28.6103 173.905 29.0583V39.7143H171.061V22.3623H172.753C172.889 22.3623 173.005 22.3703 173.101 22.3863C173.205 22.3943 173.293 22.4183 173.365 22.4583C173.445 22.4903 173.521 22.5423 173.593 22.6143C173.665 22.6783 173.745 22.7663 173.833 22.8783L182.929 34.4943C182.905 34.2143 182.885 33.9383 182.869 33.6663C182.853 33.3943 182.845 33.1423 182.845 32.9103V22.3623H185.689Z" fill="#073B4C"/>
</g>
</svg>
