<svg width="206" height="60" viewBox="0 0 206 60" fill="none" xmlns="http://www.w3.org/2000/svg">
<g id="conjuction">
<rect id="Rectangle 8" width="205.398" height="60" rx="30" fill="#0CB0A9"/>
<path id="CONJUNCTION" d="M28.9258 35.6223C29.1018 35.6223 29.2578 35.6903 29.3938 35.8263L30.6658 37.2063C29.9618 38.0783 29.0938 38.7463 28.0618 39.2103C27.0378 39.6743 25.8058 39.9063 24.3658 39.9063C23.0778 39.9063 21.9178 39.6863 20.8858 39.2463C19.8618 38.8063 18.9858 38.1943 18.2578 37.4103C17.5298 36.6263 16.9698 35.6903 16.5778 34.6023C16.1938 33.5143 16.0018 32.3263 16.0018 31.0383C16.0018 29.7343 16.2098 28.5423 16.6258 27.4623C17.0418 26.3743 17.6258 25.4383 18.3778 24.6543C19.1378 23.8703 20.0418 23.2623 21.0898 22.8303C22.1378 22.3903 23.2978 22.1703 24.5698 22.1703C25.8338 22.1703 26.9538 22.3783 27.9298 22.7943C28.9138 23.2103 29.7498 23.7543 30.4378 24.4263L29.3578 25.9263C29.2938 26.0223 29.2098 26.1063 29.1058 26.1783C29.0098 26.2503 28.8738 26.2863 28.6978 26.2863C28.5778 26.2863 28.4538 26.2543 28.3258 26.1903C28.1978 26.1183 28.0578 26.0343 27.9058 25.9383C27.7538 25.8343 27.5778 25.7223 27.3778 25.6023C27.1778 25.4823 26.9458 25.3743 26.6818 25.2783C26.4178 25.1743 26.1098 25.0903 25.7578 25.0263C25.4138 24.9543 25.0138 24.9183 24.5578 24.9183C23.7818 24.9183 23.0698 25.0583 22.4218 25.3383C21.7818 25.6103 21.2298 26.0103 20.7658 26.5383C20.3018 27.0583 19.9418 27.6983 19.6858 28.4583C19.4298 29.2103 19.3018 30.0703 19.3018 31.0383C19.3018 32.0143 19.4378 32.8823 19.7098 33.6423C19.9898 34.4023 20.3658 35.0423 20.8378 35.5623C21.3098 36.0823 21.8658 36.4823 22.5058 36.7623C23.1458 37.0343 23.8338 37.1703 24.5698 37.1703C25.0098 37.1703 25.4058 37.1463 25.7578 37.0983C26.1178 37.0503 26.4458 36.9743 26.7418 36.8703C27.0458 36.7663 27.3298 36.6343 27.5938 36.4743C27.8658 36.3063 28.1338 36.1023 28.3978 35.8623C28.4778 35.7903 28.5618 35.7343 28.6498 35.6943C28.7378 35.6463 28.8298 35.6223 28.9258 35.6223ZM49.05 31.0383C49.05 32.3103 48.838 33.4903 48.414 34.5783C47.998 35.6583 47.406 36.5943 46.638 37.3863C45.87 38.1783 44.946 38.7983 43.866 39.2463C42.786 39.6863 41.586 39.9063 40.266 39.9063C38.954 39.9063 37.758 39.6863 36.678 39.2463C35.598 38.7983 34.67 38.1783 33.894 37.3863C33.126 36.5943 32.53 35.6583 32.106 34.5783C31.682 33.4903 31.47 32.3103 31.47 31.0383C31.47 29.7663 31.682 28.5903 32.106 27.5103C32.53 26.4223 33.126 25.4823 33.894 24.6903C34.67 23.8983 35.598 23.2823 36.678 22.8423C37.758 22.3943 38.954 22.1703 40.266 22.1703C41.146 22.1703 41.974 22.2743 42.75 22.4823C43.526 22.6823 44.238 22.9703 44.886 23.3463C45.534 23.7143 46.114 24.1663 46.626 24.7023C47.146 25.2303 47.586 25.8223 47.946 26.4783C48.306 27.1343 48.578 27.8463 48.762 28.6143C48.954 29.3823 49.05 30.1903 49.05 31.0383ZM45.75 31.0383C45.75 30.0863 45.622 29.2343 45.366 28.4823C45.11 27.7223 44.746 27.0783 44.274 26.5503C43.802 26.0223 43.226 25.6183 42.546 25.3383C41.874 25.0583 41.114 24.9183 40.266 24.9183C39.418 24.9183 38.654 25.0583 37.974 25.3383C37.302 25.6183 36.726 26.0223 36.246 26.5503C35.774 27.0783 35.41 27.7223 35.154 28.4823C34.898 29.2343 34.77 30.0863 34.77 31.0383C34.77 31.9903 34.898 32.8463 35.154 33.6063C35.41 34.3583 35.774 34.9983 36.246 35.5263C36.726 36.0463 37.302 36.4463 37.974 36.7263C38.654 37.0063 39.418 37.1463 40.266 37.1463C41.114 37.1463 41.874 37.0063 42.546 36.7263C43.226 36.4463 43.802 36.0463 44.274 35.5263C44.746 34.9983 45.11 34.3583 45.366 33.6063C45.622 32.8463 45.75 31.9903 45.75 31.0383ZM66.5128 22.3623V39.7143H64.8568C64.6008 39.7143 64.3848 39.6743 64.2088 39.5943C64.0408 39.5063 63.8768 39.3623 63.7168 39.1623L54.6568 27.5943C54.7048 28.1223 54.7288 28.6103 54.7288 29.0583V39.7143H51.8848V22.3623H53.5768C53.7128 22.3623 53.8288 22.3703 53.9248 22.3863C54.0288 22.3943 54.1168 22.4183 54.1888 22.4583C54.2688 22.4903 54.3448 22.5423 54.4168 22.6143C54.4888 22.6783 54.5688 22.7663 54.6568 22.8783L63.7528 34.4943C63.7288 34.2143 63.7088 33.9383 63.6928 33.6663C63.6768 33.3943 63.6688 33.1423 63.6688 32.9103V22.3623H66.5128ZM76.989 33.5463C76.989 34.5223 76.869 35.4023 76.629 36.1863C76.389 36.9703 76.029 37.6383 75.549 38.1903C75.077 38.7423 74.485 39.1663 73.773 39.4623C73.061 39.7583 72.233 39.9063 71.289 39.9063C70.857 39.9063 70.433 39.8783 70.017 39.8223C69.601 39.7743 69.165 39.6943 68.709 39.5823C68.733 39.2623 68.761 38.9423 68.793 38.6223C68.825 38.3023 68.853 37.9823 68.877 37.6623C68.901 37.4863 68.969 37.3463 69.081 37.2423C69.201 37.1303 69.369 37.0743 69.585 37.0743C69.721 37.0743 69.897 37.1023 70.113 37.1583C70.337 37.2143 70.617 37.2423 70.953 37.2423C71.409 37.2423 71.813 37.1783 72.165 37.0503C72.517 36.9143 72.809 36.7023 73.041 36.4143C73.281 36.1263 73.461 35.7543 73.581 35.2983C73.701 34.8343 73.761 34.2743 73.761 33.6183V22.3623H76.989V33.5463ZM87.6735 37.1103C88.2975 37.1103 88.8535 37.0063 89.3415 36.7983C89.8375 36.5903 90.2535 36.2983 90.5895 35.9223C90.9255 35.5463 91.1815 35.0903 91.3575 34.5543C91.5415 34.0183 91.6335 33.4183 91.6335 32.7543V22.3623H94.8615V32.7543C94.8615 33.7863 94.6935 34.7423 94.3575 35.6223C94.0295 36.4943 93.5535 37.2503 92.9295 37.8903C92.3135 38.5223 91.5615 39.0183 90.6735 39.3783C89.7855 39.7303 88.7855 39.9063 87.6735 39.9063C86.5535 39.9063 85.5495 39.7303 84.6615 39.3783C83.7735 39.0183 83.0175 38.5223 82.3935 37.8903C81.7775 37.2503 81.3015 36.4943 80.9655 35.6223C80.6375 34.7423 80.4735 33.7863 80.4735 32.7543V22.3623H83.7015V32.7423C83.7015 33.4063 83.7895 34.0063 83.9655 34.5423C84.1495 35.0783 84.4095 35.5383 84.7455 35.9223C85.0895 36.2983 85.5055 36.5903 85.9935 36.7983C86.4895 37.0063 87.0495 37.1103 87.6735 37.1103ZM113.13 22.3623V39.7143H111.474C111.218 39.7143 111.002 39.6743 110.826 39.5943C110.658 39.5063 110.494 39.3623 110.334 39.1623L101.274 27.5943C101.322 28.1223 101.346 28.6103 101.346 29.0583V39.7143H98.502V22.3623H100.194C100.33 22.3623 100.446 22.3703 100.542 22.3863C100.646 22.3943 100.734 22.4183 100.806 22.4583C100.886 22.4903 100.962 22.5423 101.034 22.6143C101.106 22.6783 101.186 22.7663 101.274 22.8783L110.37 34.4943C110.346 34.2143 110.326 33.9383 110.31 33.6663C110.294 33.3943 110.286 33.1423 110.286 32.9103V22.3623H113.13ZM128.91 35.6223C129.086 35.6223 129.242 35.6903 129.378 35.8263L130.65 37.2063C129.946 38.0783 129.078 38.7463 128.046 39.2103C127.022 39.6743 125.79 39.9063 124.35 39.9063C123.062 39.9063 121.902 39.6863 120.87 39.2463C119.846 38.8063 118.97 38.1943 118.242 37.4103C117.514 36.6263 116.954 35.6903 116.562 34.6023C116.178 33.5143 115.986 32.3263 115.986 31.0383C115.986 29.7343 116.194 28.5423 116.61 27.4623C117.026 26.3743 117.61 25.4383 118.362 24.6543C119.122 23.8703 120.026 23.2623 121.074 22.8303C122.122 22.3903 123.282 22.1703 124.554 22.1703C125.818 22.1703 126.938 22.3783 127.914 22.7943C128.898 23.2103 129.734 23.7543 130.422 24.4263L129.342 25.9263C129.278 26.0223 129.194 26.1063 129.09 26.1783C128.994 26.2503 128.858 26.2863 128.682 26.2863C128.562 26.2863 128.438 26.2543 128.31 26.1903C128.182 26.1183 128.042 26.0343 127.89 25.9383C127.738 25.8343 127.562 25.7223 127.362 25.6023C127.162 25.4823 126.93 25.3743 126.666 25.2783C126.402 25.1743 126.094 25.0903 125.742 25.0263C125.398 24.9543 124.998 24.9183 124.542 24.9183C123.766 24.9183 123.054 25.0583 122.406 25.3383C121.766 25.6103 121.214 26.0103 120.75 26.5383C120.286 27.0583 119.926 27.6983 119.67 28.4583C119.414 29.2103 119.286 30.0703 119.286 31.0383C119.286 32.0143 119.422 32.8823 119.694 33.6423C119.974 34.4023 120.35 35.0423 120.822 35.5623C121.294 36.0823 121.85 36.4823 122.49 36.7623C123.13 37.0343 123.818 37.1703 124.554 37.1703C124.994 37.1703 125.39 37.1463 125.742 37.0983C126.102 37.0503 126.43 36.9743 126.726 36.8703C127.03 36.7663 127.314 36.6343 127.578 36.4743C127.85 36.3063 128.118 36.1023 128.382 35.8623C128.462 35.7903 128.546 35.7343 128.634 35.6943C128.722 35.6463 128.814 35.6223 128.91 35.6223ZM144.981 25.0143H139.749V39.7143H136.521V25.0143H131.289V22.3623H144.981V25.0143ZM150.492 39.7143H147.252V22.3623H150.492V39.7143ZM170.925 31.0383C170.925 32.3103 170.713 33.4903 170.289 34.5783C169.873 35.6583 169.281 36.5943 168.513 37.3863C167.745 38.1783 166.821 38.7983 165.741 39.2463C164.661 39.6863 163.461 39.9063 162.141 39.9063C160.829 39.9063 159.633 39.6863 158.553 39.2463C157.473 38.7983 156.545 38.1783 155.769 37.3863C155.001 36.5943 154.405 35.6583 153.981 34.5783C153.557 33.4903 153.345 32.3103 153.345 31.0383C153.345 29.7663 153.557 28.5903 153.981 27.5103C154.405 26.4223 155.001 25.4823 155.769 24.6903C156.545 23.8983 157.473 23.2823 158.553 22.8423C159.633 22.3943 160.829 22.1703 162.141 22.1703C163.021 22.1703 163.849 22.2743 164.625 22.4823C165.401 22.6823 166.113 22.9703 166.761 23.3463C167.409 23.7143 167.989 24.1663 168.501 24.7023C169.021 25.2303 169.461 25.8223 169.821 26.4783C170.181 27.1343 170.453 27.8463 170.637 28.6143C170.829 29.3823 170.925 30.1903 170.925 31.0383ZM167.625 31.0383C167.625 30.0863 167.497 29.2343 167.241 28.4823C166.985 27.7223 166.621 27.0783 166.149 26.5503C165.677 26.0223 165.101 25.6183 164.421 25.3383C163.749 25.0583 162.989 24.9183 162.141 24.9183C161.293 24.9183 160.529 25.0583 159.849 25.3383C159.177 25.6183 158.601 26.0223 158.121 26.5503C157.649 27.0783 157.285 27.7223 157.029 28.4823C156.773 29.2343 156.645 30.0863 156.645 31.0383C156.645 31.9903 156.773 32.8463 157.029 33.6063C157.285 34.3583 157.649 34.9983 158.121 35.5263C158.601 36.0463 159.177 36.4463 159.849 36.7263C160.529 37.0063 161.293 37.1463 162.141 37.1463C162.989 37.1463 163.749 37.0063 164.421 36.7263C165.101 36.4463 165.677 36.0463 166.149 35.5263C166.621 34.9983 166.985 34.3583 167.241 33.6063C167.497 32.8463 167.625 31.9903 167.625 31.0383ZM188.388 22.3623V39.7143H186.732C186.476 39.7143 186.26 39.6743 186.084 39.5943C185.916 39.5063 185.752 39.3623 185.592 39.1623L176.532 27.5943C176.58 28.1223 176.604 28.6103 176.604 29.0583V39.7143H173.76V22.3623H175.452C175.588 22.3623 175.704 22.3703 175.8 22.3863C175.904 22.3943 175.992 22.4183 176.064 22.4583C176.144 22.4903 176.22 22.5423 176.292 22.6143C176.364 22.6783 176.444 22.7663 176.532 22.8783L185.628 34.4943C185.604 34.2143 185.584 33.9383 185.568 33.6663C185.552 33.3943 185.544 33.1423 185.544 32.9103V22.3623H188.388Z" fill="#073B4C"/>
</g>
</svg>
