<svg width="170" height="51" viewBox="0 0 170 51" fill="none" xmlns="http://www.w3.org/2000/svg">
<g id="conjuction">
<rect id="Rectangle 8" y="0.860718" width="170" height="50" rx="25" fill="#0CB0A9"/>
<path id="CONJUNCTION" d="M23.5225 29.8793C23.6691 29.8793 23.7991 29.936 23.9125 30.0493L24.9725 31.1993C24.3858 31.926 23.6625 32.4826 22.8025 32.8693C21.9491 33.256 20.9225 33.4493 19.7225 33.4493C18.6491 33.4493 17.6825 33.266 16.8225 32.8993C15.9691 32.5326 15.2391 32.0226 14.6325 31.3693C14.0258 30.716 13.5591 29.936 13.2325 29.0293C12.9125 28.1226 12.7525 27.1326 12.7525 26.0593C12.7525 24.9726 12.9258 23.9793 13.2725 23.0793C13.6191 22.1726 14.1058 21.3926 14.7325 20.7393C15.3658 20.086 16.1191 19.5793 16.9925 19.2193C17.8658 18.8526 18.8325 18.6693 19.8925 18.6693C20.9458 18.6693 21.8791 18.8426 22.6925 19.1893C23.5125 19.536 24.2091 19.9893 24.7825 20.5493L23.8825 21.7993C23.8291 21.8793 23.7591 21.9493 23.6725 22.0093C23.5925 22.0693 23.4791 22.0993 23.3325 22.0993C23.2325 22.0993 23.1291 22.0726 23.0225 22.0193C22.9158 21.9593 22.7991 21.8893 22.6725 21.8093C22.5458 21.7226 22.3991 21.6293 22.2325 21.5293C22.0658 21.4293 21.8725 21.3393 21.6525 21.2593C21.4325 21.1726 21.1758 21.1026 20.8825 21.0493C20.5958 20.9893 20.2625 20.9593 19.8825 20.9593C19.2358 20.9593 18.6425 21.076 18.1025 21.3093C17.5691 21.536 17.1091 21.8693 16.7225 22.3093C16.3358 22.7426 16.0358 23.276 15.8225 23.9093C15.6091 24.536 15.5025 25.2526 15.5025 26.0593C15.5025 26.8726 15.6158 27.596 15.8425 28.2293C16.0758 28.8626 16.3891 29.396 16.7825 29.8293C17.1758 30.2626 17.6391 30.596 18.1725 30.8293C18.7058 31.056 19.2791 31.1693 19.8925 31.1693C20.2591 31.1693 20.5891 31.1493 20.8825 31.1093C21.1825 31.0693 21.4558 31.006 21.7025 30.9193C21.9558 30.8326 22.1925 30.7226 22.4125 30.5893C22.6391 30.4493 22.8625 30.2793 23.0825 30.0793C23.1491 30.0193 23.2191 29.9726 23.2925 29.9393C23.3658 29.8993 23.4425 29.8793 23.5225 29.8793ZM40.2926 26.0593C40.2926 27.1193 40.116 28.1026 39.7626 29.0093C39.416 29.9093 38.9226 30.6893 38.2826 31.3493C37.6426 32.0093 36.8726 32.526 35.9726 32.8993C35.0726 33.266 34.0726 33.4493 32.9726 33.4493C31.8793 33.4493 30.8826 33.266 29.9826 32.8993C29.0826 32.526 28.3093 32.0093 27.6626 31.3493C27.0226 30.6893 26.526 29.9093 26.1726 29.0093C25.8193 28.1026 25.6426 27.1193 25.6426 26.0593C25.6426 24.9993 25.8193 24.0193 26.1726 23.1193C26.526 22.2126 27.0226 21.4293 27.6626 20.7693C28.3093 20.1093 29.0826 19.596 29.9826 19.2293C30.8826 18.856 31.8793 18.6693 32.9726 18.6693C33.706 18.6693 34.396 18.756 35.0426 18.9293C35.6893 19.096 36.2826 19.336 36.8226 19.6493C37.3626 19.956 37.846 20.3326 38.2726 20.7793C38.706 21.2193 39.0726 21.7126 39.3726 22.2593C39.6726 22.806 39.8993 23.3993 40.0526 24.0393C40.2126 24.6793 40.2926 25.3526 40.2926 26.0593ZM37.5426 26.0593C37.5426 25.266 37.436 24.556 37.2226 23.9293C37.0093 23.296 36.706 22.7593 36.3126 22.3193C35.9193 21.8793 35.4393 21.5426 34.8726 21.3093C34.3126 21.076 33.6793 20.9593 32.9726 20.9593C32.266 20.9593 31.6293 21.076 31.0626 21.3093C30.5026 21.5426 30.0226 21.8793 29.6226 22.3193C29.2293 22.7593 28.926 23.296 28.7126 23.9293C28.4993 24.556 28.3926 25.266 28.3926 26.0593C28.3926 26.8526 28.4993 27.566 28.7126 28.1993C28.926 28.826 29.2293 29.3593 29.6226 29.7993C30.0226 30.2326 30.5026 30.566 31.0626 30.7993C31.6293 31.0326 32.266 31.1493 32.9726 31.1493C33.6793 31.1493 34.3126 31.0326 34.8726 30.7993C35.4393 30.566 35.9193 30.2326 36.3126 29.7993C36.706 29.3593 37.0093 28.826 37.2226 28.1993C37.436 27.566 37.5426 26.8526 37.5426 26.0593ZM54.845 18.8293V33.2893H53.465C53.2516 33.2893 53.0716 33.256 52.925 33.1893C52.785 33.116 52.6483 32.996 52.515 32.8293L44.965 23.1893C45.005 23.6293 45.025 24.036 45.025 24.4093V33.2893H42.655V18.8293H44.065C44.1783 18.8293 44.275 18.836 44.355 18.8493C44.4416 18.856 44.515 18.876 44.575 18.9093C44.6416 18.936 44.705 18.9793 44.765 19.0393C44.825 19.0926 44.8916 19.166 44.965 19.2593L52.545 28.9393C52.525 28.706 52.5083 28.476 52.495 28.2493C52.4816 28.0226 52.475 27.8126 52.475 27.6193V18.8293H54.845ZM63.5751 28.1493C63.5751 28.9626 63.4751 29.696 63.2751 30.3493C63.0751 31.0026 62.7751 31.5593 62.3751 32.0193C61.9818 32.4793 61.4885 32.8326 60.8951 33.0793C60.3018 33.326 59.6118 33.4493 58.8251 33.4493C58.4651 33.4493 58.1118 33.426 57.7651 33.3793C57.4185 33.3393 57.0551 33.2726 56.6751 33.1793C56.6951 32.9126 56.7185 32.646 56.7451 32.3793C56.7718 32.1126 56.7951 31.846 56.8151 31.5793C56.8351 31.4326 56.8918 31.316 56.9851 31.2293C57.0851 31.136 57.2251 31.0893 57.4051 31.0893C57.5185 31.0893 57.6651 31.1126 57.8451 31.1593C58.0318 31.206 58.2651 31.2293 58.5451 31.2293C58.9251 31.2293 59.2618 31.176 59.5551 31.0693C59.8485 30.956 60.0918 30.7793 60.2851 30.5393C60.4851 30.2993 60.6351 29.9893 60.7351 29.6093C60.8351 29.2226 60.8851 28.756 60.8851 28.2093V18.8293H63.5751V28.1493ZM72.4789 31.1193C72.9989 31.1193 73.4622 31.0326 73.8689 30.8593C74.2822 30.686 74.6289 30.4426 74.9089 30.1293C75.1889 29.816 75.4022 29.436 75.5489 28.9893C75.7022 28.5426 75.7789 28.0426 75.7789 27.4893V18.8293H78.4689V27.4893C78.4689 28.3493 78.3289 29.146 78.0489 29.8793C77.7755 30.606 77.3789 31.236 76.8589 31.7693C76.3455 32.296 75.7189 32.7093 74.9789 33.0093C74.2389 33.3026 73.4055 33.4493 72.4789 33.4493C71.5455 33.4493 70.7089 33.3026 69.9689 33.0093C69.2289 32.7093 68.5989 32.296 68.0789 31.7693C67.5655 31.236 67.1689 30.606 66.8889 29.8793C66.6155 29.146 66.4789 28.3493 66.4789 27.4893V18.8293H69.1689V27.4793C69.1689 28.0326 69.2422 28.5326 69.3889 28.9793C69.5422 29.426 69.7589 29.8093 70.0389 30.1293C70.3255 30.4426 70.6722 30.686 71.0789 30.8593C71.4922 31.0326 71.9589 31.1193 72.4789 31.1193ZM93.6926 18.8293V33.2893H92.3126C92.0993 33.2893 91.9193 33.256 91.7726 33.1893C91.6326 33.116 91.496 32.996 91.3626 32.8293L83.8126 23.1893C83.8526 23.6293 83.8726 24.036 83.8726 24.4093V33.2893H81.5026V18.8293H82.9126C83.026 18.8293 83.1226 18.836 83.2026 18.8493C83.2893 18.856 83.3626 18.876 83.4226 18.9093C83.4893 18.936 83.5526 18.9793 83.6126 19.0393C83.6726 19.0926 83.7393 19.166 83.8126 19.2593L91.3926 28.9393C91.3726 28.706 91.356 28.476 91.3426 28.2493C91.3293 28.0226 91.3226 27.8126 91.3226 27.6193V18.8293H93.6926ZM106.843 29.8793C106.989 29.8793 107.119 29.936 107.233 30.0493L108.293 31.1993C107.706 31.926 106.983 32.4826 106.123 32.8693C105.269 33.256 104.243 33.4493 103.043 33.4493C101.969 33.4493 101.003 33.266 100.143 32.8993C99.2894 32.5326 98.5594 32.0226 97.9528 31.3693C97.3461 30.716 96.8794 29.936 96.5528 29.0293C96.2328 28.1226 96.0728 27.1326 96.0728 26.0593C96.0728 24.9726 96.2461 23.9793 96.5928 23.0793C96.9394 22.1726 97.4261 21.3926 98.0528 20.7393C98.6861 20.086 99.4394 19.5793 100.313 19.2193C101.186 18.8526 102.153 18.6693 103.213 18.6693C104.266 18.6693 105.199 18.8426 106.013 19.1893C106.833 19.536 107.529 19.9893 108.103 20.5493L107.203 21.7993C107.149 21.8793 107.079 21.9493 106.993 22.0093C106.913 22.0693 106.799 22.0993 106.653 22.0993C106.553 22.0993 106.449 22.0726 106.343 22.0193C106.236 21.9593 106.119 21.8893 105.993 21.8093C105.866 21.7226 105.719 21.6293 105.553 21.5293C105.386 21.4293 105.193 21.3393 104.973 21.2593C104.753 21.1726 104.496 21.1026 104.203 21.0493C103.916 20.9893 103.583 20.9593 103.203 20.9593C102.556 20.9593 101.963 21.076 101.423 21.3093C100.889 21.536 100.429 21.8693 100.043 22.3093C99.6561 22.7426 99.3561 23.276 99.1428 23.9093C98.9294 24.536 98.8228 25.2526 98.8228 26.0593C98.8228 26.8726 98.9361 27.596 99.1628 28.2293C99.3961 28.8626 99.7094 29.396 100.103 29.8293C100.496 30.2626 100.959 30.596 101.493 30.8293C102.026 31.056 102.599 31.1693 103.213 31.1693C103.579 31.1693 103.909 31.1493 104.203 31.1093C104.503 31.0693 104.776 31.006 105.023 30.9193C105.276 30.8326 105.513 30.7226 105.733 30.5893C105.959 30.4493 106.183 30.2793 106.403 30.0793C106.469 30.0193 106.539 29.9726 106.613 29.9393C106.686 29.8993 106.763 29.8793 106.843 29.8793ZM120.235 21.0393H115.875V33.2893H113.185V21.0393H108.825V18.8293H120.235V21.0393ZM124.828 33.2893H122.128V18.8293H124.828V33.2893ZM141.855 26.0593C141.855 27.1193 141.678 28.1026 141.325 29.0093C140.978 29.9093 140.485 30.6893 139.845 31.3493C139.205 32.0093 138.435 32.526 137.535 32.8993C136.635 33.266 135.635 33.4493 134.535 33.4493C133.442 33.4493 132.445 33.266 131.545 32.8993C130.645 32.526 129.872 32.0093 129.225 31.3493C128.585 30.6893 128.088 29.9093 127.735 29.0093C127.382 28.1026 127.205 27.1193 127.205 26.0593C127.205 24.9993 127.382 24.0193 127.735 23.1193C128.088 22.2126 128.585 21.4293 129.225 20.7693C129.872 20.1093 130.645 19.596 131.545 19.2293C132.445 18.856 133.442 18.6693 134.535 18.6693C135.268 18.6693 135.958 18.756 136.605 18.9293C137.252 19.096 137.845 19.336 138.385 19.6493C138.925 19.956 139.408 20.3326 139.835 20.7793C140.268 21.2193 140.635 21.7126 140.935 22.2593C141.235 22.806 141.462 23.3993 141.615 24.0393C141.775 24.6793 141.855 25.3526 141.855 26.0593ZM139.105 26.0593C139.105 25.266 138.998 24.556 138.785 23.9293C138.572 23.296 138.268 22.7593 137.875 22.3193C137.482 21.8793 137.002 21.5426 136.435 21.3093C135.875 21.076 135.242 20.9593 134.535 20.9593C133.828 20.9593 133.192 21.076 132.625 21.3093C132.065 21.5426 131.585 21.8793 131.185 22.3193C130.792 22.7593 130.488 23.296 130.275 23.9293C130.062 24.556 129.955 25.266 129.955 26.0593C129.955 26.8526 130.062 27.566 130.275 28.1993C130.488 28.826 130.792 29.3593 131.185 29.7993C131.585 30.2326 132.065 30.566 132.625 30.7993C133.192 31.0326 133.828 31.1493 134.535 31.1493C135.242 31.1493 135.875 31.0326 136.435 30.7993C137.002 30.566 137.482 30.2326 137.875 29.7993C138.268 29.3593 138.572 28.826 138.785 28.1993C138.998 27.566 139.105 26.8526 139.105 26.0593ZM156.407 18.8293V33.2893H155.027C154.814 33.2893 154.634 33.256 154.487 33.1893C154.347 33.116 154.211 32.996 154.077 32.8293L146.527 23.1893C146.567 23.6293 146.587 24.036 146.587 24.4093V33.2893H144.217V18.8293H145.627C145.741 18.8293 145.837 18.836 145.917 18.8493C146.004 18.856 146.077 18.876 146.137 18.9093C146.204 18.936 146.267 18.9793 146.327 19.0393C146.387 19.0926 146.454 19.166 146.527 19.2593L154.107 28.9393C154.087 28.706 154.071 28.476 154.057 28.2493C154.044 28.0226 154.037 27.8126 154.037 27.6193V18.8293H156.407Z" fill="#073B4C"/>
</g>
</svg>
