<svg width="194" height="60" viewBox="0 0 194 60" fill="none" xmlns="http://www.w3.org/2000/svg">
<g id="interjection">
<rect id="Rectangle 9" x="0.397705" width="193.077" height="60" rx="30" fill="#EF476F"/>
<path id="INTERJECTION" d="M18.3475 39.7143H15.1075V22.3623H18.3475V39.7143ZM36.8605 22.3623V39.7143H35.2045C34.9485 39.7143 34.7325 39.6743 34.5565 39.5943C34.3885 39.5063 34.2245 39.3623 34.0645 39.1623L25.0045 27.5943C25.0525 28.1223 25.0765 28.6103 25.0765 29.0583V39.7143H22.2325V22.3623H23.9245C24.0605 22.3623 24.1765 22.3703 24.2725 22.3863C24.3765 22.3943 24.4645 22.4183 24.5365 22.4583C24.6165 22.4903 24.6925 22.5423 24.7645 22.6143C24.8365 22.6783 24.9165 22.7663 25.0045 22.8783L34.1005 34.4943C34.0765 34.2143 34.0565 33.9383 34.0405 33.6663C34.0245 33.3943 34.0165 33.1423 34.0165 32.9103V22.3623H36.8605ZM52.8447 25.0143H47.6127V39.7143H44.3847V25.0143H39.1527V22.3623H52.8447V25.0143ZM58.3553 24.9303V29.7423H64.4273V32.2263H58.3553V37.1343H66.0593V39.7143H55.1153V22.3623H66.0593V24.9303H58.3553ZM74.164 30.6183C74.772 30.6183 75.3 30.5423 75.748 30.3903C76.204 30.2383 76.576 30.0303 76.864 29.7663C77.16 29.4943 77.38 29.1743 77.524 28.8063C77.668 28.4383 77.74 28.0343 77.74 27.5943C77.74 26.7143 77.448 26.0383 76.864 25.5663C76.288 25.0943 75.404 24.8583 74.212 24.8583H72.148V30.6183H74.164ZM82.468 39.7143H79.552C79 39.7143 78.6 39.4983 78.352 39.0663L74.704 33.5103C74.568 33.3023 74.416 33.1543 74.248 33.0663C74.088 32.9783 73.848 32.9343 73.528 32.9343H72.148V39.7143H68.92V22.3623H74.212C75.388 22.3623 76.396 22.4863 77.236 22.7343C78.084 22.9743 78.776 23.3143 79.312 23.7543C79.856 24.1943 80.256 24.7223 80.512 25.3383C80.768 25.9463 80.896 26.6183 80.896 27.3543C80.896 27.9383 80.808 28.4903 80.632 29.0103C80.464 29.5303 80.216 30.0023 79.888 30.4263C79.568 30.8503 79.168 31.2223 78.688 31.5423C78.216 31.8623 77.676 32.1143 77.068 32.2983C77.276 32.4183 77.468 32.5623 77.644 32.7303C77.82 32.8903 77.98 33.0823 78.124 33.3063L82.468 39.7143ZM90.9539 33.5463C90.9539 34.5223 90.8339 35.4023 90.5939 36.1863C90.3539 36.9703 89.9939 37.6383 89.5139 38.1903C89.0419 38.7423 88.4499 39.1663 87.7379 39.4623C87.0259 39.7583 86.1979 39.9063 85.2539 39.9063C84.8219 39.9063 84.3979 39.8783 83.9819 39.8223C83.5659 39.7743 83.1299 39.6943 82.6739 39.5823C82.6979 39.2623 82.7259 38.9423 82.7579 38.6223C82.7899 38.3023 82.8179 37.9823 82.8419 37.6623C82.8659 37.4863 82.9339 37.3463 83.0459 37.2423C83.1659 37.1303 83.3339 37.0743 83.5499 37.0743C83.6859 37.0743 83.8619 37.1023 84.0779 37.1583C84.3019 37.2143 84.5819 37.2423 84.9179 37.2423C85.3739 37.2423 85.7779 37.1783 86.1299 37.0503C86.4819 36.9143 86.7739 36.7023 87.0059 36.4143C87.2459 36.1263 87.4259 35.7543 87.5459 35.2983C87.6659 34.8343 87.7259 34.2743 87.7259 33.6183V22.3623H90.9539V33.5463ZM97.8944 24.9303V29.7423H103.966V32.2263H97.8944V37.1343H105.598V39.7143H94.6544V22.3623H105.598V24.9303H97.8944ZM120 35.6223C120.176 35.6223 120.332 35.6903 120.468 35.8263L121.74 37.2063C121.036 38.0783 120.168 38.7463 119.136 39.2103C118.112 39.6743 116.88 39.9063 115.44 39.9063C114.152 39.9063 112.992 39.6863 111.96 39.2463C110.936 38.8063 110.06 38.1943 109.332 37.4103C108.604 36.6263 108.044 35.6903 107.652 34.6023C107.268 33.5143 107.076 32.3263 107.076 31.0383C107.076 29.7343 107.284 28.5423 107.7 27.4623C108.116 26.3743 108.7 25.4383 109.452 24.6543C110.212 23.8703 111.116 23.2623 112.164 22.8303C113.212 22.3903 114.372 22.1703 115.644 22.1703C116.908 22.1703 118.028 22.3783 119.004 22.7943C119.988 23.2103 120.824 23.7543 121.512 24.4263L120.432 25.9263C120.368 26.0223 120.284 26.1063 120.18 26.1783C120.084 26.2503 119.948 26.2863 119.772 26.2863C119.652 26.2863 119.528 26.2543 119.4 26.1903C119.272 26.1183 119.132 26.0343 118.98 25.9383C118.828 25.8343 118.652 25.7223 118.452 25.6023C118.252 25.4823 118.02 25.3743 117.756 25.2783C117.492 25.1743 117.184 25.0903 116.832 25.0263C116.488 24.9543 116.088 24.9183 115.632 24.9183C114.856 24.9183 114.144 25.0583 113.496 25.3383C112.856 25.6103 112.304 26.0103 111.84 26.5383C111.376 27.0583 111.016 27.6983 110.76 28.4583C110.504 29.2103 110.376 30.0703 110.376 31.0383C110.376 32.0143 110.512 32.8823 110.784 33.6423C111.064 34.4023 111.44 35.0423 111.912 35.5623C112.384 36.0823 112.94 36.4823 113.58 36.7623C114.22 37.0343 114.908 37.1703 115.644 37.1703C116.084 37.1703 116.48 37.1463 116.832 37.0983C117.192 37.0503 117.52 36.9743 117.816 36.8703C118.12 36.7663 118.404 36.6343 118.668 36.4743C118.94 36.3063 119.208 36.1023 119.472 35.8623C119.552 35.7903 119.636 35.7343 119.724 35.6943C119.812 35.6463 119.904 35.6223 120 35.6223ZM136.071 25.0143H130.839V39.7143H127.611V25.0143H122.379V22.3623H136.071V25.0143ZM141.582 39.7143H138.342V22.3623H141.582V39.7143ZM162.015 31.0383C162.015 32.3103 161.803 33.4903 161.379 34.5783C160.963 35.6583 160.371 36.5943 159.603 37.3863C158.835 38.1783 157.911 38.7983 156.831 39.2463C155.751 39.6863 154.551 39.9063 153.231 39.9063C151.919 39.9063 150.723 39.6863 149.643 39.2463C148.563 38.7983 147.635 38.1783 146.859 37.3863C146.091 36.5943 145.495 35.6583 145.071 34.5783C144.647 33.4903 144.435 32.3103 144.435 31.0383C144.435 29.7663 144.647 28.5903 145.071 27.5103C145.495 26.4223 146.091 25.4823 146.859 24.6903C147.635 23.8983 148.563 23.2823 149.643 22.8423C150.723 22.3943 151.919 22.1703 153.231 22.1703C154.111 22.1703 154.939 22.2743 155.715 22.4823C156.491 22.6823 157.203 22.9703 157.851 23.3463C158.499 23.7143 159.079 24.1663 159.591 24.7023C160.111 25.2303 160.551 25.8223 160.911 26.4783C161.271 27.1343 161.543 27.8463 161.727 28.6143C161.919 29.3823 162.015 30.1903 162.015 31.0383ZM158.715 31.0383C158.715 30.0863 158.587 29.2343 158.331 28.4823C158.075 27.7223 157.711 27.0783 157.239 26.5503C156.767 26.0223 156.191 25.6183 155.511 25.3383C154.839 25.0583 154.079 24.9183 153.231 24.9183C152.383 24.9183 151.619 25.0583 150.939 25.3383C150.267 25.6183 149.691 26.0223 149.211 26.5503C148.739 27.0783 148.375 27.7223 148.119 28.4823C147.863 29.2343 147.735 30.0863 147.735 31.0383C147.735 31.9903 147.863 32.8463 148.119 33.6063C148.375 34.3583 148.739 34.9983 149.211 35.5263C149.691 36.0463 150.267 36.4463 150.939 36.7263C151.619 37.0063 152.383 37.1463 153.231 37.1463C154.079 37.1463 154.839 37.0063 155.511 36.7263C156.191 36.4463 156.767 36.0463 157.239 35.5263C157.711 34.9983 158.075 34.3583 158.331 33.6063C158.587 32.8463 158.715 31.9903 158.715 31.0383ZM179.478 22.3623V39.7143H177.822C177.566 39.7143 177.35 39.6743 177.174 39.5943C177.006 39.5063 176.842 39.3623 176.682 39.1623L167.622 27.5943C167.67 28.1223 167.694 28.6103 167.694 29.0583V39.7143H164.85V22.3623H166.542C166.678 22.3623 166.794 22.3703 166.89 22.3863C166.994 22.3943 167.082 22.4183 167.154 22.4583C167.234 22.4903 167.31 22.5423 167.382 22.6143C167.454 22.6783 167.534 22.7663 167.622 22.8783L176.718 34.4943C176.694 34.2143 176.674 33.9383 176.658 33.6663C176.642 33.3943 176.634 33.1423 176.634 32.9103V22.3623H179.478Z" fill="#073B4C"/>
</g>
</svg>
