<svg width="171" height="51" viewBox="0 0 171 51" fill="none" xmlns="http://www.w3.org/2000/svg">
<g id="interjection">
<rect id="Rectangle 9" x="0.490967" y="0.860718" width="169.72" height="50" rx="25" fill="#E87D8F"/>
<path id="INTERJECTION" d="M19.877 33.2893H17.177V18.8293H19.877V33.2893ZM35.3045 18.8293V33.2893H33.9245C33.7111 33.2893 33.5311 33.256 33.3845 33.1893C33.2445 33.116 33.1078 32.996 32.9745 32.8293L25.4245 23.1893C25.4645 23.6293 25.4845 24.036 25.4845 24.4093V33.2893H23.1145V18.8293H24.5245C24.6378 18.8293 24.7345 18.836 24.8145 18.8493C24.9011 18.856 24.9745 18.876 25.0345 18.9093C25.1011 18.936 25.1645 18.9793 25.2245 19.0393C25.2845 19.0926 25.3511 19.166 25.4245 19.2593L33.0045 28.9393C32.9845 28.706 32.9678 28.476 32.9545 28.2493C32.9411 28.0226 32.9345 27.8126 32.9345 27.6193V18.8293H35.3045ZM48.6246 21.0393H44.2646V33.2893H41.5746V21.0393H37.2146V18.8293H48.6246V21.0393ZM53.2168 20.9693V24.9793H58.2768V27.0493H53.2168V31.1393H59.6368V33.2893H50.5168V18.8293H59.6368V20.9693H53.2168ZM66.3907 25.7093C66.8974 25.7093 67.3374 25.646 67.7107 25.5193C68.0907 25.3926 68.4007 25.2193 68.6407 24.9993C68.8874 24.7726 69.0707 24.506 69.1907 24.1993C69.3107 23.8926 69.3707 23.556 69.3707 23.1893C69.3707 22.456 69.1274 21.8926 68.6407 21.4993C68.1607 21.106 67.424 20.9093 66.4307 20.9093H64.7107V25.7093H66.3907ZM73.3107 33.2893H70.8807C70.4207 33.2893 70.0874 33.1093 69.8807 32.7493L66.8407 28.1193C66.7274 27.946 66.6007 27.8226 66.4607 27.7493C66.3274 27.676 66.1274 27.6393 65.8607 27.6393H64.7107V33.2893H62.0207V18.8293H66.4307C67.4107 18.8293 68.2507 18.9326 68.9507 19.1393C69.6574 19.3393 70.234 19.6226 70.6807 19.9893C71.134 20.356 71.4674 20.796 71.6807 21.3093C71.894 21.816 72.0007 22.376 72.0007 22.9893C72.0007 23.476 71.9274 23.936 71.7807 24.3693C71.6407 24.8026 71.434 25.196 71.1607 25.5493C70.894 25.9026 70.5607 26.2126 70.1607 26.4793C69.7674 26.746 69.3174 26.956 68.8107 27.1093C68.984 27.2093 69.144 27.3293 69.2907 27.4693C69.4374 27.6026 69.5707 27.7626 69.6907 27.9493L73.3107 33.2893ZM80.3823 28.1493C80.3823 28.9626 80.2823 29.696 80.0823 30.3493C79.8823 31.0026 79.5823 31.5593 79.1823 32.0193C78.7889 32.4793 78.2956 32.8326 77.7023 33.0793C77.1089 33.326 76.4189 33.4493 75.6323 33.4493C75.2723 33.4493 74.9189 33.426 74.5723 33.3793C74.2256 33.3393 73.8623 33.2726 73.4823 33.1793C73.5023 32.9126 73.5256 32.646 73.5523 32.3793C73.5789 32.1126 73.6023 31.846 73.6223 31.5793C73.6423 31.4326 73.6989 31.316 73.7923 31.2293C73.8923 31.136 74.0323 31.0893 74.2123 31.0893C74.3256 31.0893 74.4723 31.1126 74.6523 31.1593C74.8389 31.206 75.0723 31.2293 75.3523 31.2293C75.7323 31.2293 76.0689 31.176 76.3623 31.0693C76.6556 30.956 76.8989 30.7793 77.0923 30.5393C77.2923 30.2993 77.4423 29.9893 77.5423 29.6093C77.6423 29.2226 77.6923 28.756 77.6923 28.2093V18.8293H80.3823V28.1493ZM86.166 20.9693V24.9793H91.226V27.0493H86.166V31.1393H92.586V33.2893H83.466V18.8293H92.586V20.9693H86.166ZM104.587 29.8793C104.734 29.8793 104.864 29.936 104.977 30.0493L106.037 31.1993C105.451 31.926 104.727 32.4826 103.867 32.8693C103.014 33.256 101.987 33.4493 100.787 33.4493C99.7141 33.4493 98.7474 33.266 97.8874 32.8993C97.0341 32.5326 96.3041 32.0226 95.6974 31.3693C95.0908 30.716 94.6241 29.936 94.2974 29.0293C93.9774 28.1226 93.8174 27.1326 93.8174 26.0593C93.8174 24.9726 93.9908 23.9793 94.3374 23.0793C94.6841 22.1726 95.1708 21.3926 95.7974 20.7393C96.4308 20.086 97.1841 19.5793 98.0574 19.2193C98.9308 18.8526 99.8974 18.6693 100.957 18.6693C102.011 18.6693 102.944 18.8426 103.757 19.1893C104.577 19.536 105.274 19.9893 105.847 20.5493L104.947 21.7993C104.894 21.8793 104.824 21.9493 104.737 22.0093C104.657 22.0693 104.544 22.0993 104.397 22.0993C104.297 22.0993 104.194 22.0726 104.087 22.0193C103.981 21.9593 103.864 21.8893 103.737 21.8093C103.611 21.7226 103.464 21.6293 103.297 21.5293C103.131 21.4293 102.937 21.3393 102.717 21.2593C102.497 21.1726 102.241 21.1026 101.947 21.0493C101.661 20.9893 101.327 20.9593 100.947 20.9593C100.301 20.9593 99.7074 21.076 99.1674 21.3093C98.6341 21.536 98.1741 21.8693 97.7874 22.3093C97.4008 22.7426 97.1008 23.276 96.8874 23.9093C96.6741 24.536 96.5674 25.2526 96.5674 26.0593C96.5674 26.8726 96.6808 27.596 96.9074 28.2293C97.1408 28.8626 97.4541 29.396 97.8474 29.8293C98.2408 30.2626 98.7041 30.596 99.2374 30.8293C99.7708 31.056 100.344 31.1693 100.957 31.1693C101.324 31.1693 101.654 31.1493 101.947 31.1093C102.247 31.0693 102.521 31.006 102.767 30.9193C103.021 30.8326 103.257 30.7226 103.477 30.5893C103.704 30.4493 103.927 30.2793 104.147 30.0793C104.214 30.0193 104.284 29.9726 104.357 29.9393C104.431 29.8993 104.507 29.8793 104.587 29.8793ZM117.98 21.0393H113.62V33.2893H110.93V21.0393H106.57V18.8293H117.98V21.0393ZM122.572 33.2893H119.872V18.8293H122.572V33.2893ZM139.6 26.0593C139.6 27.1193 139.423 28.1026 139.07 29.0093C138.723 29.9093 138.23 30.6893 137.59 31.3493C136.95 32.0093 136.18 32.526 135.28 32.8993C134.38 33.266 133.38 33.4493 132.28 33.4493C131.186 33.4493 130.19 33.266 129.29 32.8993C128.39 32.526 127.616 32.0093 126.97 31.3493C126.33 30.6893 125.833 29.9093 125.48 29.0093C125.126 28.1026 124.95 27.1193 124.95 26.0593C124.95 24.9993 125.126 24.0193 125.48 23.1193C125.833 22.2126 126.33 21.4293 126.97 20.7693C127.616 20.1093 128.39 19.596 129.29 19.2293C130.19 18.856 131.186 18.6693 132.28 18.6693C133.013 18.6693 133.703 18.756 134.35 18.9293C134.996 19.096 135.59 19.336 136.13 19.6493C136.67 19.956 137.153 20.3326 137.58 20.7793C138.013 21.2193 138.38 21.7126 138.68 22.2593C138.98 22.806 139.206 23.3993 139.36 24.0393C139.52 24.6793 139.6 25.3526 139.6 26.0593ZM136.85 26.0593C136.85 25.266 136.743 24.556 136.53 23.9293C136.316 23.296 136.013 22.7593 135.62 22.3193C135.226 21.8793 134.746 21.5426 134.18 21.3093C133.62 21.076 132.986 20.9593 132.28 20.9593C131.573 20.9593 130.936 21.076 130.37 21.3093C129.81 21.5426 129.33 21.8793 128.93 22.3193C128.536 22.7593 128.233 23.296 128.02 23.9293C127.806 24.556 127.7 25.266 127.7 26.0593C127.7 26.8526 127.806 27.566 128.02 28.1993C128.233 28.826 128.536 29.3593 128.93 29.7993C129.33 30.2326 129.81 30.566 130.37 30.7993C130.936 31.0326 131.573 31.1493 132.28 31.1493C132.986 31.1493 133.62 31.0326 134.18 30.7993C134.746 30.566 135.226 30.2326 135.62 29.7993C136.013 29.3593 136.316 28.826 136.53 28.1993C136.743 27.566 136.85 26.8526 136.85 26.0593ZM154.152 18.8293V33.2893H152.772C152.559 33.2893 152.379 33.256 152.232 33.1893C152.092 33.116 151.955 32.996 151.822 32.8293L144.272 23.1893C144.312 23.6293 144.332 24.036 144.332 24.4093V33.2893H141.962V18.8293H143.372C143.485 18.8293 143.582 18.836 143.662 18.8493C143.749 18.856 143.822 18.876 143.882 18.9093C143.949 18.936 144.012 18.9793 144.072 19.0393C144.132 19.0926 144.199 19.166 144.272 19.2593L151.852 28.9393C151.832 28.706 151.815 28.476 151.802 28.2493C151.789 28.0226 151.782 27.8126 151.782 27.6193V18.8293H154.152Z" fill="#073B4C"/>
</g>
</svg>
