<svg width="201" height="60" viewBox="0 0 201 60" fill="none" xmlns="http://www.w3.org/2000/svg">
<g id="interjection">
<rect id="Rectangle 9" x="0.397705" width="199.671" height="60" rx="30" fill="#E87D8F"/>
<path id="INTERJECTION" d="M21.6567 39.7143H18.4167V22.3623H21.6567V39.7143ZM40.1697 22.3623V39.7143H38.5137C38.2577 39.7143 38.0417 39.6743 37.8657 39.5943C37.6977 39.5063 37.5337 39.3623 37.3737 39.1623L28.3137 27.5943C28.3617 28.1223 28.3857 28.6103 28.3857 29.0583V39.7143H25.5417V22.3623H27.2337C27.3697 22.3623 27.4857 22.3703 27.5817 22.3863C27.6857 22.3943 27.7737 22.4183 27.8457 22.4583C27.9257 22.4903 28.0017 22.5423 28.0737 22.6143C28.1457 22.6783 28.2257 22.7663 28.3137 22.8783L37.4097 34.4943C37.3857 34.2143 37.3657 33.9383 37.3497 33.6663C37.3337 33.3943 37.3257 33.1423 37.3257 32.9103V22.3623H40.1697ZM56.1539 25.0143H50.9219V39.7143H47.6939V25.0143H42.4619V22.3623H56.1539V25.0143ZM61.6646 24.9303V29.7423H67.7366V32.2263H61.6646V37.1343H69.3686V39.7143H58.4246V22.3623H69.3686V24.9303H61.6646ZM77.4732 30.6183C78.0812 30.6183 78.6092 30.5423 79.0572 30.3903C79.5132 30.2383 79.8852 30.0303 80.1732 29.7663C80.4692 29.4943 80.6892 29.1743 80.8332 28.8063C80.9772 28.4383 81.0492 28.0343 81.0492 27.5943C81.0492 26.7143 80.7572 26.0383 80.1732 25.5663C79.5972 25.0943 78.7132 24.8583 77.5212 24.8583H75.4572V30.6183H77.4732ZM85.7772 39.7143H82.8612C82.3092 39.7143 81.9092 39.4983 81.6612 39.0663L78.0132 33.5103C77.8772 33.3023 77.7252 33.1543 77.5572 33.0663C77.3972 32.9783 77.1572 32.9343 76.8372 32.9343H75.4572V39.7143H72.2292V22.3623H77.5212C78.6972 22.3623 79.7052 22.4863 80.5452 22.7343C81.3932 22.9743 82.0852 23.3143 82.6212 23.7543C83.1652 24.1943 83.5652 24.7223 83.8212 25.3383C84.0772 25.9463 84.2052 26.6183 84.2052 27.3543C84.2052 27.9383 84.1172 28.4903 83.9412 29.0103C83.7732 29.5303 83.5252 30.0023 83.1972 30.4263C82.8772 30.8503 82.4772 31.2223 81.9972 31.5423C81.5252 31.8623 80.9852 32.1143 80.3772 32.2983C80.5852 32.4183 80.7772 32.5623 80.9532 32.7303C81.1292 32.8903 81.2892 33.0823 81.4332 33.3063L85.7772 39.7143ZM94.2631 33.5463C94.2631 34.5223 94.1431 35.4023 93.9031 36.1863C93.6631 36.9703 93.3031 37.6383 92.8231 38.1903C92.3511 38.7423 91.7591 39.1663 91.0471 39.4623C90.3351 39.7583 89.5071 39.9063 88.5631 39.9063C88.1311 39.9063 87.7071 39.8783 87.2911 39.8223C86.8751 39.7743 86.4391 39.6943 85.9831 39.5823C86.0071 39.2623 86.0351 38.9423 86.0671 38.6223C86.0991 38.3023 86.1271 37.9823 86.1511 37.6623C86.1751 37.4863 86.2431 37.3463 86.3551 37.2423C86.4751 37.1303 86.6431 37.0743 86.8591 37.0743C86.9951 37.0743 87.1711 37.1023 87.3871 37.1583C87.6111 37.2143 87.8911 37.2423 88.2271 37.2423C88.6831 37.2423 89.0871 37.1783 89.4391 37.0503C89.7911 36.9143 90.0831 36.7023 90.3151 36.4143C90.5551 36.1263 90.7351 35.7543 90.8551 35.2983C90.9751 34.8343 91.0351 34.2743 91.0351 33.6183V22.3623H94.2631V33.5463ZM101.204 24.9303V29.7423H107.276V32.2263H101.204V37.1343H108.908V39.7143H97.9636V22.3623H108.908V24.9303H101.204ZM123.309 35.6223C123.485 35.6223 123.641 35.6903 123.777 35.8263L125.049 37.2063C124.345 38.0783 123.477 38.7463 122.445 39.2103C121.421 39.6743 120.189 39.9063 118.749 39.9063C117.461 39.9063 116.301 39.6863 115.269 39.2463C114.245 38.8063 113.369 38.1943 112.641 37.4103C111.913 36.6263 111.353 35.6903 110.961 34.6023C110.577 33.5143 110.385 32.3263 110.385 31.0383C110.385 29.7343 110.593 28.5423 111.009 27.4623C111.425 26.3743 112.009 25.4383 112.761 24.6543C113.521 23.8703 114.425 23.2623 115.473 22.8303C116.521 22.3903 117.681 22.1703 118.953 22.1703C120.217 22.1703 121.337 22.3783 122.313 22.7943C123.297 23.2103 124.133 23.7543 124.821 24.4263L123.741 25.9263C123.677 26.0223 123.593 26.1063 123.489 26.1783C123.393 26.2503 123.257 26.2863 123.081 26.2863C122.961 26.2863 122.837 26.2543 122.709 26.1903C122.581 26.1183 122.441 26.0343 122.289 25.9383C122.137 25.8343 121.961 25.7223 121.761 25.6023C121.561 25.4823 121.329 25.3743 121.065 25.2783C120.801 25.1743 120.493 25.0903 120.141 25.0263C119.797 24.9543 119.397 24.9183 118.941 24.9183C118.165 24.9183 117.453 25.0583 116.805 25.3383C116.165 25.6103 115.613 26.0103 115.149 26.5383C114.685 27.0583 114.325 27.6983 114.069 28.4583C113.813 29.2103 113.685 30.0703 113.685 31.0383C113.685 32.0143 113.821 32.8823 114.093 33.6423C114.373 34.4023 114.749 35.0423 115.221 35.5623C115.693 36.0823 116.249 36.4823 116.889 36.7623C117.529 37.0343 118.217 37.1703 118.953 37.1703C119.393 37.1703 119.789 37.1463 120.141 37.0983C120.501 37.0503 120.829 36.9743 121.125 36.8703C121.429 36.7663 121.713 36.6343 121.977 36.4743C122.249 36.3063 122.517 36.1023 122.781 35.8623C122.861 35.7903 122.945 35.7343 123.033 35.6943C123.121 35.6463 123.213 35.6223 123.309 35.6223ZM139.38 25.0143H134.148V39.7143H130.92V25.0143H125.688V22.3623H139.38V25.0143ZM144.891 39.7143H141.651V22.3623H144.891V39.7143ZM165.324 31.0383C165.324 32.3103 165.112 33.4903 164.688 34.5783C164.272 35.6583 163.68 36.5943 162.912 37.3863C162.144 38.1783 161.22 38.7983 160.14 39.2463C159.06 39.6863 157.86 39.9063 156.54 39.9063C155.228 39.9063 154.032 39.6863 152.952 39.2463C151.872 38.7983 150.944 38.1783 150.168 37.3863C149.4 36.5943 148.804 35.6583 148.38 34.5783C147.956 33.4903 147.744 32.3103 147.744 31.0383C147.744 29.7663 147.956 28.5903 148.38 27.5103C148.804 26.4223 149.4 25.4823 150.168 24.6903C150.944 23.8983 151.872 23.2823 152.952 22.8423C154.032 22.3943 155.228 22.1703 156.54 22.1703C157.42 22.1703 158.248 22.2743 159.024 22.4823C159.8 22.6823 160.512 22.9703 161.16 23.3463C161.808 23.7143 162.388 24.1663 162.9 24.7023C163.42 25.2303 163.86 25.8223 164.22 26.4783C164.58 27.1343 164.852 27.8463 165.036 28.6143C165.228 29.3823 165.324 30.1903 165.324 31.0383ZM162.024 31.0383C162.024 30.0863 161.896 29.2343 161.64 28.4823C161.384 27.7223 161.02 27.0783 160.548 26.5503C160.076 26.0223 159.5 25.6183 158.82 25.3383C158.148 25.0583 157.388 24.9183 156.54 24.9183C155.692 24.9183 154.928 25.0583 154.248 25.3383C153.576 25.6183 153 26.0223 152.52 26.5503C152.048 27.0783 151.684 27.7223 151.428 28.4823C151.172 29.2343 151.044 30.0863 151.044 31.0383C151.044 31.9903 151.172 32.8463 151.428 33.6063C151.684 34.3583 152.048 34.9983 152.52 35.5263C153 36.0463 153.576 36.4463 154.248 36.7263C154.928 37.0063 155.692 37.1463 156.54 37.1463C157.388 37.1463 158.148 37.0063 158.82 36.7263C159.5 36.4463 160.076 36.0463 160.548 35.5263C161.02 34.9983 161.384 34.3583 161.64 33.6063C161.896 32.8463 162.024 31.9903 162.024 31.0383ZM182.787 22.3623V39.7143H181.131C180.875 39.7143 180.659 39.6743 180.483 39.5943C180.315 39.5063 180.151 39.3623 179.991 39.1623L170.931 27.5943C170.979 28.1223 171.003 28.6103 171.003 29.0583V39.7143H168.159V22.3623H169.851C169.987 22.3623 170.103 22.3703 170.199 22.3863C170.303 22.3943 170.391 22.4183 170.463 22.4583C170.543 22.4903 170.619 22.5423 170.691 22.6143C170.763 22.6783 170.843 22.7663 170.931 22.8783L180.027 34.4943C180.003 34.2143 179.983 33.9383 179.967 33.6663C179.951 33.3943 179.943 33.1423 179.943 32.9103V22.3623H182.787Z" fill="#073B4C"/>
</g>
</svg>
