<svg width="170" height="51" viewBox="0 0 170 51" fill="none" xmlns="http://www.w3.org/2000/svg">
<g id="noun">
<rect id="Rectangle 2" y="0.83844" width="170" height="50" rx="25" fill="#06C694"/>
<path id="NOUN" d="M68.4585 18.7118V33.1718H67.0785C66.8652 33.1718 66.6852 33.1385 66.5385 33.0718C66.3985 32.9985 66.2618 32.8785 66.1285 32.7118L58.5785 23.0718C58.6185 23.5118 58.6385 23.9184 58.6385 24.2918V33.1718H56.2685V18.7118H57.6785C57.7918 18.7118 57.8885 18.7184 57.9685 18.7318C58.0552 18.7384 58.1285 18.7584 58.1885 18.7918C58.2552 18.8184 58.3185 18.8618 58.3785 18.9218C58.4385 18.9751 58.5052 19.0484 58.5785 19.1418L66.1585 28.8218C66.1385 28.5884 66.1218 28.3584 66.1085 28.1318C66.0952 27.9051 66.0885 27.6951 66.0885 27.5018V18.7118H68.4585ZM85.4687 25.9418C85.4687 27.0018 85.292 27.9851 84.9387 28.8918C84.592 29.7918 84.0987 30.5718 83.4587 31.2318C82.8186 31.8918 82.0486 32.4085 81.1486 32.7818C80.2486 33.1485 79.2486 33.3318 78.1486 33.3318C77.0553 33.3318 76.0586 33.1485 75.1586 32.7818C74.2586 32.4085 73.4853 31.8918 72.8386 31.2318C72.1986 30.5718 71.702 29.7918 71.3486 28.8918C70.9953 27.9851 70.8186 27.0018 70.8186 25.9418C70.8186 24.8818 70.9953 23.9018 71.3486 23.0018C71.702 22.0951 72.1986 21.3118 72.8386 20.6518C73.4853 19.9918 74.2586 19.4784 75.1586 19.1118C76.0586 18.7384 77.0553 18.5518 78.1486 18.5518C78.882 18.5518 79.572 18.6384 80.2187 18.8118C80.8653 18.9784 81.4587 19.2184 81.9987 19.5318C82.5386 19.8384 83.022 20.2151 83.4486 20.6618C83.882 21.1018 84.2487 21.5951 84.5487 22.1418C84.8486 22.6884 85.0753 23.2818 85.2286 23.9218C85.3886 24.5618 85.4687 25.2351 85.4687 25.9418ZM82.7187 25.9418C82.7187 25.1484 82.612 24.4384 82.3986 23.8118C82.1853 23.1784 81.882 22.6418 81.4887 22.2018C81.0953 21.7618 80.6153 21.4251 80.0486 21.1918C79.4886 20.9584 78.8553 20.8418 78.1486 20.8418C77.442 20.8418 76.8053 20.9584 76.2386 21.1918C75.6786 21.4251 75.1986 21.7618 74.7986 22.2018C74.4053 22.6418 74.102 23.1784 73.8886 23.8118C73.6753 24.4384 73.5686 25.1484 73.5686 25.9418C73.5686 26.7351 73.6753 27.4484 73.8886 28.0818C74.102 28.7084 74.4053 29.2418 74.7986 29.6818C75.1986 30.1151 75.6786 30.4485 76.2386 30.6818C76.8053 30.9151 77.442 31.0318 78.1486 31.0318C78.8553 31.0318 79.4886 30.9151 80.0486 30.6818C80.6153 30.4485 81.0953 30.1151 81.4887 29.6818C81.882 29.2418 82.1853 28.7084 82.3986 28.0818C82.612 27.4484 82.7187 26.7351 82.7187 25.9418ZM93.651 31.0018C94.171 31.0018 94.6343 30.9151 95.041 30.7418C95.4543 30.5684 95.801 30.3251 96.081 30.0118C96.361 29.6985 96.5743 29.3185 96.721 28.8718C96.8743 28.4251 96.951 27.9251 96.951 27.3718V18.7118H99.641V27.3718C99.641 28.2318 99.501 29.0284 99.221 29.7618C98.9477 30.4884 98.551 31.1185 98.031 31.6518C97.5177 32.1785 96.891 32.5918 96.151 32.8918C95.411 33.1851 94.5777 33.3318 93.651 33.3318C92.7177 33.3318 91.881 33.1851 91.141 32.8918C90.401 32.5918 89.771 32.1785 89.251 31.6518C88.7377 31.1185 88.341 30.4884 88.061 29.7618C87.7877 29.0284 87.651 28.2318 87.651 27.3718V18.7118H90.341V27.3618C90.341 27.9151 90.4143 28.4151 90.561 28.8618C90.7143 29.3084 90.931 29.6918 91.211 30.0118C91.4977 30.3251 91.8443 30.5684 92.251 30.7418C92.6643 30.9151 93.131 31.0018 93.651 31.0018ZM114.865 18.7118V33.1718H113.485C113.271 33.1718 113.091 33.1385 112.945 33.0718C112.805 32.9985 112.668 32.8785 112.535 32.7118L104.985 23.0718C105.025 23.5118 105.045 23.9184 105.045 24.2918V33.1718H102.675V18.7118H104.085C104.198 18.7118 104.295 18.7184 104.375 18.7318C104.461 18.7384 104.535 18.7584 104.595 18.7918C104.661 18.8184 104.725 18.8618 104.785 18.9218C104.845 18.9751 104.911 19.0484 104.985 19.1418L112.565 28.8218C112.545 28.5884 112.528 28.3584 112.515 28.1318C112.501 27.9051 112.495 27.6951 112.495 27.5018V18.7118H114.865Z" fill="#073B4C"/>
</g>
</svg>
