<svg width="125" height="60" viewBox="0 0 125 60" fill="none" xmlns="http://www.w3.org/2000/svg">
<g id="noun">
<rect id="Rectangle 2" width="124.783" height="60" rx="30" fill="#06C694"/>
<path id="NOUN" d="M42.2774 21.848V39.2H40.6214C40.3654 39.2 40.1494 39.16 39.9734 39.08C39.8054 38.992 39.6414 38.848 39.4814 38.648L30.4214 27.08C30.4694 27.608 30.4934 28.096 30.4934 28.544V39.2H27.6494V21.848H29.3414C29.4774 21.848 29.5934 21.856 29.6894 21.872C29.7934 21.88 29.8814 21.904 29.9534 21.944C30.0334 21.976 30.1094 22.028 30.1814 22.1C30.2534 22.164 30.3334 22.252 30.4214 22.364L39.5174 33.98C39.4934 33.7 39.4734 33.424 39.4574 33.152C39.4414 32.88 39.4334 32.628 39.4334 32.396V21.848H42.2774ZM62.6896 30.524C62.6896 31.796 62.4776 32.976 62.0536 34.064C61.6376 35.144 61.0456 36.08 60.2776 36.872C59.5096 37.664 58.5856 38.284 57.5056 38.732C56.4256 39.172 55.2256 39.392 53.9056 39.392C52.5936 39.392 51.3976 39.172 50.3176 38.732C49.2376 38.284 48.3096 37.664 47.5336 36.872C46.7656 36.08 46.1696 35.144 45.7456 34.064C45.3216 32.976 45.1096 31.796 45.1096 30.524C45.1096 29.252 45.3216 28.076 45.7456 26.996C46.1696 25.908 46.7656 24.968 47.5336 24.176C48.3096 23.384 49.2376 22.768 50.3176 22.328C51.3976 21.88 52.5936 21.656 53.9056 21.656C54.7856 21.656 55.6136 21.76 56.3896 21.968C57.1656 22.168 57.8776 22.456 58.5256 22.832C59.1736 23.2 59.7536 23.652 60.2656 24.188C60.7856 24.716 61.2256 25.308 61.5856 25.964C61.9456 26.62 62.2176 27.332 62.4016 28.1C62.5936 28.868 62.6896 29.676 62.6896 30.524ZM59.3896 30.524C59.3896 29.572 59.2616 28.72 59.0056 27.968C58.7496 27.208 58.3856 26.564 57.9136 26.036C57.4416 25.508 56.8656 25.104 56.1856 24.824C55.5136 24.544 54.7536 24.404 53.9056 24.404C53.0576 24.404 52.2936 24.544 51.6136 24.824C50.9416 25.104 50.3656 25.508 49.8856 26.036C49.4136 26.564 49.0496 27.208 48.7936 27.968C48.5376 28.72 48.4096 29.572 48.4096 30.524C48.4096 31.476 48.5376 32.332 48.7936 33.092C49.0496 33.844 49.4136 34.484 49.8856 35.012C50.3656 35.532 50.9416 35.932 51.6136 36.212C52.2936 36.492 53.0576 36.632 53.9056 36.632C54.7536 36.632 55.5136 36.492 56.1856 36.212C56.8656 35.932 57.4416 35.532 57.9136 35.012C58.3856 34.484 58.7496 33.844 59.0056 33.092C59.2616 32.332 59.3896 31.476 59.3896 30.524ZM72.5084 36.596C73.1324 36.596 73.6884 36.492 74.1764 36.284C74.6724 36.076 75.0884 35.784 75.4244 35.408C75.7604 35.032 76.0164 34.576 76.1924 34.04C76.3764 33.504 76.4684 32.904 76.4684 32.24V21.848H79.6964V32.24C79.6964 33.272 79.5284 34.228 79.1924 35.108C78.8644 35.98 78.3884 36.736 77.7644 37.376C77.1484 38.008 76.3964 38.504 75.5084 38.864C74.6204 39.216 73.6204 39.392 72.5084 39.392C71.3884 39.392 70.3844 39.216 69.4964 38.864C68.6084 38.504 67.8524 38.008 67.2284 37.376C66.6124 36.736 66.1364 35.98 65.8004 35.108C65.4724 34.228 65.3084 33.272 65.3084 32.24V21.848H68.5364V32.228C68.5364 32.892 68.6244 33.492 68.8004 34.028C68.9844 34.564 69.2444 35.024 69.5804 35.408C69.9244 35.784 70.3404 36.076 70.8284 36.284C71.3244 36.492 71.8844 36.596 72.5084 36.596ZM97.9649 21.848V39.2H96.3089C96.0529 39.2 95.8369 39.16 95.6609 39.08C95.4929 38.992 95.3289 38.848 95.1689 38.648L86.1089 27.08C86.1569 27.608 86.1809 28.096 86.1809 28.544V39.2H83.3369V21.848H85.0289C85.1649 21.848 85.2809 21.856 85.3769 21.872C85.4809 21.88 85.5689 21.904 85.6409 21.944C85.7209 21.976 85.7969 22.028 85.8689 22.1C85.9409 22.164 86.0209 22.252 86.1089 22.364L95.2049 33.98C95.1809 33.7 95.1609 33.424 95.1449 33.152C95.1289 32.88 95.1209 32.628 95.1209 32.396V21.848H97.9649Z" fill="#073B4C"/>
</g>
</svg>
