<svg width="200" height="60" viewBox="0 0 200 60" fill="none" xmlns="http://www.w3.org/2000/svg">
<g id="noun">
<rect id="Rectangle 2" width="200" height="60" rx="30" fill="#06C694"/>
<path id="NOUN" d="M80.1369 21.848V39.2H78.4809C78.2249 39.2 78.0089 39.16 77.8329 39.08C77.6649 38.992 77.5009 38.848 77.3409 38.648L68.2809 27.08C68.3289 27.608 68.3529 28.096 68.3529 28.544V39.2H65.5089V21.848H67.2009C67.3369 21.848 67.4529 21.856 67.5489 21.872C67.6529 21.88 67.7409 21.904 67.8129 21.944C67.8929 21.976 67.9689 22.028 68.0409 22.1C68.1129 22.164 68.1929 22.252 68.2809 22.364L77.3769 33.98C77.3529 33.7 77.3329 33.424 77.3169 33.152C77.3009 32.88 77.2929 32.628 77.2929 32.396V21.848H80.1369ZM100.549 30.524C100.549 31.796 100.337 32.976 99.913 34.064C99.497 35.144 98.905 36.08 98.137 36.872C97.369 37.664 96.445 38.284 95.365 38.732C94.285 39.172 93.085 39.392 91.765 39.392C90.453 39.392 89.257 39.172 88.177 38.732C87.097 38.284 86.169 37.664 85.393 36.872C84.625 36.08 84.029 35.144 83.605 34.064C83.181 32.976 82.969 31.796 82.969 30.524C82.969 29.252 83.181 28.076 83.605 26.996C84.029 25.908 84.625 24.968 85.393 24.176C86.169 23.384 87.097 22.768 88.177 22.328C89.257 21.88 90.453 21.656 91.765 21.656C92.645 21.656 93.473 21.76 94.249 21.968C95.025 22.168 95.737 22.456 96.385 22.832C97.033 23.2 97.613 23.652 98.125 24.188C98.645 24.716 99.085 25.308 99.445 25.964C99.805 26.62 100.077 27.332 100.261 28.1C100.453 28.868 100.549 29.676 100.549 30.524ZM97.249 30.524C97.249 29.572 97.121 28.72 96.865 27.968C96.609 27.208 96.245 26.564 95.773 26.036C95.301 25.508 94.725 25.104 94.045 24.824C93.373 24.544 92.613 24.404 91.765 24.404C90.917 24.404 90.153 24.544 89.473 24.824C88.801 25.104 88.225 25.508 87.745 26.036C87.273 26.564 86.909 27.208 86.653 27.968C86.397 28.72 86.269 29.572 86.269 30.524C86.269 31.476 86.397 32.332 86.653 33.092C86.909 33.844 87.273 34.484 87.745 35.012C88.225 35.532 88.801 35.932 89.473 36.212C90.153 36.492 90.917 36.632 91.765 36.632C92.613 36.632 93.373 36.492 94.045 36.212C94.725 35.932 95.301 35.532 95.773 35.012C96.245 34.484 96.609 33.844 96.865 33.092C97.121 32.332 97.249 31.476 97.249 30.524ZM110.368 36.596C110.992 36.596 111.548 36.492 112.036 36.284C112.532 36.076 112.948 35.784 113.284 35.408C113.62 35.032 113.876 34.576 114.052 34.04C114.236 33.504 114.328 32.904 114.328 32.24V21.848H117.556V32.24C117.556 33.272 117.388 34.228 117.052 35.108C116.724 35.98 116.248 36.736 115.624 37.376C115.008 38.008 114.256 38.504 113.368 38.864C112.48 39.216 111.48 39.392 110.368 39.392C109.248 39.392 108.244 39.216 107.356 38.864C106.468 38.504 105.712 38.008 105.088 37.376C104.472 36.736 103.996 35.98 103.66 35.108C103.332 34.228 103.168 33.272 103.168 32.24V21.848H106.396V32.228C106.396 32.892 106.484 33.492 106.66 34.028C106.844 34.564 107.104 35.024 107.44 35.408C107.784 35.784 108.2 36.076 108.688 36.284C109.184 36.492 109.744 36.596 110.368 36.596ZM135.824 21.848V39.2H134.168C133.912 39.2 133.696 39.16 133.52 39.08C133.352 38.992 133.188 38.848 133.028 38.648L123.968 27.08C124.016 27.608 124.04 28.096 124.04 28.544V39.2H121.196V21.848H122.888C123.024 21.848 123.14 21.856 123.236 21.872C123.34 21.88 123.428 21.904 123.5 21.944C123.58 21.976 123.656 22.028 123.728 22.1C123.8 22.164 123.88 22.252 123.968 22.364L133.064 33.98C133.04 33.7 133.02 33.424 133.004 33.152C132.988 32.88 132.98 32.628 132.98 32.396V21.848H135.824Z" fill="#073B4C"/>
</g>
</svg>
