<svg width="250" height="60" viewBox="0 0 250 60" fill="none" xmlns="http://www.w3.org/2000/svg">
<g id="POS">
<rect id="Rectangle 2" width="250" height="60" rx="30" fill="#FEF5F5"/>
<path id="PARTS OF SPEECH" d="M29.3298 31.372C29.9218 31.372 30.4378 31.3 30.8778 31.156C31.3178 31.004 31.6818 30.792 31.9698 30.52C32.2658 30.24 32.4858 29.904 32.6298 29.512C32.7738 29.112 32.8458 28.668 32.8458 28.18C32.8458 27.716 32.7738 27.296 32.6298 26.92C32.4858 26.544 32.2698 26.224 31.9818 25.96C31.6938 25.696 31.3298 25.496 30.8898 25.36C30.4498 25.216 29.9298 25.144 29.3298 25.144H26.9178V31.372H29.3298ZM29.3298 22.648C30.4898 22.648 31.4938 22.784 32.3418 23.056C33.1898 23.328 33.8898 23.708 34.4418 24.196C34.9938 24.684 35.4018 25.268 35.6658 25.948C35.9378 26.628 36.0738 27.372 36.0738 28.18C36.0738 29.02 35.9338 29.792 35.6538 30.496C35.3738 31.192 34.9538 31.792 34.3938 32.296C33.8338 32.8 33.1298 33.192 32.2818 33.472C31.4418 33.752 30.4578 33.892 29.3298 33.892H26.9178V40H23.6898V22.648H29.3298ZM46.4984 33.448L44.3864 27.676C44.2824 27.42 44.1744 27.116 44.0624 26.764C43.9504 26.412 43.8384 26.032 43.7264 25.624C43.6224 26.032 43.5144 26.416 43.4024 26.776C43.2904 27.128 43.1824 27.436 43.0784 27.7L40.9784 33.448H46.4984ZM52.1984 40H49.7024C49.4224 40 49.1944 39.932 49.0184 39.796C48.8424 39.652 48.7104 39.476 48.6224 39.268L47.3264 35.728H40.1384L38.8424 39.268C38.7784 39.452 38.6544 39.62 38.4704 39.772C38.2864 39.924 38.0584 40 37.7864 40H35.2664L42.0944 22.648H45.3824L52.1984 40ZM59.2385 30.904C59.8465 30.904 60.3745 30.828 60.8225 30.676C61.2785 30.524 61.6505 30.316 61.9385 30.052C62.2345 29.78 62.4545 29.46 62.5985 29.092C62.7425 28.724 62.8145 28.32 62.8145 27.88C62.8145 27 62.5225 26.324 61.9385 25.852C61.3625 25.38 60.4785 25.144 59.2865 25.144H57.2225V30.904H59.2385ZM67.5425 40H64.6265C64.0745 40 63.6745 39.784 63.4265 39.352L59.7785 33.796C59.6425 33.588 59.4905 33.44 59.3225 33.352C59.1625 33.264 58.9225 33.22 58.6025 33.22H57.2225V40H53.9945V22.648H59.2865C60.4625 22.648 61.4705 22.772 62.3105 23.02C63.1585 23.26 63.8505 23.6 64.3865 24.04C64.9305 24.48 65.3305 25.008 65.5865 25.624C65.8425 26.232 65.9705 26.904 65.9705 27.64C65.9705 28.224 65.8825 28.776 65.7065 29.296C65.5385 29.816 65.2905 30.288 64.9625 30.712C64.6425 31.136 64.2425 31.508 63.7625 31.828C63.2905 32.148 62.7505 32.4 62.1425 32.584C62.3505 32.704 62.5425 32.848 62.7185 33.016C62.8945 33.176 63.0545 33.368 63.1985 33.592L67.5425 40ZM81.0911 25.3H75.8591V40H72.6311V25.3H67.3991V22.648H81.0911V25.3ZM92.5548 25.804C92.4588 25.972 92.3548 26.096 92.2428 26.176C92.1388 26.248 92.0068 26.284 91.8468 26.284C91.6788 26.284 91.4948 26.224 91.2948 26.104C91.1028 25.976 90.8708 25.836 90.5988 25.684C90.3268 25.532 90.0068 25.396 89.6388 25.276C89.2788 25.148 88.8508 25.084 88.3548 25.084C87.9068 25.084 87.5148 25.14 87.1788 25.252C86.8428 25.356 86.5588 25.504 86.3268 25.696C86.1028 25.888 85.9348 26.12 85.8228 26.392C85.7108 26.656 85.6548 26.948 85.6548 27.268C85.6548 27.676 85.7668 28.016 85.9908 28.288C86.2228 28.56 86.5268 28.792 86.9028 28.984C87.2788 29.176 87.7068 29.348 88.1868 29.5C88.6668 29.652 89.1588 29.816 89.6628 29.992C90.1668 30.16 90.6588 30.36 91.1388 30.592C91.6188 30.816 92.0468 31.104 92.4228 31.456C92.7988 31.8 93.0988 32.224 93.3228 32.728C93.5548 33.232 93.6708 33.844 93.6708 34.564C93.6708 35.348 93.5348 36.084 93.2628 36.772C92.9988 37.452 92.6068 38.048 92.0868 38.56C91.5748 39.064 90.9468 39.464 90.2028 39.76C89.4588 40.048 88.6068 40.192 87.6468 40.192C87.0948 40.192 86.5508 40.136 86.0148 40.024C85.4788 39.92 84.9628 39.768 84.4668 39.568C83.9788 39.368 83.5188 39.128 83.0868 38.848C82.6548 38.568 82.2708 38.256 81.9348 37.912L82.8828 36.364C82.9628 36.252 83.0668 36.16 83.1948 36.088C83.3228 36.008 83.4588 35.968 83.6028 35.968C83.8028 35.968 84.0188 36.052 84.2508 36.22C84.4828 36.38 84.7588 36.56 85.0788 36.76C85.3988 36.96 85.7708 37.144 86.1948 37.312C86.6268 37.472 87.1428 37.552 87.7428 37.552C88.6628 37.552 89.3748 37.336 89.8788 36.904C90.3828 36.464 90.6348 35.836 90.6348 35.02C90.6348 34.564 90.5188 34.192 90.2868 33.904C90.0628 33.616 89.7628 33.376 89.3868 33.184C89.0108 32.984 88.5828 32.816 88.1028 32.68C87.6228 32.544 87.1348 32.396 86.6388 32.236C86.1428 32.076 85.6548 31.884 85.1748 31.66C84.6948 31.436 84.2668 31.144 83.8908 30.784C83.5148 30.424 83.2108 29.976 82.9788 29.44C82.7548 28.896 82.6428 28.228 82.6428 27.436C82.6428 26.804 82.7668 26.188 83.0148 25.588C83.2708 24.988 83.6388 24.456 84.1188 23.992C84.5988 23.528 85.1908 23.156 85.8948 22.876C86.5988 22.596 87.4068 22.456 88.3188 22.456C89.3428 22.456 90.2868 22.616 91.1508 22.936C92.0148 23.256 92.7508 23.704 93.3588 24.28L92.5548 25.804ZM118.871 31.324C118.871 32.596 118.659 33.776 118.235 34.864C117.819 35.944 117.227 36.88 116.459 37.672C115.691 38.464 114.767 39.084 113.687 39.532C112.607 39.972 111.407 40.192 110.087 40.192C108.775 40.192 107.579 39.972 106.499 39.532C105.419 39.084 104.491 38.464 103.715 37.672C102.947 36.88 102.351 35.944 101.927 34.864C101.503 33.776 101.291 32.596 101.291 31.324C101.291 30.052 101.503 28.876 101.927 27.796C102.351 26.708 102.947 25.768 103.715 24.976C104.491 24.184 105.419 23.568 106.499 23.128C107.579 22.68 108.775 22.456 110.087 22.456C110.967 22.456 111.795 22.56 112.571 22.768C113.347 22.968 114.059 23.256 114.707 23.632C115.355 24 115.935 24.452 116.447 24.988C116.967 25.516 117.407 26.108 117.767 26.764C118.127 27.42 118.399 28.132 118.583 28.9C118.775 29.668 118.871 30.476 118.871 31.324ZM115.571 31.324C115.571 30.372 115.443 29.52 115.187 28.768C114.931 28.008 114.567 27.364 114.095 26.836C113.623 26.308 113.047 25.904 112.367 25.624C111.695 25.344 110.935 25.204 110.087 25.204C109.239 25.204 108.475 25.344 107.795 25.624C107.123 25.904 106.547 26.308 106.067 26.836C105.595 27.364 105.231 28.008 104.975 28.768C104.719 29.52 104.591 30.372 104.591 31.324C104.591 32.276 104.719 33.132 104.975 33.892C105.231 34.644 105.595 35.284 106.067 35.812C106.547 36.332 107.123 36.732 107.795 37.012C108.475 37.292 109.239 37.432 110.087 37.432C110.935 37.432 111.695 37.292 112.367 37.012C113.047 36.732 113.623 36.332 114.095 35.812C114.567 35.284 114.931 34.644 115.187 33.892C115.443 33.132 115.571 32.276 115.571 31.324ZM124.945 25.216V30.352H131.449V32.932H124.945V40H121.705V22.648H132.649V25.216H124.945ZM149.789 25.804C149.693 25.972 149.589 26.096 149.477 26.176C149.373 26.248 149.241 26.284 149.081 26.284C148.913 26.284 148.729 26.224 148.529 26.104C148.337 25.976 148.105 25.836 147.833 25.684C147.561 25.532 147.241 25.396 146.873 25.276C146.513 25.148 146.085 25.084 145.589 25.084C145.141 25.084 144.749 25.14 144.413 25.252C144.077 25.356 143.793 25.504 143.561 25.696C143.337 25.888 143.169 26.12 143.057 26.392C142.945 26.656 142.889 26.948 142.889 27.268C142.889 27.676 143.001 28.016 143.225 28.288C143.457 28.56 143.761 28.792 144.137 28.984C144.513 29.176 144.941 29.348 145.421 29.5C145.901 29.652 146.393 29.816 146.897 29.992C147.401 30.16 147.893 30.36 148.373 30.592C148.853 30.816 149.281 31.104 149.657 31.456C150.033 31.8 150.333 32.224 150.557 32.728C150.789 33.232 150.905 33.844 150.905 34.564C150.905 35.348 150.769 36.084 150.497 36.772C150.233 37.452 149.841 38.048 149.321 38.56C148.809 39.064 148.181 39.464 147.437 39.76C146.693 40.048 145.841 40.192 144.881 40.192C144.329 40.192 143.785 40.136 143.249 40.024C142.713 39.92 142.197 39.768 141.701 39.568C141.213 39.368 140.753 39.128 140.321 38.848C139.889 38.568 139.505 38.256 139.169 37.912L140.117 36.364C140.197 36.252 140.301 36.16 140.429 36.088C140.557 36.008 140.693 35.968 140.837 35.968C141.037 35.968 141.253 36.052 141.485 36.22C141.717 36.38 141.993 36.56 142.313 36.76C142.633 36.96 143.005 37.144 143.429 37.312C143.861 37.472 144.377 37.552 144.977 37.552C145.897 37.552 146.609 37.336 147.113 36.904C147.617 36.464 147.869 35.836 147.869 35.02C147.869 34.564 147.753 34.192 147.521 33.904C147.297 33.616 146.997 33.376 146.621 33.184C146.245 32.984 145.817 32.816 145.337 32.68C144.857 32.544 144.369 32.396 143.873 32.236C143.377 32.076 142.889 31.884 142.409 31.66C141.929 31.436 141.501 31.144 141.125 30.784C140.749 30.424 140.445 29.976 140.213 29.44C139.989 28.896 139.877 28.228 139.877 27.436C139.877 26.804 140.001 26.188 140.249 25.588C140.505 24.988 140.873 24.456 141.353 23.992C141.833 23.528 142.425 23.156 143.129 22.876C143.833 22.596 144.641 22.456 145.553 22.456C146.577 22.456 147.521 22.616 148.385 22.936C149.249 23.256 149.985 23.704 150.593 24.28L149.789 25.804ZM159.361 31.372C159.953 31.372 160.469 31.3 160.909 31.156C161.349 31.004 161.713 30.792 162.001 30.52C162.297 30.24 162.517 29.904 162.661 29.512C162.805 29.112 162.877 28.668 162.877 28.18C162.877 27.716 162.805 27.296 162.661 26.92C162.517 26.544 162.301 26.224 162.013 25.96C161.725 25.696 161.361 25.496 160.921 25.36C160.481 25.216 159.961 25.144 159.361 25.144H156.949V31.372H159.361ZM159.361 22.648C160.521 22.648 161.525 22.784 162.373 23.056C163.221 23.328 163.921 23.708 164.473 24.196C165.025 24.684 165.433 25.268 165.697 25.948C165.969 26.628 166.105 27.372 166.105 28.18C166.105 29.02 165.965 29.792 165.685 30.496C165.405 31.192 164.985 31.792 164.425 32.296C163.865 32.8 163.161 33.192 162.313 33.472C161.473 33.752 160.489 33.892 159.361 33.892H156.949V40H153.721V22.648H159.361ZM171.82 25.216V30.028H177.892V32.512H171.82V37.42H179.524V40H168.58V22.648H179.524V25.216H171.82ZM185.625 25.216V30.028H191.697V32.512H185.625V37.42H193.329V40H182.385V22.648H193.329V25.216H185.625ZM207.731 35.908C207.907 35.908 208.063 35.976 208.199 36.112L209.471 37.492C208.767 38.364 207.899 39.032 206.867 39.496C205.843 39.96 204.611 40.192 203.171 40.192C201.883 40.192 200.723 39.972 199.691 39.532C198.667 39.092 197.791 38.48 197.063 37.696C196.335 36.912 195.775 35.976 195.383 34.888C194.999 33.8 194.807 32.612 194.807 31.324C194.807 30.02 195.015 28.828 195.431 27.748C195.847 26.66 196.431 25.724 197.183 24.94C197.943 24.156 198.847 23.548 199.895 23.116C200.943 22.676 202.103 22.456 203.375 22.456C204.639 22.456 205.759 22.664 206.735 23.08C207.719 23.496 208.555 24.04 209.243 24.712L208.163 26.212C208.099 26.308 208.015 26.392 207.911 26.464C207.815 26.536 207.679 26.572 207.503 26.572C207.383 26.572 207.259 26.54 207.131 26.476C207.003 26.404 206.863 26.32 206.711 26.224C206.559 26.12 206.383 26.008 206.183 25.888C205.983 25.768 205.751 25.66 205.487 25.564C205.223 25.46 204.915 25.376 204.563 25.312C204.219 25.24 203.819 25.204 203.363 25.204C202.587 25.204 201.875 25.344 201.227 25.624C200.587 25.896 200.035 26.296 199.571 26.824C199.107 27.344 198.747 27.984 198.491 28.744C198.235 29.496 198.107 30.356 198.107 31.324C198.107 32.3 198.243 33.168 198.515 33.928C198.795 34.688 199.171 35.328 199.643 35.848C200.115 36.368 200.671 36.768 201.311 37.048C201.951 37.32 202.639 37.456 203.375 37.456C203.815 37.456 204.211 37.432 204.563 37.384C204.923 37.336 205.251 37.26 205.547 37.156C205.851 37.052 206.135 36.92 206.399 36.76C206.671 36.592 206.939 36.388 207.203 36.148C207.283 36.076 207.367 36.02 207.455 35.98C207.543 35.932 207.635 35.908 207.731 35.908ZM226.31 22.648V40H223.07V32.416H214.922V40H211.682V22.648H214.922V30.112H223.07V22.648H226.31Z" fill="#073B4C"/>
</g>
</svg>
