<svg width="345" height="50" viewBox="0 0 345 50" fill="none" xmlns="http://www.w3.org/2000/svg">
<g id="POS">
<rect id="Rectangle 2" width="345" height="50" rx="25" fill="#FEF5F5"/>
<path id="PARTS OF SPEECH" d="M76.8296 25.7053C77.4216 25.7053 77.9376 25.6333 78.3776 25.4893C78.8176 25.3373 79.1816 25.1253 79.4696 24.8533C79.7656 24.5733 79.9856 24.2373 80.1296 23.8453C80.2736 23.4453 80.3456 23.0013 80.3456 22.5133C80.3456 22.0493 80.2736 21.6293 80.1296 21.2533C79.9856 20.8773 79.7696 20.5573 79.4816 20.2933C79.1936 20.0293 78.8296 19.8293 78.3896 19.6933C77.9496 19.5493 77.4296 19.4773 76.8296 19.4773H74.4176V25.7053H76.8296ZM76.8296 16.9813C77.9896 16.9813 78.9936 17.1173 79.8416 17.3893C80.6896 17.6613 81.3896 18.0413 81.9416 18.5293C82.4936 19.0173 82.9016 19.6013 83.1656 20.2813C83.4376 20.9613 83.5736 21.7053 83.5736 22.5133C83.5736 23.3533 83.4336 24.1253 83.1536 24.8293C82.8736 25.5253 82.4536 26.1253 81.8936 26.6293C81.3336 27.1333 80.6296 27.5253 79.7816 27.8053C78.9416 28.0853 77.9576 28.2253 76.8296 28.2253H74.4176V34.3333H71.1896V16.9813H76.8296ZM93.9982 27.7813L91.8862 22.0093C91.7822 21.7533 91.6742 21.4493 91.5622 21.0973C91.4502 20.7453 91.3382 20.3653 91.2262 19.9573C91.1222 20.3653 91.0142 20.7493 90.9022 21.1093C90.7902 21.4613 90.6822 21.7693 90.5782 22.0333L88.4782 27.7813H93.9982ZM99.6982 34.3333H97.2022C96.9222 34.3333 96.6942 34.2653 96.5182 34.1293C96.3422 33.9853 96.2102 33.8093 96.1222 33.6013L94.8262 30.0613H87.6382L86.3422 33.6013C86.2782 33.7853 86.1542 33.9533 85.9702 34.1053C85.7862 34.2573 85.5582 34.3333 85.2862 34.3333H82.7662L89.5942 16.9813H92.8822L99.6982 34.3333ZM106.738 25.2373C107.346 25.2373 107.874 25.1613 108.322 25.0093C108.778 24.8573 109.15 24.6493 109.438 24.3853C109.734 24.1133 109.954 23.7933 110.098 23.4253C110.242 23.0573 110.314 22.6533 110.314 22.2133C110.314 21.3333 110.022 20.6573 109.438 20.1853C108.862 19.7133 107.978 19.4773 106.786 19.4773H104.722V25.2373H106.738ZM115.042 34.3333H112.126C111.574 34.3333 111.174 34.1173 110.926 33.6853L107.278 28.1293C107.142 27.9213 106.99 27.7733 106.822 27.6853C106.662 27.5973 106.422 27.5533 106.102 27.5533H104.722V34.3333H101.494V16.9813H106.786C107.962 16.9813 108.97 17.1053 109.81 17.3533C110.658 17.5933 111.35 17.9333 111.886 18.3733C112.43 18.8133 112.83 19.3413 113.086 19.9573C113.342 20.5653 113.47 21.2373 113.47 21.9733C113.47 22.5573 113.382 23.1093 113.206 23.6293C113.038 24.1493 112.79 24.6213 112.462 25.0453C112.142 25.4693 111.742 25.8413 111.262 26.1613C110.79 26.4813 110.25 26.7333 109.642 26.9173C109.85 27.0373 110.042 27.1813 110.218 27.3493C110.394 27.5093 110.554 27.7013 110.698 27.9253L115.042 34.3333ZM128.591 19.6333H123.359V34.3333H120.131V19.6333H114.899V16.9813H128.591V19.6333ZM140.055 20.1373C139.959 20.3053 139.855 20.4293 139.743 20.5093C139.639 20.5813 139.507 20.6173 139.347 20.6173C139.179 20.6173 138.995 20.5573 138.795 20.4373C138.603 20.3093 138.371 20.1693 138.099 20.0173C137.827 19.8653 137.507 19.7293 137.139 19.6093C136.779 19.4813 136.351 19.4173 135.855 19.4173C135.407 19.4173 135.015 19.4733 134.679 19.5853C134.343 19.6893 134.059 19.8373 133.827 20.0293C133.603 20.2213 133.435 20.4533 133.323 20.7253C133.211 20.9893 133.155 21.2813 133.155 21.6013C133.155 22.0093 133.267 22.3493 133.491 22.6213C133.723 22.8933 134.027 23.1253 134.403 23.3173C134.779 23.5093 135.207 23.6813 135.687 23.8333C136.167 23.9853 136.659 24.1493 137.163 24.3253C137.667 24.4933 138.159 24.6933 138.639 24.9253C139.119 25.1493 139.547 25.4373 139.923 25.7893C140.299 26.1333 140.599 26.5573 140.823 27.0613C141.055 27.5653 141.171 28.1773 141.171 28.8973C141.171 29.6813 141.035 30.4173 140.763 31.1053C140.499 31.7853 140.107 32.3813 139.587 32.8933C139.075 33.3973 138.447 33.7973 137.703 34.0933C136.959 34.3813 136.107 34.5253 135.147 34.5253C134.595 34.5253 134.051 34.4693 133.515 34.3573C132.979 34.2533 132.463 34.1013 131.967 33.9013C131.479 33.7013 131.019 33.4613 130.587 33.1813C130.155 32.9013 129.771 32.5893 129.435 32.2453L130.383 30.6973C130.463 30.5853 130.567 30.4933 130.695 30.4213C130.823 30.3413 130.959 30.3013 131.103 30.3013C131.303 30.3013 131.519 30.3853 131.751 30.5533C131.983 30.7133 132.259 30.8933 132.579 31.0933C132.899 31.2933 133.271 31.4773 133.695 31.6453C134.127 31.8053 134.643 31.8853 135.243 31.8853C136.163 31.8853 136.875 31.6693 137.379 31.2373C137.883 30.7973 138.135 30.1693 138.135 29.3533C138.135 28.8973 138.019 28.5253 137.787 28.2373C137.563 27.9493 137.263 27.7093 136.887 27.5173C136.511 27.3173 136.083 27.1493 135.603 27.0133C135.123 26.8773 134.635 26.7293 134.139 26.5693C133.643 26.4093 133.155 26.2173 132.675 25.9933C132.195 25.7693 131.767 25.4773 131.391 25.1173C131.015 24.7573 130.711 24.3093 130.479 23.7733C130.255 23.2293 130.143 22.5613 130.143 21.7693C130.143 21.1373 130.267 20.5213 130.515 19.9213C130.771 19.3213 131.139 18.7893 131.619 18.3253C132.099 17.8613 132.691 17.4893 133.395 17.2093C134.099 16.9293 134.907 16.7893 135.819 16.7893C136.843 16.7893 137.787 16.9493 138.651 17.2693C139.515 17.5893 140.251 18.0373 140.859 18.6133L140.055 20.1373ZM166.37 25.6573C166.37 26.9293 166.158 28.1093 165.734 29.1973C165.318 30.2773 164.726 31.2133 163.958 32.0053C163.19 32.7973 162.266 33.4173 161.186 33.8653C160.106 34.3053 158.906 34.5253 157.586 34.5253C156.274 34.5253 155.078 34.3053 153.998 33.8653C152.918 33.4173 151.99 32.7973 151.214 32.0053C150.446 31.2133 149.85 30.2773 149.426 29.1973C149.002 28.1093 148.79 26.9293 148.79 25.6573C148.79 24.3853 149.002 23.2093 149.426 22.1293C149.85 21.0413 150.446 20.1013 151.214 19.3093C151.99 18.5173 152.918 17.9013 153.998 17.4613C155.078 17.0133 156.274 16.7893 157.586 16.7893C158.466 16.7893 159.294 16.8933 160.07 17.1013C160.846 17.3013 161.558 17.5893 162.206 17.9653C162.854 18.3333 163.434 18.7853 163.946 19.3213C164.466 19.8493 164.906 20.4413 165.266 21.0973C165.626 21.7533 165.898 22.4653 166.082 23.2333C166.274 24.0013 166.37 24.8093 166.37 25.6573ZM163.07 25.6573C163.07 24.7053 162.942 23.8533 162.686 23.1013C162.43 22.3413 162.066 21.6973 161.594 21.1693C161.122 20.6413 160.546 20.2373 159.866 19.9573C159.194 19.6773 158.434 19.5373 157.586 19.5373C156.738 19.5373 155.974 19.6773 155.294 19.9573C154.622 20.2373 154.046 20.6413 153.566 21.1693C153.094 21.6973 152.73 22.3413 152.474 23.1013C152.218 23.8533 152.09 24.7053 152.09 25.6573C152.09 26.6093 152.218 27.4653 152.474 28.2253C152.73 28.9773 153.094 29.6173 153.566 30.1453C154.046 30.6653 154.622 31.0653 155.294 31.3453C155.974 31.6253 156.738 31.7653 157.586 31.7653C158.434 31.7653 159.194 31.6253 159.866 31.3453C160.546 31.0653 161.122 30.6653 161.594 30.1453C162.066 29.6173 162.43 28.9773 162.686 28.2253C162.942 27.4653 163.07 26.6093 163.07 25.6573ZM172.445 19.5493V24.6853H178.949V27.2653H172.445V34.3333H169.205V16.9813H180.149V19.5493H172.445ZM197.289 20.1373C197.193 20.3053 197.089 20.4293 196.977 20.5093C196.873 20.5813 196.741 20.6173 196.581 20.6173C196.413 20.6173 196.229 20.5573 196.029 20.4373C195.837 20.3093 195.605 20.1693 195.333 20.0173C195.061 19.8653 194.741 19.7293 194.373 19.6093C194.013 19.4813 193.585 19.4173 193.089 19.4173C192.641 19.4173 192.249 19.4733 191.913 19.5853C191.577 19.6893 191.293 19.8373 191.061 20.0293C190.837 20.2213 190.669 20.4533 190.557 20.7253C190.445 20.9893 190.389 21.2813 190.389 21.6013C190.389 22.0093 190.501 22.3493 190.725 22.6213C190.957 22.8933 191.261 23.1253 191.637 23.3173C192.013 23.5093 192.441 23.6813 192.921 23.8333C193.401 23.9853 193.893 24.1493 194.397 24.3253C194.901 24.4933 195.393 24.6933 195.873 24.9253C196.353 25.1493 196.781 25.4373 197.157 25.7893C197.533 26.1333 197.833 26.5573 198.057 27.0613C198.289 27.5653 198.405 28.1773 198.405 28.8973C198.405 29.6813 198.269 30.4173 197.997 31.1053C197.733 31.7853 197.341 32.3813 196.821 32.8933C196.309 33.3973 195.681 33.7973 194.937 34.0933C194.193 34.3813 193.341 34.5253 192.381 34.5253C191.829 34.5253 191.285 34.4693 190.749 34.3573C190.213 34.2533 189.697 34.1013 189.201 33.9013C188.713 33.7013 188.253 33.4613 187.821 33.1813C187.389 32.9013 187.005 32.5893 186.669 32.2453L187.617 30.6973C187.697 30.5853 187.801 30.4933 187.929 30.4213C188.057 30.3413 188.193 30.3013 188.337 30.3013C188.537 30.3013 188.753 30.3853 188.985 30.5533C189.217 30.7133 189.493 30.8933 189.813 31.0933C190.133 31.2933 190.505 31.4773 190.929 31.6453C191.361 31.8053 191.877 31.8853 192.477 31.8853C193.397 31.8853 194.109 31.6693 194.613 31.2373C195.117 30.7973 195.369 30.1693 195.369 29.3533C195.369 28.8973 195.253 28.5253 195.021 28.2373C194.797 27.9493 194.497 27.7093 194.121 27.5173C193.745 27.3173 193.317 27.1493 192.837 27.0133C192.357 26.8773 191.869 26.7293 191.373 26.5693C190.877 26.4093 190.389 26.2173 189.909 25.9933C189.429 25.7693 189.001 25.4773 188.625 25.1173C188.249 24.7573 187.945 24.3093 187.713 23.7733C187.489 23.2293 187.377 22.5613 187.377 21.7693C187.377 21.1373 187.501 20.5213 187.749 19.9213C188.005 19.3213 188.373 18.7893 188.853 18.3253C189.333 17.8613 189.925 17.4893 190.629 17.2093C191.333 16.9293 192.141 16.7893 193.053 16.7893C194.077 16.7893 195.021 16.9493 195.885 17.2693C196.749 17.5893 197.485 18.0373 198.093 18.6133L197.289 20.1373ZM206.861 25.7053C207.453 25.7053 207.969 25.6333 208.409 25.4893C208.849 25.3373 209.213 25.1253 209.501 24.8533C209.797 24.5733 210.017 24.2373 210.161 23.8453C210.305 23.4453 210.377 23.0013 210.377 22.5133C210.377 22.0493 210.305 21.6293 210.161 21.2533C210.017 20.8773 209.801 20.5573 209.513 20.2933C209.225 20.0293 208.861 19.8293 208.421 19.6933C207.981 19.5493 207.461 19.4773 206.861 19.4773H204.449V25.7053H206.861ZM206.861 16.9813C208.021 16.9813 209.025 17.1173 209.873 17.3893C210.721 17.6613 211.421 18.0413 211.973 18.5293C212.525 19.0173 212.933 19.6013 213.197 20.2813C213.469 20.9613 213.605 21.7053 213.605 22.5133C213.605 23.3533 213.465 24.1253 213.185 24.8293C212.905 25.5253 212.485 26.1253 211.925 26.6293C211.365 27.1333 210.661 27.5253 209.813 27.8053C208.973 28.0853 207.989 28.2253 206.861 28.2253H204.449V34.3333H201.221V16.9813H206.861ZM219.32 19.5493V24.3613H225.392V26.8453H219.32V31.7533H227.024V34.3333H216.08V16.9813H227.024V19.5493H219.32ZM233.125 19.5493V24.3613H239.197V26.8453H233.125V31.7533H240.829V34.3333H229.885V16.9813H240.829V19.5493H233.125ZM255.231 30.2413C255.407 30.2413 255.563 30.3093 255.699 30.4453L256.971 31.8253C256.267 32.6973 255.399 33.3653 254.367 33.8293C253.343 34.2933 252.111 34.5253 250.671 34.5253C249.383 34.5253 248.223 34.3053 247.191 33.8653C246.167 33.4253 245.291 32.8133 244.563 32.0293C243.835 31.2453 243.275 30.3093 242.883 29.2213C242.499 28.1333 242.307 26.9453 242.307 25.6573C242.307 24.3533 242.515 23.1613 242.931 22.0813C243.347 20.9933 243.931 20.0573 244.683 19.2733C245.443 18.4893 246.347 17.8813 247.395 17.4493C248.443 17.0093 249.603 16.7893 250.875 16.7893C252.139 16.7893 253.259 16.9973 254.235 17.4133C255.219 17.8293 256.055 18.3733 256.743 19.0453L255.663 20.5453C255.599 20.6413 255.515 20.7253 255.411 20.7973C255.315 20.8693 255.179 20.9053 255.003 20.9053C254.883 20.9053 254.759 20.8733 254.631 20.8093C254.503 20.7373 254.363 20.6533 254.211 20.5573C254.059 20.4533 253.883 20.3413 253.683 20.2213C253.483 20.1013 253.251 19.9933 252.987 19.8973C252.723 19.7933 252.415 19.7093 252.063 19.6453C251.719 19.5733 251.319 19.5373 250.863 19.5373C250.087 19.5373 249.375 19.6773 248.727 19.9573C248.087 20.2293 247.535 20.6293 247.071 21.1573C246.607 21.6773 246.247 22.3173 245.991 23.0773C245.735 23.8293 245.607 24.6893 245.607 25.6573C245.607 26.6333 245.743 27.5013 246.015 28.2613C246.295 29.0213 246.671 29.6613 247.143 30.1813C247.615 30.7013 248.171 31.1013 248.811 31.3813C249.451 31.6533 250.139 31.7893 250.875 31.7893C251.315 31.7893 251.711 31.7653 252.063 31.7173C252.423 31.6693 252.751 31.5933 253.047 31.4893C253.351 31.3853 253.635 31.2533 253.899 31.0933C254.171 30.9253 254.439 30.7213 254.703 30.4813C254.783 30.4093 254.867 30.3533 254.955 30.3133C255.043 30.2653 255.135 30.2413 255.231 30.2413ZM273.81 16.9813V34.3333H270.57V26.7493H262.422V34.3333H259.182V16.9813H262.422V24.4453H270.57V16.9813H273.81Z" fill="#073B4C"/>
</g>
</svg>
