<svg width="415" height="60" viewBox="0 0 415 60" fill="none" xmlns="http://www.w3.org/2000/svg">
<g id="POS">
<rect id="Rectangle 2" width="415" height="60" rx="30" fill="#FEF5F5"/>
<path id="PARTS OF SPEECH" d="M111.83 31.372C112.422 31.372 112.938 31.3 113.378 31.156C113.818 31.004 114.182 30.792 114.47 30.52C114.766 30.24 114.986 29.904 115.13 29.512C115.274 29.112 115.346 28.668 115.346 28.18C115.346 27.716 115.274 27.296 115.13 26.92C114.986 26.544 114.77 26.224 114.482 25.96C114.194 25.696 113.83 25.496 113.39 25.36C112.95 25.216 112.43 25.144 111.83 25.144H109.418V31.372H111.83ZM111.83 22.648C112.99 22.648 113.994 22.784 114.842 23.056C115.69 23.328 116.39 23.708 116.942 24.196C117.494 24.684 117.902 25.268 118.166 25.948C118.438 26.628 118.574 27.372 118.574 28.18C118.574 29.02 118.434 29.792 118.154 30.496C117.874 31.192 117.454 31.792 116.894 32.296C116.334 32.8 115.63 33.192 114.782 33.472C113.942 33.752 112.958 33.892 111.83 33.892H109.418V40H106.19V22.648H111.83ZM128.998 33.448L126.886 27.676C126.782 27.42 126.674 27.116 126.562 26.764C126.45 26.412 126.338 26.032 126.226 25.624C126.122 26.032 126.014 26.416 125.902 26.776C125.79 27.128 125.682 27.436 125.578 27.7L123.478 33.448H128.998ZM134.698 40H132.202C131.922 40 131.694 39.932 131.518 39.796C131.342 39.652 131.21 39.476 131.122 39.268L129.826 35.728H122.638L121.342 39.268C121.278 39.452 121.154 39.62 120.97 39.772C120.786 39.924 120.558 40 120.286 40H117.766L124.594 22.648H127.882L134.698 40ZM141.739 30.904C142.347 30.904 142.875 30.828 143.323 30.676C143.779 30.524 144.151 30.316 144.439 30.052C144.735 29.78 144.955 29.46 145.099 29.092C145.243 28.724 145.315 28.32 145.315 27.88C145.315 27 145.023 26.324 144.439 25.852C143.863 25.38 142.979 25.144 141.787 25.144H139.723V30.904H141.739ZM150.043 40H147.127C146.575 40 146.175 39.784 145.927 39.352L142.279 33.796C142.143 33.588 141.991 33.44 141.823 33.352C141.663 33.264 141.423 33.22 141.103 33.22H139.723V40H136.495V22.648H141.787C142.963 22.648 143.971 22.772 144.811 23.02C145.659 23.26 146.351 23.6 146.887 24.04C147.431 24.48 147.831 25.008 148.087 25.624C148.343 26.232 148.471 26.904 148.471 27.64C148.471 28.224 148.383 28.776 148.207 29.296C148.039 29.816 147.791 30.288 147.463 30.712C147.143 31.136 146.743 31.508 146.263 31.828C145.791 32.148 145.251 32.4 144.643 32.584C144.851 32.704 145.043 32.848 145.219 33.016C145.395 33.176 145.555 33.368 145.699 33.592L150.043 40ZM163.591 25.3H158.359V40H155.131V25.3H149.899V22.648H163.591V25.3ZM175.055 25.804C174.959 25.972 174.855 26.096 174.743 26.176C174.639 26.248 174.507 26.284 174.347 26.284C174.179 26.284 173.995 26.224 173.795 26.104C173.603 25.976 173.371 25.836 173.099 25.684C172.827 25.532 172.507 25.396 172.139 25.276C171.779 25.148 171.351 25.084 170.855 25.084C170.407 25.084 170.015 25.14 169.679 25.252C169.343 25.356 169.059 25.504 168.827 25.696C168.603 25.888 168.435 26.12 168.323 26.392C168.211 26.656 168.155 26.948 168.155 27.268C168.155 27.676 168.267 28.016 168.491 28.288C168.723 28.56 169.027 28.792 169.403 28.984C169.779 29.176 170.207 29.348 170.687 29.5C171.167 29.652 171.659 29.816 172.163 29.992C172.667 30.16 173.159 30.36 173.639 30.592C174.119 30.816 174.547 31.104 174.923 31.456C175.299 31.8 175.599 32.224 175.823 32.728C176.055 33.232 176.171 33.844 176.171 34.564C176.171 35.348 176.035 36.084 175.763 36.772C175.499 37.452 175.107 38.048 174.587 38.56C174.075 39.064 173.447 39.464 172.703 39.76C171.959 40.048 171.107 40.192 170.147 40.192C169.595 40.192 169.051 40.136 168.515 40.024C167.979 39.92 167.463 39.768 166.967 39.568C166.479 39.368 166.019 39.128 165.587 38.848C165.155 38.568 164.771 38.256 164.435 37.912L165.383 36.364C165.463 36.252 165.567 36.16 165.695 36.088C165.823 36.008 165.959 35.968 166.103 35.968C166.303 35.968 166.519 36.052 166.751 36.22C166.983 36.38 167.259 36.56 167.579 36.76C167.899 36.96 168.271 37.144 168.695 37.312C169.127 37.472 169.643 37.552 170.243 37.552C171.163 37.552 171.875 37.336 172.379 36.904C172.883 36.464 173.135 35.836 173.135 35.02C173.135 34.564 173.019 34.192 172.787 33.904C172.563 33.616 172.263 33.376 171.887 33.184C171.511 32.984 171.083 32.816 170.603 32.68C170.123 32.544 169.635 32.396 169.139 32.236C168.643 32.076 168.155 31.884 167.675 31.66C167.195 31.436 166.767 31.144 166.391 30.784C166.015 30.424 165.711 29.976 165.479 29.44C165.255 28.896 165.143 28.228 165.143 27.436C165.143 26.804 165.267 26.188 165.515 25.588C165.771 24.988 166.139 24.456 166.619 23.992C167.099 23.528 167.691 23.156 168.395 22.876C169.099 22.596 169.907 22.456 170.819 22.456C171.843 22.456 172.787 22.616 173.651 22.936C174.515 23.256 175.251 23.704 175.859 24.28L175.055 25.804ZM201.371 31.324C201.371 32.596 201.159 33.776 200.735 34.864C200.319 35.944 199.727 36.88 198.959 37.672C198.191 38.464 197.267 39.084 196.187 39.532C195.107 39.972 193.907 40.192 192.587 40.192C191.275 40.192 190.079 39.972 188.999 39.532C187.919 39.084 186.991 38.464 186.215 37.672C185.447 36.88 184.851 35.944 184.427 34.864C184.003 33.776 183.791 32.596 183.791 31.324C183.791 30.052 184.003 28.876 184.427 27.796C184.851 26.708 185.447 25.768 186.215 24.976C186.991 24.184 187.919 23.568 188.999 23.128C190.079 22.68 191.275 22.456 192.587 22.456C193.467 22.456 194.295 22.56 195.071 22.768C195.847 22.968 196.559 23.256 197.207 23.632C197.855 24 198.435 24.452 198.947 24.988C199.467 25.516 199.907 26.108 200.267 26.764C200.627 27.42 200.899 28.132 201.083 28.9C201.275 29.668 201.371 30.476 201.371 31.324ZM198.071 31.324C198.071 30.372 197.943 29.52 197.687 28.768C197.431 28.008 197.067 27.364 196.595 26.836C196.123 26.308 195.547 25.904 194.867 25.624C194.195 25.344 193.435 25.204 192.587 25.204C191.739 25.204 190.975 25.344 190.295 25.624C189.623 25.904 189.047 26.308 188.567 26.836C188.095 27.364 187.731 28.008 187.475 28.768C187.219 29.52 187.091 30.372 187.091 31.324C187.091 32.276 187.219 33.132 187.475 33.892C187.731 34.644 188.095 35.284 188.567 35.812C189.047 36.332 189.623 36.732 190.295 37.012C190.975 37.292 191.739 37.432 192.587 37.432C193.435 37.432 194.195 37.292 194.867 37.012C195.547 36.732 196.123 36.332 196.595 35.812C197.067 35.284 197.431 34.644 197.687 33.892C197.943 33.132 198.071 32.276 198.071 31.324ZM207.445 25.216V30.352H213.949V32.932H207.445V40H204.205V22.648H215.149V25.216H207.445ZM232.289 25.804C232.193 25.972 232.089 26.096 231.977 26.176C231.873 26.248 231.741 26.284 231.581 26.284C231.413 26.284 231.229 26.224 231.029 26.104C230.837 25.976 230.605 25.836 230.333 25.684C230.061 25.532 229.741 25.396 229.373 25.276C229.013 25.148 228.585 25.084 228.089 25.084C227.641 25.084 227.249 25.14 226.913 25.252C226.577 25.356 226.293 25.504 226.061 25.696C225.837 25.888 225.669 26.12 225.557 26.392C225.445 26.656 225.389 26.948 225.389 27.268C225.389 27.676 225.501 28.016 225.725 28.288C225.957 28.56 226.261 28.792 226.637 28.984C227.013 29.176 227.441 29.348 227.921 29.5C228.401 29.652 228.893 29.816 229.397 29.992C229.901 30.16 230.393 30.36 230.873 30.592C231.353 30.816 231.781 31.104 232.157 31.456C232.533 31.8 232.833 32.224 233.057 32.728C233.289 33.232 233.405 33.844 233.405 34.564C233.405 35.348 233.269 36.084 232.997 36.772C232.733 37.452 232.341 38.048 231.821 38.56C231.309 39.064 230.681 39.464 229.937 39.76C229.193 40.048 228.341 40.192 227.381 40.192C226.829 40.192 226.285 40.136 225.749 40.024C225.213 39.92 224.697 39.768 224.201 39.568C223.713 39.368 223.253 39.128 222.821 38.848C222.389 38.568 222.005 38.256 221.669 37.912L222.617 36.364C222.697 36.252 222.801 36.16 222.929 36.088C223.057 36.008 223.193 35.968 223.337 35.968C223.537 35.968 223.753 36.052 223.985 36.22C224.217 36.38 224.493 36.56 224.813 36.76C225.133 36.96 225.505 37.144 225.929 37.312C226.361 37.472 226.877 37.552 227.477 37.552C228.397 37.552 229.109 37.336 229.613 36.904C230.117 36.464 230.369 35.836 230.369 35.02C230.369 34.564 230.253 34.192 230.021 33.904C229.797 33.616 229.497 33.376 229.121 33.184C228.745 32.984 228.317 32.816 227.837 32.68C227.357 32.544 226.869 32.396 226.373 32.236C225.877 32.076 225.389 31.884 224.909 31.66C224.429 31.436 224.001 31.144 223.625 30.784C223.249 30.424 222.945 29.976 222.713 29.44C222.489 28.896 222.377 28.228 222.377 27.436C222.377 26.804 222.501 26.188 222.749 25.588C223.005 24.988 223.373 24.456 223.853 23.992C224.333 23.528 224.925 23.156 225.629 22.876C226.333 22.596 227.141 22.456 228.053 22.456C229.077 22.456 230.021 22.616 230.885 22.936C231.749 23.256 232.485 23.704 233.093 24.28L232.289 25.804ZM241.861 31.372C242.453 31.372 242.969 31.3 243.409 31.156C243.849 31.004 244.213 30.792 244.501 30.52C244.797 30.24 245.017 29.904 245.161 29.512C245.305 29.112 245.377 28.668 245.377 28.18C245.377 27.716 245.305 27.296 245.161 26.92C245.017 26.544 244.801 26.224 244.513 25.96C244.225 25.696 243.861 25.496 243.421 25.36C242.981 25.216 242.461 25.144 241.861 25.144H239.449V31.372H241.861ZM241.861 22.648C243.021 22.648 244.025 22.784 244.873 23.056C245.721 23.328 246.421 23.708 246.973 24.196C247.525 24.684 247.933 25.268 248.197 25.948C248.469 26.628 248.605 27.372 248.605 28.18C248.605 29.02 248.465 29.792 248.185 30.496C247.905 31.192 247.485 31.792 246.925 32.296C246.365 32.8 245.661 33.192 244.813 33.472C243.973 33.752 242.989 33.892 241.861 33.892H239.449V40H236.221V22.648H241.861ZM254.32 25.216V30.028H260.392V32.512H254.32V37.42H262.024V40H251.08V22.648H262.024V25.216H254.32ZM268.125 25.216V30.028H274.197V32.512H268.125V37.42H275.829V40H264.885V22.648H275.829V25.216H268.125ZM290.231 35.908C290.407 35.908 290.563 35.976 290.699 36.112L291.971 37.492C291.267 38.364 290.399 39.032 289.367 39.496C288.343 39.96 287.111 40.192 285.671 40.192C284.383 40.192 283.223 39.972 282.191 39.532C281.167 39.092 280.291 38.48 279.563 37.696C278.835 36.912 278.275 35.976 277.883 34.888C277.499 33.8 277.307 32.612 277.307 31.324C277.307 30.02 277.515 28.828 277.931 27.748C278.347 26.66 278.931 25.724 279.683 24.94C280.443 24.156 281.347 23.548 282.395 23.116C283.443 22.676 284.603 22.456 285.875 22.456C287.139 22.456 288.259 22.664 289.235 23.08C290.219 23.496 291.055 24.04 291.743 24.712L290.663 26.212C290.599 26.308 290.515 26.392 290.411 26.464C290.315 26.536 290.179 26.572 290.003 26.572C289.883 26.572 289.759 26.54 289.631 26.476C289.503 26.404 289.363 26.32 289.211 26.224C289.059 26.12 288.883 26.008 288.683 25.888C288.483 25.768 288.251 25.66 287.987 25.564C287.723 25.46 287.415 25.376 287.063 25.312C286.719 25.24 286.319 25.204 285.863 25.204C285.087 25.204 284.375 25.344 283.727 25.624C283.087 25.896 282.535 26.296 282.071 26.824C281.607 27.344 281.247 27.984 280.991 28.744C280.735 29.496 280.607 30.356 280.607 31.324C280.607 32.3 280.743 33.168 281.015 33.928C281.295 34.688 281.671 35.328 282.143 35.848C282.615 36.368 283.171 36.768 283.811 37.048C284.451 37.32 285.139 37.456 285.875 37.456C286.315 37.456 286.711 37.432 287.063 37.384C287.423 37.336 287.751 37.26 288.047 37.156C288.351 37.052 288.635 36.92 288.899 36.76C289.171 36.592 289.439 36.388 289.703 36.148C289.783 36.076 289.867 36.02 289.955 35.98C290.043 35.932 290.135 35.908 290.231 35.908ZM308.81 22.648V40H305.57V32.416H297.422V40H294.182V22.648H297.422V30.112H305.57V22.648H308.81Z" fill="#073B4C"/>
</g>
</svg>
