<svg width="171" height="51" viewBox="0 0 171 51" fill="none" xmlns="http://www.w3.org/2000/svg">
<g id="preposition">
<rect id="Rectangle 5" x="0.997192" y="0.348175" width="170" height="50" rx="25" fill="#9CC9A3"/>
<path id="PREPOSITION" d="M26.3692 25.4439C26.8625 25.4439 27.2925 25.3839 27.6592 25.2639C28.0259 25.1372 28.3292 24.9605 28.5692 24.7339C28.8159 24.5005 28.9992 24.2205 29.1192 23.8939C29.2392 23.5605 29.2992 23.1905 29.2992 22.7839C29.2992 22.3972 29.2392 22.0472 29.1192 21.7339C28.9992 21.4205 28.8192 21.1539 28.5792 20.9339C28.3392 20.7139 28.0359 20.5472 27.6692 20.4339C27.3025 20.3139 26.8692 20.2539 26.3692 20.2539H24.3592V25.4439H26.3692ZM26.3692 18.1739C27.3359 18.1739 28.1725 18.2872 28.8792 18.5139C29.5859 18.7405 30.1692 19.0572 30.6292 19.4639C31.0892 19.8705 31.4292 20.3572 31.6492 20.9239C31.8759 21.4905 31.9892 22.1105 31.9892 22.7839C31.9892 23.4839 31.8725 24.1272 31.6392 24.7139C31.4059 25.2939 31.0559 25.7939 30.5892 26.2139C30.1225 26.6339 29.5359 26.9605 28.8292 27.1939C28.1292 27.4272 27.3092 27.5439 26.3692 27.5439H24.3592V32.6339H21.6692V18.1739H26.3692ZM38.422 25.0539C38.9287 25.0539 39.3687 24.9905 39.742 24.8639C40.122 24.7372 40.432 24.5639 40.672 24.3439C40.9187 24.1172 41.102 23.8505 41.222 23.5439C41.342 23.2372 41.402 22.9005 41.402 22.5339C41.402 21.8005 41.1587 21.2372 40.672 20.8439C40.192 20.4505 39.4553 20.2539 38.462 20.2539H36.742V25.0539H38.422ZM45.342 32.6339H42.912C42.452 32.6339 42.1187 32.4539 41.912 32.0939L38.872 27.4639C38.7587 27.2905 38.632 27.1672 38.492 27.0939C38.3587 27.0205 38.1587 26.9839 37.892 26.9839H36.742V32.6339H34.052V18.1739H38.462C39.442 18.1739 40.282 18.2772 40.982 18.4839C41.6887 18.6839 42.2653 18.9672 42.712 19.3339C43.1653 19.7005 43.4987 20.1405 43.712 20.6539C43.9253 21.1605 44.032 21.7205 44.032 22.3339C44.032 22.8205 43.9587 23.2805 43.812 23.7139C43.672 24.1472 43.4653 24.5405 43.192 24.8939C42.9253 25.2472 42.592 25.5572 42.192 25.8239C41.7987 26.0905 41.3487 26.3005 40.842 26.4539C41.0153 26.5539 41.1753 26.6739 41.322 26.8139C41.4687 26.9472 41.602 27.1072 41.722 27.2939L45.342 32.6339ZM49.6036 20.3139V24.3239H54.6636V26.3939H49.6036V30.4839H56.0236V32.6339H46.9036V18.1739H56.0236V20.3139H49.6036ZM63.1075 25.4439C63.6008 25.4439 64.0308 25.3839 64.3975 25.2639C64.7641 25.1372 65.0675 24.9605 65.3075 24.7339C65.5541 24.5005 65.7375 24.2205 65.8575 23.8939C65.9775 23.5605 66.0375 23.1905 66.0375 22.7839C66.0375 22.3972 65.9775 22.0472 65.8575 21.7339C65.7375 21.4205 65.5575 21.1539 65.3175 20.9339C65.0775 20.7139 64.7741 20.5472 64.4075 20.4339C64.0408 20.3139 63.6075 20.2539 63.1075 20.2539H61.0975V25.4439H63.1075ZM63.1075 18.1739C64.0741 18.1739 64.9108 18.2872 65.6175 18.5139C66.3241 18.7405 66.9075 19.0572 67.3675 19.4639C67.8275 19.8705 68.1675 20.3572 68.3875 20.9239C68.6141 21.4905 68.7275 22.1105 68.7275 22.7839C68.7275 23.4839 68.6108 24.1272 68.3775 24.7139C68.1441 25.2939 67.7941 25.7939 67.3275 26.2139C66.8608 26.6339 66.2741 26.9605 65.5675 27.1939C64.8675 27.4272 64.0475 27.5439 63.1075 27.5439H61.0975V32.6339H58.4075V18.1739H63.1075ZM84.5803 25.4039C84.5803 26.4639 84.4036 27.4472 84.0503 28.3539C83.7036 29.2539 83.2103 30.0339 82.5703 30.6939C81.9303 31.3539 81.1603 31.8705 80.2603 32.2439C79.3603 32.6105 78.3603 32.7939 77.2603 32.7939C76.1669 32.7939 75.1703 32.6105 74.2703 32.2439C73.3703 31.8705 72.5969 31.3539 71.9503 30.6939C71.3103 30.0339 70.8136 29.2539 70.4603 28.3539C70.1069 27.4472 69.9303 26.4639 69.9303 25.4039C69.9303 24.3439 70.1069 23.3639 70.4603 22.4639C70.8136 21.5572 71.3103 20.7739 71.9503 20.1139C72.5969 19.4539 73.3703 18.9405 74.2703 18.5739C75.1703 18.2005 76.1669 18.0139 77.2603 18.0139C77.9936 18.0139 78.6836 18.1005 79.3303 18.2739C79.977 18.4405 80.5703 18.6805 81.1103 18.9939C81.6503 19.3005 82.1336 19.6772 82.5603 20.1239C82.9936 20.5639 83.3603 21.0572 83.6603 21.6039C83.9603 22.1505 84.1869 22.7439 84.3403 23.3839C84.5003 24.0239 84.5803 24.6972 84.5803 25.4039ZM81.8303 25.4039C81.8303 24.6105 81.7236 23.9005 81.5103 23.2739C81.297 22.6405 80.9936 22.1039 80.6003 21.6639C80.2069 21.2239 79.7269 20.8872 79.1603 20.6539C78.6003 20.4205 77.9669 20.3039 77.2603 20.3039C76.5536 20.3039 75.9169 20.4205 75.3503 20.6539C74.7903 20.8872 74.3103 21.2239 73.9103 21.6639C73.5169 22.1039 73.2136 22.6405 73.0003 23.2739C72.7869 23.9005 72.6803 24.6105 72.6803 25.4039C72.6803 26.1972 72.7869 26.9105 73.0003 27.5439C73.2136 28.1705 73.5169 28.7039 73.9103 29.1439C74.3103 29.5772 74.7903 29.9105 75.3503 30.1439C75.9169 30.3772 76.5536 30.4939 77.2603 30.4939C77.9669 30.4939 78.6003 30.3772 79.1603 30.1439C79.7269 29.9105 80.2069 29.5772 80.6003 29.1439C80.9936 28.7039 81.297 28.1705 81.5103 27.5439C81.7236 26.9105 81.8303 26.1972 81.8303 25.4039ZM94.6426 20.8039C94.5626 20.9439 94.476 21.0472 94.3826 21.1139C94.296 21.1739 94.186 21.2039 94.0526 21.2039C93.9126 21.2039 93.7593 21.1539 93.5926 21.0539C93.4326 20.9472 93.2393 20.8305 93.0126 20.7039C92.786 20.5772 92.5193 20.4639 92.2126 20.3639C91.9126 20.2572 91.556 20.2039 91.1426 20.2039C90.7693 20.2039 90.4426 20.2505 90.1626 20.3439C89.8826 20.4305 89.646 20.5539 89.4526 20.7139C89.266 20.8739 89.126 21.0672 89.0326 21.2939C88.9393 21.5139 88.8926 21.7572 88.8926 22.0239C88.8926 22.3639 88.986 22.6472 89.1726 22.8739C89.366 23.1005 89.6193 23.2939 89.9326 23.4539C90.246 23.6139 90.6026 23.7572 91.0026 23.8839C91.4026 24.0105 91.8126 24.1472 92.2326 24.2939C92.6526 24.4339 93.0626 24.6005 93.4626 24.7939C93.8626 24.9805 94.2193 25.2205 94.5326 25.5139C94.846 25.8005 95.096 26.1539 95.2826 26.5739C95.476 26.9939 95.5726 27.5039 95.5726 28.1039C95.5726 28.7572 95.4593 29.3705 95.2326 29.9439C95.0126 30.5105 94.686 31.0072 94.2526 31.4339C93.826 31.8539 93.3026 32.1872 92.6826 32.4339C92.0626 32.6739 91.3526 32.7939 90.5526 32.7939C90.0926 32.7939 89.6393 32.7472 89.1926 32.6539C88.746 32.5672 88.316 32.4405 87.9026 32.2739C87.496 32.1072 87.1126 31.9072 86.7526 31.6739C86.3926 31.4405 86.0726 31.1805 85.7926 30.8939L86.5826 29.6039C86.6493 29.5105 86.736 29.4339 86.8426 29.3739C86.9493 29.3072 87.0626 29.2739 87.1826 29.2739C87.3493 29.2739 87.5293 29.3439 87.7226 29.4839C87.916 29.6172 88.146 29.7672 88.4126 29.9339C88.6793 30.1005 88.9893 30.2539 89.3426 30.3939C89.7026 30.5272 90.1326 30.5939 90.6326 30.5939C91.3993 30.5939 91.9926 30.4139 92.4126 30.0539C92.8326 29.6872 93.0426 29.1639 93.0426 28.4839C93.0426 28.1039 92.946 27.7939 92.7526 27.5539C92.566 27.3139 92.316 27.1139 92.0026 26.9539C91.6893 26.7872 91.3326 26.6472 90.9326 26.5339C90.5326 26.4205 90.126 26.2972 89.7126 26.1639C89.2993 26.0305 88.8926 25.8705 88.4926 25.6839C88.0926 25.4972 87.736 25.2539 87.4226 24.9539C87.1093 24.6539 86.856 24.2805 86.6626 23.8339C86.476 23.3805 86.3826 22.8239 86.3826 22.1639C86.3826 21.6372 86.486 21.1239 86.6926 20.6239C86.906 20.1239 87.2126 19.6805 87.6126 19.2939C88.0126 18.9072 88.506 18.5972 89.0926 18.3639C89.6793 18.1305 90.3526 18.0139 91.1126 18.0139C91.966 18.0139 92.7526 18.1472 93.4726 18.4139C94.1926 18.6805 94.806 19.0539 95.3126 19.5339L94.6426 20.8039ZM100.619 32.6339H97.9192V18.1739H100.619V32.6339ZM113.957 20.3839H109.597V32.6339H106.907V20.3839H102.547V18.1739H113.957V20.3839ZM118.549 32.6339H115.849V18.1739H118.549V32.6339ZM135.576 25.4039C135.576 26.4639 135.4 27.4472 135.046 28.3539C134.7 29.2539 134.206 30.0339 133.566 30.6939C132.926 31.3539 132.156 31.8705 131.256 32.2439C130.356 32.6105 129.356 32.7939 128.256 32.7939C127.163 32.7939 126.166 32.6105 125.266 32.2439C124.366 31.8705 123.593 31.3539 122.946 30.6939C122.306 30.0339 121.81 29.2539 121.456 28.3539C121.103 27.4472 120.926 26.4639 120.926 25.4039C120.926 24.3439 121.103 23.3639 121.456 22.4639C121.81 21.5572 122.306 20.7739 122.946 20.1139C123.593 19.4539 124.366 18.9405 125.266 18.5739C126.166 18.2005 127.163 18.0139 128.256 18.0139C128.99 18.0139 129.68 18.1005 130.326 18.2739C130.973 18.4405 131.566 18.6805 132.106 18.9939C132.646 19.3005 133.13 19.6772 133.556 20.1239C133.99 20.5639 134.356 21.0572 134.656 21.6039C134.956 22.1505 135.183 22.7439 135.336 23.3839C135.496 24.0239 135.576 24.6972 135.576 25.4039ZM132.826 25.4039C132.826 24.6105 132.72 23.9005 132.506 23.2739C132.293 22.6405 131.99 22.1039 131.596 21.6639C131.203 21.2239 130.723 20.8872 130.156 20.6539C129.596 20.4205 128.963 20.3039 128.256 20.3039C127.55 20.3039 126.913 20.4205 126.346 20.6539C125.786 20.8872 125.306 21.2239 124.906 21.6639C124.513 22.1039 124.21 22.6405 123.996 23.2739C123.783 23.9005 123.676 24.6105 123.676 25.4039C123.676 26.1972 123.783 26.9105 123.996 27.5439C124.21 28.1705 124.513 28.7039 124.906 29.1439C125.306 29.5772 125.786 29.9105 126.346 30.1439C126.913 30.3772 127.55 30.4939 128.256 30.4939C128.963 30.4939 129.596 30.3772 130.156 30.1439C130.723 29.9105 131.203 29.5772 131.596 29.1439C131.99 28.7039 132.293 28.1705 132.506 27.5439C132.72 26.9105 132.826 26.1972 132.826 25.4039ZM150.129 18.1739V32.6339H148.749C148.535 32.6339 148.355 32.6005 148.209 32.5339C148.069 32.4605 147.932 32.3405 147.799 32.1739L140.249 22.5339C140.289 22.9739 140.309 23.3805 140.309 23.7539V32.6339H137.939V18.1739H139.349C139.462 18.1739 139.559 18.1805 139.639 18.1939C139.725 18.2005 139.799 18.2205 139.859 18.2539C139.925 18.2805 139.989 18.3239 140.049 18.3839C140.109 18.4372 140.175 18.5105 140.249 18.6039L147.829 28.2839C147.809 28.0505 147.792 27.8205 147.779 27.5939C147.765 27.3672 147.759 27.1572 147.759 26.9639V18.1739H150.129Z" fill="#073B4C"/>
</g>
</svg>
