<svg width="200" height="60" viewBox="0 0 200 60" fill="none" xmlns="http://www.w3.org/2000/svg">
<g id="preposition">
<rect id="Rectangle 5" width="200" height="60" rx="30" fill="#9CC9A3"/>
<path id="PREPOSITION" d="M28.4487 30.5149C29.0407 30.5149 29.5567 30.4429 29.9967 30.2989C30.4367 30.1469 30.8007 29.9349 31.0887 29.6629C31.3847 29.3829 31.6047 29.0469 31.7487 28.6549C31.8927 28.2549 31.9647 27.8109 31.9647 27.3229C31.9647 26.8589 31.8927 26.4389 31.7487 26.0629C31.6047 25.6869 31.3887 25.3669 31.1007 25.1029C30.8127 24.8389 30.4487 24.6389 30.0087 24.5029C29.5687 24.3589 29.0487 24.2869 28.4487 24.2869H26.0367V30.5149H28.4487ZM28.4487 21.7909C29.6087 21.7909 30.6127 21.9269 31.4607 22.1989C32.3087 22.4709 33.0087 22.8509 33.5607 23.3389C34.1127 23.8269 34.5207 24.4109 34.7847 25.0909C35.0567 25.7709 35.1927 26.5149 35.1927 27.3229C35.1927 28.1629 35.0527 28.9349 34.7727 29.6389C34.4927 30.3349 34.0727 30.9349 33.5127 31.4389C32.9527 31.9429 32.2487 32.3349 31.4007 32.6149C30.5607 32.8949 29.5767 33.0349 28.4487 33.0349H26.0367V39.1429H22.8087V21.7909H28.4487ZM42.9121 30.0469C43.5201 30.0469 44.0481 29.9709 44.4961 29.8189C44.9521 29.6669 45.3241 29.4589 45.6121 29.1949C45.9081 28.9229 46.1281 28.6029 46.2721 28.2349C46.4161 27.8669 46.4881 27.4629 46.4881 27.0229C46.4881 26.1429 46.1961 25.4669 45.6121 24.9949C45.0361 24.5229 44.1521 24.2869 42.9601 24.2869H40.8961V30.0469H42.9121ZM51.2161 39.1429H48.3001C47.7481 39.1429 47.3481 38.9269 47.1001 38.4949L43.4521 32.9389C43.3161 32.7309 43.1641 32.5829 42.9961 32.4949C42.8361 32.4069 42.5961 32.3629 42.2761 32.3629H40.8961V39.1429H37.6681V21.7909H42.9601C44.1361 21.7909 45.1441 21.9149 45.9841 22.1629C46.8321 22.4029 47.5241 22.7429 48.0601 23.1829C48.6041 23.6229 49.0041 24.1509 49.2601 24.7669C49.5161 25.3749 49.6441 26.0469 49.6441 26.7829C49.6441 27.3669 49.5561 27.9189 49.3801 28.4389C49.2121 28.9589 48.9641 29.4309 48.6361 29.8549C48.3161 30.2789 47.9161 30.6509 47.4361 30.9709C46.9641 31.2909 46.4241 31.5429 45.8161 31.7269C46.0241 31.8469 46.2161 31.9909 46.3921 32.1589C46.5681 32.3189 46.7281 32.5109 46.8721 32.7349L51.2161 39.1429ZM56.33 24.3589V29.1709H62.402V31.6549H56.33V36.5629H64.034V39.1429H53.09V21.7909H64.034V24.3589H56.33ZM72.5346 30.5149C73.1266 30.5149 73.6426 30.4429 74.0826 30.2989C74.5226 30.1469 74.8866 29.9349 75.1746 29.6629C75.4706 29.3829 75.6906 29.0469 75.8346 28.6549C75.9786 28.2549 76.0506 27.8109 76.0506 27.3229C76.0506 26.8589 75.9786 26.4389 75.8346 26.0629C75.6906 25.6869 75.4746 25.3669 75.1866 25.1029C74.8986 24.8389 74.5346 24.6389 74.0946 24.5029C73.6546 24.3589 73.1346 24.2869 72.5346 24.2869H70.1226V30.5149H72.5346ZM72.5346 21.7909C73.6946 21.7909 74.6986 21.9269 75.5466 22.1989C76.3946 22.4709 77.0946 22.8509 77.6466 23.3389C78.1986 23.8269 78.6066 24.4109 78.8706 25.0909C79.1426 25.7709 79.2786 26.5149 79.2786 27.3229C79.2786 28.1629 79.1386 28.9349 78.8586 29.6389C78.5786 30.3349 78.1586 30.9349 77.5986 31.4389C77.0386 31.9429 76.3346 32.3349 75.4866 32.6149C74.6466 32.8949 73.6626 33.0349 72.5346 33.0349H70.1226V39.1429H66.8946V21.7909H72.5346ZM98.302 30.4669C98.302 31.7389 98.09 32.9189 97.666 34.0069C97.25 35.0869 96.658 36.0229 95.89 36.8149C95.122 37.6069 94.198 38.2269 93.118 38.6749C92.038 39.1149 90.838 39.3349 89.518 39.3349C88.206 39.3349 87.01 39.1149 85.93 38.6749C84.85 38.2269 83.922 37.6069 83.146 36.8149C82.378 36.0229 81.782 35.0869 81.358 34.0069C80.934 32.9189 80.722 31.7389 80.722 30.4669C80.722 29.1949 80.934 28.0189 81.358 26.9389C81.782 25.8509 82.378 24.9109 83.146 24.1189C83.922 23.3269 84.85 22.7109 85.93 22.2709C87.01 21.8229 88.206 21.5989 89.518 21.5989C90.398 21.5989 91.226 21.7029 92.002 21.9109C92.778 22.1109 93.49 22.3989 94.138 22.7749C94.786 23.1429 95.366 23.5949 95.878 24.1309C96.398 24.6589 96.838 25.2509 97.198 25.9069C97.558 26.5629 97.83 27.2749 98.014 28.0429C98.206 28.8109 98.302 29.6189 98.302 30.4669ZM95.002 30.4669C95.002 29.5149 94.874 28.6629 94.618 27.9109C94.362 27.1509 93.998 26.5069 93.526 25.9789C93.054 25.4509 92.478 25.0469 91.798 24.7669C91.126 24.4869 90.366 24.3469 89.518 24.3469C88.67 24.3469 87.906 24.4869 87.226 24.7669C86.554 25.0469 85.978 25.4509 85.498 25.9789C85.026 26.5069 84.662 27.1509 84.406 27.9109C84.15 28.6629 84.022 29.5149 84.022 30.4669C84.022 31.4189 84.15 32.2749 84.406 33.0349C84.662 33.7869 85.026 34.4269 85.498 34.9549C85.978 35.4749 86.554 35.8749 87.226 36.1549C87.906 36.4349 88.67 36.5749 89.518 36.5749C90.366 36.5749 91.126 36.4349 91.798 36.1549C92.478 35.8749 93.054 35.4749 93.526 34.9549C93.998 34.4269 94.362 33.7869 94.618 33.0349C94.874 32.2749 95.002 31.4189 95.002 30.4669ZM110.377 24.9469C110.281 25.1149 110.177 25.2389 110.065 25.3189C109.961 25.3909 109.829 25.4269 109.669 25.4269C109.501 25.4269 109.317 25.3669 109.117 25.2469C108.925 25.1189 108.693 24.9789 108.421 24.8269C108.149 24.6749 107.829 24.5389 107.461 24.4189C107.101 24.2909 106.673 24.2269 106.177 24.2269C105.729 24.2269 105.337 24.2829 105.001 24.3949C104.665 24.4989 104.381 24.6469 104.149 24.8389C103.925 25.0309 103.757 25.2629 103.645 25.5349C103.533 25.7989 103.477 26.0909 103.477 26.4109C103.477 26.8189 103.589 27.1589 103.813 27.4309C104.045 27.7029 104.349 27.9349 104.725 28.1269C105.101 28.3189 105.529 28.4909 106.009 28.6429C106.489 28.7949 106.981 28.9589 107.485 29.1349C107.989 29.3029 108.481 29.5029 108.961 29.7349C109.441 29.9589 109.869 30.2469 110.245 30.5989C110.621 30.9429 110.921 31.3669 111.145 31.8709C111.377 32.3749 111.493 32.9869 111.493 33.7069C111.493 34.4909 111.357 35.2269 111.085 35.9149C110.821 36.5949 110.429 37.1909 109.909 37.7029C109.397 38.2069 108.769 38.6069 108.025 38.9029C107.281 39.1909 106.429 39.3349 105.469 39.3349C104.917 39.3349 104.373 39.2789 103.837 39.1669C103.301 39.0629 102.785 38.9109 102.289 38.7109C101.801 38.5109 101.341 38.2709 100.909 37.9909C100.477 37.7109 100.093 37.3989 99.7568 37.0549L100.705 35.5069C100.785 35.3949 100.889 35.3029 101.017 35.2309C101.145 35.1509 101.281 35.1109 101.425 35.1109C101.625 35.1109 101.841 35.1949 102.073 35.3629C102.305 35.5229 102.581 35.7029 102.901 35.9029C103.221 36.1029 103.593 36.2869 104.017 36.4549C104.449 36.6149 104.965 36.6949 105.565 36.6949C106.485 36.6949 107.197 36.4789 107.701 36.0469C108.205 35.6069 108.457 34.9789 108.457 34.1629C108.457 33.7069 108.341 33.3349 108.109 33.0469C107.885 32.7589 107.585 32.5189 107.209 32.3269C106.833 32.1269 106.405 31.9589 105.925 31.8229C105.445 31.6869 104.957 31.5389 104.461 31.3789C103.965 31.2189 103.477 31.0269 102.997 30.8029C102.517 30.5789 102.089 30.2869 101.713 29.9269C101.337 29.5669 101.033 29.1189 100.801 28.5829C100.577 28.0389 100.465 27.3709 100.465 26.5789C100.465 25.9469 100.589 25.3309 100.837 24.7309C101.093 24.1309 101.461 23.5989 101.941 23.1349C102.421 22.6709 103.013 22.2989 103.717 22.0189C104.421 21.7389 105.229 21.5989 106.141 21.5989C107.165 21.5989 108.109 21.7589 108.973 22.0789C109.837 22.3989 110.573 22.8469 111.181 23.4229L110.377 24.9469ZM117.549 39.1429H114.309V21.7909H117.549V39.1429ZM133.554 24.4429H128.322V39.1429H125.094V24.4429H119.862V21.7909H133.554V24.4429ZM139.064 39.1429H135.824V21.7909H139.064V39.1429ZM159.497 30.4669C159.497 31.7389 159.285 32.9189 158.861 34.0069C158.445 35.0869 157.853 36.0229 157.085 36.8149C156.317 37.6069 155.393 38.2269 154.313 38.6749C153.233 39.1149 152.033 39.3349 150.713 39.3349C149.401 39.3349 148.205 39.1149 147.125 38.6749C146.045 38.2269 145.117 37.6069 144.341 36.8149C143.573 36.0229 142.977 35.0869 142.553 34.0069C142.129 32.9189 141.917 31.7389 141.917 30.4669C141.917 29.1949 142.129 28.0189 142.553 26.9389C142.977 25.8509 143.573 24.9109 144.341 24.1189C145.117 23.3269 146.045 22.7109 147.125 22.2709C148.205 21.8229 149.401 21.5989 150.713 21.5989C151.593 21.5989 152.421 21.7029 153.197 21.9109C153.973 22.1109 154.685 22.3989 155.333 22.7749C155.981 23.1429 156.561 23.5949 157.073 24.1309C157.593 24.6589 158.033 25.2509 158.393 25.9069C158.753 26.5629 159.025 27.2749 159.209 28.0429C159.401 28.8109 159.497 29.6189 159.497 30.4669ZM156.197 30.4669C156.197 29.5149 156.069 28.6629 155.813 27.9109C155.557 27.1509 155.193 26.5069 154.721 25.9789C154.249 25.4509 153.673 25.0469 152.993 24.7669C152.321 24.4869 151.561 24.3469 150.713 24.3469C149.865 24.3469 149.101 24.4869 148.421 24.7669C147.749 25.0469 147.173 25.4509 146.693 25.9789C146.221 26.5069 145.857 27.1509 145.601 27.9109C145.345 28.6629 145.217 29.5149 145.217 30.4669C145.217 31.4189 145.345 32.2749 145.601 33.0349C145.857 33.7869 146.221 34.4269 146.693 34.9549C147.173 35.4749 147.749 35.8749 148.421 36.1549C149.101 36.4349 149.865 36.5749 150.713 36.5749C151.561 36.5749 152.321 36.4349 152.993 36.1549C153.673 35.8749 154.249 35.4749 154.721 34.9549C155.193 34.4269 155.557 33.7869 155.813 33.0349C156.069 32.2749 156.197 31.4189 156.197 30.4669ZM176.96 21.7909V39.1429H175.304C175.048 39.1429 174.832 39.1029 174.656 39.0229C174.488 38.9349 174.324 38.7909 174.164 38.5909L165.104 27.0229C165.152 27.5509 165.176 28.0389 165.176 28.4869V39.1429H162.332V21.7909H164.024C164.16 21.7909 164.276 21.7989 164.372 21.8149C164.476 21.8229 164.564 21.8469 164.636 21.8869C164.716 21.9189 164.792 21.9709 164.864 22.0429C164.936 22.1069 165.016 22.1949 165.104 22.3069L174.2 33.9229C174.176 33.6429 174.156 33.3669 174.14 33.0949C174.124 32.8229 174.116 32.5709 174.116 32.3389V21.7909H176.96Z" fill="#073B4C"/>
</g>
</svg>
