<svg width="182" height="60" viewBox="0 0 182 60" fill="none" xmlns="http://www.w3.org/2000/svg">
<g id="preposition">
<rect id="Rectangle 5" width="181.437" height="60" rx="30" fill="#88AE8C"/>
<path id="PREPOSITION" d="M19.178 30.5149C19.77 30.5149 20.286 30.4429 20.726 30.2989C21.166 30.1469 21.53 29.9349 21.818 29.6629C22.114 29.3829 22.334 29.0469 22.478 28.6549C22.622 28.2549 22.694 27.8109 22.694 27.3229C22.694 26.8589 22.622 26.4389 22.478 26.0629C22.334 25.6869 22.118 25.3669 21.83 25.1029C21.542 24.8389 21.178 24.6389 20.738 24.5029C20.298 24.3589 19.778 24.2869 19.178 24.2869H16.766V30.5149H19.178ZM19.178 21.7909C20.338 21.7909 21.342 21.9269 22.19 22.1989C23.038 22.4709 23.738 22.8509 24.29 23.3389C24.842 23.8269 25.25 24.4109 25.514 25.0909C25.786 25.7709 25.922 26.5149 25.922 27.3229C25.922 28.1629 25.782 28.9349 25.502 29.6389C25.222 30.3349 24.802 30.9349 24.242 31.4389C23.682 31.9429 22.978 32.3349 22.13 32.6149C21.29 32.8949 20.306 33.0349 19.178 33.0349H16.766V39.1429H13.538V21.7909H19.178ZM33.6414 30.0469C34.2494 30.0469 34.7774 29.9709 35.2254 29.8189C35.6814 29.6669 36.0534 29.4589 36.3414 29.1949C36.6374 28.9229 36.8574 28.6029 37.0014 28.2349C37.1454 27.8669 37.2174 27.4629 37.2174 27.0229C37.2174 26.1429 36.9254 25.4669 36.3414 24.9949C35.7654 24.5229 34.8814 24.2869 33.6894 24.2869H31.6254V30.0469H33.6414ZM41.9454 39.1429H39.0294C38.4774 39.1429 38.0774 38.9269 37.8294 38.4949L34.1814 32.9389C34.0454 32.7309 33.8934 32.5829 33.7254 32.4949C33.5654 32.4069 33.3254 32.3629 33.0054 32.3629H31.6254V39.1429H28.3974V21.7909H33.6894C34.8654 21.7909 35.8734 21.9149 36.7134 22.1629C37.5614 22.4029 38.2534 22.7429 38.7894 23.1829C39.3334 23.6229 39.7334 24.1509 39.9894 24.7669C40.2454 25.3749 40.3734 26.0469 40.3734 26.7829C40.3734 27.3669 40.2854 27.9189 40.1094 28.4389C39.9414 28.9589 39.6934 29.4309 39.3654 29.8549C39.0454 30.2789 38.6454 30.6509 38.1654 30.9709C37.6934 31.2909 37.1534 31.5429 36.5454 31.7269C36.7534 31.8469 36.9454 31.9909 37.1214 32.1589C37.2974 32.3189 37.4574 32.5109 37.6014 32.7349L41.9454 39.1429ZM47.0592 24.3589V29.1709H53.1312V31.6549H47.0592V36.5629H54.7632V39.1429H43.8192V21.7909H54.7632V24.3589H47.0592ZM63.2639 30.5149C63.8559 30.5149 64.3719 30.4429 64.8119 30.2989C65.2519 30.1469 65.6159 29.9349 65.9039 29.6629C66.1999 29.3829 66.4199 29.0469 66.5639 28.6549C66.7079 28.2549 66.7799 27.8109 66.7799 27.3229C66.7799 26.8589 66.7079 26.4389 66.5639 26.0629C66.4199 25.6869 66.2039 25.3669 65.9159 25.1029C65.6279 24.8389 65.2639 24.6389 64.8239 24.5029C64.3839 24.3589 63.8639 24.2869 63.2639 24.2869H60.8519V30.5149H63.2639ZM63.2639 21.7909C64.4239 21.7909 65.4279 21.9269 66.2759 22.1989C67.1239 22.4709 67.8239 22.8509 68.3759 23.3389C68.9279 23.8269 69.3359 24.4109 69.5999 25.0909C69.8719 25.7709 70.0079 26.5149 70.0079 27.3229C70.0079 28.1629 69.8679 28.9349 69.5879 29.6389C69.3079 30.3349 68.8879 30.9349 68.3279 31.4389C67.7679 31.9429 67.0639 32.3349 66.2159 32.6149C65.3759 32.8949 64.3919 33.0349 63.2639 33.0349H60.8519V39.1429H57.6239V21.7909H63.2639ZM89.0313 30.4669C89.0313 31.7389 88.8193 32.9189 88.3953 34.0069C87.9793 35.0869 87.3873 36.0229 86.6193 36.8149C85.8513 37.6069 84.9273 38.2269 83.8473 38.6749C82.7673 39.1149 81.5673 39.3349 80.2473 39.3349C78.9353 39.3349 77.7393 39.1149 76.6593 38.6749C75.5793 38.2269 74.6513 37.6069 73.8753 36.8149C73.1073 36.0229 72.5113 35.0869 72.0873 34.0069C71.6633 32.9189 71.4513 31.7389 71.4513 30.4669C71.4513 29.1949 71.6633 28.0189 72.0873 26.9389C72.5113 25.8509 73.1073 24.9109 73.8753 24.1189C74.6513 23.3269 75.5793 22.7109 76.6593 22.2709C77.7393 21.8229 78.9353 21.5989 80.2473 21.5989C81.1273 21.5989 81.9553 21.7029 82.7313 21.9109C83.5073 22.1109 84.2193 22.3989 84.8673 22.7749C85.5153 23.1429 86.0953 23.5949 86.6073 24.1309C87.1273 24.6589 87.5673 25.2509 87.9273 25.9069C88.2873 26.5629 88.5593 27.2749 88.7433 28.0429C88.9353 28.8109 89.0313 29.6189 89.0313 30.4669ZM85.7313 30.4669C85.7313 29.5149 85.6033 28.6629 85.3473 27.9109C85.0913 27.1509 84.7273 26.5069 84.2553 25.9789C83.7833 25.4509 83.2073 25.0469 82.5273 24.7669C81.8553 24.4869 81.0953 24.3469 80.2473 24.3469C79.3993 24.3469 78.6353 24.4869 77.9553 24.7669C77.2833 25.0469 76.7073 25.4509 76.2273 25.9789C75.7553 26.5069 75.3913 27.1509 75.1353 27.9109C74.8793 28.6629 74.7513 29.5149 74.7513 30.4669C74.7513 31.4189 74.8793 32.2749 75.1353 33.0349C75.3913 33.7869 75.7553 34.4269 76.2273 34.9549C76.7073 35.4749 77.2833 35.8749 77.9553 36.1549C78.6353 36.4349 79.3993 36.5749 80.2473 36.5749C81.0953 36.5749 81.8553 36.4349 82.5273 36.1549C83.2073 35.8749 83.7833 35.4749 84.2553 34.9549C84.7273 34.4269 85.0913 33.7869 85.3473 33.0349C85.6033 32.2749 85.7313 31.4189 85.7313 30.4669ZM101.106 24.9469C101.01 25.1149 100.906 25.2389 100.794 25.3189C100.69 25.3909 100.558 25.4269 100.398 25.4269C100.23 25.4269 100.046 25.3669 99.8461 25.2469C99.6541 25.1189 99.4221 24.9789 99.1501 24.8269C98.8781 24.6749 98.5581 24.5389 98.1901 24.4189C97.8301 24.2909 97.4021 24.2269 96.9061 24.2269C96.4581 24.2269 96.0661 24.2829 95.7301 24.3949C95.3941 24.4989 95.1101 24.6469 94.8781 24.8389C94.6541 25.0309 94.4861 25.2629 94.3741 25.5349C94.2621 25.7989 94.2061 26.0909 94.2061 26.4109C94.2061 26.8189 94.3181 27.1589 94.5421 27.4309C94.7741 27.7029 95.0781 27.9349 95.4541 28.1269C95.8301 28.3189 96.2581 28.4909 96.7381 28.6429C97.2181 28.7949 97.7101 28.9589 98.2141 29.1349C98.7181 29.3029 99.2101 29.5029 99.6901 29.7349C100.17 29.9589 100.598 30.2469 100.974 30.5989C101.35 30.9429 101.65 31.3669 101.874 31.8709C102.106 32.3749 102.222 32.9869 102.222 33.7069C102.222 34.4909 102.086 35.2269 101.814 35.9149C101.55 36.5949 101.158 37.1909 100.638 37.7029C100.126 38.2069 99.4981 38.6069 98.7541 38.9029C98.0101 39.1909 97.1581 39.3349 96.1981 39.3349C95.6461 39.3349 95.1021 39.2789 94.5661 39.1669C94.0301 39.0629 93.5141 38.9109 93.0181 38.7109C92.5301 38.5109 92.0701 38.2709 91.6381 37.9909C91.2061 37.7109 90.8221 37.3989 90.4861 37.0549L91.4341 35.5069C91.5141 35.3949 91.6181 35.3029 91.7461 35.2309C91.8741 35.1509 92.0101 35.1109 92.1541 35.1109C92.3541 35.1109 92.5701 35.1949 92.8021 35.3629C93.0341 35.5229 93.3101 35.7029 93.6301 35.9029C93.9501 36.1029 94.3221 36.2869 94.7461 36.4549C95.1781 36.6149 95.6941 36.6949 96.2941 36.6949C97.2141 36.6949 97.9261 36.4789 98.4301 36.0469C98.9341 35.6069 99.1861 34.9789 99.1861 34.1629C99.1861 33.7069 99.0701 33.3349 98.8381 33.0469C98.6141 32.7589 98.3141 32.5189 97.9381 32.3269C97.5621 32.1269 97.1341 31.9589 96.6541 31.8229C96.1741 31.6869 95.6861 31.5389 95.1901 31.3789C94.6941 31.2189 94.2061 31.0269 93.7261 30.8029C93.2461 30.5789 92.8181 30.2869 92.4421 29.9269C92.0661 29.5669 91.7621 29.1189 91.5301 28.5829C91.3061 28.0389 91.1941 27.3709 91.1941 26.5789C91.1941 25.9469 91.3181 25.3309 91.5661 24.7309C91.8221 24.1309 92.1901 23.5989 92.6701 23.1349C93.1501 22.6709 93.7421 22.2989 94.4461 22.0189C95.1501 21.7389 95.9581 21.5989 96.8701 21.5989C97.8941 21.5989 98.8381 21.7589 99.7021 22.0789C100.566 22.3989 101.302 22.8469 101.91 23.4229L101.106 24.9469ZM108.278 39.1429H105.038V21.7909H108.278V39.1429ZM124.283 24.4429H119.051V39.1429H115.823V24.4429H110.591V21.7909H124.283V24.4429ZM129.794 39.1429H126.554V21.7909H129.794V39.1429ZM150.227 30.4669C150.227 31.7389 150.015 32.9189 149.591 34.0069C149.175 35.0869 148.583 36.0229 147.815 36.8149C147.047 37.6069 146.123 38.2269 145.043 38.6749C143.963 39.1149 142.763 39.3349 141.443 39.3349C140.131 39.3349 138.935 39.1149 137.855 38.6749C136.775 38.2269 135.847 37.6069 135.071 36.8149C134.303 36.0229 133.707 35.0869 133.283 34.0069C132.859 32.9189 132.647 31.7389 132.647 30.4669C132.647 29.1949 132.859 28.0189 133.283 26.9389C133.707 25.8509 134.303 24.9109 135.071 24.1189C135.847 23.3269 136.775 22.7109 137.855 22.2709C138.935 21.8229 140.131 21.5989 141.443 21.5989C142.323 21.5989 143.151 21.7029 143.927 21.9109C144.703 22.1109 145.415 22.3989 146.063 22.7749C146.711 23.1429 147.291 23.5949 147.803 24.1309C148.323 24.6589 148.763 25.2509 149.123 25.9069C149.483 26.5629 149.755 27.2749 149.939 28.0429C150.131 28.8109 150.227 29.6189 150.227 30.4669ZM146.927 30.4669C146.927 29.5149 146.799 28.6629 146.543 27.9109C146.287 27.1509 145.923 26.5069 145.451 25.9789C144.979 25.4509 144.403 25.0469 143.723 24.7669C143.051 24.4869 142.291 24.3469 141.443 24.3469C140.595 24.3469 139.831 24.4869 139.151 24.7669C138.479 25.0469 137.903 25.4509 137.423 25.9789C136.951 26.5069 136.587 27.1509 136.331 27.9109C136.075 28.6629 135.947 29.5149 135.947 30.4669C135.947 31.4189 136.075 32.2749 136.331 33.0349C136.587 33.7869 136.951 34.4269 137.423 34.9549C137.903 35.4749 138.479 35.8749 139.151 36.1549C139.831 36.4349 140.595 36.5749 141.443 36.5749C142.291 36.5749 143.051 36.4349 143.723 36.1549C144.403 35.8749 144.979 35.4749 145.451 34.9549C145.923 34.4269 146.287 33.7869 146.543 33.0349C146.799 32.2749 146.927 31.4189 146.927 30.4669ZM167.689 21.7909V39.1429H166.033C165.777 39.1429 165.561 39.1029 165.385 39.0229C165.217 38.9349 165.053 38.7909 164.893 38.5909L155.833 27.0229C155.881 27.5509 155.905 28.0389 155.905 28.4869V39.1429H153.061V21.7909H154.753C154.889 21.7909 155.005 21.7989 155.101 21.8149C155.205 21.8229 155.293 21.8469 155.365 21.8869C155.445 21.9189 155.521 21.9709 155.593 22.0429C155.665 22.1069 155.745 22.1949 155.833 22.3069L164.929 33.9229C164.905 33.6429 164.885 33.3669 164.869 33.0949C164.853 32.8229 164.845 32.5709 164.845 32.3389V21.7909H167.689Z" fill="#073B4C"/>
</g>
</svg>
