<svg width="159" height="60" viewBox="0 0 159 60" fill="none" xmlns="http://www.w3.org/2000/svg">
<g id="pronoun">
<rect id="Rectangle 3" x="0.782593" width="158" height="60" rx="30" fill="#F78C6B"/>
<path id="PRONOUN" d="M26.4829 30.4413C27.0749 30.4413 27.5909 30.3693 28.0309 30.2253C28.4709 30.0733 28.8349 29.8613 29.1229 29.5893C29.4189 29.3093 29.6389 28.9733 29.7829 28.5813C29.9269 28.1813 29.9989 27.7373 29.9989 27.2493C29.9989 26.7853 29.9269 26.3653 29.7829 25.9893C29.6389 25.6133 29.4229 25.2933 29.1349 25.0293C28.8469 24.7653 28.4829 24.5653 28.0429 24.4293C27.6029 24.2853 27.0829 24.2133 26.4829 24.2133H24.0709V30.4413H26.4829ZM26.4829 21.7173C27.6429 21.7173 28.6469 21.8533 29.4949 22.1253C30.3429 22.3973 31.0429 22.7773 31.5949 23.2653C32.1469 23.7533 32.5549 24.3373 32.8189 25.0173C33.0909 25.6973 33.2269 26.4413 33.2269 27.2493C33.2269 28.0893 33.0869 28.8613 32.8069 29.5653C32.5269 30.2613 32.1069 30.8613 31.5469 31.3653C30.9869 31.8693 30.2829 32.2613 29.4349 32.5413C28.5949 32.8213 27.6109 32.9613 26.4829 32.9613H24.0709V39.0693H20.8429V21.7173H26.4829ZM40.9463 29.9733C41.5543 29.9733 42.0823 29.8973 42.5303 29.7453C42.9863 29.5933 43.3583 29.3853 43.6463 29.1213C43.9423 28.8493 44.1623 28.5293 44.3063 28.1613C44.4503 27.7933 44.5223 27.3893 44.5223 26.9493C44.5223 26.0693 44.2303 25.3933 43.6463 24.9213C43.0703 24.4493 42.1863 24.2133 40.9943 24.2133H38.9303V29.9733H40.9463ZM49.2503 39.0693H46.3343C45.7823 39.0693 45.3823 38.8533 45.1343 38.4213L41.4863 32.8653C41.3503 32.6573 41.1983 32.5093 41.0303 32.4213C40.8703 32.3333 40.6303 32.2893 40.3103 32.2893H38.9303V39.0693H35.7023V21.7173H40.9943C42.1703 21.7173 43.1783 21.8413 44.0183 22.0893C44.8663 22.3293 45.5583 22.6693 46.0943 23.1093C46.6383 23.5493 47.0383 24.0773 47.2943 24.6933C47.5503 25.3013 47.6783 25.9733 47.6783 26.7093C47.6783 27.2933 47.5903 27.8453 47.4143 28.3653C47.2463 28.8853 46.9983 29.3573 46.6703 29.7813C46.3503 30.2053 45.9503 30.5773 45.4703 30.8973C44.9983 31.2173 44.4583 31.4693 43.8503 31.6533C44.0583 31.7733 44.2503 31.9173 44.4263 32.0853C44.6023 32.2453 44.7623 32.4373 44.9063 32.6613L49.2503 39.0693ZM67.4378 30.3933C67.4378 31.6653 67.2258 32.8453 66.8018 33.9333C66.3858 35.0133 65.7938 35.9493 65.0258 36.7413C64.2578 37.5333 63.3338 38.1533 62.2538 38.6013C61.1738 39.0413 59.9738 39.2613 58.6538 39.2613C57.3418 39.2613 56.1458 39.0413 55.0658 38.6013C53.9858 38.1533 53.0578 37.5333 52.2818 36.7413C51.5138 35.9493 50.9178 35.0133 50.4938 33.9333C50.0698 32.8453 49.8578 31.6653 49.8578 30.3933C49.8578 29.1213 50.0698 27.9453 50.4938 26.8653C50.9178 25.7773 51.5138 24.8373 52.2818 24.0453C53.0578 23.2533 53.9858 22.6373 55.0658 22.1973C56.1458 21.7493 57.3418 21.5253 58.6538 21.5253C59.5338 21.5253 60.3618 21.6293 61.1378 21.8373C61.9138 22.0373 62.6258 22.3253 63.2738 22.7013C63.9218 23.0693 64.5018 23.5213 65.0138 24.0573C65.5338 24.5853 65.9738 25.1773 66.3338 25.8333C66.6938 26.4893 66.9658 27.2013 67.1498 27.9693C67.3418 28.7373 67.4378 29.5453 67.4378 30.3933ZM64.1378 30.3933C64.1378 29.4413 64.0098 28.5893 63.7538 27.8373C63.4978 27.0773 63.1338 26.4333 62.6618 25.9053C62.1898 25.3773 61.6138 24.9733 60.9338 24.6933C60.2618 24.4133 59.5018 24.2733 58.6538 24.2733C57.8058 24.2733 57.0418 24.4133 56.3618 24.6933C55.6898 24.9733 55.1138 25.3773 54.6338 25.9053C54.1618 26.4333 53.7978 27.0773 53.5418 27.8373C53.2858 28.5893 53.1578 29.4413 53.1578 30.3933C53.1578 31.3453 53.2858 32.2013 53.5418 32.9613C53.7978 33.7133 54.1618 34.3533 54.6338 34.8813C55.1138 35.4013 55.6898 35.8013 56.3618 36.0813C57.0418 36.3613 57.8058 36.5013 58.6538 36.5013C59.5018 36.5013 60.2618 36.3613 60.9338 36.0813C61.6138 35.8013 62.1898 35.4013 62.6618 34.8813C63.1338 34.3533 63.4978 33.7133 63.7538 32.9613C64.0098 32.2013 64.1378 31.3453 64.1378 30.3933ZM84.9006 21.7173V39.0693H83.2446C82.9886 39.0693 82.7726 39.0293 82.5966 38.9493C82.4286 38.8613 82.2646 38.7173 82.1046 38.5173L73.0446 26.9493C73.0926 27.4773 73.1166 27.9653 73.1166 28.4133V39.0693H70.2726V21.7173H71.9646C72.1006 21.7173 72.2166 21.7253 72.3126 21.7413C72.4166 21.7493 72.5046 21.7733 72.5766 21.8133C72.6566 21.8453 72.7326 21.8973 72.8046 21.9693C72.8766 22.0333 72.9566 22.1213 73.0446 22.2333L82.1406 33.8493C82.1166 33.5693 82.0966 33.2933 82.0806 33.0213C82.0646 32.7493 82.0566 32.4973 82.0566 32.2653V21.7173H84.9006ZM105.313 30.3933C105.313 31.6653 105.101 32.8453 104.677 33.9333C104.261 35.0133 103.669 35.9493 102.901 36.7413C102.133 37.5333 101.209 38.1533 100.129 38.6013C99.0488 39.0413 97.8488 39.2613 96.5288 39.2613C95.2168 39.2613 94.0208 39.0413 92.9408 38.6013C91.8608 38.1533 90.9328 37.5333 90.1568 36.7413C89.3888 35.9493 88.7928 35.0133 88.3688 33.9333C87.9448 32.8453 87.7328 31.6653 87.7328 30.3933C87.7328 29.1213 87.9448 27.9453 88.3688 26.8653C88.7928 25.7773 89.3888 24.8373 90.1568 24.0453C90.9328 23.2533 91.8608 22.6373 92.9408 22.1973C94.0208 21.7493 95.2168 21.5253 96.5288 21.5253C97.4088 21.5253 98.2368 21.6293 99.0128 21.8373C99.7888 22.0373 100.501 22.3253 101.149 22.7013C101.797 23.0693 102.377 23.5213 102.889 24.0573C103.409 24.5853 103.849 25.1773 104.209 25.8333C104.569 26.4893 104.841 27.2013 105.025 27.9693C105.217 28.7373 105.313 29.5453 105.313 30.3933ZM102.013 30.3933C102.013 29.4413 101.885 28.5893 101.629 27.8373C101.373 27.0773 101.009 26.4333 100.537 25.9053C100.065 25.3773 99.4888 24.9733 98.8088 24.6933C98.1368 24.4133 97.3768 24.2733 96.5288 24.2733C95.6808 24.2733 94.9168 24.4133 94.2368 24.6933C93.5648 24.9733 92.9888 25.3773 92.5088 25.9053C92.0368 26.4333 91.6728 27.0773 91.4168 27.8373C91.1608 28.5893 91.0328 29.4413 91.0328 30.3933C91.0328 31.3453 91.1608 32.2013 91.4168 32.9613C91.6728 33.7133 92.0368 34.3533 92.5088 34.8813C92.9888 35.4013 93.5648 35.8013 94.2368 36.0813C94.9168 36.3613 95.6808 36.5013 96.5288 36.5013C97.3768 36.5013 98.1368 36.3613 98.8088 36.0813C99.4888 35.8013 100.065 35.4013 100.537 34.8813C101.009 34.3533 101.373 33.7133 101.629 32.9613C101.885 32.2013 102.013 31.3453 102.013 30.3933ZM115.132 36.4653C115.756 36.4653 116.312 36.3613 116.8 36.1533C117.296 35.9453 117.712 35.6533 118.048 35.2773C118.384 34.9013 118.64 34.4453 118.816 33.9093C119 33.3733 119.092 32.7733 119.092 32.1093V21.7173H122.32V32.1093C122.32 33.1413 122.152 34.0973 121.816 34.9773C121.488 35.8493 121.012 36.6053 120.388 37.2453C119.772 37.8773 119.02 38.3733 118.132 38.7333C117.244 39.0853 116.244 39.2613 115.132 39.2613C114.012 39.2613 113.008 39.0853 112.12 38.7333C111.232 38.3733 110.476 37.8773 109.852 37.2453C109.236 36.6053 108.76 35.8493 108.424 34.9773C108.096 34.0973 107.932 33.1413 107.932 32.1093V21.7173H111.16V32.0973C111.16 32.7613 111.248 33.3613 111.424 33.8973C111.608 34.4333 111.868 34.8933 112.204 35.2773C112.548 35.6533 112.964 35.9453 113.452 36.1533C113.948 36.3613 114.508 36.4653 115.132 36.4653ZM140.588 21.7173V39.0693H138.932C138.676 39.0693 138.46 39.0293 138.284 38.9493C138.116 38.8613 137.952 38.7173 137.792 38.5173L128.732 26.9493C128.78 27.4773 128.804 27.9653 128.804 28.4133V39.0693H125.96V21.7173H127.652C127.788 21.7173 127.904 21.7253 128 21.7413C128.104 21.7493 128.192 21.7733 128.264 21.8133C128.344 21.8453 128.42 21.8973 128.492 21.9693C128.564 22.0333 128.644 22.1213 128.732 22.2333L137.828 33.8493C137.804 33.5693 137.784 33.2933 137.768 33.0213C137.752 32.7493 137.744 32.4973 137.744 32.2653V21.7173H140.588Z" fill="#073B4C"/>
</g>
</svg>
