<svg width="200" height="60" viewBox="0 0 200 60" fill="none" xmlns="http://www.w3.org/2000/svg">
<g id="pronoun">
<rect id="Rectangle 3" width="200" height="60" rx="30" fill="#F78E6E"/>
<path id="PRONOUN" d="M46.9483 30.4413C47.5403 30.4413 48.0563 30.3693 48.4963 30.2253C48.9363 30.0733 49.3003 29.8613 49.5883 29.5893C49.8843 29.3093 50.1043 28.9733 50.2483 28.5813C50.3923 28.1813 50.4643 27.7373 50.4643 27.2493C50.4643 26.7853 50.3923 26.3653 50.2483 25.9893C50.1043 25.6133 49.8883 25.2933 49.6003 25.0293C49.3123 24.7653 48.9483 24.5653 48.5083 24.4293C48.0683 24.2853 47.5483 24.2133 46.9483 24.2133H44.5363V30.4413H46.9483ZM46.9483 21.7173C48.1083 21.7173 49.1123 21.8533 49.9603 22.1253C50.8083 22.3973 51.5083 22.7773 52.0603 23.2653C52.6123 23.7533 53.0203 24.3373 53.2843 25.0173C53.5563 25.6973 53.6923 26.4413 53.6923 27.2493C53.6923 28.0893 53.5523 28.8613 53.2723 29.5653C52.9923 30.2613 52.5723 30.8613 52.0123 31.3653C51.4523 31.8693 50.7483 32.2613 49.9003 32.5413C49.0603 32.8213 48.0763 32.9613 46.9483 32.9613H44.5363V39.0693H41.3083V21.7173H46.9483ZM61.4117 29.9733C62.0197 29.9733 62.5477 29.8973 62.9957 29.7453C63.4517 29.5933 63.8237 29.3853 64.1117 29.1213C64.4077 28.8493 64.6277 28.5293 64.7717 28.1613C64.9157 27.7933 64.9877 27.3893 64.9877 26.9493C64.9877 26.0693 64.6957 25.3933 64.1117 24.9213C63.5357 24.4493 62.6517 24.2133 61.4597 24.2133H59.3957V29.9733H61.4117ZM69.7157 39.0693H66.7997C66.2477 39.0693 65.8477 38.8533 65.5997 38.4213L61.9517 32.8653C61.8157 32.6573 61.6637 32.5093 61.4957 32.4213C61.3357 32.3333 61.0957 32.2893 60.7757 32.2893H59.3957V39.0693H56.1677V21.7173H61.4597C62.6357 21.7173 63.6437 21.8413 64.4837 22.0893C65.3317 22.3293 66.0237 22.6693 66.5597 23.1093C67.1037 23.5493 67.5037 24.0773 67.7597 24.6933C68.0157 25.3013 68.1437 25.9733 68.1437 26.7093C68.1437 27.2933 68.0557 27.8453 67.8797 28.3653C67.7117 28.8853 67.4637 29.3573 67.1357 29.7813C66.8157 30.2053 66.4157 30.5773 65.9357 30.8973C65.4637 31.2173 64.9237 31.4693 64.3157 31.6533C64.5237 31.7733 64.7157 31.9173 64.8917 32.0853C65.0677 32.2453 65.2277 32.4373 65.3717 32.6613L69.7157 39.0693ZM87.9032 30.3933C87.9032 31.6653 87.6912 32.8453 87.2672 33.9333C86.8512 35.0133 86.2592 35.9493 85.4912 36.7413C84.7232 37.5333 83.7992 38.1533 82.7192 38.6013C81.6392 39.0413 80.4392 39.2613 79.1192 39.2613C77.8072 39.2613 76.6112 39.0413 75.5312 38.6013C74.4512 38.1533 73.5232 37.5333 72.7472 36.7413C71.9792 35.9493 71.3832 35.0133 70.9592 33.9333C70.5352 32.8453 70.3232 31.6653 70.3232 30.3933C70.3232 29.1213 70.5352 27.9453 70.9592 26.8653C71.3832 25.7773 71.9792 24.8373 72.7472 24.0453C73.5232 23.2533 74.4512 22.6373 75.5312 22.1973C76.6112 21.7493 77.8072 21.5253 79.1192 21.5253C79.9992 21.5253 80.8272 21.6293 81.6032 21.8373C82.3792 22.0373 83.0912 22.3253 83.7392 22.7013C84.3872 23.0693 84.9672 23.5213 85.4792 24.0573C85.9992 24.5853 86.4392 25.1773 86.7992 25.8333C87.1592 26.4893 87.4312 27.2013 87.6152 27.9693C87.8072 28.7373 87.9032 29.5453 87.9032 30.3933ZM84.6032 30.3933C84.6032 29.4413 84.4752 28.5893 84.2192 27.8373C83.9632 27.0773 83.5992 26.4333 83.1272 25.9053C82.6552 25.3773 82.0792 24.9733 81.3992 24.6933C80.7272 24.4133 79.9672 24.2733 79.1192 24.2733C78.2712 24.2733 77.5072 24.4133 76.8272 24.6933C76.1552 24.9733 75.5792 25.3773 75.0992 25.9053C74.6272 26.4333 74.2632 27.0773 74.0072 27.8373C73.7512 28.5893 73.6232 29.4413 73.6232 30.3933C73.6232 31.3453 73.7512 32.2013 74.0072 32.9613C74.2632 33.7133 74.6272 34.3533 75.0992 34.8813C75.5792 35.4013 76.1552 35.8013 76.8272 36.0813C77.5072 36.3613 78.2712 36.5013 79.1192 36.5013C79.9672 36.5013 80.7272 36.3613 81.3992 36.0813C82.0792 35.8013 82.6552 35.4013 83.1272 34.8813C83.5992 34.3533 83.9632 33.7133 84.2192 32.9613C84.4752 32.2013 84.6032 31.3453 84.6032 30.3933ZM105.366 21.7173V39.0693H103.71C103.454 39.0693 103.238 39.0293 103.062 38.9493C102.894 38.8613 102.73 38.7173 102.57 38.5173L93.51 26.9493C93.558 27.4773 93.582 27.9653 93.582 28.4133V39.0693H90.738V21.7173H92.43C92.566 21.7173 92.682 21.7253 92.778 21.7413C92.882 21.7493 92.97 21.7733 93.042 21.8133C93.122 21.8453 93.198 21.8973 93.27 21.9693C93.342 22.0333 93.422 22.1213 93.51 22.2333L102.606 33.8493C102.582 33.5693 102.562 33.2933 102.546 33.0213C102.53 32.7493 102.522 32.4973 102.522 32.2653V21.7173H105.366ZM125.778 30.3933C125.778 31.6653 125.566 32.8453 125.142 33.9333C124.726 35.0133 124.134 35.9493 123.366 36.7413C122.598 37.5333 121.674 38.1533 120.594 38.6013C119.514 39.0413 118.314 39.2613 116.994 39.2613C115.682 39.2613 114.486 39.0413 113.406 38.6013C112.326 38.1533 111.398 37.5333 110.622 36.7413C109.854 35.9493 109.258 35.0133 108.834 33.9333C108.41 32.8453 108.198 31.6653 108.198 30.3933C108.198 29.1213 108.41 27.9453 108.834 26.8653C109.258 25.7773 109.854 24.8373 110.622 24.0453C111.398 23.2533 112.326 22.6373 113.406 22.1973C114.486 21.7493 115.682 21.5253 116.994 21.5253C117.874 21.5253 118.702 21.6293 119.478 21.8373C120.254 22.0373 120.966 22.3253 121.614 22.7013C122.262 23.0693 122.842 23.5213 123.354 24.0573C123.874 24.5853 124.314 25.1773 124.674 25.8333C125.034 26.4893 125.306 27.2013 125.49 27.9693C125.682 28.7373 125.778 29.5453 125.778 30.3933ZM122.478 30.3933C122.478 29.4413 122.35 28.5893 122.094 27.8373C121.838 27.0773 121.474 26.4333 121.002 25.9053C120.53 25.3773 119.954 24.9733 119.274 24.6933C118.602 24.4133 117.842 24.2733 116.994 24.2733C116.146 24.2733 115.382 24.4133 114.702 24.6933C114.03 24.9733 113.454 25.3773 112.974 25.9053C112.502 26.4333 112.138 27.0773 111.882 27.8373C111.626 28.5893 111.498 29.4413 111.498 30.3933C111.498 31.3453 111.626 32.2013 111.882 32.9613C112.138 33.7133 112.502 34.3533 112.974 34.8813C113.454 35.4013 114.03 35.8013 114.702 36.0813C115.382 36.3613 116.146 36.5013 116.994 36.5013C117.842 36.5013 118.602 36.3613 119.274 36.0813C119.954 35.8013 120.53 35.4013 121.002 34.8813C121.474 34.3533 121.838 33.7133 122.094 32.9613C122.35 32.2013 122.478 31.3453 122.478 30.3933ZM135.597 36.4653C136.221 36.4653 136.777 36.3613 137.265 36.1533C137.761 35.9453 138.177 35.6533 138.513 35.2773C138.849 34.9013 139.105 34.4453 139.281 33.9093C139.465 33.3733 139.557 32.7733 139.557 32.1093V21.7173H142.785V32.1093C142.785 33.1413 142.617 34.0973 142.281 34.9773C141.953 35.8493 141.477 36.6053 140.853 37.2453C140.237 37.8773 139.485 38.3733 138.597 38.7333C137.709 39.0853 136.709 39.2613 135.597 39.2613C134.477 39.2613 133.473 39.0853 132.585 38.7333C131.697 38.3733 130.941 37.8773 130.317 37.2453C129.701 36.6053 129.225 35.8493 128.889 34.9773C128.561 34.0973 128.397 33.1413 128.397 32.1093V21.7173H131.625V32.0973C131.625 32.7613 131.713 33.3613 131.889 33.8973C132.073 34.4333 132.333 34.8933 132.669 35.2773C133.013 35.6533 133.429 35.9453 133.917 36.1533C134.413 36.3613 134.973 36.4653 135.597 36.4653ZM161.054 21.7173V39.0693H159.398C159.142 39.0693 158.926 39.0293 158.75 38.9493C158.582 38.8613 158.418 38.7173 158.258 38.5173L149.198 26.9493C149.246 27.4773 149.27 27.9653 149.27 28.4133V39.0693H146.426V21.7173H148.118C148.254 21.7173 148.37 21.7253 148.466 21.7413C148.57 21.7493 148.658 21.7733 148.73 21.8133C148.81 21.8453 148.886 21.8973 148.958 21.9693C149.03 22.0333 149.11 22.1213 149.198 22.2333L158.294 33.8493C158.27 33.5693 158.25 33.2933 158.234 33.0213C158.218 32.7493 158.21 32.4973 158.21 32.2653V21.7173H161.054Z" fill="#073B4C"/>
</g>
</svg>
