<svg width="171" height="51" viewBox="0 0 171 51" fill="none" xmlns="http://www.w3.org/2000/svg">
<g id="pronoun">
<rect id="Rectangle 3" x="0.997192" y="0.345367" width="170" height="50" rx="25" fill="#F78E6E"/>
<path id="PRONOUN" d="M41.8071 25.2132C42.3005 25.2132 42.7305 25.1532 43.0971 25.0332C43.4638 24.9065 43.7671 24.7298 44.0071 24.5032C44.2538 24.2698 44.4371 23.9898 44.5571 23.6632C44.6771 23.3298 44.7371 22.9598 44.7371 22.5532C44.7371 22.1665 44.6771 21.8165 44.5571 21.5032C44.4371 21.1898 44.2571 20.9232 44.0171 20.7032C43.7771 20.4832 43.4738 20.3165 43.1071 20.2032C42.7405 20.0832 42.3071 20.0232 41.8071 20.0232H39.7971V25.2132H41.8071ZM41.8071 17.9432C42.7738 17.9432 43.6105 18.0565 44.3171 18.2832C45.0238 18.5098 45.6071 18.8265 46.0671 19.2332C46.5271 19.6398 46.8671 20.1265 47.0871 20.6932C47.3138 21.2598 47.4271 21.8798 47.4271 22.5532C47.4271 23.2532 47.3105 23.8965 47.0771 24.4832C46.8438 25.0632 46.4938 25.5632 46.0271 25.9832C45.5605 26.4032 44.9738 26.7298 44.2671 26.9632C43.5671 27.1965 42.7471 27.3132 41.8071 27.3132H39.7971V32.4032H37.1071V17.9432H41.8071ZM53.86 24.8232C54.3666 24.8232 54.8066 24.7598 55.18 24.6332C55.56 24.5065 55.87 24.3332 56.11 24.1132C56.3566 23.8865 56.54 23.6198 56.66 23.3132C56.78 23.0065 56.84 22.6698 56.84 22.3032C56.84 21.5698 56.5966 21.0065 56.11 20.6132C55.63 20.2198 54.8933 20.0232 53.9 20.0232H52.18V24.8232H53.86ZM60.78 32.4032H58.35C57.89 32.4032 57.5566 32.2232 57.35 31.8632L54.31 27.2332C54.1966 27.0598 54.07 26.9365 53.93 26.8632C53.7966 26.7898 53.5966 26.7532 53.33 26.7532H52.18V32.4032H49.49V17.9432H53.9C54.88 17.9432 55.72 18.0465 56.42 18.2532C57.1266 18.4532 57.7033 18.7365 58.15 19.1032C58.6033 19.4698 58.9366 19.9098 59.15 20.4232C59.3633 20.9298 59.47 21.4898 59.47 22.1032C59.47 22.5898 59.3966 23.0498 59.25 23.4832C59.11 23.9165 58.9033 24.3098 58.63 24.6632C58.3633 25.0165 58.03 25.3265 57.63 25.5932C57.2366 25.8598 56.7866 26.0698 56.28 26.2232C56.4533 26.3232 56.6133 26.4432 56.76 26.5832C56.9066 26.7165 57.04 26.8765 57.16 27.0632L60.78 32.4032ZM75.9362 25.1732C75.9362 26.2332 75.7595 27.2165 75.4062 28.1232C75.0595 29.0232 74.5662 29.8032 73.9262 30.4632C73.2862 31.1232 72.5162 31.6398 71.6162 32.0132C70.7162 32.3798 69.7162 32.5632 68.6162 32.5632C67.5229 32.5632 66.5262 32.3798 65.6262 32.0132C64.7262 31.6398 63.9529 31.1232 63.3062 30.4632C62.6662 29.8032 62.1695 29.0232 61.8162 28.1232C61.4629 27.2165 61.2862 26.2332 61.2862 25.1732C61.2862 24.1132 61.4629 23.1332 61.8162 22.2332C62.1695 21.3265 62.6662 20.5432 63.3062 19.8832C63.9529 19.2232 64.7262 18.7098 65.6262 18.3432C66.5262 17.9698 67.5229 17.7832 68.6162 17.7832C69.3495 17.7832 70.0395 17.8698 70.6862 18.0432C71.3329 18.2098 71.9262 18.4498 72.4662 18.7632C73.0062 19.0698 73.4895 19.4465 73.9162 19.8932C74.3495 20.3332 74.7162 20.8265 75.0162 21.3732C75.3162 21.9198 75.5429 22.5132 75.6962 23.1532C75.8562 23.7932 75.9362 24.4665 75.9362 25.1732ZM73.1862 25.1732C73.1862 24.3798 73.0795 23.6698 72.8662 23.0432C72.6529 22.4098 72.3495 21.8732 71.9562 21.4332C71.5629 20.9932 71.0829 20.6565 70.5162 20.4232C69.9562 20.1898 69.3229 20.0732 68.6162 20.0732C67.9095 20.0732 67.2729 20.1898 66.7062 20.4232C66.1462 20.6565 65.6662 20.9932 65.2662 21.4332C64.8729 21.8732 64.5695 22.4098 64.3562 23.0432C64.1429 23.6698 64.0362 24.3798 64.0362 25.1732C64.0362 25.9665 64.1429 26.6798 64.3562 27.3132C64.5695 27.9398 64.8729 28.4732 65.2662 28.9132C65.6662 29.3465 66.1462 29.6798 66.7062 29.9132C67.2729 30.1465 67.9095 30.2632 68.6162 30.2632C69.3229 30.2632 69.9562 30.1465 70.5162 29.9132C71.0829 29.6798 71.5629 29.3465 71.9562 28.9132C72.3495 28.4732 72.6529 27.9398 72.8662 27.3132C73.0795 26.6798 73.1862 25.9665 73.1862 25.1732ZM90.4885 17.9432V32.4032H89.1085C88.8952 32.4032 88.7152 32.3698 88.5685 32.3032C88.4285 32.2298 88.2919 32.1098 88.1585 31.9432L80.6085 22.3032C80.6485 22.7432 80.6685 23.1498 80.6685 23.5232V32.4032H78.2985V17.9432H79.7085C79.8219 17.9432 79.9185 17.9498 79.9985 17.9632C80.0852 17.9698 80.1585 17.9898 80.2185 18.0232C80.2852 18.0498 80.3485 18.0932 80.4085 18.1532C80.4685 18.2065 80.5352 18.2798 80.6085 18.3732L88.1885 28.0532C88.1685 27.8198 88.1519 27.5898 88.1385 27.3632C88.1252 27.1365 88.1185 26.9265 88.1185 26.7332V17.9432H90.4885ZM107.499 25.1732C107.499 26.2332 107.322 27.2165 106.969 28.1232C106.622 29.0232 106.129 29.8032 105.489 30.4632C104.849 31.1232 104.079 31.6398 103.179 32.0132C102.279 32.3798 101.279 32.5632 100.179 32.5632C99.0854 32.5632 98.0887 32.3798 97.1887 32.0132C96.2887 31.6398 95.5154 31.1232 94.8687 30.4632C94.2287 29.8032 93.732 29.0232 93.3787 28.1232C93.0254 27.2165 92.8487 26.2332 92.8487 25.1732C92.8487 24.1132 93.0254 23.1332 93.3787 22.2332C93.732 21.3265 94.2287 20.5432 94.8687 19.8832C95.5154 19.2232 96.2887 18.7098 97.1887 18.3432C98.0887 17.9698 99.0854 17.7832 100.179 17.7832C100.912 17.7832 101.602 17.8698 102.249 18.0432C102.895 18.2098 103.489 18.4498 104.029 18.7632C104.569 19.0698 105.052 19.4465 105.479 19.8932C105.912 20.3332 106.279 20.8265 106.579 21.3732C106.879 21.9198 107.105 22.5132 107.259 23.1532C107.419 23.7932 107.499 24.4665 107.499 25.1732ZM104.749 25.1732C104.749 24.3798 104.642 23.6698 104.429 23.0432C104.215 22.4098 103.912 21.8732 103.519 21.4332C103.125 20.9932 102.645 20.6565 102.079 20.4232C101.519 20.1898 100.885 20.0732 100.179 20.0732C99.472 20.0732 98.8354 20.1898 98.2687 20.4232C97.7087 20.6565 97.2287 20.9932 96.8287 21.4332C96.4354 21.8732 96.132 22.4098 95.9187 23.0432C95.7054 23.6698 95.5987 24.3798 95.5987 25.1732C95.5987 25.9665 95.7054 26.6798 95.9187 27.3132C96.132 27.9398 96.4354 28.4732 96.8287 28.9132C97.2287 29.3465 97.7087 29.6798 98.2687 29.9132C98.8354 30.1465 99.472 30.2632 100.179 30.2632C100.885 30.2632 101.519 30.1465 102.079 29.9132C102.645 29.6798 103.125 29.3465 103.519 28.9132C103.912 28.4732 104.215 27.9398 104.429 27.3132C104.642 26.6798 104.749 25.9665 104.749 25.1732ZM115.681 30.2332C116.201 30.2332 116.664 30.1465 117.071 29.9732C117.484 29.7998 117.831 29.5565 118.111 29.2432C118.391 28.9298 118.604 28.5498 118.751 28.1032C118.904 27.6565 118.981 27.1565 118.981 26.6032V17.9432H121.671V26.6032C121.671 27.4632 121.531 28.2598 121.251 28.9932C120.978 29.7198 120.581 30.3498 120.061 30.8832C119.548 31.4098 118.921 31.8232 118.181 32.1232C117.441 32.4165 116.608 32.5632 115.681 32.5632C114.748 32.5632 113.911 32.4165 113.171 32.1232C112.431 31.8232 111.801 31.4098 111.281 30.8832C110.768 30.3498 110.371 29.7198 110.091 28.9932C109.818 28.2598 109.681 27.4632 109.681 26.6032V17.9432H112.371V26.5932C112.371 27.1465 112.444 27.6465 112.591 28.0932C112.744 28.5398 112.961 28.9232 113.241 29.2432C113.528 29.5565 113.874 29.7998 114.281 29.9732C114.694 30.1465 115.161 30.2332 115.681 30.2332ZM136.895 17.9432V32.4032H135.515C135.301 32.4032 135.121 32.3698 134.975 32.3032C134.835 32.2298 134.698 32.1098 134.565 31.9432L127.015 22.3032C127.055 22.7432 127.075 23.1498 127.075 23.5232V32.4032H124.705V17.9432H126.115C126.228 17.9432 126.325 17.9498 126.405 17.9632C126.491 17.9698 126.565 17.9898 126.625 18.0232C126.691 18.0498 126.755 18.0932 126.815 18.1532C126.875 18.2065 126.941 18.2798 127.015 18.3732L134.595 28.0532C134.575 27.8198 134.558 27.5898 134.545 27.3632C134.531 27.1365 134.525 26.9265 134.525 26.7332V17.9432H136.895Z" fill="#073B4C"/>
</g>
</svg>
