<svg width="200" height="60" viewBox="0 0 200 60" fill="none" xmlns="http://www.w3.org/2000/svg">
<g id="verb">
<rect id="Rectangle 6" width="200" height="60" rx="30" fill="#75B3F0"/>
<path id="VERB" d="M85.9563 21.648L78.9483 39H76.0323L69.0243 21.648H71.6163C71.8963 21.648 72.1243 21.716 72.3003 21.852C72.4763 21.988 72.6083 22.164 72.6963 22.38L76.7883 32.964C76.9243 33.308 77.0523 33.688 77.1723 34.104C77.3003 34.512 77.4203 34.94 77.5323 35.388C77.6283 34.94 77.7323 34.512 77.8443 34.104C77.9563 33.688 78.0803 33.308 78.2163 32.964L82.2843 22.38C82.3483 22.196 82.4723 22.028 82.6563 21.876C82.8483 21.724 83.0803 21.648 83.3523 21.648H85.9563ZM90.9923 24.216V29.028H97.0643V31.512H90.9923V36.42H98.6963V39H87.7523V21.648H98.6963V24.216H90.9923ZM106.801 29.904C107.409 29.904 107.937 29.828 108.385 29.676C108.841 29.524 109.213 29.316 109.501 29.052C109.797 28.78 110.017 28.46 110.161 28.092C110.305 27.724 110.377 27.32 110.377 26.88C110.377 26 110.085 25.324 109.501 24.852C108.925 24.38 108.041 24.144 106.849 24.144H104.785V29.904H106.801ZM115.105 39H112.189C111.637 39 111.237 38.784 110.989 38.352L107.341 32.796C107.205 32.588 107.053 32.44 106.885 32.352C106.725 32.264 106.485 32.22 106.165 32.22H104.785V39H101.557V21.648H106.849C108.025 21.648 109.033 21.772 109.873 22.02C110.721 22.26 111.413 22.6 111.949 23.04C112.493 23.48 112.893 24.008 113.149 24.624C113.405 25.232 113.533 25.904 113.533 26.64C113.533 27.224 113.445 27.776 113.269 28.296C113.101 28.816 112.853 29.288 112.525 29.712C112.205 30.136 111.805 30.508 111.325 30.828C110.853 31.148 110.313 31.4 109.705 31.584C109.913 31.704 110.105 31.848 110.281 32.016C110.457 32.176 110.617 32.368 110.761 32.592L115.105 39ZM123.471 36.48C124.071 36.48 124.575 36.408 124.983 36.264C125.391 36.12 125.715 35.928 125.955 35.688C126.203 35.448 126.379 35.168 126.483 34.848C126.595 34.528 126.651 34.188 126.651 33.828C126.651 33.452 126.591 33.116 126.471 32.82C126.351 32.516 126.163 32.26 125.907 32.052C125.651 31.836 125.319 31.672 124.911 31.56C124.511 31.448 124.027 31.392 123.459 31.392H120.207V36.48H123.471ZM120.207 24.144V29.16H122.775C123.879 29.16 124.711 28.96 125.271 28.56C125.839 28.16 126.123 27.524 126.123 26.652C126.123 25.748 125.867 25.104 125.355 24.72C124.843 24.336 124.043 24.144 122.955 24.144H120.207ZM122.955 21.648C124.091 21.648 125.063 21.756 125.871 21.972C126.679 22.188 127.339 22.496 127.851 22.896C128.371 23.296 128.751 23.78 128.991 24.348C129.231 24.916 129.351 25.556 129.351 26.268C129.351 26.676 129.291 27.068 129.171 27.444C129.051 27.812 128.863 28.16 128.607 28.488C128.359 28.808 128.039 29.1 127.647 29.364C127.263 29.628 126.803 29.852 126.267 30.036C128.651 30.572 129.843 31.86 129.843 33.9C129.843 34.636 129.703 35.316 129.423 35.94C129.143 36.564 128.735 37.104 128.199 37.56C127.663 38.008 127.003 38.36 126.219 38.616C125.435 38.872 124.539 39 123.531 39H116.979V21.648H122.955Z" fill="#073B4C"/>
</g>
</svg>
