<svg width="170" height="51" viewBox="0 0 170 51" fill="none" xmlns="http://www.w3.org/2000/svg">
<g id="verb">
<rect id="Rectangle 6" y="0.18663" width="170" height="50" rx="25" fill="#75B3F0"/>
<path id="VERB" d="M73.2969 18.0599L67.4569 32.5199H65.0269L59.1869 18.0599H61.3469C61.5802 18.0599 61.7702 18.1166 61.9169 18.2299C62.0636 18.3433 62.1736 18.4899 62.2469 18.6699L65.6569 27.4899C65.7702 27.7766 65.8769 28.0933 65.9769 28.4399C66.0836 28.7799 66.1836 29.1366 66.2769 29.5099C66.3569 29.1366 66.4436 28.7799 66.5369 28.4399C66.6302 28.0933 66.7336 27.7766 66.8469 27.4899L70.2369 18.6699C70.2902 18.5166 70.3936 18.3766 70.5469 18.2499C70.7069 18.1233 70.9002 18.0599 71.1269 18.0599H73.2969ZM77.4936 20.1999V24.2099H82.5536V26.2799H77.4936V30.3699H83.9136V32.5199H74.7936V18.0599H83.9136V20.1999H77.4936ZM90.6675 24.9399C91.1742 24.9399 91.6142 24.8766 91.9875 24.7499C92.3675 24.6233 92.6775 24.4499 92.9175 24.2299C93.1642 24.0033 93.3475 23.7366 93.4675 23.4299C93.5875 23.1233 93.6475 22.7866 93.6475 22.4199C93.6475 21.6866 93.4042 21.1233 92.9175 20.7299C92.4375 20.3366 91.7008 20.1399 90.7075 20.1399H88.9875V24.9399H90.6675ZM97.5875 32.5199H95.1575C94.6975 32.5199 94.3642 32.3399 94.1575 31.9799L91.1175 27.3499C91.0042 27.1766 90.8775 27.0533 90.7375 26.9799C90.6042 26.9066 90.4042 26.8699 90.1375 26.8699H88.9875V32.5199H86.2975V18.0599H90.7075C91.6875 18.0599 92.5275 18.1633 93.2275 18.3699C93.9342 18.5699 94.5108 18.8533 94.9575 19.2199C95.4108 19.5866 95.7442 20.0266 95.9575 20.5399C96.1708 21.0466 96.2775 21.6066 96.2775 22.2199C96.2775 22.7066 96.2042 23.1666 96.0575 23.5999C95.9175 24.0333 95.7108 24.4266 95.4375 24.7799C95.1708 25.1333 94.8375 25.4433 94.4375 25.7099C94.0442 25.9766 93.5942 26.1866 93.0875 26.3399C93.2608 26.4399 93.4208 26.5599 93.5675 26.6999C93.7142 26.8333 93.8475 26.9933 93.9675 27.1799L97.5875 32.5199ZM104.559 30.4199C105.059 30.4199 105.479 30.3599 105.819 30.2399C106.159 30.1199 106.429 29.9599 106.629 29.7599C106.836 29.5599 106.982 29.3266 107.069 29.0599C107.162 28.7933 107.209 28.5099 107.209 28.2099C107.209 27.8966 107.159 27.6166 107.059 27.3699C106.959 27.1166 106.802 26.9033 106.589 26.7299C106.376 26.5499 106.099 26.4133 105.759 26.3199C105.426 26.2266 105.022 26.1799 104.549 26.1799H101.839V30.4199H104.559ZM101.839 20.1399V24.3199H103.979C104.899 24.3199 105.592 24.1533 106.059 23.8199C106.532 23.4866 106.769 22.9566 106.769 22.2299C106.769 21.4766 106.556 20.9399 106.129 20.6199C105.702 20.2999 105.036 20.1399 104.129 20.1399H101.839ZM104.129 18.0599C105.076 18.0599 105.886 18.1499 106.559 18.3299C107.232 18.5099 107.782 18.7666 108.209 19.0999C108.642 19.4333 108.959 19.8366 109.159 20.3099C109.359 20.7833 109.459 21.3166 109.459 21.9099C109.459 22.2499 109.409 22.5766 109.309 22.8899C109.209 23.1966 109.052 23.4866 108.839 23.7599C108.632 24.0266 108.366 24.2699 108.039 24.4899C107.719 24.7099 107.336 24.8966 106.889 25.0499C108.876 25.4966 109.869 26.5699 109.869 28.2699C109.869 28.8833 109.752 29.4499 109.519 29.9699C109.286 30.4899 108.946 30.9399 108.499 31.3199C108.052 31.6933 107.502 31.9866 106.849 32.1999C106.196 32.4133 105.449 32.5199 104.609 32.5199H99.1491V18.0599H104.129Z" fill="#073B4C"/>
</g>
</svg>
