<svg width="125" height="60" viewBox="0 0 125 60" fill="none" xmlns="http://www.w3.org/2000/svg">
<g id="verb">
<rect id="Rectangle 6" width="125" height="60" rx="30" fill="#5CB2EF"/>
<path id="VERB" d="M48.4563 21.648L41.4483 39H38.5323L31.5243 21.648H34.1163C34.3963 21.648 34.6243 21.716 34.8003 21.852C34.9763 21.988 35.1083 22.164 35.1963 22.38L39.2883 32.964C39.4243 33.308 39.5523 33.688 39.6723 34.104C39.8003 34.512 39.9203 34.94 40.0323 35.388C40.1283 34.94 40.2323 34.512 40.3443 34.104C40.4563 33.688 40.5803 33.308 40.7163 32.964L44.7843 22.38C44.8483 22.196 44.9723 22.028 45.1563 21.876C45.3483 21.724 45.5803 21.648 45.8523 21.648H48.4563ZM53.4923 24.216V29.028H59.5643V31.512H53.4923V36.42H61.1963V39H50.2523V21.648H61.1963V24.216H53.4923ZM69.301 29.904C69.909 29.904 70.437 29.828 70.885 29.676C71.341 29.524 71.713 29.316 72.001 29.052C72.297 28.78 72.517 28.46 72.661 28.092C72.805 27.724 72.877 27.32 72.877 26.88C72.877 26 72.585 25.324 72.001 24.852C71.425 24.38 70.541 24.144 69.349 24.144H67.285V29.904H69.301ZM77.605 39H74.689C74.137 39 73.737 38.784 73.489 38.352L69.841 32.796C69.705 32.588 69.553 32.44 69.385 32.352C69.225 32.264 68.985 32.22 68.665 32.22H67.285V39H64.057V21.648H69.349C70.525 21.648 71.533 21.772 72.373 22.02C73.221 22.26 73.913 22.6 74.449 23.04C74.993 23.48 75.393 24.008 75.649 24.624C75.905 25.232 76.033 25.904 76.033 26.64C76.033 27.224 75.945 27.776 75.769 28.296C75.601 28.816 75.353 29.288 75.025 29.712C74.705 30.136 74.305 30.508 73.825 30.828C73.353 31.148 72.813 31.4 72.205 31.584C72.413 31.704 72.605 31.848 72.781 32.016C72.957 32.176 73.117 32.368 73.261 32.592L77.605 39ZM85.9709 36.48C86.5709 36.48 87.0749 36.408 87.4829 36.264C87.8909 36.12 88.2149 35.928 88.4549 35.688C88.7029 35.448 88.8789 35.168 88.9829 34.848C89.0949 34.528 89.1509 34.188 89.1509 33.828C89.1509 33.452 89.0909 33.116 88.9709 32.82C88.8509 32.516 88.6629 32.26 88.4069 32.052C88.1509 31.836 87.8189 31.672 87.4109 31.56C87.0109 31.448 86.5269 31.392 85.9589 31.392H82.7069V36.48H85.9709ZM82.7069 24.144V29.16H85.2749C86.3789 29.16 87.2109 28.96 87.7709 28.56C88.3389 28.16 88.6229 27.524 88.6229 26.652C88.6229 25.748 88.3669 25.104 87.8549 24.72C87.3429 24.336 86.5429 24.144 85.4549 24.144H82.7069ZM85.4549 21.648C86.5909 21.648 87.5629 21.756 88.3709 21.972C89.1789 22.188 89.8389 22.496 90.3509 22.896C90.8709 23.296 91.2509 23.78 91.4909 24.348C91.7309 24.916 91.8509 25.556 91.8509 26.268C91.8509 26.676 91.7909 27.068 91.6709 27.444C91.5509 27.812 91.3629 28.16 91.1069 28.488C90.8589 28.808 90.5389 29.1 90.1469 29.364C89.7629 29.628 89.3029 29.852 88.7669 30.036C91.1509 30.572 92.3429 31.86 92.3429 33.9C92.3429 34.636 92.2029 35.316 91.9229 35.94C91.6429 36.564 91.2349 37.104 90.6989 37.56C90.1629 38.008 89.5029 38.36 88.7189 38.616C87.9349 38.872 87.0389 39 86.0309 39H79.4789V21.648H85.4549Z" fill="#073B4C"/>
</g>
</svg>
