<svg width="1172" height="1050" viewBox="0 0 1172 1050" fill="none" xmlns="http://www.w3.org/2000/svg">
<g id="Group 2">
<path id="109" fill-rule="evenodd" clip-rule="evenodd" d="M232.494 180C291.07 180 352 218.5 352 288.828C352 346.771 280.755 326.603 232.494 326.603C215.544 326.603 202.592 309.18 202.592 288.828C202.592 244.075 195.22 180 232.494 180Z" fill="#E63A2C"/>
<path id="110" fill-rule="evenodd" clip-rule="evenodd" d="M266.671 360C306.176 360 352 374.589 352 413.455C352 463.418 317.455 510 266.671 510C220.775 510 202 458.609 202 413.455C202 381.002 233.685 360 266.671 360Z" fill="#B91970"/>
<path id="111" fill-rule="evenodd" clip-rule="evenodd" d="M241.589 0C307.195 0 352 40.8004 352 84.6742C352 123.175 299.16 150 241.589 150C200.663 150 203.639 112.043 203.639 84.6742C203.639 50.1535 189.969 0 241.589 0Z" fill="#ACBF07"/>
<path id="112" fill-rule="evenodd" clip-rule="evenodd" d="M92.7684 360C135.907 360 152 415.141 152 462.618C152 494.09 121.365 510 92.7684 510C53.536 510 2 505.796 2 462.618C2 406.69 41.951 360 92.7684 360Z" fill="#E0B398"/>
<path id="113" fill-rule="evenodd" clip-rule="evenodd" d="M448.01 0C503.848 0 552 32.6964 552 75.8623C552 118.569 503.254 150 448.01 150C406.471 150 402 107.974 402 75.8623C402 43.1416 405.684 0 448.01 0Z" fill="#63C649"/>
<path id="114" fill-rule="evenodd" clip-rule="evenodd" d="M497.004 180.141C522.488 180.141 552 189.296 552 213.493C552 263.353 549.516 330 497.004 330C436.4 330 402 271.035 402 213.493C402 175.936 457.447 180.141 497.004 180.141Z" fill="#BB5648"/>
<path id="115" fill-rule="evenodd" clip-rule="evenodd" d="M460.169 360C500.55 360 552 365.392 552 395.855C552 447.999 529.288 510 460.169 510C396.88 510 402.105 443.601 402.105 395.855C402.105 373.749 430.866 360 460.169 360Z" fill="#2A41F4"/>
<path id="116" fill-rule="evenodd" clip-rule="evenodd" d="M73.9125 0C110.499 0 152 23.6445 152 80.6452C152 135.333 109.015 150 73.9125 150C40.8835 150 2 132.103 2 80.6452C2 26.736 39.3101 0 73.9125 0Z" fill="#60186A"/>
<path id="117" fill-rule="evenodd" clip-rule="evenodd" d="M69.4233 180C130.238 180 152 237.601 152 286.79C152 317.856 107.832 330 69.4233 330C35.8294 330 2 313.962 2 286.79C2 239.963 11.5289 180 69.4233 180Z" fill="#74AEE1"/>
<path id="118" fill-rule="evenodd" clip-rule="evenodd" d="M232.494 180C291.07 180 352 218.5 352 288.828C352 346.771 280.755 326.603 232.494 326.603C215.544 326.603 202.592 309.18 202.592 288.828C202.592 244.075 195.22 180 232.494 180Z" fill="#5F28EC"/>
<path id="119" fill-rule="evenodd" clip-rule="evenodd" d="M266.671 360C306.176 360 352 374.589 352 413.455C352 463.418 317.455 510 266.671 510C220.775 510 202 458.609 202 413.455C202 381.002 233.685 360 266.671 360Z" fill="#71AD76"/>
<path id="120" fill-rule="evenodd" clip-rule="evenodd" d="M241.589 0C307.195 0 352 40.8004 352 84.6742C352 123.175 299.16 150 241.589 150C200.663 150 203.639 112.043 203.639 84.6742C203.639 50.1535 189.969 0 241.589 0Z" fill="#3E6BE8"/>
<path id="121" fill-rule="evenodd" clip-rule="evenodd" d="M92.7684 360C135.907 360 152 415.141 152 462.618C152 494.09 121.365 510 92.7684 510C53.536 510 2 505.796 2 462.618C2 406.69 41.951 360 92.7684 360Z" fill="#4A6A1C"/>
<path id="122" fill-rule="evenodd" clip-rule="evenodd" d="M448.01 0C503.848 0 552 32.6964 552 75.8623C552 118.569 503.254 150 448.01 150C406.471 150 402 107.974 402 75.8623C402 43.1416 405.684 0 448.01 0Z" fill="#545073"/>
<path id="123" fill-rule="evenodd" clip-rule="evenodd" d="M497.004 180.141C522.488 180.141 552 189.296 552 213.493C552 263.353 549.516 330 497.004 330C436.4 330 402 271.035 402 213.493C402 175.936 457.447 180.141 497.004 180.141Z" fill="#9E037E"/>
<path id="124" fill-rule="evenodd" clip-rule="evenodd" d="M460.169 360C500.55 360 552 365.392 552 395.855C552 447.999 529.288 510 460.169 510C396.88 510 402.105 443.601 402.105 395.855C402.105 373.749 430.866 360 460.169 360Z" fill="#74FC38"/>
<path id="125" fill-rule="evenodd" clip-rule="evenodd" d="M73.9125 0C110.499 0 152 23.6445 152 80.6452C152 135.333 109.015 150 73.9125 150C40.8835 150 2 132.103 2 80.6452C2 26.736 39.3101 0 73.9125 0Z" fill="#1B5C59"/>
<path id="126" fill-rule="evenodd" clip-rule="evenodd" d="M69.4233 180C130.238 180 152 237.601 152 286.79C152 317.856 107.832 330 69.4233 330C35.8294 330 2 313.962 2 286.79C2 239.963 11.5289 180 69.4233 180Z" fill="#BC7BB8"/>
<path id="127" fill-rule="evenodd" clip-rule="evenodd" d="M845.494 720C904.07 720 965 758.5 965 828.828C965 886.771 893.755 866.603 845.494 866.603C828.544 866.603 815.592 849.18 815.592 828.828C815.592 784.075 808.22 720 845.494 720Z" fill="#2AB8F3"/>
<path id="128" fill-rule="evenodd" clip-rule="evenodd" d="M879.671 900C919.176 900 965 914.589 965 953.455C965 1003.42 930.455 1050 879.671 1050C833.775 1050 815 998.609 815 953.455C815 921.002 846.685 900 879.671 900Z" fill="#6EB869"/>
<path id="129" fill-rule="evenodd" clip-rule="evenodd" d="M854.589 540C920.195 540 965 580.8 965 624.674C965 663.175 912.16 690 854.589 690C813.663 690 816.639 652.043 816.639 624.674C816.639 590.154 802.969 540 854.589 540Z" fill="#BEBC6A"/>
<path id="130" fill-rule="evenodd" clip-rule="evenodd" d="M705.768 900C748.907 900 765 955.141 765 1002.62C765 1034.09 734.365 1050 705.768 1050C666.536 1050 615 1045.8 615 1002.62C615 946.69 654.951 900 705.768 900Z" fill="#A58560"/>
<path id="131" fill-rule="evenodd" clip-rule="evenodd" d="M1061.01 540C1116.85 540 1165 572.696 1165 615.862C1165 658.569 1116.25 690 1061.01 690C1019.47 690 1015 647.974 1015 615.862C1015 583.142 1018.68 540 1061.01 540Z" fill="#D7164C"/>
<path id="132" fill-rule="evenodd" clip-rule="evenodd" d="M1110 720.141C1135.49 720.141 1165 729.296 1165 753.493C1165 803.353 1162.52 870 1110 870C1049.4 870 1015 811.035 1015 753.493C1015 715.936 1070.45 720.141 1110 720.141Z" fill="#78E692"/>
<path id="133" fill-rule="evenodd" clip-rule="evenodd" d="M1073.17 900C1113.55 900 1165 905.392 1165 935.855C1165 987.999 1142.29 1050 1073.17 1050C1009.88 1050 1015.1 983.601 1015.1 935.855C1015.1 913.749 1043.87 900 1073.17 900Z" fill="#DEEECD"/>
<path id="134" fill-rule="evenodd" clip-rule="evenodd" d="M686.913 540C723.499 540 765 563.645 765 620.645C765 675.333 722.015 690 686.913 690C653.884 690 615 672.103 615 620.645C615 566.736 652.31 540 686.913 540Z" fill="#83654A"/>
<path id="135" fill-rule="evenodd" clip-rule="evenodd" d="M682.423 720C743.238 720 765 777.601 765 826.79C765 857.856 720.832 870 682.423 870C648.829 870 615 853.962 615 826.79C615 779.963 624.529 720 682.423 720Z" fill="#0ECD03"/>
<path id="136" fill-rule="evenodd" clip-rule="evenodd" d="M845.494 720C904.07 720 965 758.5 965 828.828C965 886.771 893.755 866.603 845.494 866.603C828.544 866.603 815.592 849.18 815.592 828.828C815.592 784.075 808.22 720 845.494 720Z" fill="#AD49A0"/>
<path id="137" fill-rule="evenodd" clip-rule="evenodd" d="M879.671 900C919.176 900 965 914.589 965 953.455C965 1003.42 930.455 1050 879.671 1050C833.775 1050 815 998.609 815 953.455C815 921.002 846.685 900 879.671 900Z" fill="#38C4FA"/>
<path id="138" fill-rule="evenodd" clip-rule="evenodd" d="M854.589 540C920.195 540 965 580.8 965 624.674C965 663.175 912.16 690 854.589 690C813.663 690 816.639 652.043 816.639 624.674C816.639 590.154 802.969 540 854.589 540Z" fill="#D9EC47"/>
<path id="139" fill-rule="evenodd" clip-rule="evenodd" d="M705.768 900C748.907 900 765 955.141 765 1002.62C765 1034.09 734.365 1050 705.768 1050C666.536 1050 615 1045.8 615 1002.62C615 946.69 654.951 900 705.768 900Z" fill="#622C9A"/>
<path id="140" fill-rule="evenodd" clip-rule="evenodd" d="M1061.01 540C1116.85 540 1165 572.696 1165 615.862C1165 658.569 1116.25 690 1061.01 690C1019.47 690 1015 647.974 1015 615.862C1015 583.142 1018.68 540 1061.01 540Z" fill="#E17A94"/>
<path id="141" fill-rule="evenodd" clip-rule="evenodd" d="M1110 720.141C1135.49 720.141 1165 729.296 1165 753.493C1165 803.353 1162.52 870 1110 870C1049.4 870 1015 811.035 1015 753.493C1015 715.936 1070.45 720.141 1110 720.141Z" fill="#CCD234"/>
<path id="142" fill-rule="evenodd" clip-rule="evenodd" d="M1073.17 900C1113.55 900 1165 905.392 1165 935.855C1165 987.999 1142.29 1050 1073.17 1050C1009.88 1050 1015.1 983.601 1015.1 935.855C1015.1 913.749 1043.87 900 1073.17 900Z" fill="#4D9A73"/>
<path id="143" fill-rule="evenodd" clip-rule="evenodd" d="M686.913 540C723.499 540 765 563.645 765 620.645C765 675.333 722.015 690 686.913 690C653.884 690 615 672.103 615 620.645C615 566.736 652.31 540 686.913 540Z" fill="#C57B3E"/>
<path id="144" fill-rule="evenodd" clip-rule="evenodd" d="M682.423 720C743.238 720 765 777.601 765 826.79C765 857.856 720.832 870 682.423 870C648.829 870 615 853.962 615 826.79C615 779.963 624.529 720 682.423 720Z" fill="#46F136"/>
<path id="145" fill-rule="evenodd" clip-rule="evenodd" d="M852.494 180C911.07 180 972 218.5 972 288.828C972 346.771 900.755 326.603 852.494 326.603C835.544 326.603 822.592 309.18 822.592 288.828C822.592 244.075 815.22 180 852.494 180Z" fill="#A1B5A5"/>
<path id="146" fill-rule="evenodd" clip-rule="evenodd" d="M886.671 360C926.176 360 972 374.589 972 413.455C972 463.418 937.455 510 886.671 510C840.775 510 822 458.609 822 413.455C822 381.002 853.685 360 886.671 360Z" fill="#630ADF"/>
<path id="147" fill-rule="evenodd" clip-rule="evenodd" d="M861.589 0C927.195 0 972 40.8004 972 84.6742C972 123.175 919.16 150 861.589 150C820.663 150 823.639 112.043 823.639 84.6742C823.639 50.1535 809.969 0 861.589 0Z" fill="#D256AB"/>
<path id="148" fill-rule="evenodd" clip-rule="evenodd" d="M712.768 360C755.907 360 772 415.141 772 462.618C772 494.09 741.365 510 712.768 510C673.536 510 622 505.796 622 462.618C622 406.69 661.951 360 712.768 360Z" fill="#632CF6"/>
<path id="149" fill-rule="evenodd" clip-rule="evenodd" d="M1068.01 0C1123.85 0 1172 32.6964 1172 75.8623C1172 118.569 1123.25 150 1068.01 150C1026.47 150 1022 107.974 1022 75.8623C1022 43.1416 1025.68 0 1068.01 0Z" fill="#234C4D"/>
<path id="150" fill-rule="evenodd" clip-rule="evenodd" d="M1117 180.141C1142.49 180.141 1172 189.296 1172 213.493C1172 263.353 1169.52 330 1117 330C1056.4 330 1022 271.035 1022 213.493C1022 175.936 1077.45 180.141 1117 180.141Z" fill="#6C90A6"/>
<path id="151" fill-rule="evenodd" clip-rule="evenodd" d="M1080.17 360C1120.55 360 1172 365.392 1172 395.855C1172 447.999 1149.29 510 1080.17 510C1016.88 510 1022.1 443.601 1022.1 395.855C1022.1 373.749 1050.87 360 1080.17 360Z" fill="#9B4615"/>
<path id="152" fill-rule="evenodd" clip-rule="evenodd" d="M693.913 0C730.499 0 772 23.6445 772 80.6452C772 135.333 729.015 150 693.913 150C660.884 150 622 132.103 622 80.6452C622 26.736 659.31 0 693.913 0Z" fill="#023C1D"/>
<path id="153" fill-rule="evenodd" clip-rule="evenodd" d="M689.423 180C750.238 180 772 237.601 772 286.79C772 317.856 727.832 330 689.423 330C655.829 330 622 313.962 622 286.79C622 239.963 631.529 180 689.423 180Z" fill="#CA93BE"/>
<path id="154" fill-rule="evenodd" clip-rule="evenodd" d="M230.494 720C289.07 720 350 758.5 350 828.828C350 886.771 278.755 866.603 230.494 866.603C213.544 866.603 200.592 849.18 200.592 828.828C200.592 784.075 193.22 720 230.494 720Z" fill="#C3511A"/>
<path id="155" fill-rule="evenodd" clip-rule="evenodd" d="M264.671 900C304.176 900 350 914.589 350 953.455C350 1003.42 315.455 1050 264.671 1050C218.775 1050 200 998.609 200 953.455C200 921.002 231.685 900 264.671 900Z" fill="#866C26"/>
<path id="156" fill-rule="evenodd" clip-rule="evenodd" d="M239.589 540C305.195 540 350 580.8 350 624.674C350 663.175 297.16 690 239.589 690C198.663 690 201.639 652.043 201.639 624.674C201.639 590.154 187.969 540 239.589 540Z" fill="#BAE6CB"/>
<path id="157" fill-rule="evenodd" clip-rule="evenodd" d="M90.7684 900C133.907 900 150 955.141 150 1002.62C150 1034.09 119.365 1050 90.7684 1050C51.536 1050 0 1045.8 0 1002.62C0 946.69 39.951 900 90.7684 900Z" fill="#317545"/>
<path id="158" fill-rule="evenodd" clip-rule="evenodd" d="M446.01 540C501.848 540 550 572.696 550 615.862C550 658.569 501.254 690 446.01 690C404.471 690 400 647.974 400 615.862C400 583.142 403.684 540 446.01 540Z" fill="#EC14B8"/>
<path id="159" fill-rule="evenodd" clip-rule="evenodd" d="M495.004 720.141C520.488 720.141 550 729.296 550 753.493C550 803.353 547.516 870 495.004 870C434.4 870 400 811.035 400 753.493C400 715.936 455.447 720.141 495.004 720.141Z" fill="#A7040B"/>
<path id="160" fill-rule="evenodd" clip-rule="evenodd" d="M458.169 900C498.55 900 550 905.392 550 935.855C550 987.999 527.288 1050 458.169 1050C394.88 1050 400.105 983.601 400.105 935.855C400.105 913.749 428.866 900 458.169 900Z" fill="#38B065"/>
<path id="161" fill-rule="evenodd" clip-rule="evenodd" d="M71.9125 540C108.499 540 150 563.645 150 620.645C150 675.333 107.015 690 71.9125 690C38.8835 690 0 672.103 0 620.645C0 566.736 37.3101 540 71.9125 540Z" fill="#C8F76A"/>
<path id="162" fill-rule="evenodd" clip-rule="evenodd" d="M67.4233 720C128.238 720 150 777.601 150 826.79C150 857.856 105.832 870 67.4233 870C33.8294 870 0 853.962 0 826.79C0 779.963 9.52888 720 67.4233 720Z" fill="#84FC3D"/>
<path id="163" fill-rule="evenodd" clip-rule="evenodd" d="M232.494 180C291.07 180 352 218.5 352 288.828C352 346.771 280.755 326.603 232.494 326.603C215.544 326.603 202.592 309.18 202.592 288.828C202.592 244.075 195.22 180 232.494 180Z" fill="#7B92F8"/>
<path id="164" fill-rule="evenodd" clip-rule="evenodd" d="M266.671 360C306.176 360 352 374.589 352 413.455C352 463.418 317.455 510 266.671 510C220.775 510 202 458.609 202 413.455C202 381.002 233.685 360 266.671 360Z" fill="#4CE34C"/>
<path id="165" fill-rule="evenodd" clip-rule="evenodd" d="M241.589 0C307.195 0 352 40.8004 352 84.6742C352 123.175 299.16 150 241.589 150C200.663 150 203.639 112.043 203.639 84.6742C203.639 50.1535 189.969 0 241.589 0Z" fill="#A1814A"/>
<path id="166" fill-rule="evenodd" clip-rule="evenodd" d="M92.7684 360C135.907 360 152 415.141 152 462.618C152 494.09 121.365 510 92.7684 510C53.536 510 2 505.796 2 462.618C2 406.69 41.951 360 92.7684 360Z" fill="#721583"/>
<path id="167" fill-rule="evenodd" clip-rule="evenodd" d="M448.01 0C503.848 0 552 32.6964 552 75.8623C552 118.569 503.254 150 448.01 150C406.471 150 402 107.974 402 75.8623C402 43.1416 405.684 0 448.01 0Z" fill="#34590E"/>
<path id="168" fill-rule="evenodd" clip-rule="evenodd" d="M497.004 180.141C522.488 180.141 552 189.296 552 213.493C552 263.353 549.516 330 497.004 330C436.4 330 402 271.035 402 213.493C402 175.936 457.447 180.141 497.004 180.141Z" fill="#39DF28"/>
<path id="169" fill-rule="evenodd" clip-rule="evenodd" d="M460.169 360C500.55 360 552 365.392 552 395.855C552 447.999 529.288 510 460.169 510C396.88 510 402.105 443.601 402.105 395.855C402.105 373.749 430.866 360 460.169 360Z" fill="#F4F804"/>
<path id="170" fill-rule="evenodd" clip-rule="evenodd" d="M73.9125 0C110.499 0 152 23.6445 152 80.6452C152 135.333 109.015 150 73.9125 150C40.8835 150 2 132.103 2 80.6452C2 26.736 39.3101 0 73.9125 0Z" fill="#348B5F"/>
<path id="171" fill-rule="evenodd" clip-rule="evenodd" d="M69.4233 180C130.238 180 152 237.601 152 286.79C152 317.856 107.832 330 69.4233 330C35.8294 330 2 313.962 2 286.79C2 239.963 11.5289 180 69.4233 180Z" fill="#F0D433"/>
<path id="172" fill-rule="evenodd" clip-rule="evenodd" d="M232.494 180C291.07 180 352 218.5 352 288.828C352 346.771 280.755 326.603 232.494 326.603C215.544 326.603 202.592 309.18 202.592 288.828C202.592 244.075 195.22 180 232.494 180Z" fill="#6CBD1C"/>
<path id="173" fill-rule="evenodd" clip-rule="evenodd" d="M266.671 360C306.176 360 352 374.589 352 413.455C352 463.418 317.455 510 266.671 510C220.775 510 202 458.609 202 413.455C202 381.002 233.685 360 266.671 360Z" fill="#93BEEF"/>
<path id="174" fill-rule="evenodd" clip-rule="evenodd" d="M241.589 0C307.195 0 352 40.8004 352 84.6742C352 123.175 299.16 150 241.589 150C200.663 150 203.639 112.043 203.639 84.6742C203.639 50.1535 189.969 0 241.589 0Z" fill="#D74618"/>
<path id="175" fill-rule="evenodd" clip-rule="evenodd" d="M92.7684 360C135.907 360 152 415.141 152 462.618C152 494.09 121.365 510 92.7684 510C53.536 510 2 505.796 2 462.618C2 406.69 41.951 360 92.7684 360Z" fill="#E2AD27"/>
<path id="176" fill-rule="evenodd" clip-rule="evenodd" d="M448.01 0C503.848 0 552 32.6964 552 75.8623C552 118.569 503.254 150 448.01 150C406.471 150 402 107.974 402 75.8623C402 43.1416 405.684 0 448.01 0Z" fill="#CEA72D"/>
<path id="177" fill-rule="evenodd" clip-rule="evenodd" d="M497.004 180.141C522.488 180.141 552 189.296 552 213.493C552 263.353 549.516 330 497.004 330C436.4 330 402 271.035 402 213.493C402 175.936 457.447 180.141 497.004 180.141Z" fill="#F5650D"/>
<path id="178" fill-rule="evenodd" clip-rule="evenodd" d="M460.169 360C500.55 360 552 365.392 552 395.855C552 447.999 529.288 510 460.169 510C396.88 510 402.105 443.601 402.105 395.855C402.105 373.749 430.866 360 460.169 360Z" fill="#2466CA"/>
<path id="179" fill-rule="evenodd" clip-rule="evenodd" d="M73.9125 0C110.499 0 152 23.6445 152 80.6452C152 135.333 109.015 150 73.9125 150C40.8835 150 2 132.103 2 80.6452C2 26.736 39.3101 0 73.9125 0Z" fill="#F6BF34"/>
<path id="180" fill-rule="evenodd" clip-rule="evenodd" d="M69.4233 180C130.238 180 152 237.601 152 286.79C152 317.856 107.832 330 69.4233 330C35.8294 330 2 313.962 2 286.79C2 239.963 11.5289 180 69.4233 180Z" fill="#74D1E3"/>
<path id="181" fill-rule="evenodd" clip-rule="evenodd" d="M845.494 720C904.07 720 965 758.5 965 828.828C965 886.771 893.755 866.603 845.494 866.603C828.544 866.603 815.592 849.18 815.592 828.828C815.592 784.075 808.22 720 845.494 720Z" fill="#0BA42B"/>
<path id="182" fill-rule="evenodd" clip-rule="evenodd" d="M879.671 900C919.176 900 965 914.589 965 953.455C965 1003.42 930.455 1050 879.671 1050C833.775 1050 815 998.609 815 953.455C815 921.002 846.685 900 879.671 900Z" fill="#5F0A6D"/>
<path id="183" fill-rule="evenodd" clip-rule="evenodd" d="M854.589 540C920.195 540 965 580.8 965 624.674C965 663.175 912.16 690 854.589 690C813.663 690 816.639 652.043 816.639 624.674C816.639 590.154 802.969 540 854.589 540Z" fill="#C1D2D7"/>
<path id="184" fill-rule="evenodd" clip-rule="evenodd" d="M705.768 900C748.907 900 765 955.141 765 1002.62C765 1034.09 734.365 1050 705.768 1050C666.536 1050 615 1045.8 615 1002.62C615 946.69 654.951 900 705.768 900Z" fill="#71B3C6"/>
<path id="185" fill-rule="evenodd" clip-rule="evenodd" d="M1061.01 540C1116.85 540 1165 572.696 1165 615.862C1165 658.569 1116.25 690 1061.01 690C1019.47 690 1015 647.974 1015 615.862C1015 583.142 1018.68 540 1061.01 540Z" fill="#3AAEFB"/>
<path id="186" fill-rule="evenodd" clip-rule="evenodd" d="M1110 720.141C1135.49 720.141 1165 729.296 1165 753.493C1165 803.353 1162.52 870 1110 870C1049.4 870 1015 811.035 1015 753.493C1015 715.936 1070.45 720.141 1110 720.141Z" fill="#C6A523"/>
<path id="187" fill-rule="evenodd" clip-rule="evenodd" d="M1073.17 900C1113.55 900 1165 905.392 1165 935.855C1165 987.999 1142.29 1050 1073.17 1050C1009.88 1050 1015.1 983.601 1015.1 935.855C1015.1 913.749 1043.87 900 1073.17 900Z" fill="#9E0C5F"/>
<path id="188" fill-rule="evenodd" clip-rule="evenodd" d="M686.913 540C723.499 540 765 563.645 765 620.645C765 675.333 722.015 690 686.913 690C653.884 690 615 672.103 615 620.645C615 566.736 652.31 540 686.913 540Z" fill="#6BB0E1"/>
<path id="189" fill-rule="evenodd" clip-rule="evenodd" d="M682.423 720C743.238 720 765 777.601 765 826.79C765 857.856 720.832 870 682.423 870C648.829 870 615 853.962 615 826.79C615 779.963 624.529 720 682.423 720Z" fill="#02B207"/>
<path id="190" fill-rule="evenodd" clip-rule="evenodd" d="M845.494 720C904.07 720 965 758.5 965 828.828C965 886.771 893.755 866.603 845.494 866.603C828.544 866.603 815.592 849.18 815.592 828.828C815.592 784.075 808.22 720 845.494 720Z" fill="#E2C7B2"/>
<path id="191" fill-rule="evenodd" clip-rule="evenodd" d="M879.671 900C919.176 900 965 914.589 965 953.455C965 1003.42 930.455 1050 879.671 1050C833.775 1050 815 998.609 815 953.455C815 921.002 846.685 900 879.671 900Z" fill="#BD2517"/>
<path id="192" fill-rule="evenodd" clip-rule="evenodd" d="M854.589 540C920.195 540 965 580.8 965 624.674C965 663.175 912.16 690 854.589 690C813.663 690 816.639 652.043 816.639 624.674C816.639 590.154 802.969 540 854.589 540Z" fill="#F15776"/>
<path id="193" fill-rule="evenodd" clip-rule="evenodd" d="M705.768 900C748.907 900 765 955.141 765 1002.62C765 1034.09 734.365 1050 705.768 1050C666.536 1050 615 1045.8 615 1002.62C615 946.69 654.951 900 705.768 900Z" fill="#61C18A"/>
<path id="194" fill-rule="evenodd" clip-rule="evenodd" d="M1061.01 540C1116.85 540 1165 572.696 1165 615.862C1165 658.569 1116.25 690 1061.01 690C1019.47 690 1015 647.974 1015 615.862C1015 583.142 1018.68 540 1061.01 540Z" fill="#238A9A"/>
<path id="195" fill-rule="evenodd" clip-rule="evenodd" d="M1110 720.141C1135.49 720.141 1165 729.296 1165 753.493C1165 803.353 1162.52 870 1110 870C1049.4 870 1015 811.035 1015 753.493C1015 715.936 1070.45 720.141 1110 720.141Z" fill="#6A5B67"/>
<path id="196" fill-rule="evenodd" clip-rule="evenodd" d="M1073.17 900C1113.55 900 1165 905.392 1165 935.855C1165 987.999 1142.29 1050 1073.17 1050C1009.88 1050 1015.1 983.601 1015.1 935.855C1015.1 913.749 1043.87 900 1073.17 900Z" fill="#D19B19"/>
<path id="197" fill-rule="evenodd" clip-rule="evenodd" d="M686.913 540C723.499 540 765 563.645 765 620.645C765 675.333 722.015 690 686.913 690C653.884 690 615 672.103 615 620.645C615 566.736 652.31 540 686.913 540Z" fill="#CDB7B8"/>
<path id="198" fill-rule="evenodd" clip-rule="evenodd" d="M682.423 720C743.238 720 765 777.601 765 826.79C765 857.856 720.832 870 682.423 870C648.829 870 615 853.962 615 826.79C615 779.963 624.529 720 682.423 720Z" fill="#C6977F"/>
<path id="199" fill-rule="evenodd" clip-rule="evenodd" d="M852.494 180C911.07 180 972 218.5 972 288.828C972 346.771 900.755 326.603 852.494 326.603C835.544 326.603 822.592 309.18 822.592 288.828C822.592 244.075 815.22 180 852.494 180Z" fill="#5DB86A"/>
<path id="200" fill-rule="evenodd" clip-rule="evenodd" d="M886.671 360C926.176 360 972 374.589 972 413.455C972 463.418 937.455 510 886.671 510C840.775 510 822 458.609 822 413.455C822 381.002 853.685 360 886.671 360Z" fill="#E6AD99"/>
<path id="201" fill-rule="evenodd" clip-rule="evenodd" d="M861.589 0C927.195 0 972 40.8004 972 84.6742C972 123.175 919.16 150 861.589 150C820.663 150 823.639 112.043 823.639 84.6742C823.639 50.1535 809.969 0 861.589 0Z" fill="#D3654D"/>
<path id="202" fill-rule="evenodd" clip-rule="evenodd" d="M712.768 360C755.907 360 772 415.141 772 462.618C772 494.09 741.365 510 712.768 510C673.536 510 622 505.796 622 462.618C622 406.69 661.951 360 712.768 360Z" fill="#50CAE3"/>
<path id="203" fill-rule="evenodd" clip-rule="evenodd" d="M1068.01 0C1123.85 0 1172 32.6964 1172 75.8623C1172 118.569 1123.25 150 1068.01 150C1026.47 150 1022 107.974 1022 75.8623C1022 43.1416 1025.68 0 1068.01 0Z" fill="#CC2969"/>
<path id="204" fill-rule="evenodd" clip-rule="evenodd" d="M1117 180.141C1142.49 180.141 1172 189.296 1172 213.493C1172 263.353 1169.52 330 1117 330C1056.4 330 1022 271.035 1022 213.493C1022 175.936 1077.45 180.141 1117 180.141Z" fill="#E33794"/>
<path id="205" fill-rule="evenodd" clip-rule="evenodd" d="M1080.17 360C1120.55 360 1172 365.392 1172 395.855C1172 447.999 1149.29 510 1080.17 510C1016.88 510 1022.1 443.601 1022.1 395.855C1022.1 373.749 1050.87 360 1080.17 360Z" fill="#407E0A"/>
<path id="206" fill-rule="evenodd" clip-rule="evenodd" d="M693.913 0C730.499 0 772 23.6445 772 80.6452C772 135.333 729.015 150 693.913 150C660.884 150 622 132.103 622 80.6452C622 26.736 659.31 0 693.913 0Z" fill="#3790D3"/>
<path id="207" fill-rule="evenodd" clip-rule="evenodd" d="M689.423 180C750.238 180 772 237.601 772 286.79C772 317.856 727.832 330 689.423 330C655.829 330 622 313.962 622 286.79C622 239.963 631.529 180 689.423 180Z" fill="#F76F76"/>
<path id="208" fill-rule="evenodd" clip-rule="evenodd" d="M230.494 720C289.07 720 350 758.5 350 828.828C350 886.771 278.755 866.603 230.494 866.603C213.544 866.603 200.592 849.18 200.592 828.828C200.592 784.075 193.22 720 230.494 720Z" fill="#2FBD98"/>
<path id="209" fill-rule="evenodd" clip-rule="evenodd" d="M264.671 900C304.176 900 350 914.589 350 953.455C350 1003.42 315.455 1050 264.671 1050C218.775 1050 200 998.609 200 953.455C200 921.002 231.685 900 264.671 900Z" fill="#68BABC"/>
<path id="210" fill-rule="evenodd" clip-rule="evenodd" d="M239.589 540C305.195 540 350 580.8 350 624.674C350 663.175 297.16 690 239.589 690C198.663 690 201.639 652.043 201.639 624.674C201.639 590.154 187.969 540 239.589 540Z" fill="#BD9805"/>
<path id="211" fill-rule="evenodd" clip-rule="evenodd" d="M90.7684 900C133.907 900 150 955.141 150 1002.62C150 1034.09 119.365 1050 90.7684 1050C51.536 1050 0 1045.8 0 1002.62C0 946.69 39.951 900 90.7684 900Z" fill="#6EA4A2"/>
<path id="212" fill-rule="evenodd" clip-rule="evenodd" d="M446.01 540C501.848 540 550 572.696 550 615.862C550 658.569 501.254 690 446.01 690C404.471 690 400 647.974 400 615.862C400 583.142 403.684 540 446.01 540Z" fill="#6A796B"/>
<path id="213" fill-rule="evenodd" clip-rule="evenodd" d="M495.004 720.141C520.488 720.141 550 729.296 550 753.493C550 803.353 547.516 870 495.004 870C434.4 870 400 811.035 400 753.493C400 715.936 455.447 720.141 495.004 720.141Z" fill="#AEAC81"/>
<path id="214" fill-rule="evenodd" clip-rule="evenodd" d="M458.169 900C498.55 900 550 905.392 550 935.855C550 987.999 527.288 1050 458.169 1050C394.88 1050 400.105 983.601 400.105 935.855C400.105 913.749 428.866 900 458.169 900Z" fill="#D488C4"/>
<path id="215" fill-rule="evenodd" clip-rule="evenodd" d="M71.9125 540C108.499 540 150 563.645 150 620.645C150 675.333 107.015 690 71.9125 690C38.8835 690 0 672.103 0 620.645C0 566.736 37.3101 540 71.9125 540Z" fill="#B2A03D"/>
<path id="216" fill-rule="evenodd" clip-rule="evenodd" d="M67.4233 720C128.238 720 150 777.601 150 826.79C150 857.856 105.832 870 67.4233 870C33.8294 870 0 853.962 0 826.79C0 779.963 9.52888 720 67.4233 720Z" fill="#47C077"/>
</g>
</svg>
