<svg width="495" height="285" viewBox="0 0 495 285" fill="none" xmlns="http://www.w3.org/2000/svg">
<rect width="495" height="285" fill="#E5E5E5"/>
<g id="Group 1">
<g id="noun">
<rect id="Rectangle 2" x="164" width="124.783" height="60" rx="30" fill="#E37D3D"/>
<path id="NOUN" d="M206.277 21.848V39.2H204.621C204.365 39.2 204.149 39.16 203.973 39.08C203.805 38.992 203.641 38.848 203.481 38.648L194.421 27.08C194.469 27.608 194.493 28.096 194.493 28.544V39.2H191.649V21.848H193.341C193.477 21.848 193.593 21.856 193.689 21.872C193.793 21.88 193.881 21.904 193.953 21.944C194.033 21.976 194.109 22.028 194.181 22.1C194.253 22.164 194.333 22.252 194.421 22.364L203.517 33.98C203.493 33.7 203.473 33.424 203.457 33.152C203.441 32.88 203.433 32.628 203.433 32.396V21.848H206.277ZM226.69 30.524C226.69 31.796 226.478 32.976 226.054 34.064C225.638 35.144 225.046 36.08 224.278 36.872C223.51 37.664 222.586 38.284 221.506 38.732C220.426 39.172 219.226 39.392 217.906 39.392C216.594 39.392 215.398 39.172 214.318 38.732C213.238 38.284 212.31 37.664 211.534 36.872C210.766 36.08 210.17 35.144 209.746 34.064C209.322 32.976 209.11 31.796 209.11 30.524C209.11 29.252 209.322 28.076 209.746 26.996C210.17 25.908 210.766 24.968 211.534 24.176C212.31 23.384 213.238 22.768 214.318 22.328C215.398 21.88 216.594 21.656 217.906 21.656C218.786 21.656 219.614 21.76 220.39 21.968C221.166 22.168 221.878 22.456 222.526 22.832C223.174 23.2 223.754 23.652 224.266 24.188C224.786 24.716 225.226 25.308 225.586 25.964C225.946 26.62 226.218 27.332 226.402 28.1C226.594 28.868 226.69 29.676 226.69 30.524ZM223.39 30.524C223.39 29.572 223.262 28.72 223.006 27.968C222.75 27.208 222.386 26.564 221.914 26.036C221.442 25.508 220.866 25.104 220.186 24.824C219.514 24.544 218.754 24.404 217.906 24.404C217.058 24.404 216.294 24.544 215.614 24.824C214.942 25.104 214.366 25.508 213.886 26.036C213.414 26.564 213.05 27.208 212.794 27.968C212.538 28.72 212.41 29.572 212.41 30.524C212.41 31.476 212.538 32.332 212.794 33.092C213.05 33.844 213.414 34.484 213.886 35.012C214.366 35.532 214.942 35.932 215.614 36.212C216.294 36.492 217.058 36.632 217.906 36.632C218.754 36.632 219.514 36.492 220.186 36.212C220.866 35.932 221.442 35.532 221.914 35.012C222.386 34.484 222.75 33.844 223.006 33.092C223.262 32.332 223.39 31.476 223.39 30.524ZM236.508 36.596C237.132 36.596 237.688 36.492 238.176 36.284C238.672 36.076 239.088 35.784 239.424 35.408C239.76 35.032 240.016 34.576 240.192 34.04C240.376 33.504 240.468 32.904 240.468 32.24V21.848H243.696V32.24C243.696 33.272 243.528 34.228 243.192 35.108C242.864 35.98 242.388 36.736 241.764 37.376C241.148 38.008 240.396 38.504 239.508 38.864C238.62 39.216 237.62 39.392 236.508 39.392C235.388 39.392 234.384 39.216 233.496 38.864C232.608 38.504 231.852 38.008 231.228 37.376C230.612 36.736 230.136 35.98 229.8 35.108C229.472 34.228 229.308 33.272 229.308 32.24V21.848H232.536V32.228C232.536 32.892 232.624 33.492 232.8 34.028C232.984 34.564 233.244 35.024 233.58 35.408C233.924 35.784 234.34 36.076 234.828 36.284C235.324 36.492 235.884 36.596 236.508 36.596ZM261.965 21.848V39.2H260.309C260.053 39.2 259.837 39.16 259.661 39.08C259.493 38.992 259.329 38.848 259.169 38.648L250.109 27.08C250.157 27.608 250.181 28.096 250.181 28.544V39.2H247.337V21.848H249.029C249.165 21.848 249.281 21.856 249.377 21.872C249.481 21.88 249.569 21.904 249.641 21.944C249.721 21.976 249.797 22.028 249.869 22.1C249.941 22.164 250.021 22.252 250.109 22.364L259.205 33.98C259.181 33.7 259.161 33.424 259.145 33.152C259.129 32.88 259.121 32.628 259.121 32.396V21.848H261.965Z" fill="black"/>
</g>
<g id="adjective">
<rect id="Rectangle 7" x="199" y="75" width="156" height="60" rx="30" fill="#82A102"/>
<path id="ADJECTIVE" d="M224.697 108.048L222.585 102.276C222.481 102.02 222.373 101.716 222.261 101.364C222.149 101.012 222.037 100.632 221.925 100.224C221.821 100.632 221.713 101.016 221.601 101.376C221.489 101.728 221.381 102.036 221.277 102.3L219.177 108.048H224.697ZM230.397 114.6H227.901C227.621 114.6 227.393 114.532 227.217 114.396C227.041 114.252 226.909 114.076 226.821 113.868L225.525 110.328H218.337L217.041 113.868C216.977 114.052 216.853 114.22 216.669 114.372C216.485 114.524 216.257 114.6 215.985 114.6H213.465L220.293 97.248H223.581L230.397 114.6ZM247.601 105.924C247.601 107.196 247.389 108.364 246.965 109.428C246.541 110.492 245.945 111.408 245.177 112.176C244.409 112.944 243.485 113.54 242.405 113.964C241.325 114.388 240.125 114.6 238.805 114.6H232.193V97.248H238.805C240.125 97.248 241.325 97.464 242.405 97.896C243.485 98.32 244.409 98.916 245.177 99.684C245.945 100.444 246.541 101.356 246.965 102.42C247.389 103.484 247.601 104.652 247.601 105.924ZM244.289 105.924C244.289 104.972 244.161 104.12 243.905 103.368C243.657 102.608 243.293 101.968 242.813 101.448C242.341 100.92 241.765 100.516 241.085 100.236C240.413 99.956 239.653 99.816 238.805 99.816H235.433V112.032H238.805C239.653 112.032 240.413 111.892 241.085 111.612C241.765 111.332 242.341 110.932 242.813 110.412C243.293 109.884 243.657 109.244 243.905 108.492C244.161 107.732 244.289 106.876 244.289 105.924ZM256.313 108.432C256.313 109.408 256.193 110.288 255.953 111.072C255.713 111.856 255.353 112.524 254.873 113.076C254.401 113.628 253.809 114.052 253.097 114.348C252.385 114.644 251.557 114.792 250.613 114.792C250.181 114.792 249.757 114.764 249.341 114.708C248.925 114.66 248.489 114.58 248.033 114.468C248.057 114.148 248.085 113.828 248.117 113.508C248.149 113.188 248.177 112.868 248.201 112.548C248.225 112.372 248.293 112.232 248.405 112.128C248.525 112.016 248.693 111.96 248.909 111.96C249.045 111.96 249.221 111.988 249.437 112.044C249.661 112.1 249.941 112.128 250.277 112.128C250.733 112.128 251.137 112.064 251.489 111.936C251.841 111.8 252.133 111.588 252.365 111.3C252.605 111.012 252.785 110.64 252.905 110.184C253.025 109.72 253.085 109.16 253.085 108.504V97.248H256.313V108.432ZM263.254 99.816V104.628H269.326V107.112H263.254V112.02H270.958V114.6H260.014V97.248H270.958V99.816H263.254ZM285.359 110.508C285.535 110.508 285.691 110.576 285.827 110.712L287.099 112.092C286.395 112.964 285.527 113.632 284.495 114.096C283.471 114.56 282.239 114.792 280.799 114.792C279.511 114.792 278.351 114.572 277.319 114.132C276.295 113.692 275.419 113.08 274.691 112.296C273.963 111.512 273.403 110.576 273.011 109.488C272.627 108.4 272.435 107.212 272.435 105.924C272.435 104.62 272.643 103.428 273.059 102.348C273.475 101.26 274.059 100.324 274.811 99.54C275.571 98.756 276.475 98.148 277.523 97.716C278.571 97.276 279.731 97.056 281.003 97.056C282.267 97.056 283.387 97.264 284.363 97.68C285.347 98.096 286.183 98.64 286.871 99.312L285.791 100.812C285.727 100.908 285.643 100.992 285.539 101.064C285.443 101.136 285.307 101.172 285.131 101.172C285.011 101.172 284.887 101.14 284.759 101.076C284.631 101.004 284.491 100.92 284.339 100.824C284.187 100.72 284.011 100.608 283.811 100.488C283.611 100.368 283.379 100.26 283.115 100.164C282.851 100.06 282.543 99.976 282.191 99.912C281.847 99.84 281.447 99.804 280.991 99.804C280.215 99.804 279.503 99.944 278.855 100.224C278.215 100.496 277.663 100.896 277.199 101.424C276.735 101.944 276.375 102.584 276.119 103.344C275.863 104.096 275.735 104.956 275.735 105.924C275.735 106.9 275.871 107.768 276.143 108.528C276.423 109.288 276.799 109.928 277.271 110.448C277.743 110.968 278.299 111.368 278.939 111.648C279.579 111.92 280.267 112.056 281.003 112.056C281.443 112.056 281.839 112.032 282.191 111.984C282.551 111.936 282.879 111.86 283.175 111.756C283.479 111.652 283.763 111.52 284.027 111.36C284.299 111.192 284.567 110.988 284.831 110.748C284.911 110.676 284.995 110.62 285.083 110.58C285.171 110.532 285.263 110.508 285.359 110.508ZM301.43 99.9H296.198V114.6H292.97V99.9H287.738V97.248H301.43V99.9ZM306.941 114.6H303.701V97.248H306.941V114.6ZM325.694 97.248L318.686 114.6H315.77L308.762 97.248H311.354C311.634 97.248 311.862 97.316 312.038 97.452C312.214 97.588 312.346 97.764 312.434 97.98L316.526 108.564C316.662 108.908 316.79 109.288 316.91 109.704C317.038 110.112 317.158 110.54 317.27 110.988C317.366 110.54 317.47 110.112 317.582 109.704C317.694 109.288 317.818 108.908 317.954 108.564L322.022 97.98C322.086 97.796 322.21 97.628 322.394 97.476C322.586 97.324 322.818 97.248 323.09 97.248H325.694ZM330.73 99.816V104.628H336.802V107.112H330.73V112.02H338.434V114.6H327.49V97.248H338.434V99.816H330.73Z" fill="black"/>
</g>
<g id="adverb">
<rect id="Rectangle 4" x="163" y="150" width="138" height="60" rx="30" fill="#DFCF05"/>
<path id="ADVERB" d="M195.548 182.448L193.436 176.676C193.332 176.42 193.224 176.116 193.112 175.764C193 175.412 192.888 175.032 192.776 174.624C192.672 175.032 192.564 175.416 192.452 175.776C192.34 176.128 192.232 176.436 192.128 176.7L190.028 182.448H195.548ZM201.248 189H198.752C198.472 189 198.244 188.932 198.068 188.796C197.892 188.652 197.76 188.476 197.672 188.268L196.376 184.728H189.188L187.892 188.268C187.828 188.452 187.704 188.62 187.52 188.772C187.336 188.924 187.108 189 186.836 189H184.316L191.144 171.648H194.432L201.248 189ZM218.452 180.324C218.452 181.596 218.24 182.764 217.816 183.828C217.392 184.892 216.796 185.808 216.028 186.576C215.26 187.344 214.336 187.94 213.256 188.364C212.176 188.788 210.976 189 209.656 189H203.044V171.648H209.656C210.976 171.648 212.176 171.864 213.256 172.296C214.336 172.72 215.26 173.316 216.028 174.084C216.796 174.844 217.392 175.756 217.816 176.82C218.24 177.884 218.452 179.052 218.452 180.324ZM215.14 180.324C215.14 179.372 215.012 178.52 214.756 177.768C214.508 177.008 214.144 176.368 213.664 175.848C213.192 175.32 212.616 174.916 211.936 174.636C211.264 174.356 210.504 174.216 209.656 174.216H206.284V186.432H209.656C210.504 186.432 211.264 186.292 211.936 186.012C212.616 185.732 213.192 185.332 213.664 184.812C214.144 184.284 214.508 183.644 214.756 182.892C215.012 182.132 215.14 181.276 215.14 180.324ZM235.584 171.648L228.576 189H225.66L218.652 171.648H221.244C221.524 171.648 221.752 171.716 221.928 171.852C222.104 171.988 222.236 172.164 222.324 172.38L226.416 182.964C226.552 183.308 226.68 183.688 226.8 184.104C226.928 184.512 227.048 184.94 227.16 185.388C227.256 184.94 227.36 184.512 227.472 184.104C227.584 183.688 227.708 183.308 227.844 182.964L231.912 172.38C231.976 172.196 232.1 172.028 232.284 171.876C232.476 171.724 232.708 171.648 232.98 171.648H235.584ZM240.62 174.216V179.028H246.692V181.512H240.62V186.42H248.324V189H237.38V171.648H248.324V174.216H240.62ZM256.429 179.904C257.037 179.904 257.565 179.828 258.013 179.676C258.469 179.524 258.841 179.316 259.129 179.052C259.425 178.78 259.645 178.46 259.789 178.092C259.933 177.724 260.005 177.32 260.005 176.88C260.005 176 259.713 175.324 259.129 174.852C258.553 174.38 257.669 174.144 256.477 174.144H254.413V179.904H256.429ZM264.733 189H261.817C261.265 189 260.865 188.784 260.617 188.352L256.969 182.796C256.833 182.588 256.681 182.44 256.513 182.352C256.353 182.264 256.113 182.22 255.793 182.22H254.413V189H251.185V171.648H256.477C257.653 171.648 258.661 171.772 259.501 172.02C260.349 172.26 261.041 172.6 261.577 173.04C262.121 173.48 262.521 174.008 262.777 174.624C263.033 175.232 263.161 175.904 263.161 176.64C263.161 177.224 263.073 177.776 262.897 178.296C262.729 178.816 262.481 179.288 262.153 179.712C261.833 180.136 261.433 180.508 260.953 180.828C260.481 181.148 259.941 181.4 259.333 181.584C259.541 181.704 259.733 181.848 259.909 182.016C260.085 182.176 260.245 182.368 260.389 182.592L264.733 189ZM273.099 186.48C273.699 186.48 274.203 186.408 274.611 186.264C275.019 186.12 275.343 185.928 275.583 185.688C275.831 185.448 276.007 185.168 276.111 184.848C276.223 184.528 276.279 184.188 276.279 183.828C276.279 183.452 276.219 183.116 276.099 182.82C275.979 182.516 275.791 182.26 275.535 182.052C275.279 181.836 274.947 181.672 274.539 181.56C274.139 181.448 273.655 181.392 273.087 181.392H269.835V186.48H273.099ZM269.835 174.144V179.16H272.403C273.507 179.16 274.339 178.96 274.899 178.56C275.467 178.16 275.751 177.524 275.751 176.652C275.751 175.748 275.495 175.104 274.983 174.72C274.471 174.336 273.671 174.144 272.583 174.144H269.835ZM272.583 171.648C273.719 171.648 274.691 171.756 275.499 171.972C276.307 172.188 276.967 172.496 277.479 172.896C277.999 173.296 278.379 173.78 278.619 174.348C278.859 174.916 278.979 175.556 278.979 176.268C278.979 176.676 278.919 177.068 278.799 177.444C278.679 177.812 278.491 178.16 278.235 178.488C277.987 178.808 277.667 179.1 277.275 179.364C276.891 179.628 276.431 179.852 275.895 180.036C278.279 180.572 279.471 181.86 279.471 183.9C279.471 184.636 279.331 185.316 279.051 185.94C278.771 186.564 278.363 187.104 277.827 187.56C277.291 188.008 276.631 188.36 275.847 188.616C275.063 188.872 274.167 189 273.159 189H266.607V171.648H272.583Z" fill="black"/>
</g>
<path id="Union" d="M0 25C0 11.1929 11.1929 0 25 0H123.783C140.351 0 153.783 13.4315 153.783 30C153.783 46.5685 140.351 60 123.783 60H116.5C112.358 60 109 63.3579 109 67.5C109 71.6421 112.358 75 116.5 75H155C171.569 75 185 88.4315 185 105C185 121.569 171.569 135 155 135H117C112.582 135 109 138.582 109 143C109 147.418 112.582 151 117 151H124C140.569 151 154 164.431 154 181C154 197.569 140.569 211 124 211C115.716 211 109 217.716 109 226V260C109 273.807 97.8071 285 84 285H25C11.1929 285 0 273.807 0 260V25Z" fill="#75C5D5"/>
<g id="pronoun">
<rect id="Rectangle 3" x="125" y="225" width="158" height="60" rx="30" fill="#18B872"/>
<path id="PRONOUN" d="M150.7 255.441C151.292 255.441 151.808 255.369 152.248 255.225C152.688 255.073 153.052 254.861 153.34 254.589C153.636 254.309 153.856 253.973 154 253.581C154.144 253.181 154.216 252.737 154.216 252.249C154.216 251.785 154.144 251.365 154 250.989C153.856 250.613 153.64 250.293 153.352 250.029C153.064 249.765 152.7 249.565 152.26 249.429C151.82 249.285 151.3 249.213 150.7 249.213H148.288V255.441H150.7ZM150.7 246.717C151.86 246.717 152.864 246.853 153.712 247.125C154.56 247.397 155.26 247.777 155.812 248.265C156.364 248.753 156.772 249.337 157.036 250.017C157.308 250.697 157.444 251.441 157.444 252.249C157.444 253.089 157.304 253.861 157.024 254.565C156.744 255.261 156.324 255.861 155.764 256.365C155.204 256.869 154.5 257.261 153.652 257.541C152.812 257.821 151.828 257.961 150.7 257.961H148.288V264.069H145.06V246.717H150.7ZM165.164 254.973C165.772 254.973 166.3 254.897 166.748 254.745C167.204 254.593 167.576 254.385 167.864 254.121C168.16 253.849 168.38 253.529 168.524 253.161C168.668 252.793 168.74 252.389 168.74 251.949C168.74 251.069 168.448 250.393 167.864 249.921C167.288 249.449 166.404 249.213 165.212 249.213H163.148V254.973H165.164ZM173.468 264.069H170.552C170 264.069 169.6 263.853 169.352 263.421L165.704 257.865C165.568 257.657 165.416 257.509 165.248 257.421C165.088 257.333 164.848 257.289 164.528 257.289H163.148V264.069H159.92V246.717H165.212C166.388 246.717 167.396 246.841 168.236 247.089C169.084 247.329 169.776 247.669 170.312 248.109C170.856 248.549 171.256 249.077 171.512 249.693C171.768 250.301 171.896 250.973 171.896 251.709C171.896 252.293 171.808 252.845 171.632 253.365C171.464 253.885 171.216 254.357 170.888 254.781C170.568 255.205 170.168 255.577 169.688 255.897C169.216 256.217 168.676 256.469 168.068 256.653C168.276 256.773 168.468 256.917 168.644 257.085C168.82 257.245 168.98 257.437 169.124 257.661L173.468 264.069ZM191.655 255.393C191.655 256.665 191.443 257.845 191.019 258.933C190.603 260.013 190.011 260.949 189.243 261.741C188.475 262.533 187.551 263.153 186.471 263.601C185.391 264.041 184.191 264.261 182.871 264.261C181.559 264.261 180.363 264.041 179.283 263.601C178.203 263.153 177.275 262.533 176.499 261.741C175.731 260.949 175.135 260.013 174.711 258.933C174.287 257.845 174.075 256.665 174.075 255.393C174.075 254.121 174.287 252.945 174.711 251.865C175.135 250.777 175.731 249.837 176.499 249.045C177.275 248.253 178.203 247.637 179.283 247.197C180.363 246.749 181.559 246.525 182.871 246.525C183.751 246.525 184.579 246.629 185.355 246.837C186.131 247.037 186.843 247.325 187.491 247.701C188.139 248.069 188.719 248.521 189.231 249.057C189.751 249.585 190.191 250.177 190.551 250.833C190.911 251.489 191.183 252.201 191.367 252.969C191.559 253.737 191.655 254.545 191.655 255.393ZM188.355 255.393C188.355 254.441 188.227 253.589 187.971 252.837C187.715 252.077 187.351 251.433 186.879 250.905C186.407 250.377 185.831 249.973 185.151 249.693C184.479 249.413 183.719 249.273 182.871 249.273C182.023 249.273 181.259 249.413 180.579 249.693C179.907 249.973 179.331 250.377 178.851 250.905C178.379 251.433 178.015 252.077 177.759 252.837C177.503 253.589 177.375 254.441 177.375 255.393C177.375 256.345 177.503 257.201 177.759 257.961C178.015 258.713 178.379 259.353 178.851 259.881C179.331 260.401 179.907 260.801 180.579 261.081C181.259 261.361 182.023 261.501 182.871 261.501C183.719 261.501 184.479 261.361 185.151 261.081C185.831 260.801 186.407 260.401 186.879 259.881C187.351 259.353 187.715 258.713 187.971 257.961C188.227 257.201 188.355 256.345 188.355 255.393ZM209.118 246.717V264.069H207.462C207.206 264.069 206.99 264.029 206.814 263.949C206.646 263.861 206.482 263.717 206.322 263.517L197.262 251.949C197.31 252.477 197.334 252.965 197.334 253.413V264.069H194.49V246.717H196.182C196.318 246.717 196.434 246.725 196.53 246.741C196.634 246.749 196.722 246.773 196.794 246.813C196.874 246.845 196.95 246.897 197.022 246.969C197.094 247.033 197.174 247.121 197.262 247.233L206.358 258.849C206.334 258.569 206.314 258.293 206.298 258.021C206.282 257.749 206.274 257.497 206.274 257.265V246.717H209.118ZM229.53 255.393C229.53 256.665 229.318 257.845 228.894 258.933C228.478 260.013 227.886 260.949 227.118 261.741C226.35 262.533 225.426 263.153 224.346 263.601C223.266 264.041 222.066 264.261 220.746 264.261C219.434 264.261 218.238 264.041 217.158 263.601C216.078 263.153 215.15 262.533 214.374 261.741C213.606 260.949 213.01 260.013 212.586 258.933C212.162 257.845 211.95 256.665 211.95 255.393C211.95 254.121 212.162 252.945 212.586 251.865C213.01 250.777 213.606 249.837 214.374 249.045C215.15 248.253 216.078 247.637 217.158 247.197C218.238 246.749 219.434 246.525 220.746 246.525C221.626 246.525 222.454 246.629 223.23 246.837C224.006 247.037 224.718 247.325 225.366 247.701C226.014 248.069 226.594 248.521 227.106 249.057C227.626 249.585 228.066 250.177 228.426 250.833C228.786 251.489 229.058 252.201 229.242 252.969C229.434 253.737 229.53 254.545 229.53 255.393ZM226.23 255.393C226.23 254.441 226.102 253.589 225.846 252.837C225.59 252.077 225.226 251.433 224.754 250.905C224.282 250.377 223.706 249.973 223.026 249.693C222.354 249.413 221.594 249.273 220.746 249.273C219.898 249.273 219.134 249.413 218.454 249.693C217.782 249.973 217.206 250.377 216.726 250.905C216.254 251.433 215.89 252.077 215.634 252.837C215.378 253.589 215.25 254.441 215.25 255.393C215.25 256.345 215.378 257.201 215.634 257.961C215.89 258.713 216.254 259.353 216.726 259.881C217.206 260.401 217.782 260.801 218.454 261.081C219.134 261.361 219.898 261.501 220.746 261.501C221.594 261.501 222.354 261.361 223.026 261.081C223.706 260.801 224.282 260.401 224.754 259.881C225.226 259.353 225.59 258.713 225.846 257.961C226.102 257.201 226.23 256.345 226.23 255.393ZM239.349 261.465C239.973 261.465 240.529 261.361 241.017 261.153C241.513 260.945 241.929 260.653 242.265 260.277C242.601 259.901 242.857 259.445 243.033 258.909C243.217 258.373 243.309 257.773 243.309 257.109V246.717H246.537V257.109C246.537 258.141 246.369 259.097 246.033 259.977C245.705 260.849 245.229 261.605 244.605 262.245C243.989 262.877 243.237 263.373 242.349 263.733C241.461 264.085 240.461 264.261 239.349 264.261C238.229 264.261 237.225 264.085 236.337 263.733C235.449 263.373 234.693 262.877 234.069 262.245C233.453 261.605 232.977 260.849 232.641 259.977C232.313 259.097 232.149 258.141 232.149 257.109V246.717H235.377V257.097C235.377 257.761 235.465 258.361 235.641 258.897C235.825 259.433 236.085 259.893 236.421 260.277C236.765 260.653 237.181 260.945 237.669 261.153C238.165 261.361 238.725 261.465 239.349 261.465ZM264.806 246.717V264.069H263.15C262.894 264.069 262.678 264.029 262.502 263.949C262.334 263.861 262.17 263.717 262.01 263.517L252.95 251.949C252.998 252.477 253.022 252.965 253.022 253.413V264.069H250.178V246.717H251.87C252.006 246.717 252.122 246.725 252.218 246.741C252.322 246.749 252.41 246.773 252.482 246.813C252.562 246.845 252.638 246.897 252.71 246.969C252.782 247.033 252.862 247.121 252.95 247.233L262.046 258.849C262.022 258.569 262.002 258.293 261.986 258.021C261.97 257.749 261.962 257.497 261.962 257.265V246.717H264.806Z" fill="black"/>
</g>
<g id="pronoun_2">
<rect id="Rectangle 3_2" x="125" y="225" width="158" height="60" rx="30" fill="#18B872"/>
<path id="PRONOUN_2" d="M150.7 255.441C151.292 255.441 151.808 255.369 152.248 255.225C152.688 255.073 153.052 254.861 153.34 254.589C153.636 254.309 153.856 253.973 154 253.581C154.144 253.181 154.216 252.737 154.216 252.249C154.216 251.785 154.144 251.365 154 250.989C153.856 250.613 153.64 250.293 153.352 250.029C153.064 249.765 152.7 249.565 152.26 249.429C151.82 249.285 151.3 249.213 150.7 249.213H148.288V255.441H150.7ZM150.7 246.717C151.86 246.717 152.864 246.853 153.712 247.125C154.56 247.397 155.26 247.777 155.812 248.265C156.364 248.753 156.772 249.337 157.036 250.017C157.308 250.697 157.444 251.441 157.444 252.249C157.444 253.089 157.304 253.861 157.024 254.565C156.744 255.261 156.324 255.861 155.764 256.365C155.204 256.869 154.5 257.261 153.652 257.541C152.812 257.821 151.828 257.961 150.7 257.961H148.288V264.069H145.06V246.717H150.7ZM165.164 254.973C165.772 254.973 166.3 254.897 166.748 254.745C167.204 254.593 167.576 254.385 167.864 254.121C168.16 253.849 168.38 253.529 168.524 253.161C168.668 252.793 168.74 252.389 168.74 251.949C168.74 251.069 168.448 250.393 167.864 249.921C167.288 249.449 166.404 249.213 165.212 249.213H163.148V254.973H165.164ZM173.468 264.069H170.552C170 264.069 169.6 263.853 169.352 263.421L165.704 257.865C165.568 257.657 165.416 257.509 165.248 257.421C165.088 257.333 164.848 257.289 164.528 257.289H163.148V264.069H159.92V246.717H165.212C166.388 246.717 167.396 246.841 168.236 247.089C169.084 247.329 169.776 247.669 170.312 248.109C170.856 248.549 171.256 249.077 171.512 249.693C171.768 250.301 171.896 250.973 171.896 251.709C171.896 252.293 171.808 252.845 171.632 253.365C171.464 253.885 171.216 254.357 170.888 254.781C170.568 255.205 170.168 255.577 169.688 255.897C169.216 256.217 168.676 256.469 168.068 256.653C168.276 256.773 168.468 256.917 168.644 257.085C168.82 257.245 168.98 257.437 169.124 257.661L173.468 264.069ZM191.655 255.393C191.655 256.665 191.443 257.845 191.019 258.933C190.603 260.013 190.011 260.949 189.243 261.741C188.475 262.533 187.551 263.153 186.471 263.601C185.391 264.041 184.191 264.261 182.871 264.261C181.559 264.261 180.363 264.041 179.283 263.601C178.203 263.153 177.275 262.533 176.499 261.741C175.731 260.949 175.135 260.013 174.711 258.933C174.287 257.845 174.075 256.665 174.075 255.393C174.075 254.121 174.287 252.945 174.711 251.865C175.135 250.777 175.731 249.837 176.499 249.045C177.275 248.253 178.203 247.637 179.283 247.197C180.363 246.749 181.559 246.525 182.871 246.525C183.751 246.525 184.579 246.629 185.355 246.837C186.131 247.037 186.843 247.325 187.491 247.701C188.139 248.069 188.719 248.521 189.231 249.057C189.751 249.585 190.191 250.177 190.551 250.833C190.911 251.489 191.183 252.201 191.367 252.969C191.559 253.737 191.655 254.545 191.655 255.393ZM188.355 255.393C188.355 254.441 188.227 253.589 187.971 252.837C187.715 252.077 187.351 251.433 186.879 250.905C186.407 250.377 185.831 249.973 185.151 249.693C184.479 249.413 183.719 249.273 182.871 249.273C182.023 249.273 181.259 249.413 180.579 249.693C179.907 249.973 179.331 250.377 178.851 250.905C178.379 251.433 178.015 252.077 177.759 252.837C177.503 253.589 177.375 254.441 177.375 255.393C177.375 256.345 177.503 257.201 177.759 257.961C178.015 258.713 178.379 259.353 178.851 259.881C179.331 260.401 179.907 260.801 180.579 261.081C181.259 261.361 182.023 261.501 182.871 261.501C183.719 261.501 184.479 261.361 185.151 261.081C185.831 260.801 186.407 260.401 186.879 259.881C187.351 259.353 187.715 258.713 187.971 257.961C188.227 257.201 188.355 256.345 188.355 255.393ZM209.118 246.717V264.069H207.462C207.206 264.069 206.99 264.029 206.814 263.949C206.646 263.861 206.482 263.717 206.322 263.517L197.262 251.949C197.31 252.477 197.334 252.965 197.334 253.413V264.069H194.49V246.717H196.182C196.318 246.717 196.434 246.725 196.53 246.741C196.634 246.749 196.722 246.773 196.794 246.813C196.874 246.845 196.95 246.897 197.022 246.969C197.094 247.033 197.174 247.121 197.262 247.233L206.358 258.849C206.334 258.569 206.314 258.293 206.298 258.021C206.282 257.749 206.274 257.497 206.274 257.265V246.717H209.118ZM229.53 255.393C229.53 256.665 229.318 257.845 228.894 258.933C228.478 260.013 227.886 260.949 227.118 261.741C226.35 262.533 225.426 263.153 224.346 263.601C223.266 264.041 222.066 264.261 220.746 264.261C219.434 264.261 218.238 264.041 217.158 263.601C216.078 263.153 215.15 262.533 214.374 261.741C213.606 260.949 213.01 260.013 212.586 258.933C212.162 257.845 211.95 256.665 211.95 255.393C211.95 254.121 212.162 252.945 212.586 251.865C213.01 250.777 213.606 249.837 214.374 249.045C215.15 248.253 216.078 247.637 217.158 247.197C218.238 246.749 219.434 246.525 220.746 246.525C221.626 246.525 222.454 246.629 223.23 246.837C224.006 247.037 224.718 247.325 225.366 247.701C226.014 248.069 226.594 248.521 227.106 249.057C227.626 249.585 228.066 250.177 228.426 250.833C228.786 251.489 229.058 252.201 229.242 252.969C229.434 253.737 229.53 254.545 229.53 255.393ZM226.23 255.393C226.23 254.441 226.102 253.589 225.846 252.837C225.59 252.077 225.226 251.433 224.754 250.905C224.282 250.377 223.706 249.973 223.026 249.693C222.354 249.413 221.594 249.273 220.746 249.273C219.898 249.273 219.134 249.413 218.454 249.693C217.782 249.973 217.206 250.377 216.726 250.905C216.254 251.433 215.89 252.077 215.634 252.837C215.378 253.589 215.25 254.441 215.25 255.393C215.25 256.345 215.378 257.201 215.634 257.961C215.89 258.713 216.254 259.353 216.726 259.881C217.206 260.401 217.782 260.801 218.454 261.081C219.134 261.361 219.898 261.501 220.746 261.501C221.594 261.501 222.354 261.361 223.026 261.081C223.706 260.801 224.282 260.401 224.754 259.881C225.226 259.353 225.59 258.713 225.846 257.961C226.102 257.201 226.23 256.345 226.23 255.393ZM239.349 261.465C239.973 261.465 240.529 261.361 241.017 261.153C241.513 260.945 241.929 260.653 242.265 260.277C242.601 259.901 242.857 259.445 243.033 258.909C243.217 258.373 243.309 257.773 243.309 257.109V246.717H246.537V257.109C246.537 258.141 246.369 259.097 246.033 259.977C245.705 260.849 245.229 261.605 244.605 262.245C243.989 262.877 243.237 263.373 242.349 263.733C241.461 264.085 240.461 264.261 239.349 264.261C238.229 264.261 237.225 264.085 236.337 263.733C235.449 263.373 234.693 262.877 234.069 262.245C233.453 261.605 232.977 260.849 232.641 259.977C232.313 259.097 232.149 258.141 232.149 257.109V246.717H235.377V257.097C235.377 257.761 235.465 258.361 235.641 258.897C235.825 259.433 236.085 259.893 236.421 260.277C236.765 260.653 237.181 260.945 237.669 261.153C238.165 261.361 238.725 261.465 239.349 261.465ZM264.806 246.717V264.069H263.15C262.894 264.069 262.678 264.029 262.502 263.949C262.334 263.861 262.17 263.717 262.01 263.517L252.95 251.949C252.998 252.477 253.022 252.965 253.022 253.413V264.069H250.178V246.717H251.87C252.006 246.717 252.122 246.725 252.218 246.741C252.322 246.749 252.41 246.773 252.482 246.813C252.562 246.845 252.638 246.897 252.71 246.969C252.782 247.033 252.862 247.121 252.95 247.233L262.046 258.849C262.022 258.569 262.002 258.293 261.986 258.021C261.97 257.749 261.962 257.497 261.962 257.265V246.717H264.806Z" fill="black"/>
</g>
<g id="interjection">
<rect id="Rectangle 9" x="301" width="193.077" height="60" rx="30" fill="#D14581"/>
<path id="INTERJECTION" d="M318.95 39.7143H315.71V22.3623H318.95V39.7143ZM337.463 22.3623V39.7143H335.807C335.551 39.7143 335.335 39.6743 335.159 39.5943C334.991 39.5063 334.827 39.3623 334.667 39.1623L325.607 27.5943C325.655 28.1223 325.679 28.6103 325.679 29.0583V39.7143H322.835V22.3623H324.527C324.663 22.3623 324.779 22.3703 324.875 22.3863C324.979 22.3943 325.067 22.4183 325.139 22.4583C325.219 22.4903 325.295 22.5423 325.367 22.6143C325.439 22.6783 325.519 22.7663 325.607 22.8783L334.703 34.4943C334.679 34.2143 334.659 33.9383 334.643 33.6663C334.627 33.3943 334.619 33.1423 334.619 32.9103V22.3623H337.463ZM353.447 25.0143H348.215V39.7143H344.987V25.0143H339.755V22.3623H353.447V25.0143ZM358.958 24.9303V29.7423H365.03V32.2263H358.958V37.1343H366.662V39.7143H355.718V22.3623H366.662V24.9303H358.958ZM374.766 30.6183C375.374 30.6183 375.902 30.5423 376.35 30.3903C376.806 30.2383 377.178 30.0303 377.466 29.7663C377.762 29.4943 377.982 29.1743 378.126 28.8063C378.27 28.4383 378.342 28.0343 378.342 27.5943C378.342 26.7143 378.05 26.0383 377.466 25.5663C376.89 25.0943 376.006 24.8583 374.814 24.8583H372.75V30.6183H374.766ZM383.07 39.7143H380.154C379.602 39.7143 379.202 39.4983 378.954 39.0663L375.306 33.5103C375.17 33.3023 375.018 33.1543 374.85 33.0663C374.69 32.9783 374.45 32.9343 374.13 32.9343H372.75V39.7143H369.522V22.3623H374.814C375.99 22.3623 376.998 22.4863 377.838 22.7343C378.686 22.9743 379.378 23.3143 379.914 23.7543C380.458 24.1943 380.858 24.7223 381.114 25.3383C381.37 25.9463 381.498 26.6183 381.498 27.3543C381.498 27.9383 381.41 28.4903 381.234 29.0103C381.066 29.5303 380.818 30.0023 380.49 30.4263C380.17 30.8503 379.77 31.2223 379.29 31.5423C378.818 31.8623 378.278 32.1143 377.67 32.2983C377.878 32.4183 378.07 32.5623 378.246 32.7303C378.422 32.8903 378.582 33.0823 378.726 33.3063L383.07 39.7143ZM391.556 33.5463C391.556 34.5223 391.436 35.4023 391.196 36.1863C390.956 36.9703 390.596 37.6383 390.116 38.1903C389.644 38.7423 389.052 39.1663 388.34 39.4623C387.628 39.7583 386.8 39.9063 385.856 39.9063C385.424 39.9063 385 39.8783 384.584 39.8223C384.168 39.7743 383.732 39.6943 383.276 39.5823C383.3 39.2623 383.328 38.9423 383.36 38.6223C383.392 38.3023 383.42 37.9823 383.444 37.6623C383.468 37.4863 383.536 37.3463 383.648 37.2423C383.768 37.1303 383.936 37.0743 384.152 37.0743C384.288 37.0743 384.464 37.1023 384.68 37.1583C384.904 37.2143 385.184 37.2423 385.52 37.2423C385.976 37.2423 386.38 37.1783 386.732 37.0503C387.084 36.9143 387.376 36.7023 387.608 36.4143C387.848 36.1263 388.028 35.7543 388.148 35.2983C388.268 34.8343 388.328 34.2743 388.328 33.6183V22.3623H391.556V33.5463ZM398.497 24.9303V29.7423H404.569V32.2263H398.497V37.1343H406.201V39.7143H395.257V22.3623H406.201V24.9303H398.497ZM420.602 35.6223C420.778 35.6223 420.934 35.6903 421.07 35.8263L422.342 37.2063C421.638 38.0783 420.77 38.7463 419.738 39.2103C418.714 39.6743 417.482 39.9063 416.042 39.9063C414.754 39.9063 413.594 39.6863 412.562 39.2463C411.538 38.8063 410.662 38.1943 409.934 37.4103C409.206 36.6263 408.646 35.6903 408.254 34.6023C407.87 33.5143 407.678 32.3263 407.678 31.0383C407.678 29.7343 407.886 28.5423 408.302 27.4623C408.718 26.3743 409.302 25.4383 410.054 24.6543C410.814 23.8703 411.718 23.2623 412.766 22.8303C413.814 22.3903 414.974 22.1703 416.246 22.1703C417.51 22.1703 418.63 22.3783 419.606 22.7943C420.59 23.2103 421.426 23.7543 422.114 24.4263L421.034 25.9263C420.97 26.0223 420.886 26.1063 420.782 26.1783C420.686 26.2503 420.55 26.2863 420.374 26.2863C420.254 26.2863 420.13 26.2543 420.002 26.1903C419.874 26.1183 419.734 26.0343 419.582 25.9383C419.43 25.8343 419.254 25.7223 419.054 25.6023C418.854 25.4823 418.622 25.3743 418.358 25.2783C418.094 25.1743 417.786 25.0903 417.434 25.0263C417.09 24.9543 416.69 24.9183 416.234 24.9183C415.458 24.9183 414.746 25.0583 414.098 25.3383C413.458 25.6103 412.906 26.0103 412.442 26.5383C411.978 27.0583 411.618 27.6983 411.362 28.4583C411.106 29.2103 410.978 30.0703 410.978 31.0383C410.978 32.0143 411.114 32.8823 411.386 33.6423C411.666 34.4023 412.042 35.0423 412.514 35.5623C412.986 36.0823 413.542 36.4823 414.182 36.7623C414.822 37.0343 415.51 37.1703 416.246 37.1703C416.686 37.1703 417.082 37.1463 417.434 37.0983C417.794 37.0503 418.122 36.9743 418.418 36.8703C418.722 36.7663 419.006 36.6343 419.27 36.4743C419.542 36.3063 419.81 36.1023 420.074 35.8623C420.154 35.7903 420.238 35.7343 420.326 35.6943C420.414 35.6463 420.506 35.6223 420.602 35.6223ZM436.674 25.0143H431.442V39.7143H428.214V25.0143H422.982V22.3623H436.674V25.0143ZM442.184 39.7143H438.944V22.3623H442.184V39.7143ZM462.617 31.0383C462.617 32.3103 462.405 33.4903 461.981 34.5783C461.565 35.6583 460.973 36.5943 460.205 37.3863C459.437 38.1783 458.513 38.7983 457.433 39.2463C456.353 39.6863 455.153 39.9063 453.833 39.9063C452.521 39.9063 451.325 39.6863 450.245 39.2463C449.165 38.7983 448.237 38.1783 447.461 37.3863C446.693 36.5943 446.097 35.6583 445.673 34.5783C445.249 33.4903 445.037 32.3103 445.037 31.0383C445.037 29.7663 445.249 28.5903 445.673 27.5103C446.097 26.4223 446.693 25.4823 447.461 24.6903C448.237 23.8983 449.165 23.2823 450.245 22.8423C451.325 22.3943 452.521 22.1703 453.833 22.1703C454.713 22.1703 455.541 22.2743 456.317 22.4823C457.093 22.6823 457.805 22.9703 458.453 23.3463C459.101 23.7143 459.681 24.1663 460.193 24.7023C460.713 25.2303 461.153 25.8223 461.513 26.4783C461.873 27.1343 462.145 27.8463 462.329 28.6143C462.521 29.3823 462.617 30.1903 462.617 31.0383ZM459.317 31.0383C459.317 30.0863 459.189 29.2343 458.933 28.4823C458.677 27.7223 458.313 27.0783 457.841 26.5503C457.369 26.0223 456.793 25.6183 456.113 25.3383C455.441 25.0583 454.681 24.9183 453.833 24.9183C452.985 24.9183 452.221 25.0583 451.541 25.3383C450.869 25.6183 450.293 26.0223 449.813 26.5503C449.341 27.0783 448.977 27.7223 448.721 28.4823C448.465 29.2343 448.337 30.0863 448.337 31.0383C448.337 31.9903 448.465 32.8463 448.721 33.6063C448.977 34.3583 449.341 34.9983 449.813 35.5263C450.293 36.0463 450.869 36.4463 451.541 36.7263C452.221 37.0063 452.985 37.1463 453.833 37.1463C454.681 37.1463 455.441 37.0063 456.113 36.7263C456.793 36.4463 457.369 36.0463 457.841 35.5263C458.313 34.9983 458.677 34.3583 458.933 33.6063C459.189 32.8463 459.317 31.9903 459.317 31.0383ZM480.08 22.3623V39.7143H478.424C478.168 39.7143 477.952 39.6743 477.776 39.5943C477.608 39.5063 477.444 39.3623 477.284 39.1623L468.224 27.5943C468.272 28.1223 468.296 28.6103 468.296 29.0583V39.7143H465.452V22.3623H467.144C467.28 22.3623 467.396 22.3703 467.492 22.3863C467.596 22.3943 467.684 22.4183 467.756 22.4583C467.836 22.4903 467.912 22.5423 467.984 22.6143C468.056 22.6783 468.136 22.7663 468.224 22.8783L477.32 34.4943C477.296 34.2143 477.276 33.9383 477.26 33.6663C477.244 33.3943 477.236 33.1423 477.236 32.9103V22.3623H480.08Z" fill="black"/>
</g>
<g id="verb">
<rect id="Rectangle 6" x="369" y="75" width="125" height="60" rx="30" fill="#43A0A6"/>
<path id="VERB" d="M417.456 96.648L410.448 114H407.532L400.524 96.648H403.116C403.396 96.648 403.624 96.716 403.8 96.852C403.976 96.988 404.108 97.164 404.196 97.38L408.288 107.964C408.424 108.308 408.552 108.688 408.672 109.104C408.8 109.512 408.92 109.94 409.032 110.388C409.128 109.94 409.232 109.512 409.344 109.104C409.456 108.688 409.58 108.308 409.716 107.964L413.784 97.38C413.848 97.196 413.972 97.028 414.156 96.876C414.348 96.724 414.58 96.648 414.852 96.648H417.456ZM422.492 99.216V104.028H428.564V106.512H422.492V111.42H430.196V114H419.252V96.648H430.196V99.216H422.492ZM438.301 104.904C438.909 104.904 439.437 104.828 439.885 104.676C440.341 104.524 440.713 104.316 441.001 104.052C441.297 103.78 441.517 103.46 441.661 103.092C441.805 102.724 441.877 102.32 441.877 101.88C441.877 101 441.585 100.324 441.001 99.852C440.425 99.38 439.541 99.144 438.349 99.144H436.285V104.904H438.301ZM446.605 114H443.689C443.137 114 442.737 113.784 442.489 113.352L438.841 107.796C438.705 107.588 438.553 107.44 438.385 107.352C438.225 107.264 437.985 107.22 437.665 107.22H436.285V114H433.057V96.648H438.349C439.525 96.648 440.533 96.772 441.373 97.02C442.221 97.26 442.913 97.6 443.449 98.04C443.993 98.48 444.393 99.008 444.649 99.624C444.905 100.232 445.033 100.904 445.033 101.64C445.033 102.224 444.945 102.776 444.769 103.296C444.601 103.816 444.353 104.288 444.025 104.712C443.705 105.136 443.305 105.508 442.825 105.828C442.353 106.148 441.813 106.4 441.205 106.584C441.413 106.704 441.605 106.848 441.781 107.016C441.957 107.176 442.117 107.368 442.261 107.592L446.605 114ZM454.971 111.48C455.571 111.48 456.075 111.408 456.483 111.264C456.891 111.12 457.215 110.928 457.455 110.688C457.703 110.448 457.879 110.168 457.983 109.848C458.095 109.528 458.151 109.188 458.151 108.828C458.151 108.452 458.091 108.116 457.971 107.82C457.851 107.516 457.663 107.26 457.407 107.052C457.151 106.836 456.819 106.672 456.411 106.56C456.011 106.448 455.527 106.392 454.959 106.392H451.707V111.48H454.971ZM451.707 99.144V104.16H454.275C455.379 104.16 456.211 103.96 456.771 103.56C457.339 103.16 457.623 102.524 457.623 101.652C457.623 100.748 457.367 100.104 456.855 99.72C456.343 99.336 455.543 99.144 454.455 99.144H451.707ZM454.455 96.648C455.591 96.648 456.563 96.756 457.371 96.972C458.179 97.188 458.839 97.496 459.351 97.896C459.871 98.296 460.251 98.78 460.491 99.348C460.731 99.916 460.851 100.556 460.851 101.268C460.851 101.676 460.791 102.068 460.671 102.444C460.551 102.812 460.363 103.16 460.107 103.488C459.859 103.808 459.539 104.1 459.147 104.364C458.763 104.628 458.303 104.852 457.767 105.036C460.151 105.572 461.343 106.86 461.343 108.9C461.343 109.636 461.203 110.316 460.923 110.94C460.643 111.564 460.235 112.104 459.699 112.56C459.163 113.008 458.503 113.36 457.719 113.616C456.935 113.872 456.039 114 455.031 114H448.479V96.648H454.455Z" fill="black"/>
</g>
<g id="preposition">
<rect id="Rectangle 5" x="313" y="150" width="181.437" height="60" rx="30" fill="#79959A"/>
<path id="PREPOSITION" d="M332.178 180.515C332.77 180.515 333.286 180.443 333.726 180.299C334.166 180.147 334.53 179.935 334.818 179.663C335.114 179.383 335.334 179.047 335.478 178.655C335.622 178.255 335.694 177.811 335.694 177.323C335.694 176.859 335.622 176.439 335.478 176.063C335.334 175.687 335.118 175.367 334.83 175.103C334.542 174.839 334.178 174.639 333.738 174.503C333.298 174.359 332.778 174.287 332.178 174.287H329.766V180.515H332.178ZM332.178 171.791C333.338 171.791 334.342 171.927 335.19 172.199C336.038 172.471 336.738 172.851 337.29 173.339C337.842 173.827 338.25 174.411 338.514 175.091C338.786 175.771 338.922 176.515 338.922 177.323C338.922 178.163 338.782 178.935 338.502 179.639C338.222 180.335 337.802 180.935 337.242 181.439C336.682 181.943 335.978 182.335 335.13 182.615C334.29 182.895 333.306 183.035 332.178 183.035H329.766V189.143H326.538V171.791H332.178ZM346.641 180.047C347.249 180.047 347.777 179.971 348.225 179.819C348.681 179.667 349.053 179.459 349.341 179.195C349.637 178.923 349.857 178.603 350.001 178.235C350.145 177.867 350.217 177.463 350.217 177.023C350.217 176.143 349.925 175.467 349.341 174.995C348.765 174.523 347.881 174.287 346.689 174.287H344.625V180.047H346.641ZM354.945 189.143H352.029C351.477 189.143 351.077 188.927 350.829 188.495L347.181 182.939C347.045 182.731 346.893 182.583 346.725 182.495C346.565 182.407 346.325 182.363 346.005 182.363H344.625V189.143H341.397V171.791H346.689C347.865 171.791 348.873 171.915 349.713 172.163C350.561 172.403 351.253 172.743 351.789 173.183C352.333 173.623 352.733 174.151 352.989 174.767C353.245 175.375 353.373 176.047 353.373 176.783C353.373 177.367 353.285 177.919 353.109 178.439C352.941 178.959 352.693 179.431 352.365 179.855C352.045 180.279 351.645 180.651 351.165 180.971C350.693 181.291 350.153 181.543 349.545 181.727C349.753 181.847 349.945 181.991 350.121 182.159C350.297 182.319 350.457 182.511 350.601 182.735L354.945 189.143ZM360.059 174.359V179.171H366.131V181.655H360.059V186.563H367.763V189.143H356.819V171.791H367.763V174.359H360.059ZM376.264 180.515C376.856 180.515 377.372 180.443 377.812 180.299C378.252 180.147 378.616 179.935 378.904 179.663C379.2 179.383 379.42 179.047 379.564 178.655C379.708 178.255 379.78 177.811 379.78 177.323C379.78 176.859 379.708 176.439 379.564 176.063C379.42 175.687 379.204 175.367 378.916 175.103C378.628 174.839 378.264 174.639 377.824 174.503C377.384 174.359 376.864 174.287 376.264 174.287H373.852V180.515H376.264ZM376.264 171.791C377.424 171.791 378.428 171.927 379.276 172.199C380.124 172.471 380.824 172.851 381.376 173.339C381.928 173.827 382.336 174.411 382.6 175.091C382.872 175.771 383.008 176.515 383.008 177.323C383.008 178.163 382.868 178.935 382.588 179.639C382.308 180.335 381.888 180.935 381.328 181.439C380.768 181.943 380.064 182.335 379.216 182.615C378.376 182.895 377.392 183.035 376.264 183.035H373.852V189.143H370.624V171.791H376.264ZM402.031 180.467C402.031 181.739 401.819 182.919 401.395 184.007C400.979 185.087 400.387 186.023 399.619 186.815C398.851 187.607 397.927 188.227 396.847 188.675C395.767 189.115 394.567 189.335 393.247 189.335C391.935 189.335 390.739 189.115 389.659 188.675C388.579 188.227 387.651 187.607 386.875 186.815C386.107 186.023 385.511 185.087 385.087 184.007C384.663 182.919 384.451 181.739 384.451 180.467C384.451 179.195 384.663 178.019 385.087 176.939C385.511 175.851 386.107 174.911 386.875 174.119C387.651 173.327 388.579 172.711 389.659 172.271C390.739 171.823 391.935 171.599 393.247 171.599C394.127 171.599 394.955 171.703 395.731 171.911C396.507 172.111 397.219 172.399 397.867 172.775C398.515 173.143 399.095 173.595 399.607 174.131C400.127 174.659 400.567 175.251 400.927 175.907C401.287 176.563 401.559 177.275 401.743 178.043C401.935 178.811 402.031 179.619 402.031 180.467ZM398.731 180.467C398.731 179.515 398.603 178.663 398.347 177.911C398.091 177.151 397.727 176.507 397.255 175.979C396.783 175.451 396.207 175.047 395.527 174.767C394.855 174.487 394.095 174.347 393.247 174.347C392.399 174.347 391.635 174.487 390.955 174.767C390.283 175.047 389.707 175.451 389.227 175.979C388.755 176.507 388.391 177.151 388.135 177.911C387.879 178.663 387.751 179.515 387.751 180.467C387.751 181.419 387.879 182.275 388.135 183.035C388.391 183.787 388.755 184.427 389.227 184.955C389.707 185.475 390.283 185.875 390.955 186.155C391.635 186.435 392.399 186.575 393.247 186.575C394.095 186.575 394.855 186.435 395.527 186.155C396.207 185.875 396.783 185.475 397.255 184.955C397.727 184.427 398.091 183.787 398.347 183.035C398.603 182.275 398.731 181.419 398.731 180.467ZM414.106 174.947C414.01 175.115 413.906 175.239 413.794 175.319C413.69 175.391 413.558 175.427 413.398 175.427C413.23 175.427 413.046 175.367 412.846 175.247C412.654 175.119 412.422 174.979 412.15 174.827C411.878 174.675 411.558 174.539 411.19 174.419C410.83 174.291 410.402 174.227 409.906 174.227C409.458 174.227 409.066 174.283 408.73 174.395C408.394 174.499 408.11 174.647 407.878 174.839C407.654 175.031 407.486 175.263 407.374 175.535C407.262 175.799 407.206 176.091 407.206 176.411C407.206 176.819 407.318 177.159 407.542 177.431C407.774 177.703 408.078 177.935 408.454 178.127C408.83 178.319 409.258 178.491 409.738 178.643C410.218 178.795 410.71 178.959 411.214 179.135C411.718 179.303 412.21 179.503 412.69 179.735C413.17 179.959 413.598 180.247 413.974 180.599C414.35 180.943 414.65 181.367 414.874 181.871C415.106 182.375 415.222 182.987 415.222 183.707C415.222 184.491 415.086 185.227 414.814 185.915C414.55 186.595 414.158 187.191 413.638 187.703C413.126 188.207 412.498 188.607 411.754 188.903C411.01 189.191 410.158 189.335 409.198 189.335C408.646 189.335 408.102 189.279 407.566 189.167C407.03 189.063 406.514 188.911 406.018 188.711C405.53 188.511 405.07 188.271 404.638 187.991C404.206 187.711 403.822 187.399 403.486 187.055L404.434 185.507C404.514 185.395 404.618 185.303 404.746 185.231C404.874 185.151 405.01 185.111 405.154 185.111C405.354 185.111 405.57 185.195 405.802 185.363C406.034 185.523 406.31 185.703 406.63 185.903C406.95 186.103 407.322 186.287 407.746 186.455C408.178 186.615 408.694 186.695 409.294 186.695C410.214 186.695 410.926 186.479 411.43 186.047C411.934 185.607 412.186 184.979 412.186 184.163C412.186 183.707 412.07 183.335 411.838 183.047C411.614 182.759 411.314 182.519 410.938 182.327C410.562 182.127 410.134 181.959 409.654 181.823C409.174 181.687 408.686 181.539 408.19 181.379C407.694 181.219 407.206 181.027 406.726 180.803C406.246 180.579 405.818 180.287 405.442 179.927C405.066 179.567 404.762 179.119 404.53 178.583C404.306 178.039 404.194 177.371 404.194 176.579C404.194 175.947 404.318 175.331 404.566 174.731C404.822 174.131 405.19 173.599 405.67 173.135C406.15 172.671 406.742 172.299 407.446 172.019C408.15 171.739 408.958 171.599 409.87 171.599C410.894 171.599 411.838 171.759 412.702 172.079C413.566 172.399 414.302 172.847 414.91 173.423L414.106 174.947ZM421.278 189.143H418.038V171.791H421.278V189.143ZM437.283 174.443H432.051V189.143H428.823V174.443H423.591V171.791H437.283V174.443ZM442.794 189.143H439.554V171.791H442.794V189.143ZM463.227 180.467C463.227 181.739 463.015 182.919 462.591 184.007C462.175 185.087 461.583 186.023 460.815 186.815C460.047 187.607 459.123 188.227 458.043 188.675C456.963 189.115 455.763 189.335 454.443 189.335C453.131 189.335 451.935 189.115 450.855 188.675C449.775 188.227 448.847 187.607 448.071 186.815C447.303 186.023 446.707 185.087 446.283 184.007C445.859 182.919 445.647 181.739 445.647 180.467C445.647 179.195 445.859 178.019 446.283 176.939C446.707 175.851 447.303 174.911 448.071 174.119C448.847 173.327 449.775 172.711 450.855 172.271C451.935 171.823 453.131 171.599 454.443 171.599C455.323 171.599 456.151 171.703 456.927 171.911C457.703 172.111 458.415 172.399 459.063 172.775C459.711 173.143 460.291 173.595 460.803 174.131C461.323 174.659 461.763 175.251 462.123 175.907C462.483 176.563 462.755 177.275 462.939 178.043C463.131 178.811 463.227 179.619 463.227 180.467ZM459.927 180.467C459.927 179.515 459.799 178.663 459.543 177.911C459.287 177.151 458.923 176.507 458.451 175.979C457.979 175.451 457.403 175.047 456.723 174.767C456.051 174.487 455.291 174.347 454.443 174.347C453.595 174.347 452.831 174.487 452.151 174.767C451.479 175.047 450.903 175.451 450.423 175.979C449.951 176.507 449.587 177.151 449.331 177.911C449.075 178.663 448.947 179.515 448.947 180.467C448.947 181.419 449.075 182.275 449.331 183.035C449.587 183.787 449.951 184.427 450.423 184.955C450.903 185.475 451.479 185.875 452.151 186.155C452.831 186.435 453.595 186.575 454.443 186.575C455.291 186.575 456.051 186.435 456.723 186.155C457.403 185.875 457.979 185.475 458.451 184.955C458.923 184.427 459.287 183.787 459.543 183.035C459.799 182.275 459.927 181.419 459.927 180.467ZM480.689 171.791V189.143H479.033C478.777 189.143 478.561 189.103 478.385 189.023C478.217 188.935 478.053 188.791 477.893 188.591L468.833 177.023C468.881 177.551 468.905 178.039 468.905 178.487V189.143H466.061V171.791H467.753C467.889 171.791 468.005 171.799 468.101 171.815C468.205 171.823 468.293 171.847 468.365 171.887C468.445 171.919 468.521 171.971 468.593 172.043C468.665 172.107 468.745 172.195 468.833 172.307L477.929 183.923C477.905 183.643 477.885 183.367 477.869 183.095C477.853 182.823 477.845 182.571 477.845 182.339V171.791H480.689Z" fill="black"/>
</g>
<g id="conjuction">
<rect id="Rectangle 8" x="289" y="225" width="205.398" height="60" rx="30" fill="#E4979B"/>
<path id="CONJUNCTION" d="M317.926 260.622C318.102 260.622 318.258 260.69 318.394 260.826L319.666 262.206C318.962 263.078 318.094 263.746 317.062 264.21C316.038 264.674 314.806 264.906 313.366 264.906C312.078 264.906 310.918 264.686 309.886 264.246C308.862 263.806 307.986 263.194 307.258 262.41C306.53 261.626 305.97 260.69 305.578 259.602C305.194 258.514 305.002 257.326 305.002 256.038C305.002 254.734 305.21 253.542 305.626 252.462C306.042 251.374 306.626 250.438 307.378 249.654C308.138 248.87 309.042 248.262 310.09 247.83C311.138 247.39 312.298 247.17 313.57 247.17C314.834 247.17 315.954 247.378 316.93 247.794C317.914 248.21 318.75 248.754 319.438 249.426L318.358 250.926C318.294 251.022 318.21 251.106 318.106 251.178C318.01 251.25 317.874 251.286 317.698 251.286C317.578 251.286 317.454 251.254 317.326 251.19C317.198 251.118 317.058 251.034 316.906 250.938C316.754 250.834 316.578 250.722 316.378 250.602C316.178 250.482 315.946 250.374 315.682 250.278C315.418 250.174 315.11 250.09 314.758 250.026C314.414 249.954 314.014 249.918 313.558 249.918C312.782 249.918 312.07 250.058 311.422 250.338C310.782 250.61 310.23 251.01 309.766 251.538C309.302 252.058 308.942 252.698 308.686 253.458C308.43 254.21 308.302 255.07 308.302 256.038C308.302 257.014 308.438 257.882 308.71 258.642C308.99 259.402 309.366 260.042 309.838 260.562C310.31 261.082 310.866 261.482 311.506 261.762C312.146 262.034 312.834 262.17 313.57 262.17C314.01 262.17 314.406 262.146 314.758 262.098C315.118 262.05 315.446 261.974 315.742 261.87C316.046 261.766 316.33 261.634 316.594 261.474C316.866 261.306 317.134 261.102 317.398 260.862C317.478 260.79 317.562 260.734 317.65 260.694C317.738 260.646 317.83 260.622 317.926 260.622ZM338.05 256.038C338.05 257.31 337.838 258.49 337.414 259.578C336.998 260.658 336.406 261.594 335.638 262.386C334.87 263.178 333.946 263.798 332.866 264.246C331.786 264.686 330.586 264.906 329.266 264.906C327.954 264.906 326.758 264.686 325.678 264.246C324.598 263.798 323.67 263.178 322.894 262.386C322.126 261.594 321.53 260.658 321.106 259.578C320.682 258.49 320.47 257.31 320.47 256.038C320.47 254.766 320.682 253.59 321.106 252.51C321.53 251.422 322.126 250.482 322.894 249.69C323.67 248.898 324.598 248.282 325.678 247.842C326.758 247.394 327.954 247.17 329.266 247.17C330.146 247.17 330.974 247.274 331.75 247.482C332.526 247.682 333.238 247.97 333.886 248.346C334.534 248.714 335.114 249.166 335.626 249.702C336.146 250.23 336.586 250.822 336.946 251.478C337.306 252.134 337.578 252.846 337.762 253.614C337.954 254.382 338.05 255.19 338.05 256.038ZM334.75 256.038C334.75 255.086 334.622 254.234 334.366 253.482C334.11 252.722 333.746 252.078 333.274 251.55C332.802 251.022 332.226 250.618 331.546 250.338C330.874 250.058 330.114 249.918 329.266 249.918C328.418 249.918 327.654 250.058 326.974 250.338C326.302 250.618 325.726 251.022 325.246 251.55C324.774 252.078 324.41 252.722 324.154 253.482C323.898 254.234 323.77 255.086 323.77 256.038C323.77 256.99 323.898 257.846 324.154 258.606C324.41 259.358 324.774 259.998 325.246 260.526C325.726 261.046 326.302 261.446 326.974 261.726C327.654 262.006 328.418 262.146 329.266 262.146C330.114 262.146 330.874 262.006 331.546 261.726C332.226 261.446 332.802 261.046 333.274 260.526C333.746 259.998 334.11 259.358 334.366 258.606C334.622 257.846 334.75 256.99 334.75 256.038ZM355.513 247.362V264.714H353.857C353.601 264.714 353.385 264.674 353.209 264.594C353.041 264.506 352.877 264.362 352.717 264.162L343.657 252.594C343.705 253.122 343.729 253.61 343.729 254.058V264.714H340.885V247.362H342.577C342.713 247.362 342.829 247.37 342.925 247.386C343.029 247.394 343.117 247.418 343.189 247.458C343.269 247.49 343.345 247.542 343.417 247.614C343.489 247.678 343.569 247.766 343.657 247.878L352.753 259.494C352.729 259.214 352.709 258.938 352.693 258.666C352.677 258.394 352.669 258.142 352.669 257.91V247.362H355.513ZM365.989 258.546C365.989 259.522 365.869 260.402 365.629 261.186C365.389 261.97 365.029 262.638 364.549 263.19C364.077 263.742 363.485 264.166 362.773 264.462C362.061 264.758 361.233 264.906 360.289 264.906C359.857 264.906 359.433 264.878 359.017 264.822C358.601 264.774 358.165 264.694 357.709 264.582C357.733 264.262 357.761 263.942 357.793 263.622C357.825 263.302 357.853 262.982 357.877 262.662C357.901 262.486 357.969 262.346 358.081 262.242C358.201 262.13 358.369 262.074 358.585 262.074C358.721 262.074 358.897 262.102 359.113 262.158C359.337 262.214 359.617 262.242 359.953 262.242C360.409 262.242 360.813 262.178 361.165 262.05C361.517 261.914 361.809 261.702 362.041 261.414C362.281 261.126 362.461 260.754 362.581 260.298C362.701 259.834 362.761 259.274 362.761 258.618V247.362H365.989V258.546ZM376.674 262.11C377.298 262.11 377.854 262.006 378.342 261.798C378.838 261.59 379.254 261.298 379.59 260.922C379.926 260.546 380.182 260.09 380.358 259.554C380.542 259.018 380.634 258.418 380.634 257.754V247.362H383.862V257.754C383.862 258.786 383.694 259.742 383.358 260.622C383.03 261.494 382.554 262.25 381.93 262.89C381.314 263.522 380.562 264.018 379.674 264.378C378.786 264.73 377.786 264.906 376.674 264.906C375.554 264.906 374.55 264.73 373.662 264.378C372.774 264.018 372.018 263.522 371.394 262.89C370.778 262.25 370.302 261.494 369.966 260.622C369.638 259.742 369.474 258.786 369.474 257.754V247.362H372.702V257.742C372.702 258.406 372.79 259.006 372.966 259.542C373.15 260.078 373.41 260.538 373.746 260.922C374.09 261.298 374.506 261.59 374.994 261.798C375.49 262.006 376.05 262.11 376.674 262.11ZM402.13 247.362V264.714H400.474C400.218 264.714 400.002 264.674 399.826 264.594C399.658 264.506 399.494 264.362 399.334 264.162L390.274 252.594C390.322 253.122 390.346 253.61 390.346 254.058V264.714H387.502V247.362H389.194C389.33 247.362 389.446 247.37 389.542 247.386C389.646 247.394 389.734 247.418 389.806 247.458C389.886 247.49 389.962 247.542 390.034 247.614C390.106 247.678 390.186 247.766 390.274 247.878L399.37 259.494C399.346 259.214 399.326 258.938 399.31 258.666C399.294 258.394 399.286 258.142 399.286 257.91V247.362H402.13ZM417.91 260.622C418.086 260.622 418.242 260.69 418.378 260.826L419.65 262.206C418.946 263.078 418.078 263.746 417.046 264.21C416.022 264.674 414.79 264.906 413.35 264.906C412.062 264.906 410.902 264.686 409.87 264.246C408.846 263.806 407.97 263.194 407.242 262.41C406.514 261.626 405.954 260.69 405.562 259.602C405.178 258.514 404.986 257.326 404.986 256.038C404.986 254.734 405.194 253.542 405.61 252.462C406.026 251.374 406.61 250.438 407.362 249.654C408.122 248.87 409.026 248.262 410.074 247.83C411.122 247.39 412.282 247.17 413.554 247.17C414.818 247.17 415.938 247.378 416.914 247.794C417.898 248.21 418.734 248.754 419.422 249.426L418.342 250.926C418.278 251.022 418.194 251.106 418.09 251.178C417.994 251.25 417.858 251.286 417.682 251.286C417.562 251.286 417.438 251.254 417.31 251.19C417.182 251.118 417.042 251.034 416.89 250.938C416.738 250.834 416.562 250.722 416.362 250.602C416.162 250.482 415.93 250.374 415.666 250.278C415.402 250.174 415.094 250.09 414.742 250.026C414.398 249.954 413.998 249.918 413.542 249.918C412.766 249.918 412.054 250.058 411.406 250.338C410.766 250.61 410.214 251.01 409.75 251.538C409.286 252.058 408.926 252.698 408.67 253.458C408.414 254.21 408.286 255.07 408.286 256.038C408.286 257.014 408.422 257.882 408.694 258.642C408.974 259.402 409.35 260.042 409.822 260.562C410.294 261.082 410.85 261.482 411.49 261.762C412.13 262.034 412.818 262.17 413.554 262.17C413.994 262.17 414.39 262.146 414.742 262.098C415.102 262.05 415.43 261.974 415.726 261.87C416.03 261.766 416.314 261.634 416.578 261.474C416.85 261.306 417.118 261.102 417.382 260.862C417.462 260.79 417.546 260.734 417.634 260.694C417.722 260.646 417.814 260.622 417.91 260.622ZM433.981 250.014H428.749V264.714H425.521V250.014H420.289V247.362H433.981V250.014ZM439.492 264.714H436.252V247.362H439.492V264.714ZM459.925 256.038C459.925 257.31 459.713 258.49 459.289 259.578C458.873 260.658 458.281 261.594 457.513 262.386C456.745 263.178 455.821 263.798 454.741 264.246C453.661 264.686 452.461 264.906 451.141 264.906C449.829 264.906 448.633 264.686 447.553 264.246C446.473 263.798 445.545 263.178 444.769 262.386C444.001 261.594 443.405 260.658 442.981 259.578C442.557 258.49 442.345 257.31 442.345 256.038C442.345 254.766 442.557 253.59 442.981 252.51C443.405 251.422 444.001 250.482 444.769 249.69C445.545 248.898 446.473 248.282 447.553 247.842C448.633 247.394 449.829 247.17 451.141 247.17C452.021 247.17 452.849 247.274 453.625 247.482C454.401 247.682 455.113 247.97 455.761 248.346C456.409 248.714 456.989 249.166 457.501 249.702C458.021 250.23 458.461 250.822 458.821 251.478C459.181 252.134 459.453 252.846 459.637 253.614C459.829 254.382 459.925 255.19 459.925 256.038ZM456.625 256.038C456.625 255.086 456.497 254.234 456.241 253.482C455.985 252.722 455.621 252.078 455.149 251.55C454.677 251.022 454.101 250.618 453.421 250.338C452.749 250.058 451.989 249.918 451.141 249.918C450.293 249.918 449.529 250.058 448.849 250.338C448.177 250.618 447.601 251.022 447.121 251.55C446.649 252.078 446.285 252.722 446.029 253.482C445.773 254.234 445.645 255.086 445.645 256.038C445.645 256.99 445.773 257.846 446.029 258.606C446.285 259.358 446.649 259.998 447.121 260.526C447.601 261.046 448.177 261.446 448.849 261.726C449.529 262.006 450.293 262.146 451.141 262.146C451.989 262.146 452.749 262.006 453.421 261.726C454.101 261.446 454.677 261.046 455.149 260.526C455.621 259.998 455.985 259.358 456.241 258.606C456.497 257.846 456.625 256.99 456.625 256.038ZM477.388 247.362V264.714H475.732C475.476 264.714 475.26 264.674 475.084 264.594C474.916 264.506 474.752 264.362 474.592 264.162L465.532 252.594C465.58 253.122 465.604 253.61 465.604 254.058V264.714H462.76V247.362H464.452C464.588 247.362 464.704 247.37 464.8 247.386C464.904 247.394 464.992 247.418 465.064 247.458C465.144 247.49 465.22 247.542 465.292 247.614C465.364 247.678 465.444 247.766 465.532 247.878L474.628 259.494C474.604 259.214 474.584 258.938 474.568 258.666C474.552 258.394 474.544 258.142 474.544 257.91V247.362H477.388Z" fill="black"/>
</g>
<path id="PARTS OF SPEECH" d="M29.6736 106.372C30.2656 106.372 30.7816 106.3 31.2216 106.156C31.6616 106.004 32.0256 105.792 32.3136 105.52C32.6096 105.24 32.8296 104.904 32.9736 104.512C33.1176 104.112 33.1896 103.668 33.1896 103.18C33.1896 102.716 33.1176 102.296 32.9736 101.92C32.8296 101.544 32.6136 101.224 32.3256 100.96C32.0376 100.696 31.6736 100.496 31.2336 100.36C30.7936 100.216 30.2736 100.144 29.6736 100.144H27.2616V106.372H29.6736ZM29.6736 97.648C30.8336 97.648 31.8376 97.784 32.6856 98.056C33.5336 98.328 34.2336 98.708 34.7856 99.196C35.3376 99.684 35.7456 100.268 36.0096 100.948C36.2816 101.628 36.4176 102.372 36.4176 103.18C36.4176 104.02 36.2776 104.792 35.9976 105.496C35.7176 106.192 35.2976 106.792 34.7376 107.296C34.1776 107.8 33.4736 108.192 32.6256 108.472C31.7856 108.752 30.8016 108.892 29.6736 108.892H27.2616V115H24.0336V97.648H29.6736ZM46.8422 108.448L44.7302 102.676C44.6262 102.42 44.5182 102.116 44.4062 101.764C44.2942 101.412 44.1822 101.032 44.0702 100.624C43.9662 101.032 43.8582 101.416 43.7462 101.776C43.6342 102.128 43.5262 102.436 43.4222 102.7L41.3222 108.448H46.8422ZM52.5422 115H50.0462C49.7662 115 49.5382 114.932 49.3622 114.796C49.1862 114.652 49.0542 114.476 48.9662 114.268L47.6702 110.728H40.4822L39.1862 114.268C39.1222 114.452 38.9982 114.62 38.8142 114.772C38.6302 114.924 38.4022 115 38.1302 115H35.6102L42.4382 97.648H45.7262L52.5422 115ZM59.5823 105.904C60.1903 105.904 60.7183 105.828 61.1663 105.676C61.6223 105.524 61.9943 105.316 62.2823 105.052C62.5783 104.78 62.7983 104.46 62.9423 104.092C63.0863 103.724 63.1583 103.32 63.1583 102.88C63.1583 102 62.8663 101.324 62.2823 100.852C61.7063 100.38 60.8223 100.144 59.6303 100.144H57.5663V105.904H59.5823ZM67.8863 115H64.9703C64.4183 115 64.0183 114.784 63.7703 114.352L60.1223 108.796C59.9863 108.588 59.8343 108.44 59.6663 108.352C59.5063 108.264 59.2663 108.22 58.9463 108.22H57.5663V115H54.3383V97.648H59.6303C60.8063 97.648 61.8143 97.772 62.6543 98.02C63.5023 98.26 64.1943 98.6 64.7303 99.04C65.2743 99.48 65.6743 100.008 65.9303 100.624C66.1863 101.232 66.3143 101.904 66.3143 102.64C66.3143 103.224 66.2263 103.776 66.0503 104.296C65.8823 104.816 65.6343 105.288 65.3063 105.712C64.9863 106.136 64.5863 106.508 64.1063 106.828C63.6343 107.148 63.0943 107.4 62.4863 107.584C62.6943 107.704 62.8863 107.848 63.0623 108.016C63.2383 108.176 63.3983 108.368 63.5423 108.592L67.8863 115ZM81.4348 100.3H76.2028V115H72.9748V100.3H67.7428V97.648H81.4348V100.3ZM92.8986 100.804C92.8026 100.972 92.6986 101.096 92.5866 101.176C92.4826 101.248 92.3506 101.284 92.1906 101.284C92.0226 101.284 91.8386 101.224 91.6386 101.104C91.4466 100.976 91.2146 100.836 90.9426 100.684C90.6706 100.532 90.3506 100.396 89.9826 100.276C89.6226 100.148 89.1946 100.084 88.6986 100.084C88.2506 100.084 87.8586 100.14 87.5226 100.252C87.1866 100.356 86.9026 100.504 86.6706 100.696C86.4466 100.888 86.2786 101.12 86.1666 101.392C86.0546 101.656 85.9986 101.948 85.9986 102.268C85.9986 102.676 86.1106 103.016 86.3346 103.288C86.5666 103.56 86.8706 103.792 87.2466 103.984C87.6226 104.176 88.0506 104.348 88.5306 104.5C89.0106 104.652 89.5026 104.816 90.0066 104.992C90.5106 105.16 91.0026 105.36 91.4826 105.592C91.9626 105.816 92.3906 106.104 92.7666 106.456C93.1426 106.8 93.4426 107.224 93.6666 107.728C93.8986 108.232 94.0146 108.844 94.0146 109.564C94.0146 110.348 93.8786 111.084 93.6066 111.772C93.3426 112.452 92.9506 113.048 92.4306 113.56C91.9186 114.064 91.2906 114.464 90.5466 114.76C89.8026 115.048 88.9506 115.192 87.9906 115.192C87.4386 115.192 86.8946 115.136 86.3586 115.024C85.8226 114.92 85.3066 114.768 84.8106 114.568C84.3226 114.368 83.8626 114.128 83.4306 113.848C82.9986 113.568 82.6146 113.256 82.2786 112.912L83.2266 111.364C83.3066 111.252 83.4106 111.16 83.5386 111.088C83.6666 111.008 83.8026 110.968 83.9466 110.968C84.1466 110.968 84.3626 111.052 84.5946 111.22C84.8266 111.38 85.1026 111.56 85.4226 111.76C85.7426 111.96 86.1146 112.144 86.5386 112.312C86.9706 112.472 87.4866 112.552 88.0866 112.552C89.0066 112.552 89.7186 112.336 90.2226 111.904C90.7266 111.464 90.9786 110.836 90.9786 110.02C90.9786 109.564 90.8626 109.192 90.6306 108.904C90.4066 108.616 90.1066 108.376 89.7306 108.184C89.3546 107.984 88.9266 107.816 88.4466 107.68C87.9666 107.544 87.4786 107.396 86.9826 107.236C86.4866 107.076 85.9986 106.884 85.5186 106.66C85.0386 106.436 84.6106 106.144 84.2346 105.784C83.8586 105.424 83.5546 104.976 83.3226 104.44C83.0986 103.896 82.9866 103.228 82.9866 102.436C82.9866 101.804 83.1106 101.188 83.3586 100.588C83.6146 99.988 83.9826 99.456 84.4626 98.992C84.9426 98.528 85.5346 98.156 86.2386 97.876C86.9426 97.596 87.7506 97.456 88.6626 97.456C89.6866 97.456 90.6306 97.616 91.4946 97.936C92.3586 98.256 93.0946 98.704 93.7026 99.28L92.8986 100.804ZM60.7847 135.324C60.7847 136.596 60.5727 137.776 60.1487 138.864C59.7327 139.944 59.1407 140.88 58.3727 141.672C57.6047 142.464 56.6807 143.084 55.6007 143.532C54.5207 143.972 53.3207 144.192 52.0007 144.192C50.6887 144.192 49.4927 143.972 48.4127 143.532C47.3327 143.084 46.4047 142.464 45.6287 141.672C44.8607 140.88 44.2647 139.944 43.8407 138.864C43.4167 137.776 43.2047 136.596 43.2047 135.324C43.2047 134.052 43.4167 132.876 43.8407 131.796C44.2647 130.708 44.8607 129.768 45.6287 128.976C46.4047 128.184 47.3327 127.568 48.4127 127.128C49.4927 126.68 50.6887 126.456 52.0007 126.456C52.8807 126.456 53.7087 126.56 54.4847 126.768C55.2607 126.968 55.9727 127.256 56.6207 127.632C57.2687 128 57.8487 128.452 58.3607 128.988C58.8807 129.516 59.3207 130.108 59.6807 130.764C60.0407 131.42 60.3127 132.132 60.4967 132.9C60.6887 133.668 60.7847 134.476 60.7847 135.324ZM57.4847 135.324C57.4847 134.372 57.3567 133.52 57.1007 132.768C56.8447 132.008 56.4807 131.364 56.0087 130.836C55.5367 130.308 54.9607 129.904 54.2807 129.624C53.6087 129.344 52.8487 129.204 52.0007 129.204C51.1527 129.204 50.3887 129.344 49.7087 129.624C49.0367 129.904 48.4607 130.308 47.9807 130.836C47.5087 131.364 47.1447 132.008 46.8887 132.768C46.6327 133.52 46.5047 134.372 46.5047 135.324C46.5047 136.276 46.6327 137.132 46.8887 137.892C47.1447 138.644 47.5087 139.284 47.9807 139.812C48.4607 140.332 49.0367 140.732 49.7087 141.012C50.3887 141.292 51.1527 141.432 52.0007 141.432C52.8487 141.432 53.6087 141.292 54.2807 141.012C54.9607 140.732 55.5367 140.332 56.0087 139.812C56.4807 139.284 56.8447 138.644 57.1007 137.892C57.3567 137.132 57.4847 136.276 57.4847 135.324ZM66.8595 129.216V134.352H73.3635V136.932H66.8595V144H63.6195V126.648H74.5635V129.216H66.8595ZM24.8595 158.804C24.7635 158.972 24.6595 159.096 24.5475 159.176C24.4435 159.248 24.3115 159.284 24.1515 159.284C23.9835 159.284 23.7995 159.224 23.5995 159.104C23.4075 158.976 23.1755 158.836 22.9035 158.684C22.6315 158.532 22.3115 158.396 21.9435 158.276C21.5835 158.148 21.1555 158.084 20.6595 158.084C20.2115 158.084 19.8195 158.14 19.4835 158.252C19.1475 158.356 18.8635 158.504 18.6315 158.696C18.4075 158.888 18.2395 159.12 18.1275 159.392C18.0155 159.656 17.9595 159.948 17.9595 160.268C17.9595 160.676 18.0715 161.016 18.2955 161.288C18.5275 161.56 18.8315 161.792 19.2075 161.984C19.5835 162.176 20.0115 162.348 20.4915 162.5C20.9715 162.652 21.4635 162.816 21.9675 162.992C22.4715 163.16 22.9635 163.36 23.4435 163.592C23.9235 163.816 24.3515 164.104 24.7275 164.456C25.1035 164.8 25.4035 165.224 25.6275 165.728C25.8595 166.232 25.9755 166.844 25.9755 167.564C25.9755 168.348 25.8395 169.084 25.5675 169.772C25.3035 170.452 24.9115 171.048 24.3915 171.56C23.8795 172.064 23.2515 172.464 22.5075 172.76C21.7635 173.048 20.9115 173.192 19.9515 173.192C19.3995 173.192 18.8555 173.136 18.3195 173.024C17.7835 172.92 17.2675 172.768 16.7715 172.568C16.2835 172.368 15.8235 172.128 15.3915 171.848C14.9595 171.568 14.5755 171.256 14.2395 170.912L15.1875 169.364C15.2675 169.252 15.3715 169.16 15.4995 169.088C15.6275 169.008 15.7635 168.968 15.9075 168.968C16.1075 168.968 16.3235 169.052 16.5555 169.22C16.7875 169.38 17.0635 169.56 17.3835 169.76C17.7035 169.96 18.0755 170.144 18.4995 170.312C18.9315 170.472 19.4475 170.552 20.0475 170.552C20.9675 170.552 21.6795 170.336 22.1835 169.904C22.6875 169.464 22.9395 168.836 22.9395 168.02C22.9395 167.564 22.8235 167.192 22.5915 166.904C22.3675 166.616 22.0675 166.376 21.6915 166.184C21.3155 165.984 20.8875 165.816 20.4075 165.68C19.9275 165.544 19.4395 165.396 18.9435 165.236C18.4475 165.076 17.9595 164.884 17.4795 164.66C16.9995 164.436 16.5715 164.144 16.1955 163.784C15.8195 163.424 15.5155 162.976 15.2835 162.44C15.0595 161.896 14.9475 161.228 14.9475 160.436C14.9475 159.804 15.0715 159.188 15.3195 158.588C15.5755 157.988 15.9435 157.456 16.4235 156.992C16.9035 156.528 17.4955 156.156 18.1995 155.876C18.9035 155.596 19.7115 155.456 20.6235 155.456C21.6475 155.456 22.5915 155.616 23.4555 155.936C24.3195 156.256 25.0555 156.704 25.6635 157.28L24.8595 158.804ZM34.4314 164.372C35.0234 164.372 35.5394 164.3 35.9794 164.156C36.4194 164.004 36.7834 163.792 37.0714 163.52C37.3674 163.24 37.5874 162.904 37.7314 162.512C37.8754 162.112 37.9474 161.668 37.9474 161.18C37.9474 160.716 37.8754 160.296 37.7314 159.92C37.5874 159.544 37.3714 159.224 37.0834 158.96C36.7954 158.696 36.4314 158.496 35.9914 158.36C35.5514 158.216 35.0314 158.144 34.4314 158.144H32.0194V164.372H34.4314ZM34.4314 155.648C35.5914 155.648 36.5954 155.784 37.4434 156.056C38.2914 156.328 38.9914 156.708 39.5434 157.196C40.0954 157.684 40.5034 158.268 40.7674 158.948C41.0394 159.628 41.1754 160.372 41.1754 161.18C41.1754 162.02 41.0354 162.792 40.7554 163.496C40.4754 164.192 40.0554 164.792 39.4954 165.296C38.9354 165.8 38.2314 166.192 37.3834 166.472C36.5434 166.752 35.5594 166.892 34.4314 166.892H32.0194V173H28.7914V155.648H34.4314ZM46.8908 158.216V163.028H52.9628V165.512H46.8908V170.42H54.5948V173H43.6508V155.648H54.5948V158.216H46.8908ZM60.6954 158.216V163.028H66.7674V165.512H60.6954V170.42H68.3994V173H57.4554V155.648H68.3994V158.216H60.6954ZM82.8011 168.908C82.9771 168.908 83.1331 168.976 83.2691 169.112L84.5411 170.492C83.8371 171.364 82.9691 172.032 81.9371 172.496C80.9131 172.96 79.6811 173.192 78.2411 173.192C76.9531 173.192 75.7931 172.972 74.7611 172.532C73.7371 172.092 72.8611 171.48 72.1331 170.696C71.4051 169.912 70.8451 168.976 70.4531 167.888C70.0691 166.8 69.8771 165.612 69.8771 164.324C69.8771 163.02 70.0851 161.828 70.5011 160.748C70.9171 159.66 71.5011 158.724 72.2531 157.94C73.0131 157.156 73.9171 156.548 74.9651 156.116C76.0131 155.676 77.1731 155.456 78.4451 155.456C79.7091 155.456 80.8291 155.664 81.8051 156.08C82.7891 156.496 83.6251 157.04 84.3131 157.712L83.2331 159.212C83.1691 159.308 83.0851 159.392 82.9811 159.464C82.8851 159.536 82.7491 159.572 82.5731 159.572C82.4531 159.572 82.3291 159.54 82.2011 159.476C82.0731 159.404 81.9331 159.32 81.7811 159.224C81.6291 159.12 81.4531 159.008 81.2531 158.888C81.0531 158.768 80.8211 158.66 80.5571 158.564C80.2931 158.46 79.9851 158.376 79.6331 158.312C79.2891 158.24 78.8891 158.204 78.4331 158.204C77.6571 158.204 76.9451 158.344 76.2971 158.624C75.6571 158.896 75.1051 159.296 74.6411 159.824C74.1771 160.344 73.8171 160.984 73.5611 161.744C73.3051 162.496 73.1771 163.356 73.1771 164.324C73.1771 165.3 73.3131 166.168 73.5851 166.928C73.8651 167.688 74.2411 168.328 74.7131 168.848C75.1851 169.368 75.7411 169.768 76.3811 170.048C77.0211 170.32 77.7091 170.456 78.4451 170.456C78.8851 170.456 79.2811 170.432 79.6331 170.384C79.9931 170.336 80.3211 170.26 80.6171 170.156C80.9211 170.052 81.2051 169.92 81.4691 169.76C81.7411 169.592 82.0091 169.388 82.2731 169.148C82.3531 169.076 82.4371 169.02 82.5251 168.98C82.6131 168.932 82.7051 168.908 82.8011 168.908ZM101.38 155.648V173H98.1403V165.416H89.9923V173H86.7523V155.648H89.9923V163.112H98.1403V155.648H101.38Z" fill="black"/>
</g>
</svg>
