<svg width="605" height="570" viewBox="0 0 605 570" fill="none" xmlns="http://www.w3.org/2000/svg">
    <g id="blob group">
        <path id="big" fill-rule="evenodd" clip-rule="evenodd"
            d="M316.512 0.240274C432.035 3.80446 531.889 73.7296 572.011 182.12C618.381 307.386 625.99 463.893 516.419 540.286C410.674 614.01 280.193 534.43 176.466 457.893C76.1037 383.84 -29.0971 283.967 7.3994 164.7C45.1568 41.3134 187.538 -3.73888 316.512 0.240274Z"
            fill="#2BC1EE" />
        <path id="small" fill-rule="evenodd" clip-rule="evenodd"
            d="M313.142 110.046C376.392 108.94 449.072 127.664 465.722 188.691C481.172 245.318 414.6 278.204 369.159 315.361C306.636 366.484 246.879 466.561 178.546 423.509C106.901 378.37 142.73 271.559 176.139 193.752C199.483 139.387 253.983 111.08 313.142 110.046Z"
            fill="#F7C141" />
    </g>
</svg>